<svg xmlns="http://www.w3.org/2000/svg" width="458.645" height="314.324" viewBox="0 0 458.645 314.324">
    <defs>
        <style>
            .cls-1{fill:url(#radial-gradient)}.cls-2{fill:#0f81dc}
        </style>
        <radialGradient id="radial-gradient" cx=".48" cy=".5" r="1.344" gradientTransform="matrix(.566 -.565 .371 .792 .023 .375)">
            <stop offset="0" stop-color="#030404"/>
            <stop offset=".393" stop-color="#051826"/>
            <stop offset="1" stop-color="#0f81dc"/>
        </radialGradient>
    </defs>
    <g id="Group_2492" data-name="Group 2492" transform="translate(-768.355 -1494)">
        <g id="Group_2488" data-name="Group 2488">
            <path id="Rectangle_534" d="M10 0h438.645a10 10 0 0 1 10 10v304.324H0V10A10 10 0 0 1 10 0z" class="cls-1" data-name="Rectangle 534" transform="translate(768.355 1494)"/>
        </g>
        <g id="Group_2490" data-name="Group 2490" transform="translate(1176.778 960.682)">
            <path id="Path_7549" d="M196.533 486.837c4-.167 3.988-.477 5.381 4.092.488-5.245 3.219-6.718 7.27-6.609l1.127 4.12.907-.027a18 18 0 0 1 .049-3.629c.305-1.452 1.131-2.795 1.433-4.246.272-1.306.608-2.956.044-3.969a4.16 4.16 0 0 0-3.363-1.494c-4.96.393-9.89 1.155-14.842 1.68-5.129.544-5.307.716-4.77 6.057a5.508 5.508 0 0 1-.343 1.381 25.328 25.328 0 0 1-2.045-1.513c-.626-.57-1.159-1.242-2.073-2.241-.251 1.426-.441 2.517-.64 3.6-.354-.312-1.042-.676-1-.908 1.046-5.718 1.792-11.537 3.462-17.074.675-2.235 3.4-3.851 5.2-5.748l1.1.813-1.977 8.97 8.807-.8c-4.623-2.494-2.35-5.335-1.713-7.777.648-2.488 2.537-3.356 5.153-2.895a17.729 17.729 0 0 1 15.087 18.037c-.023 1.963-.581 4.008-.195 5.87 1.281 6.163-2.832 9.061-6.863 12.067-1.264.943-2.817 1.553-3.935 2.63-5.3 5.1-5.45 5.167-11.935 1.641-.129-.07-.419.155-1.765.7 2.482 1.594 4.348 2.829 6.252 4a42.224 42.224 0 0 1 4.976 2.98c2.783 2.308 4.785 2.454 6.612-.714a44.711 44.711 0 0 0 4.283-10.437c.81-2.955 2.062-5.007 5.166-5.281a158.818 158.818 0 0 1 16.718-1c2.2.039 5.374 1.266 6.352 2.962 3.153 5.472 4.909 11.5 2.833 17.953-.533 1.656-1.02 3.328-1.528 4.991a8.023 8.023 0 0 0 2.723-3.431c1.253-2.912 3.028-3.144 5.378-1.292 2.935 2.314 4.885 5.663 8.9 6.923 2.37.745 4.452 3.023 6.163 5.036a10.1 10.1 0 0 1 1.906 5.23c.061.534-1.962 1.306-2.666 1.743.587 1.11 1.951 2.456 1.774 3.557-1.071 6.672-1.473 13.735-8.107 17.952-3.616 2.3-7.272 4.563-10.7 7.128-3.465 2.6-7.946 2.711-11.145-.141-4.149 1.95-8.136 1.045-9.953-2.5l3.136.334c-1.262-4.827-1.262-4.827-4.89-2.378-2.065-7.071 1.188-13.948 8.464-17.893 6.237-3.381 12.187-3.435 14.646-.591-2.963.711-6.389 1.052-9.371 2.388-2.922 1.308-3.718 5.839-2.237 8.745 1.735 3.4 4.456 2.17 7.037 1.493a4.419 4.419 0 0 0 2.007-.874c1.023-1.042 2.7-2.415 2.535-3.389-.182-1.086-2.033-2.005-3.3-2.765a25.922 25.922 0 0 0-3.9-1.513c6-4.685 10.194 1.9 15.731 1.15-4.965-4.123-3.966-9.006-3.41-14.11-4.174 5.172-8.1 2.8-12 .408-1.462-.9-2.815-1.974-4.286-2.853-2.2-1.315-2.787-2.571-.393-4.372a10.739 10.739 0 0 0 2.859-3.312c.417-.755.466-2.473.021-2.771a3.228 3.228 0 0 0-2.955-.064c-.969.647-1.492 1.961-2.456 3.348l-2.261-6.94-1.934.357c.358 3.429.679 6.862 1.085 10.285.452 3.815 1.553 7.666 1.25 11.409-.16 1.975-2.584 3.871-4.2 5.6a18.924 18.924 0 0 0-5.165 15.86c.6 5.042 4.7 6.468 8.544 8.146a4.8 4.8 0 0 1 .939.819l-2.337 4.924c1.819-1.015 2.841-1.581 3.86-2.156 5.265-2.97 9.518-.765 9.332 5.32-.1 3.169-1.337 6.436-2.647 9.4-1.325 2.995-.416 3.933 2.519 4.269a34.224 34.224 0 0 1 .76-5.254c.923-3.016 4.456-4.73 5.657-2.824a49.629 49.629 0 0 1 7.469 22.782 1.716 1.716 0 0 1-.292 1.053c-2 2.788-.861 5.239.553 7.853 1.726 3.19 1.309 6.577.772 10.639-5.244-7.174-9.715-13.758-14.669-19.957-7.458-9.332-13.893-13.949-18.945-14.047 5.456 2.967 10.969 5.688 12.947 11.7 2.008 6.107 5.335 10.454 10.58 14.552s12.99 8.983 8.155 18.671l2.967-3.46a16.675 16.675 0 0 0 3.063 2.648c8.509 4.268 13.628 11.646 18.685 19.313 2.062 3.126 5.52 5.423 8.6 7.753 2.4 1.815 5.538 2.735 7.733 4.728 1.762 1.6 2.6 4.214 3.963 6.568a4.27 4.27 0 0 1-.2 5.779 7.1 7.1 0 0 1-4.754 2.153c-3.82.138-5.055-3.269-6.858-5.844a17.463 17.463 0 0 0-3.215-3.631c-2.427-1.955-5.032-3.689-7.525-5.488l3.525-6.138-10.163-3.8 4.857 7.886-.9.658c-9-5.8-19.662-9.193-26.578-18.863l4.994-2.25c-2.307-.408-5.475-.056-6.353-1.308-2.056-2.935-4.927-4.325-7.517-6.371-2.7-2.138-4.242-5.878-5.979-9.085-1.771-3.271-1.417-6.624.589-9.79a10.508 10.508 0 0 0 .708-1.691l-.754-.714c-1.782 1.361-4.851 2.541-5.072 4.12-.438 3.138.692 6.493 1.216 10.041-7.086-3.344-14.312-8.132-22.652-3.361.554 2.4 1.086 4.51 1.526 6.642.735 3.564-1.416 5.452-4.832 4.286-3.686-1.258-6.319-6.186-5.641-10.9.5-3.486-.075-6.417-2.681-9.07-2.036-2.072-2.868-4.609-.72-7.427 1.973-2.589 4.487-2.292 6.53-.935a65.274 65.274 0 0 1 9.561 7.794c2.411 2.37 4.669 4.541 8.843 4.635-1.193-.855-1.9-1.3-2.538-1.83-8.833-7.265-15.273-16.569-21.48-25.968-1.615-2.445-1.586-6.035-2.085-9.135-.347-2.158.925-3.028 3.046-3.119a96.162 96.162 0 0 0 11.377-.827c4.571-.746 9.057-2.02 13.581-3.065l-.273-1.27c-1.032.174-2.06.393-3.1.514-6.794.8-13.581 1.711-20.4 2.252-1.413.113-3.823-.8-4.266-1.871-2.645-6.385-4.847-12.952-7.4-20.011l19.067 5.773.3-.989c-4.454-2.2-9.079-4.117-13.316-6.676a31.316 31.316 0 0 1-10.772-10.856l4.232-3.338-6.692-.307v-3.768c-3.13 3.291-6.014 6.232-8.784 9.278-1.126 1.237-2.508 2.568-2.905 4.084-1.73 6.6-3.042 13.316-4.7 19.939-1.095 4.37 1.2 9.392-3.084 13.639 4.865-2.188 5.571.966 6.432 3.953.54 1.874 1.242 3.707 1.672 5.6a10.27 10.27 0 0 1-.136 2.8c-.961-.359-2.142-.484-2.83-1.133a20.832 20.832 0 0 1-2.479-3.649c-2.476 3.5-1.482 5.643.87 7.876.917.871 1 2.616 1.47 3.963-1.345.091-2.9.672-4 .191-5.464-2.405-8.386-6.83-8.323-12.75.1-9.3 1.466-18.6-.577-27.87-.519-2.356.714-3.976 3.283-4.414a34.991 34.991 0 0 0 3.816-1.083c-2.832-.765-6.792-.17-7.7-1.564-1.261-1.935-.231-5.363-.175-8.519l9.2 2.45c-2.074-2.976-6.469-3.211-6.137-8.468l5.226 3.32c-2.646-3.443-2.758-6.631-.643-10.144 1.029-1.709 1.952-2.18 3.8-1.056 3.027 1.843 6.17 3.51 9.354 5.067.808.395 1.957.094 2.95.113-.5-.981-.743-2.411-1.542-2.866-3.294-1.875-6.839-3.31-10.114-5.214a6.852 6.852 0 0 1-3.15-3.545c-2.678-10.42 7.267-23.035 17.569-22.354 2.555.169 4.174.763 5.77 2.925 1.975 2.676 4.319 5.683 7.2 6.957 5.76 2.543 9.311 6.069 9.454 12.538 0 .154.343.3.892.748 4.091-2.352 7.009-5.746 9.137-10.942l-7.838 6.319c-1.532-5.79-5.244-8.2-9.423-10.292a16.962 16.962 0 0 1-4.509-3.633 30.705 30.705 0 0 1-7.956-17.41c3.015 4.883 7.786 3.103 11.955 2.93zm50.036 65.983l-.1-.843-7.556-.893-1.068 5.05z" class="cls-2" data-name="Path 7549" transform="translate(-428.304 129.857)"/>
        </g>
    </g>
</svg>
