<svg xmlns="http://www.w3.org/2000/svg" width="458.645" height="314.324" viewBox="0 0 458.645 314.324">
    <defs>
        <style>
            .cls-1{fill:url(#radial-gradient)}.cls-2{fill:#040c10;stroke:rgba(0,0,0,0);stroke-miterlimit:10}
        </style>
        <radialGradient id="radial-gradient" cx=".5" cy=".5" r="1.024" gradientTransform="matrix(.578 -.537 .341 .781 .041 .378)">
            <stop offset="0" stop-color="#0f81dc"/>
            <stop offset="1" stop-color="#030404"/>
        </radialGradient>
    </defs>
    <g id="Group_2491" data-name="Group 2491" transform="translate(-132 -1494)">
        <g id="Group_2487" data-name="Group 2487">
            <path id="Rectangle_534" d="M10 0h438.645a10 10 0 0 1 10 10v304.324H0V10A10 10 0 0 1 10 0z" class="cls-1" data-name="Rectangle 534" transform="translate(132 1494)"/>
        </g>
        <g id="Group_2489" data-name="Group 2489" transform="translate(-212.996 1445.676)">
            <path id="Path_7547" d="M482.515 221.84a15.783 15.783 0 0 1-.266 3.9c-.413 2.036-1.4 3.974-1.356 6.118.05 1.739 1.653 3.408 2.715 4.606.047.058.094.114.141.175a7.983 7.983 0 0 0-.616 1.112 17.249 17.249 0 0 0-.732 2.61c-.053.258-.1.519-.15.779a5.332 5.332 0 0 0 .516.738 9.335 9.335 0 0 0 1.029 1.107 1.3 1.3 0 0 0 .263.169c.133-.316.275-.63.427-.923.341-.682.71-1.351 1.06-2.024a5.234 5.234 0 0 0 1.07 1.45 22.971 22.971 0 0 0 3.136 2.354c.064 3.342.116 6.891-.984 10.028-1.34 3.841-1.018 7.368-1.17 11.37-.092 2.4 1.059 2.607 2.707 3.317a7.947 7.947 0 0 0 .322 1.328 8.648 8.648 0 0 0 1.672 2.923 12.448 12.448 0 0 0 3.439 2.568 10.9 10.9 0 0 0-1.22 2.4 4.25 4.25 0 0 0 .069 2.113 2.811 2.811 0 0 0-1.958 2.18 4.26 4.26 0 0 0 .355 2.856c-.951 1.353-1.85 2.748-2.756 4.124-.582.9-1.4.7-2.124 1.459a3.184 3.184 0 0 0-.827 2.41c-.2.222-.391.48-.546.671a8.624 8.624 0 0 1-1.523 1.375 3.106 3.106 0 0 0-.987 1.661 3.434 3.434 0 0 0-.053 1.167 1.309 1.309 0 0 0 .017.177 1.1 1.1 0 0 0-.078.083c-.241.3-.541.6-.757.926a4.072 4.072 0 0 0-.524 1.778 3.34 3.34 0 0 0 .538 2.7c-.7 1.4-.075 3.444.976 4.681a6.962 6.962 0 0 0 .854 5.117 18.777 18.777 0 0 0 3.616 4.5c3.724 3.134 6.132-1.1 7.929-4.182a19.335 19.335 0 0 0 1.179-2.407 1.28 1.28 0 0 1 .219-.574c.366-.6 1.068-1.362 1.356-1.825.957-1.534 1.589-3.317 2.671-4.767a23.85 23.85 0 0 1 2.845-3.136 2.6 2.6 0 0 0 .923.3c.541.008 1.187-.746 1.617-1.043 2.085-1.45 3.461-3.453 5.3-5.208a17.316 17.316 0 0 0 2.329-2.4c.46-.652 1.373-1.359 1.905-2.049a6.322 6.322 0 0 0 .951.444 14.342 14.342 0 0 0 2.352.563 1.453 1.453 0 0 0 1.844-1.043c.136-.322.294-.666.435-1.018.721.1 1.434.233 2.16.313a28.094 28.094 0 0 0 7.285.036c2.36-.383 3.458-2.532 4.52-4.6a9.338 9.338 0 0 0 2.565-.749 11.687 11.687 0 0 0 3.289-2.257 8.988 8.988 0 0 1 3.04-2.03 7.089 7.089 0 0 0 2.709-1.706 20.072 20.072 0 0 0 1.517-1.93v-.006a19.848 19.848 0 0 0 1.886-1.234 9.022 9.022 0 0 0 1.705-2.246 7.823 7.823 0 0 1 2.671-2.21c.527-.3 1.206-.693 1.883-1.018-.011 1.3.286 2.623-.446 3.838a9.321 9.321 0 0 0-1.265 3.22.72.72 0 0 0-.807.078 6.893 6.893 0 0 0-1.445 2.391 18.83 18.83 0 0 0-2.074 5.463c-.028.255-.053.524-.069.8-.352.643-.69 1.5-.987 2.036-.48.865-1.137 1.6-1.672 2.4a25.467 25.467 0 0 0-2.676 5.691c-.08.222-.169.438-.252.66-1.525-.685-2.011 1.486-2.543 2.956-.652 1.847-1.667 4.154-1.262 6.19a6.969 6.969 0 0 0 .519 1.45 6.646 6.646 0 0 0-.81 2.177c-.352 2.41 1.6 3.791 3.375 4.848s3.819 1.506 5.341.136a3.286 3.286 0 0 0 3.123 1.387c.71-.042 1.475-.044 1.78-.782a5.836 5.836 0 0 0 .205-1.894c.94.147 1.852.446 2.84.541.735.075 1.844.008 2.748.166a4.733 4.733 0 0 0 2.183 1.88 2.947 2.947 0 0 0 2.463-.483 5.5 5.5 0 0 0 1.284 1.007 5.627 5.627 0 0 0 1.952.194 4.863 4.863 0 0 0 1.944-.294 3.659 3.659 0 0 0 .8-.527 2.223 2.223 0 0 0 1.015.585 6.659 6.659 0 0 0 2.108-.164 3.474 3.474 0 0 0 2.385-1.47 1.9 1.9 0 0 0 .86.557 6.722 6.722 0 0 0 2.177-.252 3.458 3.458 0 0 0 1.47-1.037c.291-.266.66-.466.976-.713a2.162 2.162 0 0 0 2.607-.075 1.691 1.691 0 0 0 .813-1.692c1.636-2.843 1.794-6.309-.771-8.736-2.454-2.316-6.248-2.041-9.3-2.346a19.1 19.1 0 0 1-4.046-.882 3.942 3.942 0 0 0-.8-1.57 6.958 6.958 0 0 0-2.2-1.026 39.546 39.546 0 0 1-3.647-2.249c.125-.433.244-.871.375-1.353a4.872 4.872 0 0 1 1.522-2.418c.316-.263.735-.4.987-.76a12.605 12.605 0 0 0 .449-1.184c.485-.926 1.431-1.448 2.036-2.28a2.316 2.316 0 0 0-.239-2.415c.177-.05.352-.1.527-.152a5.943 5.943 0 0 0 3.577-2.413 45.984 45.984 0 0 1 4.5-5.6c3.675-3.827 5.086-8.924 7.7-13.517 2.26-3.977 4.922-8.217 5.957-12.785.5-2.191.743-4.468 1.018-6.7a12.885 12.885 0 0 0-.28-6.118 29.274 29.274 0 0 0-2.557-4.454 12.487 12.487 0 0 0-2.268-2.834l.006-.011a15.833 15.833 0 0 0 1.106-2.133 14.168 14.168 0 0 1 2.485-4.226 11.739 11.739 0 0 0 2.679-2.9c.632-1.19.765-2.551 1.423-3.766a29.925 29.925 0 0 0 1.814-4.041 29.184 29.184 0 0 1 2-4 37.848 37.848 0 0 0 1.969-3.982 35.213 35.213 0 0 1 1.464-3.844c.652-1.217 2.085-2.246 2.293-3.672a5.9 5.9 0 0 0-.568-2.709 34.068 34.068 0 0 1 2.568-2.252c2.344-2.058 5.852-1.1 7.926-3.528a3.087 3.087 0 0 0 .677-1.941c.13-.857.588-1.2.926-1.933.577-1.24.108-2.268-.316-3.356a5.386 5.386 0 0 0 .7-3.139 8.888 8.888 0 0 0-1.237-3.874 2.022 2.022 0 0 0 .516-2.327c-.253-.677-.9-1.511-1.146-2.271a2.3 2.3 0 0 0 1.708-.272 2.087 2.087 0 0 0 2.113.1 1.166 1.166 0 0 0 1.65.08 1.069 1.069 0 0 0 1.933-.055 1.5 1.5 0 0 0 2.252.2 1.2 1.2 0 0 0 .993.516 1.73 1.73 0 0 0 .987-.413c.9.607 1.847-.061 2.03-1.2a1.843 1.843 0 0 0 1-.075 36.324 36.324 0 0 0-.078 4.565c1.553.46 1.975-.036 2.948-1.148.313-.355.863-.8.849-1.323-.028-1.065-.832-.419-1.437-.435a14.087 14.087 0 0 1 .2-3.708l4.5.05a9.654 9.654 0 0 0 .119 2.454c.383 1.47 1.12.416 1.869.136.962-.358 2.16.111 1.753-1.584a2.1 2.1 0 0 0-.4-.84l5.128.214.8-.574 3.99.075.43.635 11.467.455 1.112-.363.943.727 5.519-.089s1.317-3.3-.152-4.34l-5.616.094-.891.79-.951-.832-10.952-.258-1.209.48-3.575.019-.846-.835-5.741-.183q.062-.932.136-1.88a39.1 39.1 0 0 0 .158-6.4c-.136-1.567-1-2.793-2.549-2.008-1.176.6-1.908 1.916-2.74 2.926-.7.849-1.4 1.669-2.066 2.535a1.162 1.162 0 0 1-.444.588c-.128.172-.261.355-.383.538-.241.441-.593.946-.89 1.4-.51-.1-1.012-.122-1.517-.2a9.187 9.187 0 0 0 .718-1.586 3.572 3.572 0 0 0 1.9-.064.664.664 0 0 0 .1-.044l.069-.047c.141-.2.291-.394.444-.588a6.038 6.038 0 0 0 .158-1.608c.1-1.919-1.01-2.407-2.474-2.41a1.865 1.865 0 0 0-1.822-.763c-.119-.868-.435-1.242-1.581-1.375-.655-.072-1.445-.158-2.194-.169-.968-1.037-2.637-2.011-3.941-1.769a7.278 7.278 0 0 0-3.836 2.069l-12.374.017c-.84.075-2.144-.239-2.809.441a6.96 6.96 0 0 0-.959 2.268 7.2 7.2 0 0 0 .172 3.968 6.565 6.565 0 0 0-2.548-.36 2.7 2.7 0 0 0-1.52 1.054 2.826 2.826 0 0 0-1.181-1.947 2.991 2.991 0 0 0-2.543.286 1.884 1.884 0 0 0-1.4-.582 1.763 1.763 0 0 0-1.431.652c-.1-.521-1.45-.868-1.972-.851a1.9 1.9 0 0 0-1.428.7 8.443 8.443 0 0 0-1.631-.488 2.7 2.7 0 0 0-1.559.377 2.4 2.4 0 0 0-3.031-.072 2.223 2.223 0 0 0-1.495-.735 6.948 6.948 0 0 0-1.484.058l.025-1.955-1.137-.288-1.836-2.973s1.04-2.424-2.546-2.726c0 0-4.828-.585-5.1 3.442l-1.52.266a8.077 8.077 0 0 1-1.389 4.285s-2.745.316-3.089 2.28l-10.832-.416c.91-2.99 2.793-6.292 2.138-9.44a13.8 13.8 0 0 0 1.387-.169 8.681 8.681 0 0 0 4.493-1.686 4.69 4.69 0 0 0 1.24-3.444 4.388 4.388 0 0 0 3.253-1.29c1.184-1.27 1.395-3.525 1.179-5.081-.239-1.789-.3-3.6-.544-5.383-.216-1.592-.543-2.926-1.952-3.749a2.5 2.5 0 0 0-3.791.865 11.389 11.389 0 0 0-2.526-.851 15.439 15.439 0 0 0-5.519-7.249 27.739 27.739 0 0 0-9.368-4.038 28.855 28.855 0 0 0-11.024-.225 20.77 20.77 0 0 0-9.72 4.315 12.728 12.728 0 0 0-5.056 8.816c-1.364.047-2.818.116-3.292 1.7a7.228 7.228 0 0 0-.092 2.815 8.13 8.13 0 0 0 .43 1.3c-1.262 1.733-3.522 4.21-2.421 6.145a19.164 19.164 0 0 0 2.446 2.912 16.012 16.012 0 0 0 2.931 2.676c.438.283.882.566 1.337.826-.588.66-1.2 1.517-1.054 2.03a5.568 5.568 0 0 0 1.2 1.733c-.871.566-2.82 1.669-3.572 1.559-.641-.091-1.461-.71-2.127-.868s-1.353-.277-2.03-.471a7.7 7.7 0 0 0-1.683 1.475 9.4 9.4 0 0 1 2.288 1.3c-.865.638-2.288.876-3 1.686a4.569 4.569 0 0 0-.846 2.1 15.983 15.983 0 0 0-.139 1.739c-1.5.6-3.217.84-4.715 1.373a9.2 9.2 0 0 0-4.415 2.976 9.742 9.742 0 0 0-.874 1.231c-.707-.43-1.326-.871-2.133-.3a6.877 6.877 0 0 0-1.628 2.379c-.388.7-1.193 1.969-1.106 2.82a1.734 1.734 0 0 0 .546.957c-1.2 1.328-1.755 3.927-1.95 5.544a6.533 6.533 0 0 1-.721 2.851 15.376 15.376 0 0 0-1.478 2.757 13.663 13.663 0 0 0-1 6c.092 2.266-.7 3.932-1.1 6.109a21.523 21.523 0 0 0-.08 4.1c.005.313-.008.643-.025.973v.008a9.21 9.21 0 0 0-2.357 4c-.718 1.828-2.022 2.723-3.164 4.218-1.237 1.622-2.854 3.758-2.823 5.96.028 1.914 1.556 3.752 2.454 5.33a3.839 3.839 0 0 0 3.064 2.085zm151.138-61.51c1.243-1.772 3.009-4.6 4.953-4.981a8.573 8.573 0 0 0 .08 1.658 1.618 1.618 0 0 0 .893 1.193c-.028.71-.033 1.642-.105 2.377zm-38.667 21.8q-.087-2.379-.166-4.762a2.2 2.2 0 0 0 1.18-1.428 1.432 1.432 0 0 0-.821-1.622 28.015 28.015 0 0 1 .311-4.19c.169-1.226.716-.757 1.536-1.37a1.405 1.405 0 0 0 .538-.8c.788.923 2.679.391 3.819-.161a1.421 1.421 0 0 0 2.344.785 1.554 1.554 0 0 0 .665.754.657.657 0 0 0 .38 0c-.427.8-1.12 1.547-1.542 2.263-.657 1.12-1.389 2.263-2.027 3.433-1.381 2.521-2.584 5.3-3.788 7.926a18.411 18.411 0 0 1-2.188 3.142 22.551 22.551 0 0 1-.241-3.97zm-16.573-5.316c-.582.028-1.744.366-2.229-.147a4.379 4.379 0 0 1-.877-2.163c.546.294 1.084.857 1.567 1.17a10.412 10.412 0 0 1 1.539 1.14zm3.48.019c.105-1.082-1.365-3.07-2.008-4.182 1.143.036 2.615.327 3.114 1.492a2.207 2.207 0 0 1-1.105 2.69zm-10.031 24.3a11.321 11.321 0 0 0-3.672-2.854 14.459 14.459 0 0 1-4.143-3.231 24.449 24.449 0 0 0-3.938-3.733 5.535 5.535 0 0 0 1.22-3.045c.8.275 1.606.544 2.379.874 1.4.6 3.544 1.148 3.982-.7a2.837 2.837 0 0 0 .749.125 4.974 4.974 0 0 0 1.88-.491 3.066 3.066 0 0 0 1.85-2.72 7.587 7.587 0 0 0 1.392-.632 2.521 2.521 0 0 0 1.209-2.388 6.125 6.125 0 0 0 1.412-1.32 5.821 5.821 0 0 0 .754-2.793 20.3 20.3 0 0 0 6.462.064 63.665 63.665 0 0 0 .582 8.076c.449 2.848.58 5.682 1.456 8.384.183.557.358 1.534.624 2.371a12.426 12.426 0 0 0-1.522 2.038 14.033 14.033 0 0 0-1.459 2.072c-.923 1.719-2.568 3.284-3.708 4.861a11.386 11.386 0 0 0-.671 1.04 6.013 6.013 0 0 0-.976-1.043c-.707-.546-1.617-.935-2.349-1.486a19.6 19.6 0 0 1-3.512-3.465zm-17.768 37.231c.319-.746.6-1.517.862-2.255.868-2.446 3.031-4.848 2.537-7.626-.252-1.437-1.253-2.61-1.952-3.833-.383-.666-.957-1.4-1.373-2.144.363.169.727.324 1.021.488.882.477 1.808.824 2.7 1.254a89.426 89.426 0 0 0 8.4 3.356c1.406.516 2.851.771 4.229 1.173.574.166 1.176.369 1.778.566-1.015.422-2.016.962-2.992 1.345a36.487 36.487 0 0 0-4.3 1.664c-2.8 1.514-5.147 3.968-8.1 5.23a13.935 13.935 0 0 1-2.809.786zm-6.342-66.779a8.227 8.227 0 0 0 1.545-3.064 50.924 50.924 0 0 0 7.18-3.184l5.114.025.4 2.812 2.3.829c-.216.186-.43.494-.657.671a11.846 11.846 0 0 1-1.661.968 8.9 8.9 0 0 1-2.668 1c-1.115.194-2.2-.114-3.223.463-.807.463-1.154 1.523-1.941 2.022a10.638 10.638 0 0 1-2.443.887 26.224 26.224 0 0 0-2.166-1.778c-.515-.463-1.132-1.148-1.78-1.647zm-29.576-19.246a7.523 7.523 0 0 1 1.118-1.231c.047.546.155 1.226.236 1.883a8.876 8.876 0 0 0-1.354-.648zM491.583 245.3l.58.466a3.737 3.737 0 0 1-.58-.466z" class="cls-2" data-name="Path 7547"/>
        </g>
    </g>
</svg>
