<svg xmlns="http://www.w3.org/2000/svg" width="337.256" height="219.627" viewBox="0 0 337.256 219.627">
    <defs>
        <style>
            .cls-1,.cls-2,.cls-3,.cls-4,.cls-8{fill:none}.cls-2{stroke:#e6e6e6}.cls-3{stroke:#f2f2f2}.cls-4{stroke:#ccd6eb}.cls-10,.cls-11,.cls-5,.cls-9{fill:#666}.cls-5{font-size:14px;font-family:SegoeUI,Segoe UI}.cls-6{clip-path:url(#clip-path)}.cls-7{fill:url(#linear-gradient)}.cls-8{stroke:#7cb5ec;stroke-linecap:round;stroke-linejoin:round}.cls-9{font-size:5px}.cls-10,.cls-11,.cls-9{font-family:HelveticaNeue-Thin,Helvetica Neue;font-weight:200}.cls-10{font-size:6px}.cls-11{font-size:7px}
        </style>
        <clipPath id="clip-path">
            <path id="Rectangle_3047" d="M0 0h288.809v165.818H0z" class="cls-1" data-name="Rectangle 3047"/>
        </clipPath>
        <linearGradient id="linear-gradient" x2="0" y2="1" gradientUnits="objectBoundingBox">
            <stop offset="0" stop-color="#7cb5ec"/>
            <stop offset="1" stop-color="#7cb5ec" stop-opacity="0"/>
        </linearGradient>
    </defs>
    <g id="usd-to-eur-exchange-rate" transform="translate(8.186)">
        <path id="Rectangle_3044" d="M0 0h329.44v219.627H0z" class="cls-1" data-name="Rectangle 3044" transform="translate(-.371)"/>
        <path id="Rectangle_3045" d="M0 0h288.809v165.818H0z" class="cls-1" data-name="Rectangle 3045" transform="translate(34.77 32.944)"/>
        <g id="Group_2856" data-name="Group 2856" transform="translate(63.047 32.944)">
            <path id="Path_16235" d="M115.5 60v165.818" class="cls-2" data-name="Path 16235" transform="translate(-115.5 -60)"/>
            <path id="Path_16236" d="M209.5 60v165.818" class="cls-2" data-name="Path 16236" transform="translate(-157.888 -60)"/>
            <path id="Path_16237" d="M303.5 60v165.818" class="cls-2" data-name="Path 16237" transform="translate(-200.275 -60)"/>
            <path id="Path_16238" d="M397.5 60v165.818" class="cls-2" data-name="Path 16238" transform="translate(-242.663 -60)"/>
            <path id="Path_16239" d="M490.5 60v165.818" class="cls-2" data-name="Path 16239" transform="translate(-284.6 -60)"/>
            <path id="Path_16240" d="M584.5 60v165.818" class="cls-2" data-name="Path 16240" transform="translate(-326.988 -60)"/>
        </g>
        <g id="Group_2857" data-name="Group 2857" transform="translate(34.77 32.669)">
            <path id="Path_16241" d="M64 362.5h288.809" class="cls-3" data-name="Path 16241" transform="translate(-64 -196.133)"/>
            <path id="Path_16242" d="M64 347.5h288.809" class="cls-3" data-name="Path 16242" transform="translate(-64 -189.369)"/>
            <path id="Path_16243" d="M64 332.5h288.809" class="cls-3" data-name="Path 16243" transform="translate(-64 -182.605)"/>
            <path id="Path_16244" d="M64 317.5h288.809" class="cls-3" data-name="Path 16244" transform="translate(-64 -175.841)"/>
            <path id="Path_16245" d="M64 302.5h288.809" class="cls-3" data-name="Path 16245" transform="translate(-64 -169.077)"/>
            <path id="Path_16246" d="M64 286.5h288.809" class="cls-3" data-name="Path 16246" transform="translate(-64 -161.862)"/>
            <path id="Path_16247" d="M64 271.5h288.809" class="cls-3" data-name="Path 16247" transform="translate(-64 -155.098)"/>
            <path id="Path_16248" d="M64 256.5h288.809" class="cls-3" data-name="Path 16248" transform="translate(-64 -148.334)"/>
            <path id="Path_16249" d="M64 241.5h288.809" class="cls-3" data-name="Path 16249" transform="translate(-64 -141.57)"/>
            <path id="Path_16250" d="M64 226.5h288.809" class="cls-3" data-name="Path 16250" transform="translate(-64 -134.806)"/>
            <path id="Path_16251" d="M64 211.5h288.809" class="cls-3" data-name="Path 16251" transform="translate(-64 -128.042)"/>
            <path id="Path_16252" d="M64 196.5h288.809" class="cls-3" data-name="Path 16252" transform="translate(-64 -121.278)"/>
            <path id="Path_16253" d="M64 181.5h288.809" class="cls-3" data-name="Path 16253" transform="translate(-64 -114.514)"/>
            <path id="Path_16254" d="M64 166.5h288.809" class="cls-3" data-name="Path 16254" transform="translate(-64 -107.75)"/>
            <path id="Path_16255" d="M64 151.5h288.809" class="cls-3" data-name="Path 16255" transform="translate(-64 -100.986)"/>
            <path id="Path_16256" d="M64 135.5h288.809" class="cls-3" data-name="Path 16256" transform="translate(-64 -93.771)"/>
            <path id="Path_16257" d="M64 120.5h288.809" class="cls-3" data-name="Path 16257" transform="translate(-64 -87.007)"/>
            <path id="Path_16258" d="M64 105.5h288.809" class="cls-3" data-name="Path 16258" transform="translate(-64 -80.243)"/>
            <path id="Path_16259" d="M64 90.5h288.809" class="cls-3" data-name="Path 16259" transform="translate(-64 -73.479)"/>
            <path id="Path_16260" d="M64 75.5h288.809" class="cls-3" data-name="Path 16260" transform="translate(-64 -66.715)"/>
            <path id="Path_16261" d="M64 362.5h288.809" class="cls-2" data-name="Path 16261" transform="translate(-64 -196.133)"/>
            <path id="Path_16262" d="M64 287.5h288.809" class="cls-2" data-name="Path 16262" transform="translate(-64 -162.313)"/>
            <path id="Path_16263" d="M64 211.5h288.809" class="cls-2" data-name="Path 16263" transform="translate(-64 -128.042)"/>
            <path id="Path_16264" d="M64 135.5h288.809" class="cls-2" data-name="Path 16264" transform="translate(-64 -93.771)"/>
            <path id="Path_16265" d="M64 59.5h288.809" class="cls-2" data-name="Path 16265" transform="translate(-64 -59.5)"/>
        </g>
        <path id="Rectangle_3046" d="M0 0h288.809v165.818H0z" class="cls-1" data-name="Rectangle 3046" transform="translate(34.77 32.944)"/>
        <g id="Group_2858" data-name="Group 2858" transform="translate(34.77 198.762)">
            <path id="Path_16266" d="M115.5 362v5.491" class="cls-4" data-name="Path 16266" transform="translate(-87.223 -362)"/>
            <path id="Path_16267" d="M209.5 362v5.491" class="cls-4" data-name="Path 16267" transform="translate(-129.611 -362)"/>
            <path id="Path_16268" d="M303.5 362v5.491" class="cls-4" data-name="Path 16268" transform="translate(-171.998 -362)"/>
            <path id="Path_16269" d="M397.5 362v5.491" class="cls-4" data-name="Path 16269" transform="translate(-214.386 -362)"/>
            <path id="Path_16270" d="M490.5 362v5.491" class="cls-4" data-name="Path 16270" transform="translate(-256.323 -362)"/>
            <path id="Path_16271" d="M584.5 362v5.491" class="cls-4" data-name="Path 16271" transform="translate(-298.711 -362)"/>
            <path id="Path_16272" d="M64 362.5h288.809" class="cls-4" data-name="Path 16272" transform="translate(-64 -362.225)"/>
        </g>
        <g id="Group_2859" data-name="Group 2859" transform="translate(-8.186 32.944)">
            <text id="Pressure_psi_" class="cls-5" data-name="Pressure (psi)" transform="rotate(-90 52.549 37.548)">
                <tspan x="-40.934" y="0">Pressure (psi)</tspan>
            </text>
            <path id="Path_16273" d="M64 60v165.818" class="cls-1" data-name="Path 16273" transform="translate(-21.045 -60)"/>
        </g>
        <g id="Group_2861" data-name="Group 2861" transform="translate(34.77 32.944)">
            <g id="Group_2860" class="cls-6" data-name="Group 2860">
                <path id="Path_16274" d="M5.157 114.018h.071l.071-.911.071-2.985.071-.539.212-1.907.071.29.071-.705.071-.125.071-2.239.212 1.2.071.29.071-1.119.071.332.071.912.212-.539.071 2.529.071-.829.071-.663.071-1.907.212.5.071 1.244.071-.456.071 1.659h.071l.212-2.363.071.746.071.787.071.083.071.415.212-1.244.071 1.617.07 1.451.071 1.327.07-.456.212.332.071.332h.071l.07-.954.071.664.212.622.07 1.658.071-.415.071.332.071-1.492.212-1.948.071.414.071.871.071.415.07.041.212.042.07 1.492.07-.87.071 1.036.071 2.321.212-.5.071-.166.07-.083.071 1.368.071-.581.212-1.451.071 1.949h.071l.07.083.071-.788.212 1.119.071-.165.071-.166.071.5h.282l.071 1.244.071-.207.071 1.12.071 1.492.212.414.07-.041.07.663.071.539.071.083.212-1.078.071.539.071 1.492.071-1.161.07 1.037.212-.83h.071l.071-.373.071.539.071-1.16.212 1.2.071-1.285.071-.5.071-.207.071-.912.212 1.409.07-.249.071.829.07-1.327.071-.871.212-.746.07.208.071.829.071-.953.071-.166.212.29.071 1.285.07-2.073.071.788.071-.415.212 1.078.071 1.12.071-.415.07-.995.071-2.778.212.125.07-.208.071-1.368.07.373.07.249.172 2.117.071-.042.07.539.071-.663.071.994.212.456h.071l.07-.539.071.664.071.87.212 1.907.071.29.07.373.07.5.071-.995.212.539.07 1.036.073 1.902.07.746.071-.125h.212l.07-.249.071.208.07.871.071-.373.212.415.07.249.071-1.948.071-.5.071-1.534.212.166.071 1.037.07-.954h.071l.071.7.212 2.694.071-.539h.07l.071-1.409.071-1.741.212.042.071-1.368.071-2.611.071-1.616.071 1.119.212.5.07.746.071-.332.07 1.824.071.912.212.953.07.125.071-.7.071-.5.071 2.114.212-1.616.071-1.161.071.207.071 1.782.071.622.212 2.156.071.622.071 1.326.071.249.071-.787.212.373.071-.208.071 2.28.071 1.161.071.415.212 1.327.07-.125.071.415.071 1.12.071-.042.212 1.12.07-1.409.07.622.071-1.782.07.58.212-.995.071-1.077.07 2.28.071 1.078.071-.539.212 1.119.071-1.575.071 1.036.07 2.032.071-.249.212-2.487.071 1.783.071-.456.071 1.575.071 1.534.212.125.071.332.071.788.07-.456.07 1.078.212.208.07 1.161.071 3.358.071-1.037.07.29.212-1.99.071.539.071 1.783.071-1.161.07.249.212.041.071 2.487.071.58.071.249.071-.373.212.705.071.539.071-2.4.071-.166.071.415.212-1.783.071 1.409.071-.373.071-3.233.07 1.865.212 1.327.071-.912.071.083.071.125.07-3.358.212-2.322.071.456.071-.622.071-.7.07.622.212.373h.141l.07 2.321.071 3.441.212.539h.04l.071-.622.071 1.244.071-.5.212-.083.07-.331.071-.5.071-.332.07 2.487.212 1.907.071-.166.071-1.741.071-1.948.071-.332.212-3.731.071.249.071 1.534.071 1.741.07.83.212.953.071.332.07.7.07 1.12.071.373.212-1.161.07-2.653.071-1.285.07-1.036.071-1.078.212.539.07-.083.07.953.062.79.071.912.212-.7.071 2.031.07-1.658.071 1.534.07 2.114.212-.58.071 1.078.071 3.151.07 1.409.071.829.212.622.071.083.071-.207.07 2.2.071 1.742.212-1.368.07.7.071 1.7.071 1.7.07-.249.212 3.523h.07l.071-1.327.071-4.6h.282l.071 2.528.07 2.4.071 1.244.071.166.212.29.071-2.57.071-.456.07-1.824.071 3.316.212-.456h.07l.071.539.071 2.487.071-.705.212.581.071-.664.071 1.658.071-.911.07-1.534.212 1.949.071.539.071.124.071-2.819.071-2.9.212.539.071-.953.071-.539h.071l.07-1.409.212.042.071 1.16.07-1.7.07-1.451.071 1.949.212-.5.071.746.071-.58.07.622.071.415.212 1.327.07 1.077.071 1.907.071.041.07-.207.212.29h.07l.071-1.741.071-1.782.07-.747.212.208.071 1.244.07-2.2.071-1.119.071 3.4.212 3.109.071-4.352.071-.166.07-1.7.071-1.451.212 2.156.07.332.071.249.07-.208.071 2.239.212-1.534.07.829.071.5.071 2.239.07.29.212.249.071.207.07.5.071 1.327.071-3.565.212-.332.071.58.071.5.071-.124.07 2.114.212.208.071 2.321.07-1.658.07-.663.071-.539.212.705.071.995.071-2.944.07-1.078.071.954.212.207.07-.663.071-1.99.071.373.071-.622.212-.124.07-1.368.07-.166.071-.125.07-7.047.212-1.119.071-1.948.071-.083.071.083.07-3.358.212-.5.071-.5.07 1.078.07 1.534.071-.124.212-.787.07-3.234.071 3.234.07.083.071-.705.212-2.156.071-2.073.071-1.492.071.954.07-4.85.212-.663.071-1.451.07-1.036.071-3.4.07 2.819.212 1.741.071 2.4.071-.87.07 5.555.071-5.306.212 6.674.071 3.109.071-.787.07.166.071-1.161.212-5.721.07-.953.071-4.561.07-3.772.071-1.492.212-4.394.071-.041.071 2.2.071-1.078.07-2.28.212 1.327.071 2.487.071-2.778.071-2.694.071-2.321.212.456.071-5.638.071-8.333.071-.829.071-5.514.212-3.606.071 1.782.071 6.3.071 6.592.071-6.923.212 1.658.071-.041.071 1.244.07-2.529.071-.332.212 3.4.07-3.648.071-5.638.07-.124.071 3.9.212-.373.071-.166.07-.5.071-2.4.07 1.575.212 4.394.071.954.071 3.109.07-.871.071-4.352.212-3.068.071 2.28.071-1.906.07-.083.023 1.15.212 4.809.071-.373.071 2.156.07 7.047.071 2.944.212 3.9.071 4.021.07 7.959.071 11.234.07-13.763.212.663.071.166.07.58h.141l.212 5.471.071-3.523.071-3.814h.07l.071-1.119.212-6.26.07-5.721.071 6.011.071.5.071 1.493.211-6.55.071-3.068.07-2.114.071-2.114.07 4.394.211-2.072.071-6.135.07-.5.071 1.823.07-4.726.211 4.892.071 4.436.07 2.073.071-3.565.07-7.3.212-1.409.07 2.239.07-.787.071.29.07-.829.212 5.264.07-.994.07-.705.071-2.612.07-.248.212-1.492.07-3.358.071-.995.07 2.819.07-2.944.212 5.306.07-.87.071.787.07-.332.071-3.523.211-1.244.07.5.071-1.575h.07l.071 2.695.211-2.446.07 5.638.071.083.07-.125.071 3.109.211 3.358L62 106.1l.071 4.6.07 12.478.071-2.736.211.207.071-1.16.07-.29.07 2.57.066-7.169.211-2.4.071 2.735.07-1.451.07 3.4.071.746.211 1.616.071-5.555.07-.58.071.994h.284l.071.083.07-2.446.071.539.07-3.317.211-2.238.071-.871.07.373.071 2.529.07 4.394.211-2.57.071-3.233.07 6.591.071.208h.07l.212-1.244.07 4.228.07-1.866.071.954.07 1.409.212 3.4.07 2.446.071-1.368.07-1.327.07-1.036.212-.539.07 2.694.071 1.7.07 1.782.07 4.353.212.787.07-2.156.071-.164.07-.953.071 5.14.211 2.528.07.373.071-.663.07-2.321.071 1.7.211-6.55.07 1.989.071 3.026.07-2.819.071.746.211-3.275.07.871.071-1.078.07 1.7.071.249.211-1.575.071 2.57.07 1.077.07-1.906.071 3.316.211-.787.071 1.575.07-.788.071-.994.07-.83.211-2.4.071 2.612.07-2.529.071 1.907.07-1.907.211 1.575.071.373.07 2.031.071.871.07-.829.211 2.611.071.125.07-.663.071.788.07-.042.212.87.07-.829.07-2.57.071-1.078.07 1.782.212 3.358.07 1.658.07.5.071-.787.07-.249.212-3.151.07-.746.071.083.07 2.529h.07l.212-4.561.07.581.071.249.07 2.694.07 1.782.212-.166.07.042.071-1.12.07-.041.071 1.949.211-1.866.07.871.071-1.907.07 2.321.071-1.492.211 1.409.07 2.861.071.953.07.456.071.953.211-.663.07.994.071 1.161.07.788.071-.124.211-.913.071 2.322.07.041.07-.249.071-1.907.211-.373.071-1.948.07 1.824.071-2.032.07-.041.211 1.534.071 2.031.07-.5.071 1.285.07-.249.211.29.071 1.865.07.332.071-.332.07.125.211.912.071.954.07-.913.071 1.451.07.373h.212l.07-2.694.07-1.7.071.083.07.208.212-.539.07-2.156.07 1.949.071 2.031.07-.124.212 2.28.07-.332.071 1.327.07-2.156.07-.995.212 1.825.07-1.7.071 1.534.07-1.742.071-.912.211 2.861.07.042.071 2.072.07-.207.071-2.819.211 1.948.07.912.071.29.07.539.071-.954.211-5.223.07-.249.071-.083.07-.746.071.539.211-2.115.071-2.073.07.373.07-4.312.071-.124.211.622.071-1.783.07-.083.07 2.487h.071l.211.124.071.539.07-1.866.071 1.327h.07l.211-.332.071 1.078.07-1.866.071-.912.07-.622.211 5.1.071-.954.07 1.617.071-1.492.07-2.239.211-.083.071-1.824.07-3.026.071-1.409.07 1.451.212.332.07-1.368.07-.249.071-1.534.07-.7.212-1.161.07.539.071.995.07-2.944.07-3.4.212-.373.07 1.907.071-.456.07-.5.07-3.233.212.787.07.912.071 1.741.07-3.565.071-1.078.211 2.4.07-1.078.071-.705.07-1.285.071 1.824.211-1.036.07.539.071 2.073.07.622.071-1.948.211 1.782.07-2.321.071 1.161.07 1.078.071 2.363.211-1.327.071.415.07.705.07-2.114.071-2.487.211-1.741.071 1.078.07-4.145.071.415.07-.083.211 2.736.071.249.07-.083.071-.249h.282l.071-1.658.07-1.285.071-1.037.07 2.031.211 4.6.071-.041.07.7.071-1.575.07-.208.212-2.363.07 1.244.07-2.612.071-.787.07-.663.212.249.07-.7.07-1.078.071.248.07 1.409.212-1.823.07-3.565.071-4.063.07-4.933.07.456.212 5.6.07-6.8.071-.332.07-2.57.071-2.487.211-3.856.07 2.156.071-4.311.07 1.741.071 4.394.211-3.689.07-3.731.071 2.363.07-1.493.071 3.524.211-2.073.07-4.228.071 1.741.07 1.409.071-5.845.211-2.9.071-.5.07 1.99.07.995.071 2.321.211 3.4.071.249.07.539.07 2.321.071.249.211.539.071-3.648.07.373.071-.249.07.87.246 1.242.071-3.9.07 2.032.071 1.534.07 5.928.211-.456.071 1.244.07-.29.071 2.4.07-.58.211-1.7.071-.083.07 3.482.071 3.192.07 4.27.212-1.078.07-2.819.07-.663.071.829.07 1.161.212.871.07 2.487.071-.995.07 1.866.07-.995.212 1.119.07 3.523.071-.332.07-.539.07-.207.212 1.865.07-2.86.071-2.861.07-5.638.071.249.211.539.07.995.071.5.07-1.119.071-3.151.211-.207.07-2.4.071.083.07 2.072.071.5.211-.332.07-.5.071 3.026.07.456.071.414.211 1 .071-3.275.07-1.2.07.456.071.249.211 1.948.071 1.244.07 3.441.071 2.2.07-.456.211.332.071 1.12.07 5.762.071-.954.07 2.073.211 1.492.071-.373.07 3.4.071.829.07 1.741.211-.5.071 1.658.07 1.658.071 2.446.07-2.072.212 1.327.07-2.2.07 2.694.071 2.985.07-.249.212-4.063.07-.829.07.083.071 3.275.07-1.741.212 2.073.07-2.529.071-2.363.07 1.161h.07l.212 1.492.07 1.948.071-.083.07 4.809.071-3.317.211-3.523.07.58.071-3.773.07-1.534.071.249.211-1.907.07-.29.071-2.985.07 3.731.071.622.211-.622.07-3.4.071-3.606.07-.415.071-2.239.211-1.907.071-3.565.07 2.819.07.953.071 2.2.211.788.071 1.948.07-3.856.07.332.071.705.211.58.071 3.9.07-1.741.071-2.86.07.539.211-2.695.071.166.07-1.036.071-1.161.07.87.211.871.071 1.409.07-1.409.071 3.441.07 1.907.211-.332.071 1.7.07-4.85.071-2.943.07-3.151.212-1.451.07 1.12.07.622.071 5.471.07 3.524.212-.912.07 1.409.071 3.109.07-.788.07 1.12.212 1.119.07.58.071 1.907.07.746.07-.125.212-.414.07 1.409.071 1.036.07-1.244.071-2.528.211-1.742.07 1.825.071.249.07-.954.071-1.782.211-1.907.07 1.576h.071l.07 1.119.071 1.534.211.911.07-.041.071 1.409.07.912.071-.207.211 1.534.071-.166.07-.373.07.911.071 2.28.211 1.492.071-2.736.07.622.071-2.363.07-.995.211 3.814.071-1.409.07 1.451.071 1.12.07 2.653.211 1.327.071.332.07-1.534.071-.165.07-.29.211-1.741.071.746.07.5.071 2.4.07-1.368.212 2.073.07-1.534.07 2.736.071-.332.07 2.363.212.664.07.7.07.456.071-1.825.07.995.212-3.523.07.539.071 4.27.07 1.327h.282l.07.663.071.953.07 2.446.071 1.244.211-.456.07-1.078.071 1.906.07-1.244.071-6.052.211-2.073.07-.787h.071l.07-4.187.071 2.612.211-2.819.07.58.071 1.161.07.787.071-.58.211-4.519.07 1.451.071-.415.07 2.073.071 1.989.211.125.071 2.28.07.456.07 1.036.071.581.211 2.114.071 1.078.07-.871.071.125.07-2.487.211-2.653.071 1.907.07-3.151.071-4.187.07 3.731.211-.7.071 2.819.07.456.071-3.731.07.166.211-.332.071 1.161.07 3.317.071.539.07.705.212.207.07-.746.07-2.86.071-1.451.07-.083.212-3.855.07-1.742.07 2.073.071 2.695.07-1.161.212-2.114.07 2.4.071.954.07.332.07 3.4.212-.207.07 1.823.071-.5.07-3.773h.071l.211 3.151.07-4.975.071 2.653.07-1.451.071-1.534.211 1.451.07.87.071 2.032.07-4.6.071 2.2.211 1.2.07 1.037.071 2.321.07-2.114.071.29.211.58.071.954.07-.58.07-.166.071-.415.211 1.658.071-1.658.07.953.07-3.316.071-.622.211-2.653.071-.58.07-1.327.071.208.07-4.85.211-3.565.071-.249.07 1.865.071 1.451.07-.746.211-2.653.071 1.534.07-1.658.071-4.228.07-.415.211 1.617.071 1.783.07 1.161.071-.373.07-2.529.212-4.063.07-3.44.07 3.69.071-1.576.07 3.814.212 3.607.07.332.071 3.523.07-.87.07 1.741.212-.663.07-2.2.071 3.316.07-.456.07-.166.212 1.244.07 1.327.071.208.07 2.321.071 2.57.211-3.316.07-8.125.071 3.98.07-.788h.071l.211-.663.07.995.071-3.4.07-.373.071.746.211.208.07-2.86.071-1.078.07-.083.071 2.156.211-2.695.071 1.782.07-3.4.07-.332.071-3.358.211 2.778.071-.29.07 1.907.071 1.7.07.456.211-1.575.071-1.119.07-.415.071.788.07-.622.211-3.109.071-1.658.07-4.519.071.622.07 1.078.211-.58.071.829.07-.456.071-.207.07.249h.212l.07.29.07.124.071-4.56.07 1.244.212-.083.07 1.949.07-1.617.071-2.9.07-1.409.212-1.244.07 2.032.071-2.28.07.456.07.913.212-2.612.07 3.068.071 1.036.07 2.032.071-.249.211 2.861.07-.373.071-1.492.07 4.975h.071l.211-.871.07 1.576h.071l.07-1.949.071 1.575.211-2.861.07 1.741.071 3.814.07.332.071-2.321.211 1.534.071-2.032.07-1.824.07-2.694.071 4.311.211 2.528.071-1.036.07.166.07 1.658.071 2.612.211-.539.071 1.492.07-.249.071-3.026.07-2.239.211.083.071-1.616.07-.787.071 2.9.07-1.2.211-1.741.071-1.492.07.124.071-.124.07 1.451.211.787.071 1.161.07.663.071-1.409.07 1.783.212.829.07 1.327.07.083.071-1.534.07 1.99.212-.871.07-.083.071-4.1.07-1.782h.282l.07 1.119.071.373.07.539.07-.125.212-2.984.07 2.611.071-.954.07-.165.071 2.57.211-1.492.07.746.071 1.078.07.208.071.332.211-.373h.07l.071-1.989.07-.166.071.207.211-2.4.07-.207.071-1.825.07.29.071-.456.211-1.989.071-.5.07-2.694.07-1.409.071.995.211.746.071.456.07-2.819.071-2.653.07-.29.211.539.071-1.12.07-2.28.071-.953.07-2.2.211 3.109.071-.207.07 1.492.071 2.9.07-3.358.211 2.031.071-1.368.07 1.119.071.456.07 1.161.212.58h.07l.07 2.2.071-.871.07-3.4.212-1.368.07-.331.07.082.071-1.616.07 4.56.212.083.07-.456.071-.414.07-3.565.07-1.327.212-2.28.07-.207.071-.705.07-2.28.07.207.212-.207.07 2.86.071-1.285.07 1.451.071-2.4.211-2.653.07-.456.071 1.285.07 3.482.071 1.575.211-1.949.07 1.037.071.415.07 1.285.071-2.777.211 3.69.07 1.534.071-2.695.07-.953.071-1.078.211 2.114.071.332.07-2.072.07.083.071 1.575.211-.995.071 3.483.07.539.071 2.736.07-1.2.211.622.071.5.07-.083.071-.042.07 1.742.211-1.12.071.29h.07l.071 1.534.07 1.783.211 1.782.071.29.07 2.736.071.332.07 4.518.212-.207.07-.747.07-1.285.071-1.2.07.871.212-1.782.07.373.07-2.156.071.705.07 1.409.212-1.327.07 1.327.071-.664.07 1.2.07 1.244.212-1.078.07-.125.071-1.616.07.746.071 1.285h.211l.07 1.865.071 1.783.07-.042.071-2.031.211.7.07-1.409.071-1.575.07 1.285.071-2.114.211-.249.07 1.575.071.787.07-.456.071-3.109.211-1.865.071.58.07-1.368.07-.249.14-1.098.211 1.078.071-.995.07.746.07.788.071-.29.211.415.071 1.2.07-.083.071 2.2.07.373.211 1.368.071-.042.07-1.741.071 2.528.07-.207.211 1.741.071.87.07-.663.071.166.07-4.1.211.622.071 1.575.07 1.12.071.912.07.083.212 1.907.07.456.07 2.9.071-1.285.07-.912.212.249.211 1.119.07-1.989.212.29.141 1.616.07-3.814.07-2.2.212.663.07 1.12.071-.705.07 1.368.071 3.814.211 1.576.07-.332.071-1.161.07 2.114.071-.995.211-.042.07-.124.071.29.07.456.071 2.778.211-.581.07-.249.071 2.446.07.207.071 2.114.211-2.073.071-.332.07-.456.07.663.071-3.938.211.373.071 1.078.07.995.071-3.565.07-.041.211.622.071-.042.07.5.071-4.352h.07l.211 2.777.071-5.389.07.5.071.746.07-3.109.211.166.071.664h.07l.071-.58.07 1.948.212-2.363.07 1.451.07-1.782.071-1.078.07 3.649.212-3.856.07.373.07.042.071-.87.07.953.212-.332.07-1.824.071-2.363.07.953.353.87.071-.29.07-.29.071 3.15.211 1.949.07.415.071 1.12.07.787.071-1.617.211.705.07 1.161h.071l.07-2.032.071 1.7.211-1.866.07-1.161.071.373.07 1.824.071-1.99.211 2.777.071-.994.141 2.86.071-1.824.211-.208h.071l.07.705.07.166.071-3.731.211-.373.071.083.07-2.819.071.663.07-.539.211-.373.071.332.07 1.409.071-.871.07 1.244h.282l.07.332.071-.208.07 1.534.211.041.071 2.073.07-.622.071 1.244.07 3.4.212-1.244.07 1.534.07.083.071.912.07-.29.212.788.07.87.071.746.07-4.85.07-.456.212-2.28.07 1.161.071-2.653.07.207.07 1.161.212-1.037.07-.5.071-1.451.07.622.071-2.487.211-.829.07.166.071-1.12.07 5.762.071-.248.211-.539.07 2.57.071.415.07-1.037.071.747.211 1.036.07.332.071 1.575.07-1.078.071 1.409.211.207.071.332.07-.208.07-.912.071-.788.211 1.285.071.539.07.58.071 1.285.07.29.211-2.155.071.249.07-1.12.071 1.285.07.995.211.083.071 1.119.07-.208.071-1.409.07.747.211.166.071-.539.07.208.071-1.907.07-.746.211-.664.071-.829h.07l.071.7.07-2.031.212 1.865.07 1.078.07.663.071.539.07.083.212 1.451h.07l.071-.124.07 4.435.07-.7.212-.125.07-.787.071.7.07-.125.07.871.212-.746.07 1.119.071-.87.07 1.782.071-.041.211-.456.07.083.071-1.368.07.373.071.787.211-.041.07-1.617.071 1.534.07 2.238.071.5.211-.373.07.166.071 1.7.07 1.161.071-.581.211.125.071-.332.07-.29.07-2.529.071-3.068.211.042.071-.29.07.539.071-3.483.07 1.534.211-.87.071.87.07-.373.071.456.07.58.211 1.285.071-.332.07.539.071-1.244.07 1.037.211-.083.071.746.07 1.12.071-.083.07.415.212-1.7.07.954.07.332.071.041.07 1.492.212 1.327.07.622.07.373.071.166.07-1.036.212 1.078.07-.58h.071l.07-1.824.07-.249.212 1.037.07-.415.212 2.86.211-.663.07.166.141-2.944.071-.539.211-.705.07.871.071-1.037.07.415.071-.58.211 1.492.07.29.071-1.368.07-.207.071-.29.211-.373.071-.912.07.912.07 1.617.071 1.078.211-.664.071-.207.07-.912.07-.746.071-1.327.211-.415.071.5.07.539.071-1.078.07 1.783.211 1.451.071.829.07-2.321.071 2.28.07.7.211-.166.071.7.07.332.071-.87h.07l.211.622.071.415.07-.58.071-1.575.07 3.441.212-.954h.07l.07-.788.071.29.07 3.233.212-.29.07-.664.071.788.07 1.161.07-1.244.212.5.07-.083.071.207.07-3.233.07.373.212-.125.07.332.071.042.07-.7h.071l.211.622.07.041.071.125.07-.539.071-1.534.211.5.07 1.119.071.415.07 1.617.071.083.211-.954.07-.539.071.829.07.29.353-.787.07.332.07-.29.071.248.211.664.071-.788.07.539.141.249.211.249.071 1.534.07-.373.071.539.07-3.69.211-.373.071-1.368.07.373.071-1.327.07.829.211.415.071-.29.07-.581.071-.166.07-.87.212.125.07.083.07-.7.071.124.07-.124.212.083.07.746.07-.373.071-1.368.07 1.7.212-.788.07-1.368h.071l.07-.414.07.124.212-.041.07.829.071-.125.07 1.285.071-.7.211.166.07.5.071-.083.07-.208.071.332.211.829.07.664.071-.705.07-.207.071-1.285.211.083.07-.083.071.332h.07l.071-.208.211.747.071-.332.07-1.823.07-.166h.071l.211-.166.071-.83.07-.373.07.166.071-.705.211-.166.071-.124.07-.622.071-.5.07.373.211.622.071-.953.07-.829.071.5.07.5.211-.042.071-.953.07.332.071.29.07.373.211-.125.071-.663.07-1.658.071-.5.07.125.212-1.617.07-.165.07-.373.071.042.07.207.212-1.285.07-.456.071.87.07-3.275.07-1.658.212-.042.07-1.119.071.663h.07l.07.083.212-.5.07.912.071.207.07-2.114.071-.5.211-.166.07 1.161.071-1.658.07-2.9.071.539.211-.787.07-3.068.071.5.07.746.071-.373.211-1.368.07 1.12.071.994.07 3.026.071-3.233.211 1.078.071-.871.07.539.07 2.114.071 1.907.211-1.285.071-.29.07-1.742.07-.622.071-.29.211.539.071 1.782.07-.29.071-3.607.07-1.948.211-.788.071.539.07-.912.071.995.07-3.316.211 2.487.071-1.658.07 1.161.071-.29.07-.539.211 1.575.071.5.07.539.071.125.07-3.109.212-.332.07.373.07 1.368.071.124.07.083.212-.373.07-1.2.071-2.528.07-.539.07 1.409.212-2.861.07 3.026.071.622.07 1 .07.58.212-.663.07 2.984.071-2.363.07-4.435.071-.166.211-.539.07-1.285.071.166.353-.622.07-1.037.071-.539.141-2.777.211-3.69h.07l.071-2.446.07-1.907.071 1.368.211-.29.071-.663.07-.207.07-1.99.071-3.69.211.539.071-.787.07.414.071.788.07-13.39.211 1.492.071 2.031.07 1.244.071-.953.07-.332.211.166.071 2.156.07 2.2.071-1.119.07 1.161.211-5.513.071.7.07.539.071.456.07 1.7.212.871.07.249.07-1.409.071.5.07-2.86h.212l.07.953.07.58.071-.912.07-2.529.212-.415.07-1.948.071-1.492.07-1.824.07-3.648.212-3.565.07-4.353.071-5.845.07 1.327.071-1.534.211-.539.07 2.86.071-1.575.07 3.109.071 3.565.211 4.809.07 1.327.071 1.2.07-.415.071-4.063.211-.415.07-3.068.071-.124.07 2.653.353.622.07.539.07-3.151.071-7.42.211-.663.071.456.07.539.07 4.85.071 3.689.211-3.275.071-.829.07 1.575.071 1.036.07 1.824.211-.041.071 3.648.07 2.612.071 7.13.36-2.095.071-1.161.07 3.731.071 2.446.07-2.736.211-2.612.071 3.192.07-.58.066 6.42.07-2.943.212 1.99.07-6.84.07-2.031.071.5.07 1.036.212-6.3.07-1.783.071-2.239.07 1.161.07 2.57.212-.871.07 2.9.071 3.565.07 6.011.07-3.233.212-1.865.07 2.86.071.995.07-1.534.071-.415.211-.041.07-.124.076 2.115.07 4.021.071-3.358.211 1.492.07-4.6.071.29.07-.249.071-.124.211-2.28.07 1.865.071-2.985.07-1.161.071 1.036.211-2.985.071-2.653.07 3.192.07 1.036.071 4.353.211-4.56.071-.58.07-.746.071-4.933.07.746.211-1.285.071.539.07 1.2.071 3.358.07-2.073.211 4.1.071-1.119.07.166.071-2.57.07.415.211-.58.071.788.07-3.151.071.083.07 1.948.212.663.07 3.233.07 3.358.071-1.534.07 2.073.212-2.363.07-1.368.07-.622.071 4.767.07 3.233.212 6.881.07.29.071-3.275.07-3.814.07-.539.212-1.741.07.7.071.622.07-.871.071-2.985.211.249.07.539.071-.746.07 1.492.071 2.736.211 1.2.07.5.071-2.985.07 2.736.071 3.441.211-5.472.07-3.151.071-.166.07 3.026.071-2.985.211.622.071 1.161.07-.041.07-1.658.071.207.211 2.529.071-.373.07 1.368.07-.415.071 3.524.211.332.071.041.07 1.161.071.912.07-2.529.211-.871.071 1.285.07-.58.081-1.317.07-7.586.211-2.487.071 1.7.07.829.071-5.306.07 2.985.211.5.071-1.907.07-1.409.071-1.824.07-.663.212-3.109.07-2.321.07.166.071.373.07 1.368.212-1.492.07-1.907.071-.166.07.788.07.041.212-2.073.07.7.071-2.363.07.953.07-1.2.212-.041.07.788.071.456.07 2.156.071 8.208.211-3.275.07 2.363.071 2.28.07.083.071.249.211 1.119.07.249.071-1.99.07-3.192.071-.166.211 1.161.07 2.86.071-1.244.07 1.078.282.539.071-.373.07-.871.07-1.368.282.373.071-5.389.07-.124.077 4.481.07-.249.211.953.071-1.824.07-.746.071 2.736.07.7.211-.746.071-.829.07 1.368.071-.5.07-2.985.211.249.071.746.07 1.824.071.5.07.58.212-1.244.07 1.244.07.456.071 9.244.07-.124.215-3.353.07 4.477.07.7.071 2.9.07-2.321.212-3.151.07-.456.071-.995.07-1.741.07.415.212-2.363.07-.829.071-.746.07 1.575.071-.7.211-4.063.07-.58.071-.539.07 1.575.071 2.363.211-.58.07 2.57.071-1.865.07-4.063.071 8.042.211.953.07-.332.071-1.492.07 8.167.071-1.036.211-.249.071-1.948.07-1.368.07-.539.353 1.327.07 4.228.07 1.99.071 1.492.211-1.658.071-.415.07-.995.071.871h.07l.211.829.071.207.07-3.151.071-1.492.07 1.036.211.7.071 1.2.07 1.161.071-.788.07-2.985.211.041.071.746.07.539.071 1.783.07 1.409.212 2.86.07 2.363.07-1.99.071-2.073.07-.373.212-1.036.07-.622.071 1.078.07-.622.07-1.327.212-.788.07-.166.071-1.285.07-2.695.07.746.212-.166.07-1.534.071-.746.07.746h.071l.211-.953.07.5.071.663.07.456.071-1.119.211 6.384.07-.041.071.953.07-1.119.071-1.244.211-1.2.07-1.409.071.166.07-1.824.071 2.612.211 2.529.071-.58.07-.995.07 3.441.078-10.646.211-2.321.071 2.57.07.58.07.415.071 1.078.211.124.071.249.07-2.57.071.373.07-.332.211-.746.071 1.451.07-.663.071 2.86.07-.953.221-2.534.071-.622.07-.746.071.041h.07l.211-1.119.071.539.07-.207.071 3.358.07.788.212 1.7.07.953.07.207.071-2.114.07.663.212-2.321.07-.29.071 3.565.07-1.036.07.166.212.7.07 3.814.071-.622.07 1.451.07.166.212-.663.07 1.078.071-2.321.07.746h.071l.211-3.98.07-.041.071-1.2.07.456.071 1.575.211-1.244.07.124.071 2.57.07 1.907.071-.912.211-1.368.07.7.071-.953.07 1.161.071-.912.211-2.031.071.663.07-1.161.07 2.943.071-.788.211 1.575.069-1.403.07.166.071-.124.07-1.99.211 2.487.071-2.487.07 1.658.071-.871.07-1.492.211.663.071-2.695.07-1.99.071.58.07-1.2.211-.29.071-.041.07-.456.071.041.07-3.275.212.166.07-.663.07 1.865.071.041.07-.166.212.829.07 2.736.07 2.363.071-1.036.07.953.212-1.036.07-.829.071-.539.07-4.394.07.332.212-4.477.07-.415.071-2.28.07.539.071-3.192.211.083.07-.539.071-.539.07-1.99.071 1.617.211-.166.07-.415.071 2.156.07-.29.071.539.211 2.2.07 1.161.071-.166.07 1.161.071-7.42.211 1.368.071.539.07 1.244.07-8.415.071.788.211-.663.071-2.239.07 2.2.07.871.071.083.282-.041.07-1.658.071 1.948.07 3.316.211-2.86.071-3.026.07 1.99.071 2.4.07 3.275.211-2.695.071 1.907.07-2.4.071 6.508.07-.663.211-2.446.071 3.275.07-.7.071.124.07-1.327.212 3.026.07 1.2.07-.166.071-1.575.07-.663.212-1.865.07 4.519.071 1.244.07.663.07-2.4.212-1.036.07-1.368.071-.332.07.953.07-2.28h.212l.07-.249.071-2.487.07 3.565.071-.083.211-1.244.07-2.9.071-.912.07 2.239.071 1.327.211-.829.07.373.071-2.363.07-.7.071 1.907.211.995.07-.58.071-.746.07-.207.071 2.031.211 2.114.071-1.161.07-.332.07 3.772.071.373.211.539.071 1.783.07.207.071-.746.07.663.211 2.943.071-1.036.07-3.938.071-.415.07-1.658.211-1.078.071-.373.07.995.071-.456.07-1.285.211-1.948.071 1.409.07-.415.071.953.353 1.865.07 1.575.071.7.07-1.7.212 5.389.07 1.492.07.083.071-.415.07 1.7.282-.539.071.166.07.249.07 1.2.212-.788.07-1.741.071-.207.07-.788.071.539.211 3.358.07 2.985.071 1.948.07.373.071 1.7.211 2.114.07-.953.071-.7.07.7.071-.622.211-.249.07-.5.071 1.575.07-.041.071-.083.211 1.036.071.29.07-1.327.07.373.071-1.741.211 1.492.071-.124.07-.456.07-1.244.071.041.211 1.078.071-1.451.07-.29.071.746.07.124.211.456.071 2.985.07 3.151.071 1.2.07-.041.211-1.368.071-.5.07-.788.071 1.824.07.829.211-.788.071.58.07 1.409.071-1.036.07-.041.212 1.492.07 2.9.07-.705.071-1.492.07 4.85.212.207.07 1.409.071-1.534.07 1.534.07 1.037.212-.042.07 2.529.071.5.07.913.07.248.212-2.114.07.5.071-2.446h.07l.071.994.211.954.07-1.575.071-1.036.07-.373.071 1.285.211.622.07.332.071.829.07.207.071.042.211 3.441.07 3.565.071-3.814.07-2.694.071 2.819.211-.456.071-.415.07 1.161.07 1.161.071 2.57.211-1.782.071-1.866.07 1.327.071-2.735.07 2.28.211-.456.071.7.07 1.036.071-2.984.07 1.616.211-2.736.071-2.363.07-1.368.071 1.119.07.829.211-1.865.071.29.07.994.071-1.327.07-1.077.212 1.161.07 1.534.07.995.071.746.07-1.327.212-.208.07-1.327.07-.29.071 2.529.07-.5.212-2.322.07.622.071.746.07-.953.07-4.519.212.207.07.788.071-.788.07 1.037.071.332.211-2.032.07-.87.071.87.07 1.244.071.705.211.083.07 2.695.108 2.822.07-2.032.071.705.211-.415.07-1.907.071.954.07 2.943.071.83.211 2.2.071-1.866.07-1.782.07.622.071 1.078.211-.581.071-.539.07-.87.07-.954.071-1.285.211 1.617.071-.912.07-.912.071 3.275.07-1.161.211-.331.071.829.07.663.071.415.07-.208.353 1.244.071 1.161.07 1.7v96.962H5.157" class="cls-7" data-name="Path 16274" transform="translate(-2.325 -11.916)"/>
                <path id="Path_16275" d="M5.157 114.018h.071l.071-.911.071-2.985.071-.539.212-1.907.071.29.071-.705.071-.125.071-2.239.212 1.2.071.29.071-1.119.071.332.071.912.212-.539.071 2.529.071-.829.071-.663.071-1.907.212.5.071 1.244.071-.456.071 1.659h.071l.212-2.363.071.746.071.787.071.083.071.415.212-1.244.071 1.617.07 1.451.071 1.327.07-.456.212.332.071.332h.071l.07-.954.071.664.212.622.07 1.658.071-.415.071.332.071-1.492.212-1.948.071.414.071.871.071.415.07.041.212.042.07 1.492.07-.87.071 1.036.071 2.321.212-.5.071-.166.07-.083.071 1.368.071-.581.212-1.451.071 1.949h.071l.07.083.071-.788.212 1.119.071-.165.071-.166.071.5h.282l.071 1.244.071-.207.071 1.12.071 1.492.212.414.07-.041.07.663.071.539.071.083.212-1.078.071.539.071 1.492.071-1.161.07 1.037.212-.83h.071l.071-.373.071.539.071-1.16.212 1.2.071-1.285.071-.5.071-.207.071-.912.212 1.409.07-.249.071.829.07-1.327.071-.871.212-.746.07.208.071.829.071-.953.071-.166.212.29.071 1.285.07-2.073.071.788.071-.415.212 1.078.071 1.12.071-.415.07-.995.071-2.778.212.125.07-.208.071-1.368.07.373.07.249.172 2.117.071-.042.07.539.071-.663.071.994.212.456h.071l.07-.539.071.664.071.87.212 1.907.071.29.07.373.07.5.071-.995.212.539.07 1.036.073 1.902.07.746.071-.125h.212l.07-.249.071.208.07.871.071-.373.212.415.07.249.071-1.948.071-.5.071-1.534.212.166.071 1.037.07-.954h.071l.071.7.212 2.694.071-.539h.07l.071-1.409.071-1.741.212.042.071-1.368.071-2.611.071-1.616.071 1.119.212.5.07.746.071-.332.07 1.824.071.912.212.953.07.125.071-.7.071-.5.071 2.114.212-1.616.071-1.161.071.207.071 1.782.071.622.212 2.156.071.622.071 1.326.071.249.071-.787.212.373.071-.208.071 2.28.071 1.161.071.415.212 1.327.07-.125.071.415.071 1.12.071-.042.212 1.12.07-1.409.07.622.071-1.782.07.58.212-.995.071-1.077.07 2.28.071 1.078.071-.539.212 1.119.071-1.575.071 1.036.07 2.032.071-.249.212-2.487.071 1.783.071-.456.071 1.575.071 1.534.212.125.071.332.071.788.07-.456.07 1.078.212.208.07 1.161.071 3.358.071-1.037.07.29.212-1.99.071.539.071 1.783.071-1.161.07.249.212.041.071 2.487.071.58.071.249.071-.373.212.705.071.539.071-2.4.071-.166.071.415.212-1.783.071 1.409.071-.373.071-3.233.07 1.865.212 1.327.071-.912.071.083.071.125.07-3.358.212-2.322.071.456.071-.622.071-.7.07.622.212.373h.141l.07 2.321.071 3.441.212.539h.04l.071-.622.071 1.244.071-.5.212-.083.07-.331.071-.5.071-.332.07 2.487.212 1.907.071-.166.071-1.741.071-1.948.071-.332.212-3.731.071.249.071 1.534.071 1.741.07.83.212.953.071.332.07.7.07 1.12.071.373.212-1.161.07-2.653.071-1.285.07-1.036.071-1.078.212.539.07-.083.07.953.062.79.071.912.212-.7.071 2.031.07-1.658.071 1.534.07 2.114.212-.58.071 1.078.071 3.151.07 1.409.071.829.212.622.071.083.071-.207.07 2.2.071 1.742.212-1.368.07.7.071 1.7.071 1.7.07-.249.212 3.523h.07l.071-1.327.071-4.6h.282l.071 2.528.07 2.4.071 1.244.071.166.212.29.071-2.57.071-.456.07-1.824.071 3.316.212-.456h.07l.071.539.071 2.487.071-.705.212.581.071-.664.071 1.658.071-.911.07-1.534.212 1.949.071.539.071.124.071-2.819.071-2.9.212.539.071-.953.071-.539h.071l.07-1.409.212.042.071 1.16.07-1.7.07-1.451.071 1.949.212-.5.071.746.071-.58.07.622.071.415.212 1.327.07 1.077.071 1.907.071.041.07-.207.212.29h.07l.071-1.741.071-1.782.07-.747.212.208.071 1.244.07-2.2.071-1.119.071 3.4.212 3.109.071-4.352.071-.166.07-1.7.071-1.451.212 2.156.07.332.071.249.07-.208.071 2.239.212-1.534.07.829.071.5.071 2.239.07.29.212.249.071.207.07.5.071 1.327.071-3.565.212-.332.071.58.071.5.071-.124.07 2.114.212.208.071 2.321.07-1.658.07-.663.071-.539.212.705.071.995.071-2.944.07-1.078.071.954.212.207.07-.663.071-1.99.071.373.071-.622.212-.124.07-1.368.07-.166.071-.125.07-7.047.212-1.119.071-1.948.071-.083.071.083.07-3.358.212-.5.071-.5.07 1.078.07 1.534.071-.124.212-.787.07-3.234.071 3.234.07.083.071-.705.212-2.156.071-2.073.071-1.492.071.954.07-4.85.212-.663.071-1.451.07-1.036.071-3.4.07 2.819.212 1.741.071 2.4.071-.87.07 5.555.071-5.306.212 6.674.071 3.109.071-.787.07.166.071-1.161.212-5.721.07-.953.071-4.561.07-3.772.071-1.492.212-4.394.071-.041.071 2.2.071-1.078.07-2.28.212 1.327.071 2.487.071-2.778.071-2.694.071-2.321.212.456.071-5.638.071-8.333.071-.829.071-5.514.212-3.606.071 1.782.071 6.3.071 6.592.071-6.923.212 1.658.071-.041.071 1.244.07-2.529.071-.332.212 3.4.07-3.648.071-5.638.07-.124.071 3.9.212-.373.071-.166.07-.5.071-2.4.07 1.575.212 4.394.071.954.071 3.109.07-.871.071-4.352.212-3.068.071 2.28.071-1.906.07-.083.023 1.15.212 4.809.071-.373.071 2.156.07 7.047.071 2.944.212 3.9.071 4.021.07 7.959.071 11.234.07-13.763.212.663.071.166.07.58h.141l.212 5.471.071-3.523.071-3.814h.07l.071-1.119.212-6.26.07-5.721.071 6.011.071.5.071 1.493.211-6.55.071-3.068.07-2.114.071-2.114.07 4.394.211-2.072.071-6.135.07-.5.071 1.823.07-4.726.211 4.892.071 4.436.07 2.073.071-3.565.07-7.3.212-1.409.07 2.239.07-.787.071.29.07-.829.212 5.264.07-.994.07-.705.071-2.612.07-.248.212-1.492.07-3.358.071-.995.07 2.819.07-2.944.212 5.306.07-.87.071.787.07-.332.071-3.523.211-1.244.07.5.071-1.575h.07l.071 2.695.211-2.446.07 5.638.071.083.07-.125.071 3.109.211 3.358L62 106.1l.071 4.6.07 12.478.071-2.736.211.207.071-1.16.07-.29.07 2.57.066-7.169.211-2.4.071 2.735.07-1.451.07 3.4.071.746.211 1.616.071-5.555.07-.58.071.994h.284l.071.083.07-2.446.071.539.07-3.317.211-2.238.071-.871.07.373.071 2.529.07 4.394.211-2.57.071-3.233.07 6.591.071.208h.07l.212-1.244.07 4.228.07-1.866.071.954.07 1.409.212 3.4.07 2.446.071-1.368.07-1.327.07-1.036.212-.539.07 2.694.071 1.7.07 1.782.07 4.353.212.787.07-2.156.071-.164.07-.953.071 5.14.211 2.528.07.373.071-.663.07-2.321.071 1.7.211-6.55.07 1.989.071 3.026.07-2.819.071.746.211-3.275.07.871.071-1.078.07 1.7.071.249.211-1.575.071 2.57.07 1.077.07-1.906.071 3.316.211-.787.071 1.575.07-.788.071-.994.07-.83.211-2.4.071 2.612.07-2.529.071 1.907.07-1.907.211 1.575.071.373.07 2.031.071.871.07-.829.211 2.611.071.125.07-.663.071.788.07-.042.212.87.07-.829.07-2.57.071-1.078.07 1.782.212 3.358.07 1.658.07.5.071-.787.07-.249.212-3.151.07-.746.071.083.07 2.529h.07l.212-4.561.07.581.071.249.07 2.694.07 1.782.212-.166.07.042.071-1.12.07-.041.071 1.949.211-1.866.07.871.071-1.907.07 2.321.071-1.492.211 1.409.07 2.861.071.953.07.456.071.953.211-.663.07.994.071 1.161.07.788.071-.124.211-.913.071 2.322.07.041.07-.249.071-1.907.211-.373.071-1.948.07 1.824.071-2.032.07-.041.211 1.534.071 2.031.07-.5.071 1.285.07-.249.211.29.071 1.865.07.332.071-.332.07.125.211.912.071.954.07-.913.071 1.451.07.373h.212l.07-2.694.07-1.7.071.083.07.208.212-.539.07-2.156.07 1.949.071 2.031.07-.124.212 2.28.07-.332.071 1.327.07-2.156.07-.995.212 1.825.07-1.7.071 1.534.07-1.742.071-.912.211 2.861.07.042.071 2.072.07-.207.071-2.819.211 1.948.07.912.071.29.07.539.071-.954.211-5.223.07-.249.071-.083.07-.746.071.539.211-2.115.071-2.073.07.373.07-4.312.071-.124.211.622.071-1.783.07-.083.07 2.487h.071l.211.124.071.539.07-1.866.071 1.327h.07l.211-.332.071 1.078.07-1.866.071-.912.07-.622.211 5.1.071-.954.07 1.617.071-1.492.07-2.239.211-.083.071-1.824.07-3.026.071-1.409.07 1.451.212.332.07-1.368.07-.249.071-1.534.07-.7.212-1.161.07.539.071.995.07-2.944.07-3.4.212-.373.07 1.907.071-.456.07-.5.07-3.233.212.787.07.912.071 1.741.07-3.565.071-1.078.211 2.4.07-1.078.071-.705.07-1.285.071 1.824.211-1.036.07.539.071 2.073.07.622.071-1.948.211 1.782.07-2.321.071 1.161.07 1.078.071 2.363.211-1.327.071.415.07.705.07-2.114.071-2.487.211-1.741.071 1.078.07-4.145.071.415.07-.083.211 2.736.071.249.07-.083.071-.249h.282l.071-1.658.07-1.285.071-1.037.07 2.031.211 4.6.071-.041.07.7.071-1.575.07-.208.212-2.363.07 1.244.07-2.612.071-.787.07-.663.212.249.07-.7.07-1.078.071.248.07 1.409.212-1.823.07-3.565.071-4.063.07-4.933.07.456.212 5.6.07-6.8.071-.332.07-2.57.071-2.487.211-3.856.07 2.156.071-4.311.07 1.741.071 4.394.211-3.689.07-3.731.071 2.363.07-1.493.071 3.524.211-2.073.07-4.228.071 1.741.07 1.409.071-5.845.211-2.9.071-.5.07 1.99.07.995.071 2.321.211 3.4.071.249.07.539.07 2.321.071.249.211.539.071-3.648.07.373.071-.249.07.87.246 1.242.071-3.9.07 2.032.071 1.534.07 5.928.211-.456.071 1.244.07-.29.071 2.4.07-.58.211-1.7.071-.083.07 3.482.071 3.192.07 4.27.212-1.078.07-2.819.07-.663.071.829.07 1.161.212.871.07 2.487.071-.995.07 1.866.07-.995.212 1.119.07 3.523.071-.332.07-.539.07-.207.212 1.865.07-2.86.071-2.861.07-5.638.071.249.211.539.07.995.071.5.07-1.119.071-3.151.211-.207.07-2.4.071.083.07 2.072.071.5.211-.332.07-.5.071 3.026.07.456.071.414.211 1 .071-3.275.07-1.2.07.456.071.249.211 1.948.071 1.244.07 3.441.071 2.2.07-.456.211.332.071 1.12.07 5.762.071-.954.07 2.073.211 1.492.071-.373.07 3.4.071.829.07 1.741.211-.5.071 1.658.07 1.658.071 2.446.07-2.072.212 1.327.07-2.2.07 2.694.071 2.985.07-.249.212-4.063.07-.829.07.083.071 3.275.07-1.741.212 2.073.07-2.529.071-2.363.07 1.161h.07l.212 1.492.07 1.948.071-.083.07 4.809.071-3.317.211-3.523.07.58.071-3.773.07-1.534.071.249.211-1.907.07-.29.071-2.985.07 3.731.071.622.211-.622.07-3.4.071-3.606.07-.415.071-2.239.211-1.907.071-3.565.07 2.819.07.953.071 2.2.211.788.071 1.948.07-3.856.07.332.071.705.211.58.071 3.9.07-1.741.071-2.86.07.539.211-2.695.071.166.07-1.036.071-1.161.07.87.211.871.071 1.409.07-1.409.071 3.441.07 1.907.211-.332.071 1.7.07-4.85.071-2.943.07-3.151.212-1.451.07 1.12.07.622.071 5.471.07 3.524.212-.912.07 1.409.071 3.109.07-.788.07 1.12.212 1.119.07.58.071 1.907.07.746.07-.125.212-.414.07 1.409.071 1.036.07-1.244.071-2.528.211-1.742.07 1.825.071.249.07-.954.071-1.782.211-1.907.07 1.576h.071l.07 1.119.071 1.534.211.911.07-.041.071 1.409.07.912.071-.207.211 1.534.071-.166.07-.373.07.911.071 2.28.211 1.492.071-2.736.07.622.071-2.363.07-.995.211 3.814.071-1.409.07 1.451.071 1.12.07 2.653.211 1.327.071.332.07-1.534.071-.165.07-.29.211-1.741.071.746.07.5.071 2.4.07-1.368.212 2.073.07-1.534.07 2.736.071-.332.07 2.363.212.664.07.7.07.456.071-1.825.07.995.212-3.523.07.539.071 4.27.07 1.327h.282l.07.663.071.953.07 2.446.071 1.244.211-.456.07-1.078.071 1.906.07-1.244.071-6.052.211-2.073.07-.787h.071l.07-4.187.071 2.612.211-2.819.07.58.071 1.161.07.787.071-.58.211-4.519.07 1.451.071-.415.07 2.073.071 1.989.211.125.071 2.28.07.456.07 1.036.071.581.211 2.114.071 1.078.07-.871.071.125.07-2.487.211-2.653.071 1.907.07-3.151.071-4.187.07 3.731.211-.7.071 2.819.07.456.071-3.731.07.166.211-.332.071 1.161.07 3.317.071.539.07.705.212.207.07-.746.07-2.86.071-1.451.07-.083.212-3.855.07-1.742.07 2.073.071 2.695.07-1.161.212-2.114.07 2.4.071.954.07.332.07 3.4.212-.207.07 1.823.071-.5.07-3.773h.071l.211 3.151.07-4.975.071 2.653.07-1.451.071-1.534.211 1.451.07.87.071 2.032.07-4.6.071 2.2.211 1.2.07 1.037.071 2.321.07-2.114.071.29.211.58.071.954.07-.58.07-.166.071-.415.211 1.658.071-1.658.07.953.07-3.316.071-.622.211-2.653.071-.58.07-1.327.071.208.07-4.85.211-3.565.071-.249.07 1.865.071 1.451.07-.746.211-2.653.071 1.534.07-1.658.071-4.228.07-.415.211 1.617.071 1.783.07 1.161.071-.373.07-2.529.212-4.063.07-3.44.07 3.69.071-1.576.07 3.814.212 3.607.07.332.071 3.523.07-.87.07 1.741.212-.663.07-2.2.071 3.316.07-.456.07-.166.212 1.244.07 1.327.071.208.07 2.321.071 2.57.211-3.316.07-8.125.071 3.98.07-.788h.071l.211-.663.07.995.071-3.4.07-.373.071.746.211.208.07-2.86.071-1.078.07-.083.071 2.156.211-2.695.071 1.782.07-3.4.07-.332.071-3.358.211 2.778.071-.29.07 1.907.071 1.7.07.456.211-1.575.071-1.119.07-.415.071.788.07-.622.211-3.109.071-1.658.07-4.519.071.622.07 1.078.211-.58.071.829.07-.456.071-.207.07.249h.212l.07.29.07.124.071-4.56.07 1.244.212-.083.07 1.949.07-1.617.071-2.9.07-1.409.212-1.244.07 2.032.071-2.28.07.456.07.913.212-2.612.07 3.068.071 1.036.07 2.032.071-.249.211 2.861.07-.373.071-1.492.07 4.975h.071l.211-.871.07 1.576h.071l.07-1.949.071 1.575.211-2.861.07 1.741.071 3.814.07.332.071-2.321.211 1.534.071-2.032.07-1.824.07-2.694.071 4.311.211 2.528.071-1.036.07.166.07 1.658.071 2.612.211-.539.071 1.492.07-.249.071-3.026.07-2.239.211.083.071-1.616.07-.787.071 2.9.07-1.2.211-1.741.071-1.492.07.124.071-.124.07 1.451.211.787.071 1.161.07.663.071-1.409.07 1.783.212.829.07 1.327.07.083.071-1.534.07 1.99.212-.871.07-.083.071-4.1.07-1.782h.282l.07 1.119.071.373.07.539.07-.125.212-2.984.07 2.611.071-.954.07-.165.071 2.57.211-1.492.07.746.071 1.078.07.208.071.332.211-.373h.07l.071-1.989.07-.166.071.207.211-2.4.07-.207.071-1.825.07.29.071-.456.211-1.989.071-.5.07-2.694.07-1.409.071.995.211.746.071.456.07-2.819.071-2.653.07-.29.211.539.071-1.12.07-2.28.071-.953.07-2.2.211 3.109.071-.207.07 1.492.071 2.9.07-3.358.211 2.031.071-1.368.07 1.119.071.456.07 1.161.212.58h.07l.07 2.2.071-.871.07-3.4.212-1.368.07-.331.07.082.071-1.616.07 4.56.212.083.07-.456.071-.414.07-3.565.07-1.327.212-2.28.07-.207.071-.705.07-2.28.07.207.212-.207.07 2.86.071-1.285.07 1.451.071-2.4.211-2.653.07-.456.071 1.285.07 3.482.071 1.575.211-1.949.07 1.037.071.415.07 1.285.071-2.777.211 3.69.07 1.534.071-2.695.07-.953.071-1.078.211 2.114.071.332.07-2.072.07.083.071 1.575.211-.995.071 3.483.07.539.071 2.736.07-1.2.211.622.071.5.07-.083.071-.042.07 1.742.211-1.12.071.29h.07l.071 1.534.07 1.783.211 1.782.071.29.07 2.736.071.332.07 4.518.212-.207.07-.747.07-1.285.071-1.2.07.871.212-1.782.07.373.07-2.156.071.705.07 1.409.212-1.327.07 1.327.071-.664.07 1.2.07 1.244.212-1.078.07-.125.071-1.616.07.746.071 1.285h.211l.07 1.865.071 1.783.07-.042.071-2.031.211.7.07-1.409.071-1.575.07 1.285.071-2.114.211-.249.07 1.575.071.787.07-.456.071-3.109.211-1.865.071.58.07-1.368.07-.249.14-1.098.211 1.078.071-.995.07.746.07.788.071-.29.211.415.071 1.2.07-.083.071 2.2.07.373.211 1.368.071-.042.07-1.741.071 2.528.07-.207.211 1.741.071.87.07-.663.071.166.07-4.1.211.622.071 1.575.07 1.12.071.912.07.083.212 1.907.07.456.07 2.9.071-1.285.07-.912.212.249.211 1.119.07-1.989.212.29.141 1.616.07-3.814.07-2.2.212.663.07 1.12.071-.705.07 1.368.071 3.814.211 1.576.07-.332.071-1.161.07 2.114.071-.995.211-.042.07-.124.071.29.07.456.071 2.778.211-.581.07-.249.071 2.446.07.207.071 2.114.211-2.073.071-.332.07-.456.07.663.071-3.938.211.373.071 1.078.07.995.071-3.565.07-.041.211.622.071-.042.07.5.071-4.352h.07l.211 2.777.071-5.389.07.5.071.746.07-3.109.211.166.071.664h.07l.071-.58.07 1.948.212-2.363.07 1.451.07-1.782.071-1.078.07 3.649.212-3.856.07.373.07.042.071-.87.07.953.212-.332.07-1.824.071-2.363.07.953.353.87.071-.29.07-.29.071 3.15.211 1.949.07.415.071 1.12.07.787.071-1.617.211.705.07 1.161h.071l.07-2.032.071 1.7.211-1.866.07-1.161.071.373.07 1.824.071-1.99.211 2.777.071-.994.141 2.86.071-1.824.211-.208h.071l.07.705.07.166.071-3.731.211-.373.071.083.07-2.819.071.663.07-.539.211-.373.071.332.07 1.409.071-.871.07 1.244h.282l.07.332.071-.208.07 1.534.211.041.071 2.073.07-.622.071 1.244.07 3.4.212-1.244.07 1.534.07.083.071.912.07-.29.212.788.07.87.071.746.07-4.85.07-.456.212-2.28.07 1.161.071-2.653.07.207.07 1.161.212-1.037.07-.5.071-1.451.07.622.071-2.487.211-.829.07.166.071-1.12.07 5.762.071-.248.211-.539.07 2.57.071.415.07-1.037.071.747.211 1.036.07.332.071 1.575.07-1.078.071 1.409.211.207.071.332.07-.208.07-.912.071-.788.211 1.285.071.539.07.58.071 1.285.07.29.211-2.155.071.249.07-1.12.071 1.285.07.995.211.083.071 1.119.07-.208.071-1.409.07.747.211.166.071-.539.07.208.071-1.907.07-.746.211-.664.071-.829h.07l.071.7.07-2.031.212 1.865.07 1.078.07.663.071.539.07.083.212 1.451h.07l.071-.124.07 4.435.07-.7.212-.125.07-.787.071.7.07-.125.07.871.212-.746.07 1.119.071-.87.07 1.782.071-.041.211-.456.07.083.071-1.368.07.373.071.787.211-.041.07-1.617.071 1.534.07 2.238.071.5.211-.373.07.166.071 1.7.07 1.161.071-.581.211.125.071-.332.07-.29.07-2.529.071-3.068.211.042.071-.29.07.539.071-3.483.07 1.534.211-.87.071.87.07-.373.071.456.07.58.211 1.285.071-.332.07.539.071-1.244.07 1.037.211-.083.071.746.07 1.12.071-.083.07.415.212-1.7.07.954.07.332.071.041.07 1.492.212 1.327.07.622.07.373.071.166.07-1.036.212 1.078.07-.58h.071l.07-1.824.07-.249.212 1.037.07-.415.212 2.86.211-.663.07.166.141-2.944.071-.539.211-.705.07.871.071-1.037.07.415.071-.58.211 1.492.07.29.071-1.368.07-.207.071-.29.211-.373.071-.912.07.912.07 1.617.071 1.078.211-.664.071-.207.07-.912.07-.746.071-1.327.211-.415.071.5.07.539.071-1.078.07 1.783.211 1.451.071.829.07-2.321.071 2.28.07.7.211-.166.071.7.07.332.071-.87h.07l.211.622.071.415.07-.58.071-1.575.07 3.441.212-.954h.07l.07-.788.071.29.07 3.233.212-.29.07-.664.071.788.07 1.161.07-1.244.212.5.07-.083.071.207.07-3.233.07.373.212-.125.07.332.071.042.07-.7h.071l.211.622.07.041.071.125.07-.539.071-1.534.211.5.07 1.119.071.415.07 1.617.071.083.211-.954.07-.539.071.829.07.29.353-.787.07.332.07-.29.071.248.211.664.071-.788.07.539.141.249.211.249.071 1.534.07-.373.071.539.07-3.69.211-.373.071-1.368.07.373.071-1.327.07.829.211.415.071-.29.07-.581.071-.166.07-.87.212.125.07.083.07-.7.071.124.07-.124.212.083.07.746.07-.373.071-1.368.07 1.7.212-.788.07-1.368h.071l.07-.414.07.124.212-.041.07.829.071-.125.07 1.285.071-.7.211.166.07.5.071-.083.07-.208.071.332.211.829.07.664.071-.705.07-.207.071-1.285.211.083.07-.083.071.332h.07l.071-.208.211.747.071-.332.07-1.823.07-.166h.071l.211-.166.071-.83.07-.373.07.166.071-.705.211-.166.071-.124.07-.622.071-.5.07.373.211.622.071-.953.07-.829.071.5.07.5.211-.042.071-.953.07.332.071.29.07.373.211-.125.071-.663.07-1.658.071-.5.07.125.212-1.617.07-.165.07-.373.071.042.07.207.212-1.285.07-.456.071.87.07-3.275.07-1.658.212-.042.07-1.119.071.663h.07l.07.083.212-.5.07.912.071.207.07-2.114.071-.5.211-.166.07 1.161.071-1.658.07-2.9.071.539.211-.787.07-3.068.071.5.07.746.071-.373.211-1.368.07 1.12.071.994.07 3.026.071-3.233.211 1.078.071-.871.07.539.07 2.114.071 1.907.211-1.285.071-.29.07-1.742.07-.622.071-.29.211.539.071 1.782.07-.29.071-3.607.07-1.948.211-.788.071.539.07-.912.071.995.07-3.316.211 2.487.071-1.658.07 1.161.071-.29.07-.539.211 1.575.071.5.07.539.071.125.07-3.109.212-.332.07.373.07 1.368.071.124.07.083.212-.373.07-1.2.071-2.528.07-.539.07 1.409.212-2.861.07 3.026.071.622.07 1 .07.58.212-.663.07 2.984.071-2.363.07-4.435.071-.166.211-.539.07-1.285.071.166.353-.622.07-1.037.071-.539.141-2.777.211-3.69h.07l.071-2.446.07-1.907.071 1.368.211-.29.071-.663.07-.207.07-1.99.071-3.69.211.539.071-.787.07.414.071.788.07-13.39.211 1.492.071 2.031.07 1.244.071-.953.07-.332.211.166.071 2.156.07 2.2.071-1.119.07 1.161.211-5.513.071.7.07.539.071.456.07 1.7.212.871.07.249.07-1.409.071.5.07-2.86h.212l.07.953.07.58.071-.912.07-2.529.212-.415.07-1.948.071-1.492.07-1.824.07-3.648.212-3.565.07-4.353.071-5.845.07 1.327.071-1.534.211-.539.07 2.86.071-1.575.07 3.109.071 3.565.211 4.809.07 1.327.071 1.2.07-.415.071-4.063.211-.415.07-3.068.071-.124.07 2.653.353.622.07.539.07-3.151.071-7.42.211-.663.071.456.07.539.07 4.85.071 3.689.211-3.275.071-.829.07 1.575.071 1.036.07 1.824.211-.041.071 3.648.07 2.612.071 7.13.36-2.095.071-1.161.07 3.731.071 2.446.07-2.736.211-2.612.071 3.192.07-.58.066 6.42.07-2.943.212 1.99.07-6.84.07-2.031.071.5.07 1.036.212-6.3.07-1.783.071-2.239.07 1.161.07 2.57.212-.871.07 2.9.071 3.565.07 6.011.07-3.233.212-1.865.07 2.86.071.995.07-1.534.071-.415.211-.041.07-.124.076 2.115.07 4.021.071-3.358.211 1.492.07-4.6.071.29.07-.249.071-.124.211-2.28.07 1.865.071-2.985.07-1.161.071 1.036.211-2.985.071-2.653.07 3.192.07 1.036.071 4.353.211-4.56.071-.58.07-.746.071-4.933.07.746.211-1.285.071.539.07 1.2.071 3.358.07-2.073.211 4.1.071-1.119.07.166.071-2.57.07.415.211-.58.071.788.07-3.151.071.083.07 1.948.212.663.07 3.233.07 3.358.071-1.534.07 2.073.212-2.363.07-1.368.07-.622.071 4.767.07 3.233.212 6.881.07.29.071-3.275.07-3.814.07-.539.212-1.741.07.7.071.622.07-.871.071-2.985.211.249.07.539.071-.746.07 1.492.071 2.736.211 1.2.07.5.071-2.985.07 2.736.071 3.441.211-5.472.07-3.151.071-.166.07 3.026.071-2.985.211.622.071 1.161.07-.041.07-1.658.071.207.211 2.529.071-.373.07 1.368.07-.415.071 3.524.211.332.071.041.07 1.161.071.912.07-2.529.211-.871.071 1.285.07-.58.081-1.317.07-7.586.211-2.487.071 1.7.07.829.071-5.306.07 2.985.211.5.071-1.907.07-1.409.071-1.824.07-.663.212-3.109.07-2.321.07.166.071.373.07 1.368.212-1.492.07-1.907.071-.166.07.788.07.041.212-2.073.07.7.071-2.363.07.953.07-1.2.212-.041.07.788.071.456.07 2.156.071 8.208.211-3.275.07 2.363.071 2.28.07.083.071.249.211 1.119.07.249.071-1.99.07-3.192.071-.166.211 1.161.07 2.86.071-1.244.07 1.078.282.539.071-.373.07-.871.07-1.368.282.373.071-5.389.07-.124.077 4.481.07-.249.211.953.071-1.824.07-.746.071 2.736.07.7.211-.746.071-.829.07 1.368.071-.5.07-2.985.211.249.071.746.07 1.824.071.5.07.58.212-1.244.07 1.244.07.456.071 9.244.07-.124.215-3.353.07 4.477.07.7.071 2.9.07-2.321.212-3.151.07-.456.071-.995.07-1.741.07.415.212-2.363.07-.829.071-.746.07 1.575.071-.7.211-4.063.07-.58.071-.539.07 1.575.071 2.363.211-.58.07 2.57.071-1.865.07-4.063.071 8.042.211.953.07-.332.071-1.492.07 8.167.071-1.036.211-.249.071-1.948.07-1.368.07-.539.353 1.327.07 4.228.07 1.99.071 1.492.211-1.658.071-.415.07-.995.071.871h.07l.211.829.071.207.07-3.151.071-1.492.07 1.036.211.7.071 1.2.07 1.161.071-.788.07-2.985.211.041.071.746.07.539.071 1.783.07 1.409.212 2.86.07 2.363.07-1.99.071-2.073.07-.373.212-1.036.07-.622.071 1.078.07-.622.07-1.327.212-.788.07-.166.071-1.285.07-2.695.07.746.212-.166.07-1.534.071-.746.07.746h.071l.211-.953.07.5.071.663.07.456.071-1.119.211 6.384.07-.041.071.953.07-1.119.071-1.244.211-1.2.07-1.409.071.166.07-1.824.071 2.612.211 2.529.071-.58.07-.995.07 3.441.078-10.646.211-2.321.071 2.57.07.58.07.415.071 1.078.211.124.071.249.07-2.57.071.373.07-.332.211-.746.071 1.451.07-.663.071 2.86.07-.953.221-2.534.071-.622.07-.746.071.041h.07l.211-1.119.071.539.07-.207.071 3.358.07.788.212 1.7.07.953.07.207.071-2.114.07.663.212-2.321.07-.29.071 3.565.07-1.036.07.166.212.7.07 3.814.071-.622.07 1.451.07.166.212-.663.07 1.078.071-2.321.07.746h.071l.211-3.98.07-.041.071-1.2.07.456.071 1.575.211-1.244.07.124.071 2.57.07 1.907.071-.912.211-1.368.07.7.071-.953.07 1.161.071-.912.211-2.031.071.663.07-1.161.07 2.943.071-.788.211 1.575.069-1.403.07.166.071-.124.07-1.99.211 2.487.071-2.487.07 1.658.071-.871.07-1.492.211.663.071-2.695.07-1.99.071.58.07-1.2.211-.29.071-.041.07-.456.071.041.07-3.275.212.166.07-.663.07 1.865.071.041.07-.166.212.829.07 2.736.07 2.363.071-1.036.07.953.212-1.036.07-.829.071-.539.07-4.394.07.332.212-4.477.07-.415.071-2.28.07.539.071-3.192.211.083.07-.539.071-.539.07-1.99.071 1.617.211-.166.07-.415.071 2.156.07-.29.071.539.211 2.2.07 1.161.071-.166.07 1.161.071-7.42.211 1.368.071.539.07 1.244.07-8.415.071.788.211-.663.071-2.239.07 2.2.07.871.071.083.282-.041.07-1.658.071 1.948.07 3.316.211-2.86.071-3.026.07 1.99.071 2.4.07 3.275.211-2.695.071 1.907.07-2.4.071 6.508.07-.663.211-2.446.071 3.275.07-.7.071.124.07-1.327.212 3.026.07 1.2.07-.166.071-1.575.07-.663.212-1.865.07 4.519.071 1.244.07.663.07-2.4.212-1.036.07-1.368.071-.332.07.953.07-2.28h.212l.07-.249.071-2.487.07 3.565.071-.083.211-1.244.07-2.9.071-.912.07 2.239.071 1.327.211-.829.07.373.071-2.363.07-.7.071 1.907.211.995.07-.58.071-.746.07-.207.071 2.031.211 2.114.071-1.161.07-.332.07 3.772.071.373.211.539.071 1.783.07.207.071-.746.07.663.211 2.943.071-1.036.07-3.938.071-.415.07-1.658.211-1.078.071-.373.07.995.071-.456.07-1.285.211-1.948.071 1.409.07-.415.071.953.353 1.865.07 1.575.071.7.07-1.7.212 5.389.07 1.492.07.083.071-.415.07 1.7.282-.539.071.166.07.249.07 1.2.212-.788.07-1.741.071-.207.07-.788.071.539.211 3.358.07 2.985.071 1.948.07.373.071 1.7.211 2.114.07-.953.071-.7.07.7.071-.622.211-.249.07-.5.071 1.575.07-.041.071-.083.211 1.036.071.29.07-1.327.07.373.071-1.741.211 1.492.071-.124.07-.456.07-1.244.071.041.211 1.078.071-1.451.07-.29.071.746.07.124.211.456.071 2.985.07 3.151.071 1.2.07-.041.211-1.368.071-.5.07-.788.071 1.824.07.829.211-.788.071.58.07 1.409.071-1.036.07-.041.212 1.492.07 2.9.07-.705.071-1.492.07 4.85.212.207.07 1.409.071-1.534.07 1.534.07 1.037.212-.042.07 2.529.071.5.07.913.07.248.212-2.114.07.5.071-2.446h.07l.071.994.211.954.07-1.575.071-1.036.07-.373.071 1.285.211.622.07.332.071.829.07.207.071.042.211 3.441.07 3.565.071-3.814.07-2.694.071 2.819.211-.456.071-.415.07 1.161.07 1.161.071 2.57.211-1.782.071-1.866.07 1.327.071-2.735.07 2.28.211-.456.071.7.07 1.036.071-2.984.07 1.616.211-2.736.071-2.363.07-1.368.071 1.119.07.829.211-1.865.071.29.07.994.071-1.327.07-1.077.212 1.161.07 1.534.07.995.071.746.07-1.327.212-.208.07-1.327.07-.29.071 2.529.07-.5.212-2.322.07.622.071.746.07-.953.07-4.519.212.207.07.788.071-.788.07 1.037.071.332.211-2.032.07-.87.071.87.07 1.244.071.705.211.083.07 2.695.108 2.822.07-2.032.071.705.211-.415.07-1.907.071.954.07 2.943.071.83.211 2.2.071-1.866.07-1.782.07.622.071 1.078.211-.581.071-.539.07-.87.07-.954.071-1.285.211 1.617.071-.912.07-.912.071 3.275.07-1.161.211-.331.071.829.07.663.071.415.07-.208.353 1.244.071 1.161.07 1.7" class="cls-8" data-name="Path 16275" transform="translate(-2.325 -11.916)"/>
            </g>
        </g>
        <g id="Group_2862" data-name="Group 2862" transform="translate(62.181 204.611)">
            <text id="_0" class="cls-9" data-name="0" transform="translate(1 5)">
                <tspan x="-1.39" y="0">0</tspan>
            </text>
            <text id="_10" class="cls-10" data-name="10" transform="translate(50.745 6)">
                <tspan x="-3.336" y="0">10</tspan>
            </text>
            <text id="_15" class="cls-10" data-name="15" transform="translate(102.226 6)">
                <tspan x="-3.336" y="0">15</tspan>
            </text>
            <text id="_20" class="cls-10" data-name="20" transform="translate(153.778 6)">
                <tspan x="-3.336" y="0">20</tspan>
            </text>
            <text id="_25" class="cls-10" data-name="25" transform="translate(205.259 6)">
                <tspan x="-3.336" y="0">25</tspan>
            </text>
            <text id="_30" class="cls-10" data-name="30" transform="translate(256.325 6)">
                <tspan x="-3.336" y="0">30</tspan>
            </text>
        </g>
        <g id="Group_2863" data-name="Group 2863" transform="translate(19.565 29.65)">
            <text id="_0-2" class="cls-10" data-name="0" transform="translate(8.426 130.638)">
                <tspan x="-3.336" y="0">0</tspan>
            </text>
            <text id="_-5" class="cls-11" data-name="-5" transform="translate(8.705 171.462)">
                <tspan x="-6.356" y="0">-5</tspan>
            </text>
            <text id="_5" class="cls-10" data-name="5" transform="translate(8.426 88.909)">
                <tspan x="-3.336" y="0">5</tspan>
            </text>
            <text id="_10-2" class="cls-11" data-name="10" transform="translate(8 47.729)">
                <tspan x="-7.784" y="0">10</tspan>
            </text>
            <text id="_15-2" class="cls-11" data-name="15" transform="translate(8 6)">
                <tspan x="-7.784" y="0">15</tspan>
            </text>
        </g>
    </g>
</svg>
