<svg xmlns="http://www.w3.org/2000/svg" width="160.943" height="150.762" viewBox="0 0 160.943 150.762">
    <defs>
        <style>
            .cum-brain-1{fill:none;stroke:#0f81dc}
        </style>
    </defs>
    <g id="Group_2522" data-name="Group 2522" transform="translate(.491 .466)">
        <path id="Path_13834" d="M136.6 138.769c-3.044-3.295-5.486-6.811-6.073-11.322-1.5-.023-.394 3.186-.17 3.981.493 1.747 1.582 2.92 2.6 4.37-.1.062-.2-.232-.3-.17-3.039-1.875-3.235-4.757-3.758-8.628h-1.676v.425c.27.005.288 1.167.231 1.713 1.061 4.094 5.598 9.225 9.146 9.631z" class="cum-brain-1" data-name="Path 13834" transform="translate(-28.928 -16.25)"/>
        <path id="Path_13835" d="M135.193 121.01a1.933 1.933 0 0 0-.834.206c-1.01.465-1.232 1.568-1.794 2.409.314.121.527.206.809.317.617-.991 1.195-1.923 1.819-2.932z" class="cum-brain-1" data-name="Path 13835" transform="translate(-27.375 -17.99)"/>
        <path id="Path_13836" d="M132.883 123.489q.577-1 1.151-2.005c-2.064.164-2.684 1.867-3.662 3.464-.08.13-.138.226-.008.012-.316.519-.618 1.045-.959 1.623 1.376.29 1.759-1.409 2.391-2.234.304-.392.865-.475 1.087-.86z" class="cum-brain-1" data-name="Path 13836" transform="translate(-28.293 -17.852)"/>
        <path id="Path_13837" d="M120.83 128.733c-.576.174-.791 1.1-.528 2.55a11.857 11.857 0 0 0 5.5 6.585 13.865 13.865 0 0 0 3.9 1.616c.688.169 2.43-.314 2.736-.983.61-.934-2.216-3.855-2.651-4.645-1.081-1.965-1.438-4.117-2.349-6.129-.453-1.005-1.185-.146-1.745.252a4.637 4.637 0 0 1-2.28.805 15.037 15.037 0 0 0-2.583-.051z" class="cum-brain-1" data-name="Path 13837" transform="translate(-30.97 -16.175)"/>
        <path id="Path_13839" d="M127.22 127.6v.1l.006.005c.002-.035-.006-.071-.006-.105z" class="cum-brain-1" data-name="Path 13839" transform="translate(-28.928 -16.076)"/>
        <path id="Path_13840" d="M137.237 120.371c-.044-.043-.086-.085-.13-.126-.395.161-.954.212-1.16.506l-.021.031c-.911 1.3-1.724 2.68-2.572 4.029l.228.267c1.599-.662 2.7-3.278 3.655-4.707z" class="cum-brain-1" data-name="Path 13840" transform="translate(-27.146 -18.212)"/>
        <path id="Path_13841" d="M138.809 149.9a91.338 91.338 0 0 1-.445-9.257c.005-.5.334-1.493-.05-1.9a6.162 6.162 0 0 0-2.067-.927c-1.349-.565-2.692-1.14-4.038-1.711-1.124.785-1.783 1.114-1.542 2.567a52.63 52.63 0 0 0 .969 4.657c.647 2.467.788 5.029 1.217 7.524.515 2.99 1.1 5.922 1.429 8.937a26.048 26.048 0 0 0 .586 2.892 40 40 0 0 0 5.1-1.392q-.081-.78-.165-1.55-.54-4.911-.994-9.84z" class="cum-brain-1" data-name="Path 13841" transform="translate(-27.941 -13.604)"/>
        <path id="Path_13842" d="M135.412 154.882c-.843-4.887-1.813-9.751-2.67-14.638a13.206 13.206 0 0 1-7.378-2.442 25.026 25.026 0 0 1-3.544-2.8 8.594 8.594 0 0 1-1.724-3.046c-.909-3.277.457-3.891-.268-3.807-.714.262-.822 1.807-.656 2.967a9.648 9.648 0 0 0 2.224 4.566 14.947 14.947 0 0 0 3.545 2.6c.618.276 2.83 1.414 4.028 2.149s.858 1.112 1.017 2.333c.172 1.329.688 2.653.959 3.97.321 1.563.658 3.124.991 4.686.662 3.088 1.3 6.179 1.869 9.286a43.427 43.427 0 0 1 .932 4.937c.6-.093 1.367-.221 2.238-.386-.161-.967-.275-1.923-.41-2.74-.424-2.543-.714-5.1-1.153-7.635z" class="cum-brain-1" data-name="Path 13842" transform="translate(-31.285 -15.919)"/>
        <path id="Path_13843" d="M139.145 119.433l-.181-.128c-.034.025-.206.15-.463.357-1.82 1.52-2.564 3.857-4.113 5.585l.274.28c1.961-1.427 3.172-4.075 4.483-6.094z" class="cum-brain-1" data-name="Path 13843" transform="translate(-26.845 -18.485)"/>
        <path id="Path_13844" d="M148.229 117.937c.665-1.3.747-5.108-.13-6.334-.533-.745-1.445-.292-2.042-.852-.672-.635-1.123-.41-2.11-.288-2.5.308-4.861.006-7.135 1.318a32.837 32.837 0 0 0-4.744 3.819 20.131 20.131 0 0 1-5.245 3.207c-1.845.81-5.456.306-5.867 1.46-.33.927.752 2.421 1.656 3.024a4.932 4.932 0 0 0 3.775.474 10.292 10.292 0 0 0 2.662-1.422c1.289-.881 2.606-1.74 3.939-2.611 2.224-1.456 6.806-5.419 9.625-4.216l-.054.225c-.454.142-.91.284-1.333.414.818 1.24-.849 1.394-1.865 1.688a12.63 12.63 0 0 0-3.613 1.636c-2.355 1.525-7.556 3.807-7.143 4.455.676 1.061 6.7.112 9.991-1.174a29.991 29.991 0 0 0 4.45-2.22 3.9 3.9 0 0 1 2.638-.774c.111.027.235.055.3.07-3.007 2.082-4.108 5.392-6.085 8.094 1.7-1.613 2.655-3.741 4.157-5.516 1.269-1.504 3.261-2.7 4.173-4.477z" class="cum-brain-1" data-name="Path 13844" transform="translate(-30.765 -21.095)"/>
        <path id="Path_13845" d="M126.372 122.242c2.238 3.168 7.7 1.842 10.627.595 1.729-.736 2.729-2.172 4.22-3.251a23.283 23.283 0 0 1 4.963-2.844 18.194 18.194 0 0 1 5.878-1.036c2.1-.1 3.97-.675 6.132-.675v-.1c.2.019.4-.04.6-.036l-.36-.036.36.036a3.944 3.944 0 0 0 3.819-2.018 26.693 26.693 0 0 0 2.675-5.932 6.438 6.438 0 0 0 .054-3.315c-.477-1.182-1.586-.768-2.5-.472a12.683 12.683 0 0 1-3.008.885 10.475 10.475 0 0 0-2.62.427c-2.069.656-3.431 2.407-5.593 2.973-2.306.6-3.94-.377-5.646-1.83-1.4-1.2-3.4-2.559-4.217-4.266a2.392 2.392 0 0 1 .416-2.618c.508-.512 1.435.688 1.751.965 1.709 1.5 3.438 3.653 5.634 4.406a6.53 6.53 0 0 0 5.9-.43c2.013-.978 4.228-1.177 6.234-2.115 2.416-1.128 2.611-2.341 2.643-4.869.03-2.382.391-5.149-.071-7.491-.444-2.249-3.024.079-3.71.788-1.467 1.519-3.295 2.409-4.923 3.7-1.58 1.254-1.378 5.086-3.351 4.885-1.451-.15-.472-2.331-.666-3.732-.185-1.338-1.235-2.079-2.227-2.886-2.042-1.658-4.976-1.2-7.409-.524a17.378 17.378 0 0 0-3.989 1.78c-.8.465-2.35 1.038-2.5 2.116-.357 2.653-1.9 5.152-2.057 7.793a6.181 6.181 0 0 0 2.839 5.383 30.748 30.748 0 0 1 3.36 2.878c.519.476.5 1.316.985 1.634.779.512 1.888 1.069.239 1.576-.723.223-2.1-.148-2.629.345-1.642 1.528-1.8 6.97-3.79 5.543-1.382-.99 1.341-2.812 1.563-4.456a6.4 6.4 0 0 0-1.274-4.025 9.077 9.077 0 0 0-7.082-4.714 21.488 21.488 0 0 1-5.348-.625c-1.467-.51-3.2 1.017-4.417 1.7-1.31.732-3.655 1.4-4.023 2.971-.363 1.541-.052 3.359-.987 4.617-1.146-1.321-.685-4.967-2.963-5.1a13.892 13.892 0 0 1-4.309-.794c-.875-.328-2.054-1.029-2.942-.351-.964.737-.816 2.316-1.516 3.275-.346.474-.474 1.063-.807 1.543-.187.271-.711.443-.751.759-.346 2.7 2.162 8.281-.581 8.174-.645-.026-1.029-2.48-1.045-4.038-.008-.739.159-3.217-.93-3.32-1.3-.123-2.5.266-3.841-.05-1.036-.243-2.612-1.836-2.989-1.027-1.523 3.657-3.41 7.432-1.506 11.38 1.639 3.4 5.93 4.679 9.395 5.067 1.578.178 4.358.723 6.339-.036.563-.215.845-1.018 1.078-1.625.243-.63.533-1.274.732-1.919a18.95 18.95 0 0 0 .8-2.506c.112-.77-1.084-1.725-1.521-2.252-.89-1.074-3.723-3.389-3.253-4.961 1.253-.2 2 .582 2.738 1.452 1.1 1.3 2.193 2.617 3.314 3.9.854.982 2.76 1.021 3.952 1.027 1.68.01 3.144-.9 4.681-1.472a5.276 5.276 0 0 1 2.435-.675 15.811 15.811 0 0 0 2.444.517c1.474.046 1.23-2.053.687-2.882-.827-1.262-1.749.258-2.914.267-.889.006.311-1.25.76-3.06.263-1.061-.056-2 .425-2.689 1.39-1.978 1.088 2.985 3.015 3.039.881.025 1.776-2.013 2.2-2.631.52-.751.8-2.1 1.639-1.811 1.554.537-.155 3.382-.907 4.891-.779 1.587-1.573 2.484-.354 4.208zm-35.25-2.258c1.271-.565 2.6 2.727 2.99 3.277a19.881 19.881 0 0 0 3.424 3.784l.017.014c.4.334.95.758.914 1.244-.226 3.17-9.056-7.555-7.346-8.319z" class="cum-brain-1" data-name="Path 13845" transform="translate(-40.352 -27.51)"/>
        <path id="Path_13846" d="M144.51 117.184h6.158c.006 0 .014.342.021.275a2.1 2.1 0 0 0-1.92-.027 2.61 2.61 0 0 1-1.758-.106c-.586-.166-.924-1.158-1.639-.921-.632.21-1.24 1.208-1.689 1.672-2.44 2.524-4.89 5.033-7.272 7.614l.268.274c1.083-1.021 2.167-2.04 3.4-3.2l-.049.9c5.358-2.953 11.341-3.412 17.121-4.657-1.512-.55-3.892-.106-5.494-.108q-2.793 0-5.588-.01c3.493.009-.573 0 0 0a2.858 2.858 0 0 1-1.59-.893c.011-.117.021.477.031-.813z" class="cum-brain-1" data-name="Path 13846" transform="translate(-26.258 -19.339)"/>
        <path id="Path_13847" d="M147.75 70.16a4.94 4.94 0 0 0-2.4-1.479c-1.11-.274-3.8-.319-3.572 1.431.152 1.154 1.154 2.087 1.847 2.957a69.1 69.1 0 0 0 2.406 2.886c1.556 1.751 2.1 3.727 2.838 5.912 2.86-3.843 2.671-9.124.916-13.388-1.429-3.466-3.748-7.881-7.858-8.493-2.061-.306-3.844.176-4.877 2.091-.929 1.727-1.069 2.66.758 3.8.781.485 1.431 1.523 2.309 1.753a5.092 5.092 0 0 0 2.6-.236c2.555-.75 4.152.139 6 1.773.959.833-.043 1.983-.967.993z" class="cum-brain-1" data-name="Path 13847" transform="translate(-26.266 -35.743)"/>
        <path id="Path_13848" d="M137.62 138.461a153.857 153.857 0 0 0 .831 15.472c.274 2.064.468 4.123.719 6.189a7.447 7.447 0 0 0 2.745-1.813l-.136-.862c-.4-2.511-.77-5.02-1-7.553-.236-2.615-.892-5.2-1.332-7.79-.282-1.661.005-3.239-1.827-3.643z" class="cum-brain-1" data-name="Path 13848" transform="translate(-25.906 -12.921)"/>
        <path id="Path_13849" d="M121.489 129.137h.058-.055c1.183.08 1.817-1 2.989-.872a3.1 3.1 0 0 0 2.394-.676c1.2-1.154-1.049-4.184-1.883-5.059a6.756 6.756 0 0 0-3.406-1.62c-.868-.021-1.488 1.3-2.115 1.777-1.78 1.35-6.562.728-6.183 1.718 2.487 2.853 8.169 4.73 8.156 4.728z" class="cum-brain-1" data-name="Path 13849" transform="translate(-32.981 -18.019)"/>
        <path id="Path_13850" d="M135.555 136.672c-.134-.05 1.236.484 0 0z" class="cum-brain-1" data-name="Path 13850" transform="translate(-26.509 -13.441)"/>
        <path id="Path_13851" d="M68.722 112.312c1.509.7 3.253-.01 4.837.146 1.48.145 2.688.365 4.159.585.835.124 7.8 1.4 7.8.45v-.006c0-4.039-4.364-4.812-7.588-4.145-1.572.325-10.109 2.914-10.614.881 2.884-.791 5.965-.733 8.73-1.909-6.867-2.123-13.55-3.829-19.5-7.7.4 1.3 1.648 2.644 2.435 3.75a22.092 22.092 0 0 0 2.669 3.124 25.913 25.913 0 0 0 7.072 4.824zm17.213.831v.156-.156z" class="cum-brain-1" data-name="Path 13851" transform="translate(-49.457 -23.915)"/>
        <path id="Path_13852" d="M130.8 126.819c-1.414.536.974 5.33 1.434 6.184a29.216 29.216 0 0 0 2.483 3.576c.557.746 1.458 2.611 2.342 2.954 1.236.484 2.479.952 3.719 1.425a38.627 38.627 0 0 1-9.978-14.139z" class="cum-brain-1" data-name="Path 13852" transform="translate(-28.015 -16.303)"/>
        <path id="Path_13853" d="M130.344 124.62c.6-.96 1.2-1.925 1.8-2.888-.711.133-1.46.062-1.629.342-.89 1.461-1.634 3.013-2.467 4.61 1.344.299 1.717-1.141 2.296-2.064z" class="cum-brain-1" data-name="Path 13853" transform="translate(-28.686 -17.78)"/>
        <path id="Path_13854" d="M126.708 122.177a13.584 13.584 0 0 0-1.022 2.635c-.045.125-.094.265-.1.286.008-.017.035-.1.1-.285-.337.939-.205 1.232.658 1.691.8-1.542 1.608-3.086 2.431-4.664-.575 0-1.684-.262-2.067.337z" class="cum-brain-1" data-name="Path 13854" transform="translate(-29.423 -17.766)"/>
        <path id="Path_13855" d="M125.933 125.015v-.006l.013-.031c.407-.976.763-1.972 1.146-2.976l-4.5-.506c.317.529 2.633 5.185 3.341 3.519z" class="cum-brain-1" data-name="Path 13855" transform="translate(-30.272 -17.849)"/>
        <path id="Path_13856" d="M129.063 122.081l-.231.333a11.472 11.472 0 0 0-2.153 4.337c1.065.321 1.383-.434 1.8-1.261.605-1.2 1.272-2.372 1.909-3.559l-.13-.17c-.41.099-1.015.062-1.195.32z" class="cum-brain-1" data-name="Path 13856" transform="translate(-29.085 -17.772)"/>
        <path id="Path_13857" d="M147.753 125.047a40.9 40.9 0 0 0 9.507 3.1c1.494.363 7.311 2.264 7.955.216a92.169 92.169 0 0 1-9.759-1.866l.036-.382a29.036 29.036 0 0 1 5.473.755c.951.183 3.952 1.3 4.81.623a7.506 7.506 0 0 0 2.067-2.809l-.128-.284c-6.644.236-13.324.271-19.961.647z" class="cum-brain-1" data-name="Path 13857" transform="translate(-22.963 -17.006)"/>
        <path id="Path_13858" d="M148.527 96.176c.017 1.053-.2 2.323.49 3.215 1.278 1.651 2.613.188 3.456-1.111 1.168-1.8 2.967-2.273 5.011-2.667 1.014-.2 3.926.329 4.112-1.123.208-1.621.041-4.017-1.143-5.278a9.512 9.512 0 0 0-4.916-2.022c-1.2-.116-4.4-1.389-5.3-.15-.508.7-.314 1.874-.565 2.687a8.764 8.764 0 0 0-.533 2.643c0 .008-.281.012-.281.018-.074 1.264-.351 2.527-.331 3.788zm.061-3.873c.009-.148.008-.117 0 0zm-.022.351l-.025.376.025-.376z" class="cum-brain-1" data-name="Path 13858" transform="translate(-22.743 -28.015)"/>
        <path id="Path_13860" d="M150.253 53.345c-.374.92-1.31.827-1.134 2.021.357 2.425 2.513 3.269 4.283 4.549 3.888 2.812 6.5 7.1 10.625 9.667.065-.071.13-.141.2-.212-.721-3.83-3.673-6.1-6.773-7.973 1.546-1.165 2.735-.031 4.037.317-1.194-1.084-2.217-2.465-3.788-3.031-1.685-.609-2.82-.71-3.808-2.424a18.668 18.668 0 0 0-2.853-4.193 31.433 31.433 0 0 0-4.339-3.213l-.137.176c.63 1.132 1.258 2.264 1.9 3.422.698-.332 2.357-.51 1.787.894z" class="cum-brain-1" data-name="Path 13860" transform="translate(-23.309 -38.952)"/>
        <path id="Path_13861" d="M172.546 77.367a36.719 36.719 0 0 1 2.1 12.9 4.2 4.2 0 0 1 2.541 1.287c.372.307 1.8 1.525.333 1.472-.915-.035-1.794-1.213-2.682-1.483s-1.509.462-2.176.911c-.05-.323-.088-.561-.134-.867-4.216 1.312-8.479 3.6-8.409 8.6.061 4.341 2.34 8.831 4.463 12.5 1.435 2.486 2.758.708 3.741-1.12a31.968 31.968 0 0 0 2.571-6.334 14.084 14.084 0 0 0 .546-6.432c-.329-1.647-1.609-4.033-.392-5.557a40.1 40.1 0 0 1 1.852 6.724c.218.91.418 1.932 1.481 2.193.631.156 1.36-.377 1.978-.51.216 1.048-.658 1.263-1.094 1.712a12.255 12.255 0 0 1 .156 7.592 14.192 14.192 0 0 1-.77-4.851c-.074-.946-.019-2.341-1.145-2.7-1.185-.374-1.118 2.076-1.253 2.8a27.906 27.906 0 0 1-.96 3.939 17.889 17.889 0 0 1-2.022 4.124c-.672 1.012-1.645 1.777-2.331 2.78a9.578 9.578 0 0 1-2.55 2.316c-1.2.93-.672 3.2-1.87 3.261-.436.019-.546-.343-.843-.665a2.905 2.905 0 0 0-2.091-1.306c-1.056-.124-1.639.772-2.205 1.558-1.008 1.394-2.116 2.738-4.007 2.589.95-1.512 2.991-2.731 3.362-4.53s-1.4-3.073-1.475-4.833c1.316.523 1.884 1.608 2.74 2.723.423.456 5.583 1.225 6.046-1.938.213-1.456-.874-2.488-1.568-3.637a26.883 26.883 0 0 1-1.666-3.59c-.516-1.232-1.018-2.471-1.538-3.7-.5-1.2-.723-1.564-2.049-1.642-2-.116-4.295 1.214-5.771 2.528-1.172 1.04-2.078 4.25-.759 5.425.985.878 1.913-.24 2.892-.639.964-.394 1.5.4.536.867-2.231 1.087-2.071 3.474-2.978 5.525-.228.519-1.158 2.931-2.078 2.318-.676-.45.528-1.755.729-2.231.72-1.7.608-4.186-.906-5.439-.986-.818-1.481-1.013-2.1.427-.475 1.111-.747 2.27-1.266 3.376-1.089 2.315-2.442 4.581-3.32 6.984-.336.919-1.225 2.509-.885 3.482a21.393 21.393 0 0 0 1.133 2.91c1.146 2.2 2.747 2.345 5.029 2.6 4.98.551 10.449 1.343 15.3-.292a9.987 9.987 0 0 0 5.01-4.541c1.013-1.613 2.4-5.783 3.144-4.75.372.515-1.013 2.751-1.559 4.232 1.736-.689 3.292-1.582 5.272-1.569-1.372 1.538-3.486 2.03-5.381 2.618-1.457.449-2.922 3.111-3.88 4.269 4.433-.969 8.944-1.453 11.235-5.905 2.064-4.011 2.608-9.444 2.608-13.9-1.16 1.247-2.63 2.544-3.221 4.188-.55 1.531.475 2.786.408 4.29l-.325.067c-.475-.805-.946-1.612-1.42-2.416l-3.138 1.489a4.312 4.312 0 0 1 1.612-1.942 12.834 12.834 0 0 1 1.547-.7 4.742 4.742 0 0 1 .466-1.444c.737-1.6 2.449-3.935 4.363-4.186 0-1.147.124-2.265.124-3.382a15.99 15.99 0 0 0-1.138-6.6c-.3-.7-1.889-5.183-2.682-5.083-1.6.2.333-3.113.39-3.7.092-.963-.507-2.065-.632-3.028-.135-1.058-.106-2.147-.173-3.212-.27-4.215-.6-8.242-3.113-11.782a36.024 36.024 0 0 0-8.636-8.261c-.13 2 1.2 3.878 2.239 5.514a29.441 29.441 0 0 1 2.644 5.607zm-4.65 31.579l-.222-.205c.858-1.741 2.578-3.959 1.936-6-.557-1.765-2.495-2.545-3.044-4.179 1.283-.059 2.349.968 3.412 1.643a7.745 7.745 0 0 1 .59-3.524 4.688 4.688 0 0 1 .918 3.046c0-.079-.008-.148-.009-.181l.009.185c0 .058-.376.094-.374.133.005.077-.372.134-.372.156 0-.028.376-.088.372-.156 0-.041.187-.085.185-.129.19 3.658.138 7.308-3.397 9.211z" class="cum-brain-1" data-name="Path 13861" transform="translate(-23.692 -33.896)"/>
        <path id="Path_13862" d="M162.227 70.124c.028.058.137.272.218.432-.13-.256-.196-.391-.218-.432z" class="cum-brain-1" data-name="Path 13862" transform="translate(-18.758 -32.773)"/>
        <path id="Path_13863" d="M144.784 59.709c-.515.791.328 1.684.776 2.266a29.338 29.338 0 0 1 4.029 6.131 26.991 26.991 0 0 1 1.448 7.068c.285 2.092 3.914.465 4.264 2.07.311 1.431-2.1.49-3.346.734-1.177.231-1.612 1.309-2.1 2.274a23.207 23.207 0 0 0-2.566 8.046c-.169 1.669-.142 3.348-.176 5.021-.025 1.222.894 1.186 1.808.945 2.155-.567 2.753-2.222 2.967-4.255.29-2.727.759-5.338 3.24-6.92 1.967-1.253 4.361-1.364 4.734-4.119.342-2.537-2.145-4.638-3.295-6.669a16.744 16.744 0 0 1-1.465-4.149 10 10 0 0 1-.674-3.906c2.893 1.168 2.76 4.278 4.091 6.744.743 1.377 1.878 2.458 2.665 3.8a10.167 10.167 0 0 0 2.724 3.34c1.394.983 1.707 2.163-.281 2.549-1.315.256-2.51 1.336-3.686 1.932a8.232 8.232 0 0 0-3.012 1.968 13.231 13.231 0 0 0-1.844 4.4 3.671 3.671 0 0 0 .794 3.732 9.481 9.481 0 0 0 2.46 1.823 17.319 17.319 0 0 1 3.693 1.454c1.177.77 1.4 2.6 2.448.777a7.43 7.43 0 0 1 5.9-3.6c1.657-.174 3.157-.543 3.222-2.389a12.078 12.078 0 0 0-.69-4.62c-.763.622-1.205 1.589-1.941 2.276a10.823 10.823 0 0 1-2.445 1.691c-.956.492-1.982.808-2.959 1.253-1.017.462-2.1 2.085-3.11 1.234.08-1.689 2.629-1.519 1.527-3.677-1.365-2.679-4.767-.776-4.484-1.773.679-1.958 3.665-1.479 5.22-.564.871.512 2.218 1.9 3.315 1.383a5.269 5.269 0 0 0 1.965-1.75c1.421-2 1.329-3.973.706-6.255a21.8 21.8 0 0 0-1.31-3.508c-.4-.858-1.35-1.35-1.756-2.16a13.927 13.927 0 0 0-4.71-5.2 30.7 30.7 0 0 1-5.166-5.274 19.688 19.688 0 0 0-4.79-4.539c-1.6-.954-4.043-2.132-5.883-1.205a7.419 7.419 0 0 0-2.307 1.621z" class="cum-brain-1" data-name="Path 13863" transform="translate(-23.872 -36.368)"/>
        <path id="Path_13864" d="M145.7 126.278a14.155 14.155 0 0 0-2.35-1.173 10.784 10.784 0 0 0-2.111-.03 32.349 32.349 0 0 0 9.48 5.472 54.348 54.348 0 0 0 11.061 2.1h.028c1.763.222 2.205.028 2.84-1.244-4.4-.817-8.693-1.789-13-3.033a46.4 46.4 0 0 1-5.948-2.092z" class="cum-brain-1" data-name="Path 13864" transform="translate(-24.856 -16.821)"/>
        <path id="Path_13865" d="M136.977 129.585a14.546 14.546 0 0 1-1.618-2.993c-.3-.794-.217-1.773-1.275-1.675a62.719 62.719 0 0 0 2.834 6.367c1.085 2.185 2.691 3.546 4.349 5.265a12.59 12.59 0 0 0 5.6 3.025 47.788 47.788 0 0 0 6.662 1.843c1.059.168 1.506-.315 2.189-.652-5.064-1.052-9.826-2.444-13.971-5.741a23.665 23.665 0 0 1-4.77-5.439z" class="cum-brain-1" data-name="Path 13865" transform="translate(-26.934 -16.857)"/>
        <path id="Path_13866" d="M153.867 135.446c-4.851-.352.327.023 0 0z" class="cum-brain-1" data-name="Path 13866" transform="translate(-21.792 -13.84)"/>
        <path id="Path_13868" d="M149.358 137.735c-2.519-.4 1.059.168 0 0z" class="cum-brain-1" data-name="Path 13868" transform="translate(-22.763 -13.174)"/>
        <path id="Path_13871" d="M141.005 139.3a10.747 10.747 0 0 1-1.244-.634c2.466 1.47 2.026 1.113 1.244.634z" class="cum-brain-1" data-name="Path 13871" transform="translate(-25.284 -12.861)"/>
        <path id="Path_13872" d="M161.729 126.858c-.308.245.925-.732 0 0z" class="cum-brain-1" data-name="Path 13872" transform="translate(-18.917 -16.372)"/>
        <g id="Group_2521" data-name="Group 2521">
            <path id="Path_13875" d="M53.617 103.068c-.12-1.158-.791-2.134-1.012-3.27-.456-2.349.386-4.584 1.3-6.708a23.338 23.338 0 0 0 1.938-7.369c.148-1.728-.631-4.675 1.887-5.419 1.155.179-.284 1.685-.359 2.722-.032.431-.084 2.269-.119 2.787a6.74 6.74 0 0 0 .4 2.883c.367.939 1.249 1.574 1.605 2.458.546 1.356-1.261.732-1.559.405-.914-1-2.2.386-2.369.845-.759 2.04-1.714 4.265-1.549 6.493.048.636.125 2.176 1.05 2.175a6.657 6.657 0 0 0 2.9-1.312c1.83-1.149 2.933-3.324 4.194-5.023 1.636-2.2 3.286-4.388 4.921-6.588 1.293-1.738 2.951-3.505 3.44-5.677a19.4 19.4 0 0 0 .043-3.308c.035-.595.884-1.937 1.3-.769.659 1.845.241 4.643-.4 6.464-1.448 4.113-5.073 6.809-6.722 10.847-.965 2.363-.111 3.4 1.949 4.635a28.381 28.381 0 0 1 2.733 1.733c.546.419 1.05 1.285 1.793 1.289 2.071.01 1.648-3.656 1.834-4.948.321-2.215 1.472-4.079 2.491-6.033-1.156-1.31-1.278-3.191-.079-4.069.155.475.294 1.706.652 2.03.493.444 1.525.245 2.11.236a42.623 42.623 0 0 1 5.766.285c2.846.348 7.365 1.682 9.123-1.44a27.145 27.145 0 0 1 3.185-4.679c.92-1.038 2.541-2.425 1.262-3.735a6.317 6.317 0 0 0-4.207-1.839c-1.385-.123-3.8.179-4.94-.764.444-.56.743-.954 1.492-.972 1.181-.027 2.439-.173 3.61-.116 1.031.049 5.345 2.014 5.18-.116-.085-1.088-.761-2.061-.943-3.151a9.982 9.982 0 0 1 .178-3.612c.4-2.088.481-4.608 2.356-5.934a21.363 21.363 0 0 1-.37 5.557 6.51 6.51 0 0 0 .435 4.854c.747 1.191 1.114 2.569 2.527 3.169a19.8 19.8 0 0 0 4.926 1.057c3.9.452 6.056-3.024 7.6-6.042.828-1.625 1.431-3.329 2.363-4.906.778-1.316 2.328-2.835 2.111-4.491-.213-1.639-1.46-2.4.4-3.568.951-.6.209-2.129-.218-2.826-1.644-2.684-6.114.025-7.6 1.524-2.137 2.158-3.141 5.144-3.839 8.032-.239.985-.383 2.005-.679 2.973-.136.439.145 1.569-.036 1.822-.356.493-1.862.117-2.376.1-.828-.028-1.559-.356-1.586-.631-.176-1.8 2.635-.382 3.132-2.523.467-2.011 1.972-4.879 1.173-6.939-.688-1.774-3.282-1.9-4.913-2.075-1.323-.143-1.725.592-2.732 1.178-1.039.6-2.134 1.128-3.2 1.689q-2.042 1.076-4.083 2.16c-.972.518-1.1 1.52-1.27 2.5s-.395 6.2-2.4 4.89c-1.786-1.164 1.278-5.136.7-6.779-.458-1.306-4.27 1.724-4.841 2.216a7.105 7.105 0 0 0-2.661 5.9c.136 2.439-.034 5.221.586 7.593a3.577 3.577 0 0 0 2.389 2.429c.893.36 2.261.294 3.038.809 1.7 1.124-1.283 2.285-2.2 2.2-1.056-.1-2.457.283-3.353-.435-.77-.617-.727-1.625-.952-2.5-.64-2.474-1.515-4.473-1.563-7.081-.043-2.4.15-4.58-2.52-5.334-1.9-.534-4.886-2.042-6.66-.712a19.887 19.887 0 0 0-4.968 5.186 8.755 8.755 0 0 0-1.346 2.984c-.222 1.147-.117 2.3-.395 3.456-.236.979-.426 2.3-1.456 2.789-.83.394-.458-1.194-.43-1.456.152-1.337.385-2.669.453-4.015a11.92 11.92 0 0 0-.952-3.581l.256-.248 1.914.788c1.04-1.12 1.754-2.582 2.794-3.735 1.159-1.284 2.615-2.231 3.709-3.553-.359-.077-2.5-.391-1.39-1.084a5.955 5.955 0 0 1 2.189-.419c1.2-.187.834-1.812 1.607-2.536.474.71.093 1.538.653 2.239a3.9 3.9 0 0 0 2.372 1.147c1.789.423 4.109 1.155 5.843.132 1.556-.919 2.8-2.569 4.241-3.683 1.189-.92.359-2.891 1.658-3.252 1-.28 1.991 2.065 3.24 1.373 1.689-.936 3.55-2.346 5.421-2.846.9-.241 1.685.027 2.56-.383a8.487 8.487 0 0 1 2.728-.978 34.8 34.8 0 0 1 5.92.141c1.688.045 3.136-2.078 4.412-2.968a7.716 7.716 0 0 1 4.525-1.738c.945.026 4.461 1.409 5.082.6.839-1.1.13-3.111-.417-4.159-1.418-2.719-4.179-5.476-7.2-6.167-3.643-.831-7.236.517-10.4 2.233-.844.458-1.676.938-2.518 1.4-.209.115-1.123.432-1.174.708a.782.782 0 0 1-.365.587c-1.129.643-3.388.254-4.67.4-3.792.448-7.49 2.944-10.663 4.936.1.31.182.551.262.795l-.116.21c-1.491-1.555-5.481 1.088-6.627 2.18a21.069 21.069 0 0 0-2.313 3.074c-.808 1.11-2.267.951-3.46 1.345-2.9.959-4.777 3.166-6.329 5.681-.8 1.3-2 2.367-2.563 3.807a14.546 14.546 0 0 1-1.638 3.688c-1.8 2.435-4.833 3.385-6.721 5.783a12.472 12.472 0 0 0-2.735 7.691c-.005 1.529.437 3.086.1 4.606-.286 1.318-1.319 2.106-1.38 3.505a23.7 23.7 0 0 0 1.325 9.988c.214.474.236.274.381-.009a8.941 8.941 0 0 0 .819-3.888zm50.945-54.981c.661-.836 3.648 1.245 4.5.609 1.08-.807 2.731-2.864 3.311-1.492.308.732-1.865 1.167-1.627 1.923.221.7 7.066 1.136 5.176 2.345-.847.542-3.216-.239-4.166-.382-1.5-.227-2.558-.661-4.473-1.05-1.346-.275-3.561-.888-2.721-1.952zM82.413 59.493c1.019-1.019 2.122-1.95 3.173-2.935l-.907-.51.017-.3c1.413-.427 3.12-.45 4.442-1.07s2.265-1.6 3.73-1.937a35.4 35.4 0 0 1 3.777-.173c.692-.088.727-2.011.848-2.532l.32.012c.428 2.061.165 2.789 2.393 2.827 1.377.025 4.127-.782 4.115.65-.012 1.355-2.5.865-3.812 1.047-1.236.17-1.758 1.247-2.962.952-1.691-.414-3.083-1.54-4.428-1.272-1.982.395-4.659 2.048-6.356 3.141a13.818 13.818 0 0 0-2.59 2.016c-.5.528-.552 1.23-.983 1.78-.794 1.012-2.709 1.737-3.886.989l.29.185.178.114.054.034-.054-.034-.178-.114-.29-.185c-.116-.075-.142-.292-.234-.5 1.63-.212 2.23-1.071 3.343-2.185z" class="cum-brain-1" data-name="Path 13875" transform="translate(-51.054 -40.336)"/>
            <path id="Path_13876" d="M63 110.575a54.431 54.431 0 0 0 5.4 2.033c2.027.649 4.084 1.183 6.14 1.729 1.62.431 3.268 1.311 4.908 1.5 1.829.215 3.766-.009 5.557.383 1.372.3 2.883 2.031 3.493-.009 1.527-4.326 5.563-7.135 9.079-9.68 1.48-1.071 2.07-2.813.765-4.3-1.187-1.358-2.007-3.035-3.946-3.314a57.045 57.045 0 0 1-6.957-.938c-2.176-.587-3.919-1.444-6.085-.483-.347.154-2.049 1.1-2.276.395-.2-.614.714-1.489 1.07-1.879 1.469-1.6-1-4.642.2-5.13.565-.231 1.245 1.214 2.093 1.8a33.444 33.444 0 0 0 3.908 1.87c2.376 1.217 6.382 1.729 8.9.683 2.273-.943 4.077-1.583 4.759-3.733.363-1.14-.534-4.007-.046-5.1.294-.663.924-.694 1.168-1.457s.6-3.346 1.662-3.381c.858-.028.487 2.091.452 2.484-.1 1.11-.586 2.147-.645 3.253-.067 1.241.023 2.483.05 3.723.027 1.178.7 6.334-1.2 6-.843-.151-1.5-1.3-2.421-.609a2.068 2.068 0 0 0-.693 2.23c.551 2.073 3.647 3.131 5.547 3.055 2.412-.1 4.767-1.367 6.953-2.271 2.445-1.012.919-4.295.729-6.153a58.718 58.718 0 0 0-.8-7.349c-.613-2.664-1.6-5.232-2.253-7.886-.413-1.671-.2-4.754-2.169-5.476-1.776-.652-4.126-.711-5.513.765-1.533 1.629-2.363 4.153-3.619 6.021-1.4 2.083-3.345 3.878-4.53 6.082-.928 1.723.063 5.8-1.885 5.234-1.337-.391.005-4.275-1.6-4.816a22.076 22.076 0 0 0-3.07-.463 8.231 8.231 0 0 0-3.662-.152c-2.025.537-4.122-.588-5.9 1.057-.8.741-1.447 1.074-1.722 2.226a14.567 14.567 0 0 0-.351 2.736c-.123 2.582-.416 5.256-.284 7.84a3.9 3.9 0 0 0 2.333 3.473c1.8.8 3.843.7 5.6 1.71 1.4.8 3.368 2.717 3.162 4.381a4.519 4.519 0 0 1-2.2-1.6 6.074 6.074 0 0 0-2.709-1.31c-2.368-.76-4.323-1.275-6.7-.194-4.082 1.86-8.6-1.319-12.661.374a7.307 7.307 0 0 1 .3-4.69l.236.008c.138.474.385 1.962.963 2.134a22.555 22.555 0 0 0 3.131.751 17.978 17.978 0 0 0 3.238.065 7.8 7.8 0 0 0 2.6-.163c1.514-.578 1.448-2.335 1.049-3.628-.564-1.835-1.889-2.465-3.493-3.289-3.339-1.716-6.083-4.905-10.212-3.879-2 .5-2.731 2.587-4.088 3.922a3.256 3.256 0 0 0-.8 2.318c-.055 1.065-1.245.114-1.084 1.449.107.889 2.242 2.72 3.257 4.155.7.995.1 2.913 1.359 3.3a12.373 12.373 0 0 1 2.613.8q1.428.747 2.9 1.393z" class="cum-brain-1" data-name="Path 13876" transform="translate(-50.527 -32.194)"/>
            <path id="Path_13877" d="M119.964 51.994c4.37-.768 9.19.066 13.417-1.372.265-.09 2.772-1.234 2.689-.341-.076.823-1.694 1.43-2.3 1.649-2.084.754-4.295.628-6.443 1.031a47 47 0 0 1-6.472.764 7.052 7.052 0 0 0-5.415 2.593 11.671 11.671 0 0 0-2.064 6.893 9.108 9.108 0 0 1-1.971 6.067c-1.452 1.993-1.7 4.279-2.618 6.489-.894 2.162-2.571 2.973-4.2 4.454-.822.747-1.9 1.3-2.422 2.32a6.042 6.042 0 0 0-.347 3.53c.378 2.536 1.422 4.977 1.95 7.491.577 2.741 1.1 5.495 1.638 8.244.25 1.271.545 2.544.727 3.829.221 1.562.461 1.793 2.027 1.684 2.349-.163 4.153-.334 5.83-2.212a12.225 12.225 0 0 1 5.246-3.345 31.106 31.106 0 0 1 3.619-.909 9.356 9.356 0 0 0 3.127-.816c1.5-1.067-.435-4.421-1.1-5.456-.456-.71-2.057-.952-1.742-1.986.3-.973 1.5-1.608 2-2.5 1.1-1.965.1-4.994.133-7.165a12.154 12.154 0 0 1 1.962-6.752 27.446 27.446 0 0 0 1.578-2.535c.416-.9.155-1.791.493-2.687.946.428 1.176 1.009 1.685 1.9 1.115-.408 1.64-.795 2.724-.221-.75.979-1.838 1.411-2.648 2.354-.832.97-1.777 1.875-2.564 2.879-1.674 2.134-1.236 5.547-1.229 8.081.006 2.7-.266 5.539-.076 8.218a5.337 5.337 0 0 0 .52 2.012c.151.306.6.813.493 1.207a2.642 2.642 0 0 0 1.2 2.718c1.116.63 2.475-.276 3.442-.791a17.322 17.322 0 0 0 3.669-2.2c1.818-1.679 4.974-1.257 5.261-4.366.265-2.861 2.009-4.408 3.6-6.6 1.466-2.02.086-5.359 2.071-6.948.871 1.25.408 3.1.338 4.59 1.177-.786 2.07-2.234 3.535-2.061-.262 1.4-1.534 2.24-2.544 3.219q-1.38 1.341-2.74 2.7a7.664 7.664 0 0 0-2.633 6.184c.234 2.586 4.807.716 6.06.094a31.487 31.487 0 0 0 5.61-4.1c.241 2.682-3.47 4.327-5.5 5.367-2.869 1.467-6.311 1.192-9.286 2.452-1.618.684-3.207 1.441-4.8 2.177-1.127.519-3.7 1.168-4.411 2.194-.427.612.085 1.951-1.123 1.719-1.51-.293-2.642-.992-4.244-.76a19.259 19.259 0 0 0-7.294 2.584 6.408 6.408 0 0 0-2.216 2.211 7.191 7.191 0 0 1-1.4 2.159c-.636.528-.839.382-1.238 1.174a81.045 81.045 0 0 0-.835 1.7c-.17.363-1.143.915-1.541.752-.91-.37-.172-1.338-.423-2.013-.369-.994-1.545-.879-2.391-1.036a12.911 12.911 0 0 0-4.063-.532 10.34 10.34 0 0 0-3.237 1.365 17.919 17.919 0 0 0-2.564 1.63 4.511 4.511 0 0 1-2.877.628c-1.249.061-2.248 1.226-3.185 1.924s-2 1.222-2.969 1.885a35.155 35.155 0 0 0-5.41 4.522c-1.876 1.951-2.171 3.718-2.629 6.29-.5 2.82.521 4.794 1.676 7.29 1.2 2.584 2.5 5.1 3.878 7.592 1.045 1.887 1.914 4.275 4.139 5.017 2.587.863 5.643.805 8.33 1.3a28.294 28.294 0 0 0 7.157.854 20.831 20.831 0 0 0 4.028-.578c1.048-.293 1.372-1.225 2.013-2a8.91 8.91 0 0 1 5.4-3.416l.368-.053-.363.052a11.822 11.822 0 0 1 3.327-.326c1.029.143 1.683.8 2.755.807a5.428 5.428 0 0 0 4.648-2.646c1.276-2.233-1.869-3.079-3.53-3.391-2.28-.427-4.442.467-6.61.981-.724.172-6.375 1.2-6.806 1.527-.587.447-.819 1.875-1.11 2.562-.871 2.058-2.065 3.435-4.359 3.755-2.194.308-4.97-.416-7.115-.92-4.607-1.08-9.36-2.927-10.617-7.957a11.024 11.024 0 0 1 .556-6.6 9.588 9.588 0 0 0 .923-3.459c0-1.248-.55-2.416-.652-3.664-.049-.6.243-2.144 1.092-.967.628.867.712 1.758 1.743 2.342 1.389.786 4.468.448 5.953-.037a4.31 4.31 0 0 0 2.025-1.394c.5-.618.758-2.005 1.525-2.307 2.169-.854.156-2.775 1.061-4.141a12.472 12.472 0 0 0 1.771 2.158c.658.5 1.834.2 2.608.258a44.578 44.578 0 0 1 5.963 1.306c2.026.428 3.1-1.2 4.389-2.444a11.708 11.708 0 0 1 4.4-2.856 3.639 3.639 0 0 1-.739-2.427c1.158.221 1.546 1.159 2.3 2.02a3.631 3.631 0 0 0 2.582 1.529c1.452.244 5.245.574 6.138-.987.574-1.008.621-2.634.867-3.764.226-1.039 1.032-1.79 1.389-2.793a2.894 2.894 0 0 0-.563-3.2c-.529-.623-1.333-1.5-.718-2 .777-.637 1.429.718 2.291 1.189.963.525 2.076-.074 2.993-.485 2.217-1 4.124-2.114 6.576-2.506 3.656-.585 8.723-.5 10.6 3.322 2.034-2.18 4.368-4.081 6.046-6.571a6.36 6.36 0 0 0 1.24-3.872c-.057-1.089.985-1.292 1.154-2.3.582-3.455-.019-5.572-1.457-8.5a4.565 4.565 0 0 0-2.861-2.679c-.968-.265-1.984.858-2.869 1.141-.514-1.7 1.475-1.913 2.04-3.185.49-1.1-1.627-2.676-2.222-3.455a20.214 20.214 0 0 0-3.262-4.02 17.385 17.385 0 0 0-4.084-2.346c-2.005-.831-8.073-.915-8.454 1.893-.472 3.473-2.1 6.149-3.679 9.219.564.159 2.422.268 2.292 1.121-.139.9-1.58.49-2.127.4-1.256-.2-5.352-.956-2.981-2.821 2.19-1.725 3.888-3.053 4.6-5.829.6-2.344-.376-4.108-.943-6.313l.252-.133c.7.468 1.31 1.183 2.205 1.26a8.189 8.189 0 0 0 2.266-.577c1.448-.288 5.6-.24 5-2.64-.143-.567-1.023-2.359-.515-2.856.43-.421 1.715.9 1.983 1.14.658.6 1.065 1.213 2.056 1.026a2.078 2.078 0 0 0 1.618-1.2c.622-1.533-.665-3.835-1.1-5.309a4.3 4.3 0 0 0-3.2-3.14 10.938 10.938 0 0 0-3.457-.3c-1.129.048-1.7.769-2.527 1.474a10.842 10.842 0 0 1-5.371 2.928c-4.073.718-9.919.517-12.967 3.877-1.169 1.288-1.682 3.175-2.336 4.753-.821 1.986-1.368 4.078-2.267 6.033-1.03 2.238-2.22 4.4-3.4 6.556-.9 1.64-1.879 3.3-1.911 5.224-.041 2.5.057 5.024.053 7.526 0 1.638.026 3.173-1.643 4.026-1.9-1.745-1.648-4.469-1.772-6.828-.059-1.11.19-2.777-.218-3.81-.27-.685-2.19-1.044-2.816-1.285 2.217-.888 4.79-1.176 5.873-3.6 1.271-2.844 2.36-5.792 3.789-8.564 1.19-2.311 2.985-5.065 2.88-7.777-.027-.721-1.3-2.6-.547-3.091.688-.454 1.346.613 1.671 1 1.287-1.429 2.373-2.9 4.306-3.475a71.842 71.842 0 0 1 7.979-1.543 17.113 17.113 0 0 0 3.435-.577 12.516 12.516 0 0 0 2.969-1.7c.72-.541 1.938-1.235 2.137-2.182a12.725 12.725 0 0 0-.288-3.6 15.646 15.646 0 0 1-.394-3.626 1.151 1.151 0 0 1 1.682-.536c1.325 1.413.031 4.337 1.208 5.985a3.014 3.014 0 0 0 2.48 1.115 14.968 14.968 0 0 1 3.49.881 11.127 11.127 0 0 0 3.124 1.1c1.181.035 3.253-.72 3.341.492.1 1.332-2.678.5-3.242 2.008-.383 1.025.116 4.082 1.28 4.535a8.491 8.491 0 0 0 9.063-2.12c2.025-2.244.444-6.432-.738-8.764-1.559-3.077-3.892-4.376-7.108-5.254-3.784-1.032-7.6-2.1-11.458-2.83-3.67-.7-7.454-.086-11.063.7-3.766.818-7.881 2.367-11.753 2.342-2.758-.015-6.815-1.159-5.585-4.554 1.008 1.05 1.364 2.292 2.948 2.657a15.933 15.933 0 0 0 5.527.068c3.874-.5 7.657-1.751 11.482-2.529-9.445-2.633-18.653-2.634-27.594 2.115 3.214 2.726 6.258 7.759 10.978 6.93zm31.463-4.455c.831 1.019.681 1.31 2.162 1.27 1.83-.048 4.826.157 4.846 2.522a11.27 11.27 0 0 0-2.58-1.248 12.732 12.732 0 0 0-2.622-.1h-.01c-2.757 0-3.087-1.719-4.185-3.816.862-.14 1.845.705 2.388 1.372z" class="cum-brain-1" data-name="Path 13877" transform="translate(-42.261 -41.181)"/>
        </g>
    </g>
</svg>
