<svg xmlns="http://www.w3.org/2000/svg" width="20.654" height="29.008" viewBox="0 0 20.654 29.008">
    <defs>
        <style>
            .cls-1{fill:#0f81dc}
        </style>
    </defs>
    <g id="noun_profile_630727" transform="translate(-20.446 -8.493)">
        <path id="Path_16123" d="M30.773 21.651c3.182 0 5.772-3.132 5.772-6.982 0-3.636-2.373-6.176-5.772-6.176S25 11.032 25 14.669c0 3.85 2.59 6.982 5.773 6.982zm0-12.11c2.825 0 4.724 2.06 4.724 5.128 0 3.272-2.119 5.934-4.724 5.934s-4.724-2.662-4.724-5.934c0-3.069 1.899-5.128 4.724-5.128zm.644 13.859h-1.289c-5.791 0-9.682 3.317-9.682 8.252a.524.524 0 0 0 .524.524h3.43a.524.524 0 0 0 0-1.048h-2.887c.261-4.076 3.583-6.68 8.615-6.68h1.289c5.032 0 8.355 2.6 8.616 6.68h-2.885a.524.524 0 1 0 0 1.048h3.428a.524.524 0 0 0 .524-.524c0-4.937-3.891-8.252-9.683-8.252zm-.644 4.668a4.717 4.717 0 1 0 4.717 4.717 4.722 4.722 0 0 0-4.717-4.719zm0 8.386a3.669 3.669 0 1 1 3.669-3.669 3.673 3.673 0 0 1-3.669 3.668zm1.966-5.34l-2.808 2.909-1.352-1.158a.524.524 0 1 0-.682.8l1.727 1.479a.524.524 0 0 0 .718-.034l3.151-3.264a.524.524 0 1 0-.754-.728z" class="cls-1" data-name="Path 16123"/>
    </g>
</svg>
