<svg xmlns="http://www.w3.org/2000/svg" width="20.668" height="20.669" viewBox="0 0 20.668 20.669">
  <g id="noun_Football_1730289" transform="translate(10.096 -0.855) rotate(45)">
    <g id="Group_2919" data-name="Group 2919" transform="translate(-0.695 2.175)">
      <g id="Group_2918" data-name="Group 2918" transform="translate(0)">
        <path id="american-football" d="M17.378,98.57l-.894-1.205A9.523,9.523,0,0,0,12.394,94.2a.257.257,0,0,0-.192.477,9.02,9.02,0,0,1,1.008.481v3.664H11.818v-.243a.257.257,0,0,0-.514,0v.243H10.179v-.243a.257.257,0,0,0-.514,0v.243H7.915v-.243a.257.257,0,0,0-.514,0v.243H6.276v-.243a.257.257,0,0,0-.514,0v.243H4.371v-1.2a.257.257,0,0,0-.514,0v1.2H3.191V95.9q.322-.241.665-.455v1.084a.257.257,0,1,0,.514,0V95.151A9.4,9.4,0,0,1,8.8,94.027h.036a9.012,9.012,0,0,1,2.359.314.257.257,0,1,0,.135-.5,9.527,9.527,0,0,0-2.494-.332H8.8a9.928,9.928,0,0,0-4.426,1.055A9.475,9.475,0,0,0,.907,97.5L.16,98.55a.861.861,0,0,0,0,1l.752,1.067a9.8,9.8,0,0,0,7.924,4.038,9.526,9.526,0,0,0,7.652-3.852l.894-1.205a.856.856,0,0,0,0-1.025Zm-1.307-.9.856,1.154H14.9V96.378A9.012,9.012,0,0,1,16.072,97.671Zm-2.348-2.2q.343.222.665.474v2.881h-.665ZM3.856,99.339v3.354q-.343-.215-.665-.46V99.339ZM1.326,97.8a8.594,8.594,0,0,1,1.351-1.484v2.506H.6Zm0,2.514-.689-.978H2.677v2.475A8.6,8.6,0,0,1,1.33,100.317Zm11.555,2.858a9.057,9.057,0,0,1-4.052.962,9.394,9.394,0,0,1-4.463-1.143V99.339H5.762v.206a.257.257,0,0,0,.514,0v-.206H7.4v.206a.257.257,0,0,0,.514,0v-.206H9.665v.206a.257.257,0,0,0,.514,0v-.206H11.3v.206a.257.257,0,0,0,.514,0v-.206H13.21V103c-.107.06-.215.118-.325.173Zm3.187-2.681a9,9,0,0,1-1.169,1.29V101a.257.257,0,1,0-.514,0v1.219q-.322.252-.665.474V99.339h.665V99.9a.257.257,0,0,0,.514,0v-.564h2.025Z" transform="translate(0 -93.513)" fill="#959494" stroke="#959494" stroke-width="0.25"/>
      </g>
    </g>
  </g>
</svg>
