<svg xmlns="http://www.w3.org/2000/svg" id="Group_2864" width="173.401" height="186.232" data-name="Group 2864" viewBox="0 0 173.401 186.232">
    <defs>
        <style>
            .cls-acc-brain{fill:#fff}.acc-brain-2{fill:#0f81dc}.acc-brain-3{fill:#a2a2a2}
        </style>
    </defs>
    <path id="Path_13680" d="M221.712 189.622c-.677-10.628-3.135-12.845-2.084-15.177 5.554-12.33.669-21.538-.922-24.425-1.4-2.546 1.935-8.957 1.848-11.383a22.077 22.077 0 0 0-3.96-11.746c.492-6.751-2.246-8.178-8.632-8.178-3.609 0-5.279-1.762-7.316-1.272-6.116 1.471-9.171 6.738-16.987 8.265-3.387.662-4.392.514-7.04 2.023-4.164 2.373-4.348 6.44-5.551 7.352-4.7 3.56-8.722 4.219-9.943 7.807a23.44 23.44 0 0 1-5.971 9.1c-2.159 2.152-.685 5.974-3.011 7.762-3.326 2.558-4.471 8.711-6.608 16.4-.475 1.709-4.653 5.657-5.014 7.464-.569 2.84.669 4.733.445 7.635-.181 2.345-1.614 8.5-1.526 10.754.134 3.423.206 2.573-.764 5.727-1.406 4.569-2.764 4.155-3.955 9.043-1.734 7.11-5.76 17.372 1.221 27.988 4.313 6.557.65 8.859 1.48 17.195.578 5.81 3.133 5.25 3.842 7.1 2.177 5.708 6.738 8.885 10.611 9.38 1.85.238-1.851 4.387 8.323 7.944 1.7.595 1.8 2.865 6.246 6.995a10.719 10.719 0 0 0 4.815 2.867c5 1.36 11.1 1.974 19.337 3.663 14.444 2.965 23.652-4.491 27.119-12.2s4.922-6.078 1.457-15.558c-1.106-3.019-4.247-15.172-2.084-22.054 1.642-5.224 2.474-9.7 4.084-14.467 1.167-3.447.444-10.527-.394-12.813-1.85-5.06-2.985-8.222-2.449-15.342.231-3.097 3.955-8.863 3.383-17.849z" class="cls-acc-brain" data-name="Path 13680" transform="translate(-131.144 -115.808)"/>
    <path id="Path_13681" d="M155.106 186.281c-2.659-5.1 1.5-7.469 2.891-8.061 3.183-1.361 5.666 4.347 8.44 7.825s10.4 2.014 14.108-5.574c1.606-3.3 4.008-5.691 8.017-6.007 3.262-.257 6.936 2.632 8.521 5.42l.343-1.072c-.617-3.162-5.473-6.56-9.482-6.244s-8.39 3.856-10.239 7.018-7.529 8.751-11.267 4.206c-2.825-3.434-5.472-8.932-8.556-7.351-3.019 1.546-6.592 5.573-2.776 9.84z" class="acc-brain-2" data-name="Path 13681" transform="translate(-129.983 -112.824)"/>
    <path id="Path_13682" d="M187.729 174.271c.339-9.841-7.662-16.52-20.36-13.572 0 0-7.805-12.556-17.318-1.231 0 0 11.221-8.609 15.517 3.195 0 0 12.488-2.34 16.053 2.108a18.66 18.66 0 0 1 3.732 10.01z" class="acc-brain-2" data-name="Path 13682" transform="translate(-130.167 -113.787)"/>
    <path id="Path_13683" d="M207.355 126.916c-4.418-4.232-8.964-.454-11.172 2.341-1.1.68-3.538-6.128-14.176-3.281 8.557-6.166 14.105.87 14.105.87s3.454-3.8 7.736-2.877c3.507.755 3.507 2.947 3.507 2.947z" class="acc-brain-2" data-name="Path 13683" transform="translate(-128.439 -115.478)"/>
    <path id="Path_13684" d="M192.829 199.786c-3.7-.95-10.175 2.844-8.789 5.217s4.626 5.691.925 7.589-20.118 5.69-15.955 16.6c.705 1.849 6.934 4.547 4.664 2.544-2.883-2.544-1.683-11 2.271-13.455 2.8-1.736 7.17-.473 10.409-3.794s-1.389-9.486 2.312-11.858 6.761 1.626 7.863-.473c.816-1.556-3.7-2.37-3.7-2.37z" class="acc-brain-2" data-name="Path 13684" transform="translate(-129.178 -111.359)"/>
    <path id="Path_13685" d="M213.536 171.473c0-4.742-4.919-13.358-10.007-13.832s-8.271 3.415-8.95 3.161c-.972-.364 1.549-5.3 8.95-4.82s12.025 6.165 12.025 8.062-2.018 7.429-2.018 7.429z" class="acc-brain-2" data-name="Path 13685" transform="translate(-127.771 -113.721)"/>
    <path id="Path_13686" d="M145.534 213.763c2.195.676-6.1 4.149-3.91 14.5 1.358 6.4 8.328 15.989 14.921 15.75 8.337-.3 12.345 2.365 14.481 9 1.563 4.853 6.861 3.687 6.861 3.687l-.246 1.435s-6.04 3.3-8.38-3.728c-2.093-6.272-3.649-8.145-7.6-8.595s-9.945 1.8-15.212-4.949-8.117-12.826-6.361-19.126 5.446-7.974 5.446-7.974z" class="acc-brain-2" data-name="Path 13686" transform="translate(-130.734 -110.595)"/>
    <path id="Path_13687" d="M182.825 278.542c0-3.319-3.766-8.16-10.664-7.634a19.031 19.031 0 0 0-8.48 2.531s-.04-7.55-6.513-9.922-10.585 5.112-7.054 6.76c2.12.987 2-.079 2-.079s-4.28-3.557 2.543-5.217c1.8-.438 5.743 2.329 5.743 4.7s-.885 5.968 3.276 5.022 7.793-3.141 11.1-1.9c6.32 2.373 6.423 4.789 7.812 5.736s.237.003.237.003z" class="acc-brain-2" data-name="Path 13687" transform="translate(-130.234 -107.93)"/>
    <path id="Path_13688" d="M170.995 287.668c4.164 0 5.551-6.64 2.314-9.01s-1.735 0 0 1.777c1.388 1.423-1.272 6.876-5.78 6.167a4.51 4.51 0 0 0 3.466 1.066z" class="acc-brain-3" data-name="Path 13688" transform="translate(-129.222 -107.141)"/>
    <path id="Path_13689" d="M141.692 263.644c2.659-8.655 7.4-4.625 8.094-5.218.993-.85-8.9-3.677-9.136 2.964-.101 2.93 1.042 2.254 1.042 2.254z" class="acc-brain-2" data-name="Path 13689" transform="translate(-130.676 -108.252)"/>
    <path id="Path_13690" d="M195.461 292.154c-6.165 1.265-8.991-7.277-8.016-10.277.924-2.845-.464-3.162-1.543-.632-.988 2.319-.105 9.03 1.8 9.888s7.759 1.021 7.759 1.021z" class="acc-brain-2" data-name="Path 13690" transform="translate(-128.251 -107.04)"/>
    <path id="Path_13691" d="M193.919 127.362c1.08-.95 4.627 3.612 6.166 6.831a22.193 22.193 0 0 1 1.542 6.452c.465 5.694-5.323 8.187-4.71 5.91.347-1.274 3.323-1.356 2.862-7.806-.548-7.621-6.536-10.794-5.86-11.387z" class="acc-brain-2" data-name="Path 13691" transform="translate(-127.798 -115.273)"/>
    <path id="Path_13692" d="M189.91 143.7c4.816 2.269 10.024 5.178 15.084 4.465 5.982-1.175 8.392 2.315 8.915 2.515 1.794.69-1.777-3.478-3.345-4.08a1.488 1.488 0 0 0-.281-.072c2.111-1.65 4.461-3.529 4.337-6.612-.2-4.828.154-5.7-.637-5.026s-.254 6.044-1.768 7.661c-2.292 2.45-6.438 5.915-11.146 4.107s-10.5-5.024-15.464-6.679c-5.437-1.812-15.269-5.089-18.578 3.944a6.392 6.392 0 0 0 .551 6.152c.002-18.493 17.522-8.644 22.332-6.375z" class="acc-brain-2" data-name="Path 13692" transform="translate(-129.276 -114.87)"/>
    <path id="Path_13693" d="M178.767 233.587c-4.163-3.318-8.557-7.351-13.644-7.825-6.091-.237-11.134-6.09-11.642-9.483-.286-1.9-3.224.508 4.919 9.332.062.068-.94.808-.847.849-3.106.76-3.634 2.2-4.225 5.231-.924 4.743 2.787 7.091 2.314 6.166-.974-1.9-2.081-6.4 1.157-8.3 2.893-1.7 7.788-3.059 11.951-.214s6.73 5.943 11.367 7.8c5.32 2.136 9.749 3.554 12.062.235a14.356 14.356 0 0 0 2.312-7.351c-3.93 9.015-11.562 6.881-15.724 3.56z" class="acc-brain-2" data-name="Path 13693" transform="translate(-130.022 -110.492)"/>
    <path id="Path_13694" d="M134.987 243.887c1.449 2.994 2.531 5.485 2.54 7.368 0 1.782-1.1 4.486-1.1 7.286 0 1.055.047 2.226.177 3.562.292 3.062 1.2 4.717 2.162 5.678.985.943 1.638 1.277 1.751 1.717 2.3 6.01 7.037 9.366 11.2 9.96v.026a8.722 8.722 0 0 0 .454 2.121c.735 1.91 2.648 3.966 7.826 5.773.512.168.84.621 1.661 1.835a27.337 27.337 0 0 0 4.293 4.983 11.549 11.549 0 0 0 5.159 3.062c3.072.834 6.417 2.388 10.452 3.063 2.663.447 5.67-.055 8.93.612a47.47 47.47 0 0 0 9.288 1.144h.024a23.739 23.739 0 0 0 10.162-2.776c4.479-2.48 6.851-5.912 7.592-8.928.194-.794 1.3-.5 3.018-2.858 1.652-2.27.333-7.131.414-10.383a8.669 8.669 0 0 0 .322-1.969c.525-6.118-1.352-13.447-1.34-20.108.095-1.284-.493-4.237-.171-5.259 1.663-5.3.646-9.091 2.225-13.765a17.558 17.558 0 0 0 .671-5.328 28.643 28.643 0 0 0-1.074-8.249c-1.54-4.23-2.5-6.884-2.512-11.66 0-.969.042-2.026.129-3.2.057-1.085.895-3.156 1.754-5.836a33.355 33.355 0 0 0 1.694-10.232c0-.627-.016-1.275-.061-1.941-.567-8.872-2.41-12.348-2.337-13.867a1.732 1.732 0 0 1 .157-.767 28.952 28.952 0 0 0 2.68-11.951 27.445 27.445 0 0 0-3.644-13.492 2.282 2.282 0 0 1-.207-1.1 18.676 18.676 0 0 1 1.047-4.828 19.979 19.979 0 0 0 1.147-4.821v-.147a23.393 23.393 0 0 0-3.937-12.029c.009-.238.018-.473.018-.705a8.347 8.347 0 0 0-3.75-7.075c-3.31-1.781-6.129 0-6.893-.763-3.046-3.045-11.121-.409-13.789 1.639s-4.516 4.055-9.554 5.057a20.777 20.777 0 0 0-4.719 1.162c-3.293.921-5.431 4.61-6.19 6.139a15.188 15.188 0 0 1-1.389 2.79c-2.278 1.725-5.03 2.188-6.828 3.277a8.357 8.357 0 0 0-4.072 4.438c-1.719 5.057-3.944 7.286-5.292 8.2-3.18 2.163-1.1 7.093-3.531 8.183-4.816 2.161-5.131 15.223-7.285 17.522-3.818 4.072-5.748 6.579-5.09 10.689.254 1.591 1.5 4.333 1.527 5.027.028.759-1.993 3.669-2.248 5.96-.479 4.316.667 7.309.455 7.948-.254.766-1.04.463-3.27 5.587-1.949 4.479-4.439 14.639-4.441 18.622.001 5.643 1.653 9.192 3.795 13.607zm1.516.447a35.337 35.337 0 0 1-3.367-14.839c0-3.81 2.814-12.28 3.5-15.109 1.536-6.418 4.244-5.863 4.37-8.153.042-.748-2.233-.475-.954-8.016.637-3.753 1.589-5.447 1.589-6.108 0-1.677 1.665-1.017.573-2.29-2.672-3.117-1.463-5.407-.509-7.507.83-1.826 4.473-5.1 4.644-5.536 2.584-6.584 2.15-12.341 5.965-15.725 4.152-3.681.632-7.371 4.025-9.662 1.8-1.219 3.881-2.935 5.634-8.094a7.571 7.571 0 0 1 3.115-4.152l.26-.227c1.692-1.029 3.809-1.119 6.234-2.955 1.023-.884 1.232-2.142 1.942-3.465a8.585 8.585 0 0 1 3.515-3.827c2.526-1.43 3.313-1.251 6.805-1.932 5.38-1.033 7.717-3.455 10.215-5.356s7.835-5.688 12.587-1.72c.908.757 4.99-.9 6.694.26 2.3 1.563 2.45 3.2 2.464 5.965 0 .3-.012.623-.036.953l-.034.437.253.326s.2.252.527.779a19.422 19.422 0 0 1 1.242 2.286 21.047 21.047 0 0 1 1.972 8.047v.053a19.88 19.88 0 0 1-1.048 4.139 20.558 20.558 0 0 0-1.148 5.51 4.5 4.5 0 0 0 .481 2.185A25.178 25.178 0 0 1 221.39 163a26.587 26.587 0 0 1-2.487 11.012 4.11 4.11 0 0 0-.355 1.7c.072 2.7 1.792 5.286 2.342 14.016l.865-.075-.865.08c.042.608.059 1.2.059 1.788a31.028 31.028 0 0 1-1.59 9.537c-.812 2.609-1.7 4.564-1.852 6.357a45.542 45.542 0 0 0-.137 3.374c-.007 5.127 1.116 8.262 2.651 12.451a27.032 27.032 0 0 1 .934 7.459 15.418 15.418 0 0 1-.549 4.589c-1.64 4.867-2.472 9.344-4.091 14.489a20.9 20.9 0 0 0-.8 6.159 58.132 58.132 0 0 0 2.893 16.638 12.387 12.387 0 0 1 .851 4.277c0 2.645.794 6.343-.858 8.62-1.639 2.258-3.121 2.732-2.7 4.759.486 2.379-4.394 5.228-6.064 6.573a19.876 19.876 0 0 1-9.862 3.249c-2.373 0-8.219-1.672-9.547-2.909-.272-.252-4.209 2.039-8.185 1.359-7.308-1.246-5.356-5.144-7.5-4.419a7.91 7.91 0 0 1-7.514-1.471 25.405 25.405 0 0 1-4.015-4.662c-.764-1.1-1.334-2.082-2.52-2.511-3.267-1.139-4.99-2.326-5.875-3.3a4.014 4.014 0 0 1-1.113-2.384 3.827 3.827 0 0 0-.43-1.646 1.453 1.453 0 0 0-1.061-.646c-3.563-.45-7.883-3.437-9.913-8.786-.6-1.413-1.574-1.724-2.189-2.417-.639-.674-1.294-1.644-1.584-4.39a34.379 34.379 0 0 1-.165-3.331c0-2.6.323-4.455.327-6.522a16.514 16.514 0 0 0-1.991-7.683z" class="acc-brain-2" data-name="Path 13694" transform="translate(-131.187 -115.845)"/>
    <path id="Path_13695" d="M165.555 136.831c2.663-.755 8.716-3.054 9.542 1.527.587.227 1.023 1.194.892 0-.637-5.79-5.221-4.237-6.715-3.557s-3.719 2.03-3.719 2.03z" class="acc-brain-2" data-name="Path 13695" transform="translate(-129.329 -114.903)"/>
    <g id="Group_2498" data-name="Group 2498" transform="translate(82.099)">
        <path id="Path_13696" d="M210.4 189.649c.677-10.628 3.134-12.845 2.084-15.177-5.554-12.33-.668-21.538.923-24.425 1.4-2.546-1.937-8.957-1.849-11.383a22.077 22.077 0 0 1 3.96-11.746c-.492-6.751 3.762-10.072 10.146-10.072 14.445 0 12.367 6.85 22.789 8.886 3.389.662 4.393.514 7.042 2.023 4.161 2.373 4.346 6.44 5.549 7.352 4.7 3.56 8.722 4.219 9.942 7.807 1.519 4.469 2.387 7.613 4.066 9.287 2.159 2.153 3.907 3.073 6.233 4.861 2.146 1.649 2.885 5.345 2.969 8.483.061 2.3 5.9 9.629 5.259 15.482-.593 5.477 2.418 2.505 2.164 9.035-.1 2.663-1.151 6.43-2.29 7-.253.127 2.873 4.114 3.564 6.489 1.559 5.36 4.208 11.164 5.2 15.2 1.729 7.11 2.627 16.624-2.538 26.482-3.655 6.983-.087 8.4-.916 16.74-.579 5.81-3.134 5.25-3.841 7.1-2.178 5.708-6.74 8.885-10.612 9.38-1.85.238 1.851 4.387-8.323 7.944-1.7.595-1.8 2.865-6.246 6.995a10.725 10.725 0 0 1-4.815 2.867c-5 1.36-11.1 1.974-19.337 3.663-14.443 2.965-18.24-1.885-21.707-9.589s-10.333-8.684-6.868-18.165c1.107-3.019-.287-15.3 1.24-20.14 1.651-5.222-1.63-11.612-3.241-16.381-1.164-3.447-.442-10.527.394-12.813 1.85-5.059 2.987-8.222 2.449-15.342-.235-3.092-3.96-8.857-3.39-17.843z" class="cls-acc-brain" data-name="Path 13696" transform="translate(-209.03 -115.835)"/>
        <path id="Path_13697" d="M220.687 261.208c3.835.562 6.079 4.421 7.174 8.911s-.547 10.668-2.189 9.545c0 3.931 4.926-2.245 4.926-3.929 1.641 3.367 9.307 1.121 10.4-2.246-3.832 1.122-7.667 2.807-9.309-1.685s-3.283-7.86-4.926-8.983-6.076-1.613-6.076-1.613z" class="acc-brain-2" data-name="Path 13697" transform="translate(-208.447 -108.03)"/>
        <path id="Path_13698" d="M251.819 275.352a7.385 7.385 0 0 0 3.081-5.852c0-3.794-.923-5.69-5.55-11.382 6.013.474 10.253-5.455 8.4-9.247s-4.209-8.163-9.79-6.879c-13.721 3.161-23.125 4.269-26.13 3.638-3.021-.637-8.093-4.427-9.48-9.17.461 4.743 3.659 9.662 6.627 11.067 4.01 1.9 11.871.632 19.269-1.265s14.263-5.3 16.343 3.005c0 0 .464 5.849-7.861 8.536-2.931.474 6.478 6.486 6.629 10.276.311 7.747-3.405 9.187-1.538 7.273z" class="acc-brain-2" data-name="Path 13698" transform="translate(-208.898 -109.368)"/>
        <path id="Path_13699" d="M254.192 251.108c-1.927 3.956 10.767-5.815 14.492-5.374 6.713.794 6.783-1.582 8.017-8.539s1.85-14.545-5.551-22.766-7.248-20.709-1.079-20.709c-4.933-1.265-10.638 6.8-7.551 11.856s10.018 11.067 11.251 18.026 1.7 18.653-2.62 18.653-16.651 8.222-16.959 8.853z" class="acc-brain-2" data-name="Path 13699" transform="translate(-206.646 -111.686)"/>
        <path id="Path_13700" d="M211.35 233.006c-.815-2.215-1.067-3.564-.436-3.484 17.925 2.266 22.8-8.956 18.506-20.057-2.881-7.434-4.5-10.578-3.055-14.889 1.54-4.585 6.71-13.736 5.509-17.593-1.772-5.69-4.857-10.433-13.256-4.269 3.082-3.794 5.547-8.221 10.482-3.794-.619-5.06 6.011-13.279 12.95-10.118-10.407-1.5-12.334 8.221-9.249 13.912s.46 7.826-1.234 15.177c-1.285 5.573-5.7 10.434-2 16.127a22.135 22.135 0 0 1 2.774 17.389c-3.551 11.857-20.991 11.599-20.991 11.599z" class="acc-brain-2" data-name="Path 13700" transform="translate(-208.995 -113.605)"/>
        <path id="Path_13701" d="M271.861 176.441c-3.084-1.581-5.733 3.917-8.557 7.351-3.739 4.545-10.419-1.15-12.156-4.375-2.375-4.411-5.341-6.533-9.35-6.848s-8.866 3.082-9.482 6.244l.343 1.072c1.585-2.788 5.258-5.677 8.522-5.42 4.008.316 6.411 2.709 8.016 6.007 3.7 7.588 11.333 9.051 14.108 5.574s5.258-9.186 8.441-7.825c1.387.592 5.55 2.963 2.89 8.061 3.815-4.268.242-8.295-2.775-9.841z" class="acc-brain-2" data-name="Path 13701" transform="translate(-207.818 -112.824)"/>
        <path id="Path_13702" d="M250.426 139.516c-.74-.349-.923-1.9-.923-1.9 4.932 0 11.872 3.795 10.02 13.122.773.949 23.2 13.359 11.409 28.536a24.967 24.967 0 0 0-3.238.238s7.246-10.75 1.079-17.706-11.254-9.748-11.254-9.748 3.377-7.252-2.312-10.963c-1.179-.766-3.624-1.034-4.781-1.579z" class="acc-brain-2" data-name="Path 13702" transform="translate(-206.889 -114.712)"/>
        <path id="Path_13703" d="M271.149 164.767c5.55-.473 12.332 7.589 9.866 19.288 0 0 7.227 7.364-4.99 13.98 0 0 11.157-8.6 2.83-13.031 0 0 1.851-9.487-1.231-12.965a15.241 15.241 0 0 0-6.166-4.426z" class="acc-brain-2" data-name="Path 13703" transform="translate(-205.719 -113.245)"/>
        <path id="Path_13704" d="M221.431 126.916c4.419-4.232 8.965-.454 11.171 2.341 1.1.68 3.54-6.128 14.177-3.281-8.556-6.166-14.107.87-14.107.87s-3.452-3.8-7.735-2.877c-3.506.755-3.506 2.947-3.506 2.947z" class="acc-brain-2" data-name="Path 13704" transform="translate(-208.407 -115.478)"/>
        <path id="Path_13705" d="M211.475 137.768c3.93 9.011 10.511 9.079 14.67 5.759s9.61-9.554 14.7-10.028 10.871 1.186 11.8 5.928-1.388 6.641-2.314 6.166 2.082-6.4-1.157-8.3c-2.892-1.7-7.628-4.27-11.793-1.424s-6.923 8.337-11.561 10.2c-5.32 2.134-9.713 2.371-12.025-.95a14.349 14.349 0 0 1-2.32-7.351z" class="acc-brain-2" data-name="Path 13705" transform="translate(-208.945 -114.939)"/>
        <path id="Path_13706" d="M218.941 134.164c1.1-2.961 6.432-5.311 7.82-3.414s-.488 1.36-3.022 1.812c-2.285.41-4.782 4.937-4.481 6.687.259 1.51-.041 1.546-.52.151a8.038 8.038 0 0 1 .203-5.236z" class="acc-brain-2" data-name="Path 13706" transform="translate(-208.572 -115.12)"/>
        <path id="Path_13707" d="M237.552 144.977c3.7-.949 10.174 2.845 8.789 5.217s-4.625 5.692-.925 7.589 20.118 5.69 15.955 16.6c-1.283 3.364 1.851-5.455-6.937-10.91-2.8-1.735-7.168-.473-10.408-3.793s1.389-9.487-2.311-11.858-7.864 1.9-7.864-.473 3.701-2.372 3.701-2.372z" class="acc-brain-2" data-name="Path 13707" transform="translate(-207.736 -114.322)"/>
        <path id="Path_13708" d="M229.464 219.962c.462 2.847 6.551 12.015 14.875 9.168s18.5-3.937 21.97 1.848c2.466 4.109 2.659 9.149 1.532 11.64-.375.829-3.982 2.667-3.511 2.145 2-2.214 3.313-11.331-3.117-13.825-5.323-2.064-8.966-1.169-15.484.563-8.325 2.216-16.5-4.9-17.421-7.744s1.156-3.795 1.156-3.795z" class="acc-brain-2" data-name="Path 13708" transform="translate(-208.048 -110.26)"/>
        <path id="Path_13709" d="M242.729 185.1c-5.086 1.423-5.318 5.691-3.468 12.331s6.939 17.075 11.56 15.652 13.415.949 12.493 3.319-.58 1.542-3.356-.355-7.746.828-12.832-1.541-11.1-15.177-10.64-21.344 3.238-11.145 7.4-9.248-1.157 1.186-1.157 1.186z" class="acc-brain-2" data-name="Path 13709" transform="translate(-207.594 -112.231)"/>
        <path id="Path_13710" d="M240.02 200.426c4.162 1.423 16.511-6.308 13.875-9.012a10.1 10.1 0 0 0-2.775-1.9c4.162-.475 6.012 3.319 4.162 4.742s-3.7 4.111-2.314 4.111 6.323-.159 4.474.791c-1.616.828-4.582-1.341-8.481 1.581-6.011 4.505-9.405 2.054-9.405 2.054z" class="acc-brain-2" data-name="Path 13710" transform="translate(-207.427 -111.908)"/>
        <path id="Path_13711" d="M211.735 169.462c-2.8-6.855 4.919-13.357 10.009-13.831s6.937 2.845 8.324 2.372c.982-.336-.924-4.507-8.324-4.032s-12.027 6.166-12.027 8.063 2.018 7.428 2.018 7.428z" class="acc-brain-2" data-name="Path 13711" transform="translate(-209.04 -113.83)"/>
        <path id="Path_13712" d="M264.494 195.78c.386-1.423 3.778-3 5.783-1.9 5.049 2.787 7.246 13.913 8.632 10.118s9.711-3.794 11.562-1.423a8.448 8.448 0 0 1 1.851 4.743s-1.388-3.795-5.086-3.795-6.477 2.846-8.327 3.32-4.742-7.622-7.863-9.485c-5.165-3.083-6.474 2.371-6.474 2.371z" class="acc-brain-2" data-name="Path 13712" transform="translate(-206.079 -111.69)"/>
        <path id="Path_13713" d="M272.2 206.163c-1.543 0 1.232 5.692 4.934 7.588s8.325.949 7.861 5.218-9.249 9.01-9.249 9.01l-.464 2.845s15.263-9.167 11.565-13.912-6.786-3.318-9.252-4.9a18.29 18.29 0 0 1-5.395-5.849z" class="acc-brain-2" data-name="Path 13713" transform="translate(-205.686 -111.006)"/>
        <path id="Path_13714" d="M285.665 220.913c-2.316.712 6.431 4.371 4.118 15.28-1.432 6.75-8.776 16.851-15.727 16.6-8.787-.316-13.01 2.494-15.263 9.487-1.646 5.114-7.23 3.886-7.23 3.886l.257 1.512s6.368 3.475 8.835-3.93c2.2-6.609 3.843-8.583 8.009-9.058s10.481 1.9 16.029-5.217 8.557-13.517 6.706-20.156-5.734-8.404-5.734-8.404z" class="acc-brain-2" data-name="Path 13714" transform="translate(-206.778 -110.209)"/>
        <path id="Path_13715" d="M246.161 282.293c0-3.319 2.709-12.626 10.947-11.384a28.442 28.442 0 0 1 8.478 2.531s.04-7.55 6.514-9.922 10.584 5.112 7.053 6.76c-2.119.987-2-.079-2-.079s4.278-3.557-2.545-5.217c-1.8-.438-5.743 2.329-5.743 4.7s.884 5.968-3.276 5.022-7.793-3.141-11.1-1.9c-6.321 2.373-6.706 8.538-8.093 9.487s-.235.002-.235.002z" class="acc-brain-2" data-name="Path 13715" transform="translate(-207.094 -107.93)"/>
        <path id="Path_13716" d="M256.881 287.668c-4.165 0-5.552-6.64-2.314-9.01s1.736 0 0 1.777c-1.387 1.423 1.271 6.876 5.78 6.167a4.511 4.511 0 0 1-3.466 1.066z" class="acc-brain-2" data-name="Path 13716" transform="translate(-206.712 -107.141)"/>
        <path id="Path_13717" d="M286.268 263.644c-2.66-8.655-7.4-4.625-8.1-5.218-.993-.85 8.9-3.677 9.133 2.964.109 2.93-1.033 2.254-1.033 2.254z" class="acc-brain-2" data-name="Path 13717" transform="translate(-205.343 -108.252)"/>
        <path id="Path_13718" d="M232.537 292.154c6.164 1.265 8.99-7.277 8.015-10.277-.925-2.845.463-3.162 1.544-.632.987 2.319.1 9.03-1.8 9.888s-7.759 1.021-7.759 1.021z" class="acc-brain-2" data-name="Path 13718" transform="translate(-207.807 -107.04)"/>
        <path id="Path_13719" d="M227.034 262.659c-4.625-3.637-11.716-1.739-14.029 1.579a6.987 6.987 0 0 0-.985 6.427s8.965-14.506 15.98-2.565c2.96 5.03-.966-5.441-.966-5.441z" class="acc-brain-2" data-name="Path 13719" transform="translate(-208.936 -108.059)"/>
        <path id="Path_13720" d="M212.353 196.738C214.2 201 218.52 201 220.368 201s.3 1.073-.309 1.266c-4.47 1.423-7.706-1.739-5.4.632s4.78 3.321 5.55 7.747c.475 2.722.378 3.454-.924 0-1.851-4.9-5.636-4.6-5.636-4.6z" class="acc-brain-3" data-name="Path 13720" transform="translate(-208.898 -111.516)"/>
        <path id="Path_13721" d="M223.135 175.872c-1.081-.792-4.628 3.008-6.167 5.69a16.045 16.045 0 0 0-1.543 5.376c-.464 4.743 4.624 6.481 4.011 4.585-.347-1.061-2.624-.792-2.162-6.166.549-6.348 6.536-8.99 5.861-9.485z" class="acc-brain-2" data-name="Path 13721" transform="translate(-208.733 -112.65)"/>
        <path id="Path_13722" d="M257.232 213.629c3.584 0 5.435 8.774-2.312 7.588-1.041 1.3 5.088 2.135 6.937-1.186s1.965-5.217-.346-6.64a3.739 3.739 0 0 0-4.279.238z" class="acc-brain-2" data-name="Path 13722" transform="translate(-206.603 -110.647)"/>
        <path id="Path_13723" d="M273.411 150.754c-3.855-3.161-11.2 3.513-9.386 4.571 1.08.628 2.6-3.778 7.679-3.352 3.356.281 4.384 1.435 4.384 1.435z" class="acc-brain-3" data-name="Path 13723" transform="translate(-206.12 -114.047)"/>
        <path id="Path_13724" d="M221.128 154.284c5.088-1.423 8.787-4.269 9.712-6.166-.925 3.795-6.476 7.115-6.476 7.115z" class="acc-brain-2" data-name="Path 13724" transform="translate(-208.423 -114.144)"/>
        <path id="Path_13725" d="M289.416 229.26c.232-2.137 3.276-5.9 6.051-3.532a15.2 15.2 0 0 0-.195-3.74s-7.012 1.342-7.012 4.188 1.156 3.084 1.156 3.084z" class="acc-brain-2" data-name="Path 13725" transform="translate(-204.794 -110.151)"/>
        <path id="Path_13726" d="M239.335 133.734c6.092-.237 7.635-4.19 8.094-4.506 1.588-1.086-.923 3.795-2.31 4.742s-5.784-.236-5.784-.236z" class="acc-brain-2" data-name="Path 13726" transform="translate(-207.439 -115.174)"/>
        <path id="Path_13727" d="M253.879 229.111c-8.17 1.266-10.022 5.06-11.87 7.43s-2.931 2.53-1.543.158 4.625-6.64 6.936-7.116a43.1 43.1 0 0 1 6.477-.472z" class="acc-brain-2" data-name="Path 13727" transform="translate(-207.412 -109.766)"/>
        <path id="Path_13728" d="M231.546 246.21c-.781 7.025 1.752 14.506 5.649 15.411s1.73 1.612-.876 1.36c-4.678-.453-9.857-14.208-5.946-16.657 2.535-1.587 1.173-.114 1.173-.114z" class="acc-brain-2" data-name="Path 13728" transform="translate(-207.998 -108.875)"/>
        <path id="Path_13729" d="M214.221 275.186s1.073 3.512 3.021 4.419 4.579-2.152 6.138-4.873-.584-6.458-1.17-5.212c.782 2.832-3.312 9.292-6.758 6.037z" class="acc-brain-2" data-name="Path 13729" transform="translate(-208.797 -107.594)"/>
        <path id="Path_13730" d="M300.378 229.944a39.678 39.678 0 0 0-2.672-13.615c-2.211-5.686-3.022-12.132-4.454-15.27-.878-1.918-2.8-2.8-2.672-4.708.047-.716 2.714-3.407 2.036-7-.7-3.724-2.015-4.685-1.909-5.853.063-.7-.128-6.044-1.6-9.256-2.1-4.569-4.033-8.289-3.956-8.814.593-4.072-1.732-7.775-4.5-9.925-2.1-1.636-3.563-2.29-5.089-3.394-1.321-.955-2.006-4.459-3.725-9.516a8.361 8.361 0 0 0-4.072-4.438c-1.8-1.089-4.551-1.552-6.828-3.277a15.34 15.34 0 0 1-1.389-2.79c-.759-1.528-2.9-5.218-6.192-6.139a20.752 20.752 0 0 0-4.717-1.162c-5.039-1-6.874-3.023-9.554-5.057s-6.059-3.864-13.378-3.843a12.024 12.024 0 0 0-7.868 2.437 9.507 9.507 0 0 0-3.187 7.605c0 .232.007.467.019.705a23.369 23.369 0 0 0-3.939 12.029c-.005.076 0 .122 0 .147a19.984 19.984 0 0 0 1.148 4.821 18.677 18.677 0 0 1 1.047 4.828 2.31 2.31 0 0 1-.206 1.1 27.42 27.42 0 0 0-3.645 13.492 28.922 28.922 0 0 0 2.685 11.946 1.76 1.76 0 0 1 .155.767c.073 1.519-1.769 5-2.336 13.867a28.692 28.692 0 0 0-.061 1.941 33.323 33.323 0 0 0 1.694 10.232 38.388 38.388 0 0 1 1.754 5.836 44.46 44.46 0 0 1 .128 3.2c-.007 4.776-.972 7.43-2.512 11.659a28.667 28.667 0 0 0-1.072 8.25 17.526 17.526 0 0 0 .67 5.328c1.58 4.674 2.413 9.141 4.075 14.444.321 1.021-1.011 2.32-.916 3.6.012 6.662-2.969 14.966-2.444 21.083a8.73 8.73 0 0 0 .322 1.969c.081 3.252 1.537 5.708 3.189 7.979 1.717 2.351 2.824 2.064 3.018 2.859.742 3.011 4.664 10.017 6.7 11.657s4.65 2.45 8.282 2.45h.023a47.452 47.452 0 0 0 9.289-1.144c3.261-.667 6.269-.165 8.929-.612 4.035-.676 7.382-2.229 10.455-3.063a11.56 11.56 0 0 0 5.159-3.062 27.342 27.342 0 0 0 4.291-4.983c.821-1.214 1.149-1.667 1.662-1.835 5.178-1.807 7.092-3.863 7.825-5.773a8.723 8.723 0 0 0 .454-2.121v-.026c4.158-.593 8.893-3.95 11.2-9.96.11-.44.763-.774 1.749-1.717.959-.961 1.872-2.616 2.163-5.678.13-1.336.176-2.507.176-3.562 0-2.8-1.107-5.5-1.1-7.286.007-1.883 1.09-4.374 2.54-7.368a29.581 29.581 0 0 0 3.156-13.984zm-6.662 22.117c0 2.067.329 3.921.326 6.522 0 .986-.044 2.074-.167 3.331-.29 2.746-.944 3.717-1.583 4.39-.614.693-1.594 1-2.189 2.417-2.031 5.348-6.351 8.336-9.913 8.786a1.455 1.455 0 0 0-1.061.646 3.814 3.814 0 0 0-.431 1.646 3.988 3.988 0 0 1-1.113 2.384c-.883.976-2.608 2.163-5.874 3.3-1.187.429-1.756 1.406-2.52 2.511a25.4 25.4 0 0 1-4.017 4.662 7.9 7.9 0 0 1-7.512 1.471c-2.146-.725-.2 3.173-7.5 4.419-3.973.68-7.913-1.611-8.183-1.359-1.33 1.237-7.176 2.909-9.549 2.909-3.442 0-5.649-.748-7.318-2.091s-4.762-9.43-4.274-11.811c.414-2.026-3.464-.091-5.1-2.348-1.649-2.276-2.792-4.306-2.792-6.95a12.386 12.386 0 0 1 .851-4.277c.878-2.431.175-10.879.186-17.609 0-2.192 2.492-3.338 1.913-5.188-1.62-5.145-2.453-9.623-4.091-14.489a15.414 15.414 0 0 1-.55-4.589 26.991 26.991 0 0 1 .934-7.459c1.535-4.189 2.657-7.324 2.651-12.451 0-1.035-.045-2.152-.137-3.374-.155-1.793-1.041-3.748-1.852-6.357a31.063 31.063 0 0 1-1.588-9.537c0-.584.016-1.18.058-1.788l-.865-.08.865.075c.551-8.73 2.269-11.32 2.341-14.016a4.11 4.11 0 0 0-.354-1.7 26.59 26.59 0 0 1-2.488-11.012 25.19 25.19 0 0 1 3.371-12.4 4.525 4.525 0 0 0 .483-2.185 20.56 20.56 0 0 0-1.149-5.51 19.722 19.722 0 0 1-1.047-4.139v-.053a21.029 21.029 0 0 1 1.971-8.047 19.756 19.756 0 0 1 1.241-2.286c.33-.527.528-.775.528-.779l.252-.326-.034-.437c-.023-.33-.036-.648-.036-.953a7.327 7.327 0 0 1 2.464-5.965 10.516 10.516 0 0 1 6.852-2.056c7.124.02 9.92 1.63 12.43 3.516s4.836 4.323 10.215 5.356c3.49.681 4.28.5 6.8 1.932a8.567 8.567 0 0 1 3.515 3.827c.71 1.323.918 2.58 1.943 3.465 2.423 1.835 4.542 1.926 6.234 2.955l.261.227a7.557 7.557 0 0 1 3.113 4.152 92.355 92.355 0 0 0 3.388 9.2c1.444.424 5.409 3.337 7.21 5.006 2.329 2.157 3.118 6.2 2.631 7.465-.469 1.224 1.561 3.982 4.2 10.031a18.346 18.346 0 0 1 .826 9.48c-.127.509 2.424.784 2.736 5.408.382 5.661-2.737 5.873-3.055 6.553-.891 1.909 2.24 2.387 2.926 4.581 2.187 6.985 5.1 13.139 6.266 18.023a44.474 44.474 0 0 1 1.713 10.455 35.321 35.321 0 0 1-3.369 14.839 16.535 16.535 0 0 0-1.983 7.681z" class="acc-brain-2" data-name="Path 13730" transform="translate(-209.075 -115.887)"/>
        <path id="Path_13731" d="M261.272 135.984c-2.664-.755-6.43-.075-7.406.755-.583.228-.778-.3.26-.905s3.055-1.738 4.547-1.058 2.599 1.208 2.599 1.208z" class="acc-brain-2" data-name="Path 13731" transform="translate(-206.679 -114.877)"/>
    </g>
    <path id="Path_13732" d="M199.443 291.015c0-2.72-.536-6.986 3.9-9.518a9.257 9.257 0 0 1 8.951.3c1.934-1.951 1.585-2.116 1.585-2.116s-4.157-3.466-11.257.6c-6.062 3.476-5.107 10.318-4.764 11.482.577 1.972 1.585-.748 1.585-.748z" class="acc-brain-2" data-name="Path 13732" transform="translate(-127.597 -107.106)"/>
    <path id="Path_13733" d="M198.406 213.118c-4.619-2.417-11.007 8.688-7.869 15.6 2.635 5.8 10.719 19.491 12.884 23.571 2.134 4.021-.2 9.822-7.686 3.512-7.795-6.572-12.667-7.705-19.594-2.266-6.358 4.992 3.788 13.975 7.4 14.58s9.092 1.207 6.783 4.23c0 0 .648 0 .866-.905s1.3-4.079-4.547-4.306-12.013-7.271-10.609-10.539c.974-2.266 5.049-5.87 9.959-4.421a23.811 23.811 0 0 1 10.392 6.119c3.031 2.947 7.362 3.855 8.877 1.133s1.3-5.438-1.3-9.858c-2.2-3.747-9.559-18.417-11.475-21.644-2.49-4.193.65-11.56 3.465-12.464l2.814-.906z" class="acc-brain-2" data-name="Path 13733" transform="translate(-128.867 -110.648)"/>
    <path id="Path_13734" d="M184.331 265.414c-2.961 2.871-7.121 10.185-3.393 13.749 3.32 3.174 9.6 1.89 15.8-2.945 1.733-.909 1.661-2.041 2.96-1.587 2.815.981 11.836.756 13.279-9.217l.144-2.644a15.952 15.952 0 0 1-2.6 5.74c-3.97 5.366-8.445 4.685-10.32 4.685s-2.4-.472-3.681 1.208c-2.526 3.325-13.25 6.3-14.578 2.946-2.094-5.288 2.743-11.633 3.9-11.784s-1.511-.151-1.511-.151z" class="acc-brain-2" data-name="Path 13734" transform="translate(-128.577 -107.946)"/>
    <path id="Path_13735" d="M179.986 139.19c1.655-5.853 3.99-7.3 7.043-6.956s5.09 3.055 7.125 2.375 3.732-3.563 5.429-1.441c.764.955-1.274-2.249-1.274-2.249s-3.221 2.164-4.495 2.418-2.163-1.188-4.327-1.95-3.859-1.7-6.785.084-4.115 6.7-3.989 7.465 1.273.254 1.273.254z" class="acc-brain-2" data-name="Path 13735" transform="translate(-128.618 -115.1)"/>
    <path id="Path_13736" d="M161.491 156.87c.687-4.581 3.7-11.96 9.114-9.162 4.089 2.112 10.32 6.278 18.491 3.9 7.26-2.112 14.018 2.629 6.794 10.943-.43 1.1-.914-.213-.914-.213s6.762-8.61-1.324-9.373c-4.879-.462-8.255 2.289-13.932.763s-9.288-5.175-12.127-3.648-4.3 3.732-3.955 8.567c.104 1.441-2.147-1.777-2.147-1.777z" class="acc-brain-2" data-name="Path 13736" transform="translate(-129.549 -114.2)"/>
    <path id="Path_13737" d="M133.321 220.111c1.654-5.854 6.739-12.587 11.834-4.2.255 1.527 2.673.085 3.69-1.271s13.278-11.834 9.545-15.907-9.925-4.623-9.925-7 7.189-2.685 7.729-5.987-1.495-3.3-1.495-3.3 1.4 3.18-.637 4.2-8.187 3.267-7.508 6.321 4.964 2.925 8.017 4.622 1.952 7.381-.764 9.417-5.726 7.508-9.033 3.945c-2.791-3.006-9.143-1.509-10.127 2.3a54.738 54.738 0 0 0-1.326 6.86z" class="acc-brain-2" data-name="Path 13737" transform="translate(-131.072 -112.288)"/>
    <path id="Path_13738" d="M138.15 204.741c1.146-.891 6.912-4.5 9.755-3.923s2.7-.53.425-1.1-7.859.956-7.974 1.866-2.206 3.157-2.206 3.157z" class="acc-brain-2" data-name="Path 13738" transform="translate(-130.811 -111.362)"/>
    <path id="Path_13739" d="M142.617 176.892c4.2-4.135 11.188-10.329 17.561-5.726 4.581 3.309 12.089 2.29 13.87 0s1.781-3.055 1.781-3.055.763-1.017-.255-.508-2.671 2.417-4.963 3.18-6.807 1.117-10.053-1.017c-4.836-3.181-7.381-2.418-10.943-.637a11.532 11.532 0 0 0-4.836 4.073z" class="acc-brain-2" data-name="Path 13739" transform="translate(-130.569 -113.099)"/>
    <path id="Path_13740" d="M176.966 182.445c1.018 4.072 3.563 10.179-.171 14.93-2.852 3.629-12.046 9.5-13.064 14.591s-.468 15.236.954 15.592c-2.312.019-2.48-.152-2.48-.152s-3.564-14.082.847-19.172 11.537-9.671 13.573-14.081-2.375-8.654-2.375-8.654z" class="acc-brain-2" data-name="Path 13740" transform="translate(-129.584 -112.288)"/>
    <path id="Path_13741" d="M190.486 182.605c-4.072 1.357-7.942 4.266-7.125 8.654 1.358 7.3-7.466 5.428-8.145 6.107-1.017 1.018 10.52 2.036 10.18-3.732-.161-2.731-1.7-7.126 2.036-8.483s5.09.339 5.43-1.018-2.376-1.528-2.376-1.528z" class="acc-brain-2" data-name="Path 13741" transform="translate(-128.81 -112.28)"/>
    <path id="Path_13742" d="M151.259 242.806c1.526 2.036-1.781 7.042-5.685 6.363-3.51-.611-3.819-4.419-4.5-4.242-1.951.508 1.187 5.682 5.26 6.193s1.357-1.7 4.92.338-.454 4.209 4.58 8.824c6.108 5.6 22.228 8.653 26.808 4.073l-2.035-1.868s-1.441 2.29-6.193 2.122-15.933-2.555-18.579-6.787c-1.7-2.715-1.7-6.025-2.375-6.871s-4.713-1.89-3.733-2.037c1.7-.253 4.666-4.155 3.648-5.173a2.926 2.926 0 0 0-2.116-.935z" class="acc-brain-2" data-name="Path 13742" transform="translate(-130.684 -109.025)"/>
    <path id="Path_13743" d="M172.941 231.7c1.527 3.563-1.526 6.616 0 9.67s.647-2.068 1.273-4.071c.849-2.715 5.09-1.781 5.09-1.781z" class="acc-brain-2" data-name="Path 13743" transform="translate(-128.953 -109.626)"/>
    <path id="Path_13744" d="M153.6 168.3c3.817-2.206 1.526-5.26 2.545-6.617.161-.215 1.359 2.714 1.1 4.92a3 3 0 0 1-1.273 2.036z" class="acc-brain-2" data-name="Path 13744" transform="translate(-129.975 -113.412)"/>
    <path id="Path_13745" d="M140.287 188.819s4.114 1.081 9.544-4.009 6.676-6.394 8.4-7.062 2.227-2.163-.318-.955c-1.533.728-8.779 7.636-13.679 9.035-1.984.567-3.944.254-5.472-2.354-.586-.995 1.525 5.345 1.525 5.345z" class="acc-brain-2" data-name="Path 13745" transform="translate(-130.783 -112.619)"/>
    <path id="Path_13746" d="M210.68 190.332c-1.866-8.484-15.439-13.4-16.965-6.787s8.311 11.877 7.293 16.458-5.649 3.335-5.649 3.335.73.228 3.275-2.317-2.382-5.177-5.938-11.538c-3.224-5.769-4.715-9.373 2.205-11.367s15.439 5.26 16.457 7.805a4.369 4.369 0 0 1-.678 4.411z" class="acc-brain-2" data-name="Path 13746" transform="translate(-128.008 -112.541)"/>
    <path id="Path_13747" d="M199.2 179.094c5.22-2.632 8.431-8.227 2.008-10.859s-12.045-4.444-5.22-8.968c2.811-2.879 1.237-1.246 1.237-1.246l1.146.127s-5.776 2.978-2.164 5.282 9.611 3.251 10.414 6.871-1.8 9.78-4.209 10.438a2.609 2.609 0 0 1-3.212-1.645z" class="acc-brain-2" data-name="Path 13747" transform="translate(-127.852 -113.634)"/>
    <path id="Path_13748" d="M213.714 210.337c-3.054-4.412-7.974-5.261-13.064-2.206s-4.023 4.425-3.732 6.617c.7 5.246 7.3 5.09 7.975 8.482s-4.752.681-3.732 9.163 10.119 19.21 12.046 16.457a3.928 3.928 0 0 0 .386-3.568s-9.549-1.012-10.227-14.077c-.2-3.742 4.92-5.258 3.9-7.975s-7.874-4.662-8.313-9.5c-.171-1.865 2.546-6.786 7.635-5.427s6.449 4.749 6.449 4.749z" class="acc-brain-2" data-name="Path 13748" transform="translate(-127.649 -110.998)"/>
    <path id="Path_13749" d="M193.06 201.33c1.867 1.527 1.188 7.466-1.188 7.805s-3.054 1.357-1.527 1.527a5.829 5.829 0 0 0 5.091-3.224c.849-2.036-.51-3.732.678-3.9s2.7-.271 3.564 1.188c1.357 2.289 1.62 1.868 1.018.424a5.833 5.833 0 0 0-3.055-3.138c-.51-.17-3.4-1.528-4.073-1.7s-.508 1.018-.508 1.018z" class="acc-brain-2" data-name="Path 13749" transform="translate(-128.033 -111.323)"/>
</svg>
