<?xml version="1.0"?>
<svg xmlns="http://www.w3.org/2000/svg" xmlns:xlink="http://www.w3.org/1999/xlink" version="1.1" id="Capa_1" x="0px" y="0px" viewBox="0 0 430 430" style="enable-background:new 0 0 430 430;" xml:space="preserve" width="512px" height="512px" class=""><g><path d="M429.239,54.954c-1.548-3.736-5.194-6.173-9.239-6.173h-38.781V10c0-4.045-2.436-7.691-6.173-9.239  c-3.738-1.546-8.038-0.691-10.898,2.168l-39.168,39.168c-1.875,1.876-2.929,4.419-2.929,7.071v44.639l-32.853,32.853  C257.37,98.238,216.722,82.69,173.655,82.69c-46.421,0-90.039,18.054-122.82,50.835C18.054,166.306,0,209.924,0,256.345  s18.054,90.039,50.835,122.82C83.616,411.946,127.234,430,173.655,430s90.039-18.054,122.82-50.835  c32.781-32.781,50.835-76.399,50.835-122.82c0-43.067-15.549-83.715-43.971-115.542l32.854-32.854h44.638  c2.652,0,5.196-1.054,7.071-2.929l39.169-39.168C429.931,62.992,430.787,58.691,429.239,54.954z M342.05,53.311l19.168-19.169  v20.497L342.05,73.807V53.311z M327.31,256.345C327.31,341.07,258.381,410,173.655,410S20,341.07,20,256.345  S88.93,102.69,173.655,102.69c38.772,0,74.23,14.441,101.294,38.219l-24.486,24.486c-20.752-17.552-47.563-28.154-76.807-28.154  c-65.674,0-119.104,53.43-119.104,119.104c0,65.674,53.43,119.103,119.104,119.103c65.674,0,119.104-53.43,119.104-119.103  c0-29.244-10.601-56.055-28.154-76.807l24.486-24.486C312.869,182.115,327.31,217.573,327.31,256.345z M218.207,256.345  c0,24.566-19.986,44.552-44.552,44.552c-24.566,0-44.552-19.985-44.552-44.552s19.986-44.552,44.552-44.552  c8.669,0,16.761,2.497,23.612,6.797l-30.683,30.683c-3.905,3.905-3.905,10.237,0,14.143c1.953,1.952,4.512,2.929,7.071,2.929  c2.559,0,5.119-0.977,7.071-2.929l30.683-30.683C215.71,239.584,218.207,247.676,218.207,256.345z M211.651,204.206  c-10.668-7.796-23.801-12.413-37.996-12.413c-35.594,0-64.552,28.958-64.552,64.552c0,35.594,28.958,64.552,64.552,64.552  c35.594,0,64.552-28.958,64.552-64.552c0-14.196-4.617-27.328-12.413-37.996l24.618-24.618  c13.96,17.081,22.346,38.886,22.346,62.615c0,54.646-44.457,99.103-99.104,99.103s-99.104-44.458-99.104-99.103  s44.458-99.104,99.104-99.104c23.729,0,45.534,8.387,62.615,22.346L211.651,204.206z M376.689,87.949h-20.496l19.168-19.168h20.496  L376.689,87.949z" data-original="#000000" class="active-path" data-old_color="#000000" fill="#0F81DC"/></g> </svg>
