<svg xmlns="http://www.w3.org/2000/svg" width="480.581" height="512" viewBox="0 0 480.581 512">
  <path id="Path_48" data-name="Path 48" d="M463.35,104.34a39.38,39.38,0,0,0-53.8-14.42l-24.09,13.89A200.41,200.41,0,0,0,323,67.71V40c0-21.75-17.58-40-39.33-40H228.33C206.58,0,189,18.23,189,40V67.71a200.409,200.409,0,0,0-62.46,36.1L102.46,89.92a39.39,39.39,0,0,0-53.81,14.42L21,152.26a39.38,39.38,0,0,0,14.41,53.8l24,13.87a201.51,201.51,0,0,0,0,72.13l-24,13.87A39.38,39.38,0,0,0,21,359.74l27.67,47.92a39.38,39.38,0,0,0,53.8,14.42l24.09-13.89A200.411,200.411,0,0,0,189,444.29V472c0,21.75,17.58,40,39.33,40h55.34c21.75,0,39.33-18.23,39.33-40V444.29a200.409,200.409,0,0,0,62.46-36.1l24.07,13.89a39.39,39.39,0,0,0,53.81-14.42L491,359.74a39.38,39.38,0,0,0-14.41-53.8l-24-13.87a201.511,201.511,0,0,0,0-72.13l24-13.87A39.38,39.38,0,0,0,491,152.26ZM256,355.11A99.11,99.11,0,1,1,355.11,256,99.11,99.11,0,0,1,256,355.11Z" transform="translate(-15.71)"/>
</svg>
