<svg xmlns="http://www.w3.org/2000/svg" width="21.309" height="14.25" viewBox="0 0 21.309 14.25">
  <path id="Path_16118" data-name="Path 16118" d="M20.593,17.2H2.694A1.706,1.706,0,0,0,1,18.873H1V29.755a1.7,1.7,0,0,0,1.694,1.694h17.92a1.7,1.7,0,0,0,1.694-1.694V18.894A1.729,1.729,0,0,0,20.593,17.2Zm-17.9.934h17.92a.764.764,0,0,1,.739.586l-9.666,5.322-9.71-5.409A.76.76,0,0,1,2.694,18.134Zm17.9,12.381H2.694a.77.77,0,0,1-.76-.76V19.676l9.514,5.3a.419.419,0,0,0,.217.065.367.367,0,0,0,.217-.065l9.449-5.213v9.992A.713.713,0,0,1,20.593,30.515Z" transform="translate(-1 -17.2)" fill="#0f81dc"/>
</svg>
