<?xml version="1.0" encoding="utf-8"?>
<!-- Generator: Adobe Illustrator 15.1.0, SVG Export Plug-In . SVG Version: 6.00 Build 0)  -->
<!DOCTYPE svg PUBLIC "-//W3C//DTD SVG 1.1//EN" "http://www.w3.org/Graphics/SVG/1.1/DTD/svg11.dtd">
<svg version="1.1" id="Layer_1" xmlns="http://www.w3.org/2000/svg" xmlns:xlink="http://www.w3.org/1999/xlink" x="0px" y="0px"
	 width="512px" height="512px" viewBox="0 0 512 512" enable-background="new 0 0 512 512" xml:space="preserve">
<g>
	<path fill="#595959" d="M509.02,247.84c-33.949-41.441-73.531-73.57-117.648-95.531c-42.492-21.148-87.383-32.008-133.449-32.297
		C257.281,120,256.641,120,256,120s-1.281,0-1.922,0.012c-46.066,0.289-90.957,11.148-133.449,32.297
		c-44.117,21.961-83.699,54.09-117.648,95.52C1,249.781-0.011,252.379,0,255c-0.012,2.621,1,5.219,2.98,7.172
		c33.949,41.43,73.531,73.559,117.648,95.52c42.492,21.148,87.383,32.008,133.449,32.297C254.719,390,255.36,390,256,390
		s1.281,0,1.922-0.012c46.066-0.289,90.957-11.148,133.449-32.297c44.258-22.02,83.949-54.293,117.969-95.922
		c1.672-1.82,2.66-4.238,2.66-6.809C512,252.219,510.891,249.68,509.02,247.84z M129.539,339.789
		C89.942,320.078,54.141,291.578,23.051,255c31.09-36.578,66.891-65.078,106.488-84.789c11.66-5.801,23.512-10.77,35.52-14.91
		C138,180.012,121,215.559,121,255s17,74.988,44.059,99.699C153.051,350.559,141.199,345.59,129.539,339.789z M256,370
		c-63.41,0-115-51.59-115-115s51.59-115,115-115s115,51.59,115,115S319.41,370,256,370z M382.461,339.789
		c-11.66,5.801-23.512,10.77-35.52,14.91C374,329.988,391,294.441,391,255s-17-74.988-44.059-99.699
		c12.008,4.141,23.859,9.109,35.52,14.91c39.598,19.711,75.398,48.211,106.488,84.789
		C457.86,291.578,422.059,320.078,382.461,339.789z"/>
	<path fill="#595959" d="M256,310c-30.328,0-55-24.672-55-55s24.672-55,55-55s55,24.672,55,55S286.328,310,256,310z M256,220
		c-19.301,0-35,15.699-35,35s15.699,35,35,35s35-15.699,35-35S275.301,220,256,220z"/>
	<path fill="#595959" d="M256,469.953c-5.523,0-10-4.477-10-10v-40c0-5.52,4.477-10,10-10s10,4.48,10,10v40
		C266,465.477,261.524,469.953,256,469.953z"/>
	<path fill="#595959" d="M330.145,458.238c-2.563,0-5.121-0.977-7.074-2.93l-28.285-28.281c-3.902-3.906-3.902-10.238,0-14.145
		c3.906-3.902,10.238-3.906,14.145,0l28.285,28.285c3.906,3.906,3.906,10.238,0,14.141
		C335.262,457.262,332.703,458.238,330.145,458.238z"/>
	<path fill="#595959" d="M181.856,458.238c-2.559,0-5.117-0.977-7.07-2.93c-3.902-3.902-3.902-10.234,0-14.141l28.285-28.285
		c3.91-3.902,10.238-3.902,14.145,0c3.902,3.906,3.902,10.238,0,14.145l-28.285,28.281
		C186.977,457.262,184.418,458.238,181.856,458.238z"/>
	<path fill="#595959" d="M256,99.953c-5.523,0-10-4.477-10-10v-40c0-5.52,4.477-10,10-10s10,4.48,10,10v40
		C266,95.477,261.524,99.953,256,99.953z"/>
	<path fill="#595959" d="M210.145,99.953c-2.563,0-5.121-0.973-7.074-2.926l-28.285-28.285c-3.902-3.906-3.902-10.238,0-14.141
		c3.906-3.906,10.238-3.906,14.145,0l28.285,28.281c3.906,3.906,3.906,10.238,0,14.145
		C215.262,98.977,212.703,99.953,210.145,99.953z"/>
	<path fill="#595959" d="M301.856,99.953c-2.559,0-5.117-0.973-7.07-2.926c-3.902-3.906-3.902-10.238,0-14.145l28.285-28.281
		c3.906-3.906,10.238-3.906,14.145,0c3.906,3.902,3.902,10.234,0,14.141L308.93,97.027
		C306.977,98.977,304.418,99.953,301.856,99.953z"/>
	<path fill="#595959" d="M256.02,20c-5.52,0-10.004-4.477-10.004-10s4.473-10,9.996-10h0.008c5.523,0,10,4.477,10,10
		S261.543,20,256.02,20z"/>
	<path fill="#595959" d="M256.02,510c-5.52,0-10.004-4.477-10.004-10s4.473-10,9.996-10h0.008c5.523,0,10,4.477,10,10
		S261.543,510,256.02,510z"/>
</g>
</svg>
