<svg xmlns="http://www.w3.org/2000/svg" width="18.354" height="18.354" viewBox="0 0 18.354 18.354">
    <defs>
        <style>
            .cls-1,.cls-2{fill:#686868}.cls-2{fill-rule:evenodd}
        </style>
    </defs>
    <g id="noun_Football_1730289">
        <g id="Group_2919" data-name="Group 2919">
            <g id="Group_2918" data-name="Group 2918">
                <path id="Path_16284" d="M9.177 18.354a9.177 9.177 0 1 1 9.177-9.177 9.177 9.177 0 0 1-9.177 9.177zm0-.574a8.6 8.6 0 1 0-8.6-8.6 8.6 8.6 0 0 0 8.6 8.6z" class="cls-1" data-name="Path 16284"/>
                <path id="Path_16285" d="M21.844 29.27l-1.534-1.675-.04.068-3.013-2.333-.457.37q-.155-.244-.293-.5l.522-.418v-2.915l.089-.019-1.132-2.392h-.358a8.6 8.6 0 0 1 2.9-4.934l.124.645 2.375-.235 2.758-1.676V12.5h.574v.752l2.741 1.672 2.361.234.126-.656a8.6 8.6 0 0 1 2.945 5.042H32.2l-1.233 2.606v2.7l.6.482q-.143.252-.3.493l-.595-.476-2.682 2.076-1.69 1.845.039.136a8.665 8.665 0 0 1-4.532 0zm.209-5.241h3.866l1.547-2.556-1.571-3h-3.57l-1.686 3.219zm-1.844-2.82l1.591-3.034-.764-2.675-2.373.235-2.172 3.529 1.168 2.467zm9.307-5.469l-2.369-.24-.761 2.671 1.605 3.064 2.519.524 1.178-2.488zM20.7 27.17l1.49 1.63h3.762l1.491-1.629-1.528-2.571h-3.688z" class="cls-2" data-name="Path 16285" transform="translate(-14.908 -11.926)"/>
            </g>
        </g>
    </g>
</svg>
