<svg xmlns="http://www.w3.org/2000/svg" width="21.309" height="14.249" viewBox="0 0 21.309 14.249">
    <defs>
        <style>
            .cls-1{fill:#686868}
        </style>
    </defs>
    <g id="noun_Email_2726043" transform="translate(-1 -17.2)">
        <g id="Group_2815" data-name="Group 2815" transform="translate(1 17.2)">
            <path id="Path_16118" d="M20.593 17.2H2.694A1.706 1.706 0 0 0 1 18.873v10.882a1.7 1.7 0 0 0 1.694 1.694h17.92a1.7 1.7 0 0 0 1.694-1.694V18.894a1.729 1.729 0 0 0-1.715-1.694zm-17.9.934h17.92a.764.764 0 0 1 .739.586l-9.666 5.322-9.71-5.409a.76.76 0 0 1 .718-.499zm17.9 12.381H2.694a.77.77 0 0 1-.76-.76V19.676l9.514 5.3a.419.419 0 0 0 .217.065.367.367 0 0 0 .217-.065l9.449-5.213v9.992a.713.713 0 0 1-.738.76z" class="cls-1" data-name="Path 16118" transform="translate(-1 -17.2)"/>
        </g>
    </g>
</svg>
