<svg xmlns="http://www.w3.org/2000/svg" width="22.945" height="16.161" viewBox="0 0 22.945 16.161">
    <defs>
        <style>
            .cls-1{fill:#0f81dc}
        </style>
    </defs>
    <g id="noun_Genders_69749" transform="translate(-.005 -5.156)">
        <path id="Path_16125" d="M54.38 19.234a5.281 5.281 0 1 1-5.28 5.282 5.288 5.288 0 0 1 5.281-5.281zm0-.754a6.036 6.036 0 1 0 6.036 6.036 6.036 6.036 0 0 0-6.036-6.036z" class="cls-1" data-name="Path 16125" transform="translate(-39.222 -10.811)"/>
        <path id="Path_16126" d="M98.239 14.253a.377.377 0 0 1-.267-.644l2.667-2.667a.377.377 0 1 1 .533.533L98.5 14.143a.37.37 0 0 1-.261.11z" class="cls-1" data-name="Path 16126" transform="translate(-79.4 -4.606)"/>
        <path id="Path_16127" d="M104.264 9.113a.379.379 0 0 1-.37-.3l-.485-2.42-2.42-.484a.378.378 0 0 1 .148-.742l2.663.533a.373.373 0 0 1 .295.3l.535 2.667a.376.376 0 0 1-.3.444.354.354 0 0 1-.066.002z" class="cls-1" data-name="Path 16127" transform="translate(-81.691)"/>
        <path id="Path_16128" d="M17.45 14.166a5.28 5.28 0 1 1-3.735 1.547 5.25 5.25 0 0 1 3.735-1.547zm0-.754a6.035 6.035 0 1 0 4.268 1.768 6.008 6.008 0 0 0-4.268-1.768z" class="cls-1" data-name="Path 16128" transform="translate(-9.258 -6.699)"/>
        <path id="Path_16129" d="M.381 71.374a.379.379 0 0 1-.267-.11.38.38 0 0 1 0-.533l3.772-3.772a.377.377 0 1 1 .533.533L.648 71.264a.376.376 0 0 1-.266.11z" class="cls-1" data-name="Path 16129" transform="translate(0 -50.057)"/>
        <path id="Path_16130" d="M3.4 74.62a.379.379 0 0 1-.267-.11L.114 71.492a.38.38 0 0 1 0-.533.38.38 0 0 1 .533 0l3.018 3.018a.377.377 0 0 1-.266.644z" class="cls-1" data-name="Path 16130" transform="translate(0 -53.303)"/>
    </g>
</svg>
