<svg xmlns="http://www.w3.org/2000/svg" xmlns:xlink="http://www.w3.org/1999/xlink" width="333.484" height="327.905" viewBox="0 0 333.484 327.905">
  <defs>
    <linearGradient id="linear-gradient" x1="0.5" x2="0.5" y2="1" gradientUnits="objectBoundingBox">
      <stop offset="0" stop-color="#0f81dc"/>
      <stop offset="1" stop-color="#08416e"/>
    </linearGradient>
  </defs>
  <g id="Group_3031" data-name="Group 3031" transform="translate(-888 -412)">
    <line id="Line_119" data-name="Line 119" x2="295" transform="translate(914.5 424.5)" fill="none" stroke="#707070" stroke-width="0.25"/>
    <line id="Line_124" data-name="Line 124" x2="295" transform="translate(914.5 518.5)" fill="none" stroke="#707070" stroke-width="0.25"/>
    <line id="Line_127" data-name="Line 127" x2="295" transform="translate(914.5 612.5)" fill="none" stroke="#707070" stroke-width="0.25"/>
    <line id="Line_120" data-name="Line 120" x2="295" transform="translate(914.5 454.5)" fill="none" stroke="#707070" stroke-width="0.25"/>
    <line id="Line_123" data-name="Line 123" x2="295" transform="translate(914.5 548.5)" fill="none" stroke="#707070" stroke-width="0.25"/>
    <line id="Line_126" data-name="Line 126" x2="295" transform="translate(914.5 642.5)" fill="none" stroke="#707070" stroke-width="0.25"/>
    <line id="Line_121" data-name="Line 121" x2="295" transform="translate(914.5 484.5)" fill="none" stroke="#707070" stroke-width="0.25"/>
    <line id="Line_122" data-name="Line 122" x2="295" transform="translate(914.5 578.5)" fill="none" stroke="#707070" stroke-width="0.25"/>
    <line id="Line_125" data-name="Line 125" x2="295" transform="translate(914.5 672.5)" fill="none" stroke="#707070" stroke-width="0.25"/>
    <line id="Line_128" data-name="Line 128" x2="295" transform="translate(914.5 702.5)" fill="none" stroke="#707070" stroke-width="0.25"/>
    <g id="Group_2949" data-name="Group 2949">
      <text id="_20-29g" data-name="20-29g" transform="matrix(0.891, -0.454, 0.454, 0.891, 912.811, 736.341)" fill="#5c5c5c" font-size="12" font-family="OpenSans, Open Sans"><tspan x="0" y="0">20-29g</tspan></text>
      <text id="_30-39g" data-name="30-39g" transform="matrix(0.891, -0.454, 0.454, 0.891, 958.811, 736.341)" fill="#5c5c5c" font-size="12" font-family="OpenSans, Open Sans"><tspan x="0" y="0">30-39g</tspan></text>
      <text id="_40-49g" data-name="40-49g" transform="matrix(0.891, -0.454, 0.454, 0.891, 1003.811, 736.341)" fill="#5c5c5c" font-size="12" font-family="OpenSans, Open Sans"><tspan x="0" y="0">40-49g</tspan></text>
      <text id="_50-59g" data-name="50-59g" transform="matrix(0.891, -0.454, 0.454, 0.891, 1049.811, 736.341)" fill="#5c5c5c" font-size="12" font-family="OpenSans, Open Sans"><tspan x="0" y="0">50-59g</tspan></text>
      <text id="_60-69g" data-name="60-69g" transform="matrix(0.891, -0.454, 0.454, 0.891, 1094.811, 736.341)" fill="#5c5c5c" font-size="12" font-family="OpenSans, Open Sans"><tspan x="0" y="0">60-69g</tspan></text>
      <text id="_70-79g" data-name="70-79g" transform="matrix(0.891, -0.454, 0.454, 0.891, 1140.811, 736.341)" fill="#5c5c5c" font-size="12" font-family="OpenSans, Open Sans"><tspan x="0" y="0">70-79g</tspan></text>
      <text id="_80-89g" data-name="80-89g" transform="matrix(0.891, -0.454, 0.454, 0.891, 1185.811, 736.341)" fill="#5c5c5c" font-size="12" font-family="OpenSans, Open Sans"><tspan x="0" y="0">80-89g</tspan></text>
      <text id="_0.1" data-name="0.1" transform="translate(888 708)" fill="#5c5c5c" font-size="16" font-family="OpenSans, Open Sans"><tspan x="0" y="0">0.1</tspan></text>
      <text id="_0.5" data-name="0.5" transform="translate(888 584)" fill="#5c5c5c" font-size="16" font-family="OpenSans, Open Sans"><tspan x="0" y="0">0.5</tspan></text>
      <text id="_0.2" data-name="0.2" transform="translate(888 677)" fill="#5c5c5c" font-size="16" font-family="OpenSans, Open Sans"><tspan x="0" y="0">0.2</tspan></text>
      <text id="_0.6" data-name="0.6" transform="translate(888 553)" fill="#5c5c5c" font-size="16" font-family="OpenSans, Open Sans"><tspan x="0" y="0">0.6</tspan></text>
      <text id="_0.3" data-name="0.3" transform="translate(888 646)" fill="#5c5c5c" font-size="16" font-family="OpenSans, Open Sans"><tspan x="0" y="0">0.3</tspan></text>
      <text id="_0.7" data-name="0.7" transform="translate(888 522)" fill="#5c5c5c" font-size="16" font-family="OpenSans, Open Sans"><tspan x="0" y="0">0.7</tspan></text>
      <text id="_0.4" data-name="0.4" transform="translate(888 615)" fill="#5c5c5c" font-size="16" font-family="OpenSans, Open Sans"><tspan x="0" y="0">0.4</tspan></text>
      <text id="_0.8" data-name="0.8" transform="translate(888 491)" fill="#5c5c5c" font-size="16" font-family="OpenSans, Open Sans"><tspan x="0" y="0">0.8</tspan></text>
      <text id="_0.9" data-name="0.9" transform="translate(888 460)" fill="#5c5c5c" font-size="16" font-family="OpenSans, Open Sans"><tspan x="0" y="0">0.9</tspan></text>
      <text id="_1.0" data-name="1.0" transform="translate(888 429)" fill="#5c5c5c" font-size="16" font-family="OpenSans, Open Sans"><tspan x="0" y="0">1.0</tspan></text>
      <line id="Line_11" data-name="Line 11" y2="19" transform="translate(1028.834 683.5)" fill="none" stroke="#707070" stroke-width="1"/>
      <line id="Line_116" data-name="Line 116" y2="19" transform="translate(1120.834 683.5)" fill="none" stroke="#707070" stroke-width="1"/>
      <path id="Rectangle_3115" data-name="Rectangle 3115" d="M5,0H31a5,5,0,0,1,5,5V134a0,0,0,0,1,0,0H0a0,0,0,0,1,0,0V5A5,5,0,0,1,5,0Z" transform="translate(1011 552)" fill="url(#linear-gradient)"/>
      <path id="Rectangle_3116" data-name="Rectangle 3116" d="M5,0H31a5,5,0,0,1,5,5V261a0,0,0,0,1,0,0H0a0,0,0,0,1,0,0V5A5,5,0,0,1,5,0Z" transform="translate(1103 423)" fill="url(#linear-gradient)"/>
    </g>
  </g>
</svg>
