<svg xmlns="http://www.w3.org/2000/svg" xmlns:xlink="http://www.w3.org/1999/xlink" width="1014.5" height="332.905" viewBox="0 0 1014.5 332.905">
  <defs>
    <linearGradient id="linear-gradient" x1="0.5" x2="0.5" y2="1" gradientUnits="objectBoundingBox">
      <stop offset="0" stop-color="#0f81dc"/>
      <stop offset="1" stop-color="#08416e"/>
    </linearGradient>
  </defs>
  <g id="Group_3032" data-name="Group 3032" transform="translate(-172 -873)">
    <line id="Line_129" data-name="Line 129" x2="983" transform="translate(203.5 884.5)" fill="none" stroke="#707070" stroke-width="0.5"/>
    <line id="Line_130" data-name="Line 130" x2="983" transform="translate(203.5 915.5)" fill="none" stroke="#707070" stroke-width="0.5"/>
    <line id="Line_131" data-name="Line 131" x2="983" transform="translate(203.5 946.5)" fill="none" stroke="#707070" stroke-width="0.5"/>
    <line id="Line_132" data-name="Line 132" x2="983" transform="translate(203.5 977.5)" fill="none" stroke="#707070" stroke-width="0.5"/>
    <line id="Line_133" data-name="Line 133" x2="983" transform="translate(203.5 1008.5)" fill="none" stroke="#707070" stroke-width="0.5"/>
    <line id="Line_134" data-name="Line 134" x2="983" transform="translate(203.5 1039.5)" fill="none" stroke="#707070" stroke-width="0.5"/>
    <line id="Line_135" data-name="Line 135" x2="983" transform="translate(203.5 1070.5)" fill="none" stroke="#707070" stroke-width="0.5"/>
    <line id="Line_136" data-name="Line 136" x2="983" transform="translate(203.5 1101.5)" fill="none" stroke="#707070" stroke-width="0.5"/>
    <line id="Line_137" data-name="Line 137" x2="983" transform="translate(203.5 1132.5)" fill="none" stroke="#707070" stroke-width="0.5"/>
    <line id="Line_138" data-name="Line 138" x2="983" transform="translate(203.5 1163.5)" fill="none" stroke="#707070" stroke-width="0.5"/>
    <text id="_20-29g" data-name="20-29g" transform="matrix(0.891, -0.454, 0.454, 0.891, 232.902, 1202.341)" fill="#5c5c5c" font-size="12" font-family="OpenSans, Open Sans"><tspan x="0" y="0">20-29g</tspan></text>
    <text id="_30-39g" data-name="30-39g" transform="matrix(0.891, -0.454, 0.454, 0.891, 317.902, 1202.341)" fill="#5c5c5c" font-size="12" font-family="OpenSans, Open Sans"><tspan x="0" y="0">30-39g</tspan></text>
    <text id="_40-49g" data-name="40-49g" transform="matrix(0.891, -0.454, 0.454, 0.891, 402.902, 1202.341)" fill="#5c5c5c" font-size="12" font-family="OpenSans, Open Sans"><tspan x="0" y="0">40-49g</tspan></text>
    <text id="_50-59g" data-name="50-59g" transform="matrix(0.891, -0.454, 0.454, 0.891, 487.902, 1202.341)" fill="#5c5c5c" font-size="12" font-family="OpenSans, Open Sans"><tspan x="0" y="0">50-59g</tspan></text>
    <text id="_60-69g" data-name="60-69g" transform="matrix(0.891, -0.454, 0.454, 0.891, 572.902, 1202.341)" fill="#5c5c5c" font-size="12" font-family="OpenSans, Open Sans"><tspan x="0" y="0">60-69g</tspan></text>
    <text id="_70-79g" data-name="70-79g" transform="matrix(0.891, -0.454, 0.454, 0.891, 657.902, 1202.341)" fill="#5c5c5c" font-size="12" font-family="OpenSans, Open Sans"><tspan x="0" y="0">70-79g</tspan></text>
    <text id="_80-89g" data-name="80-89g" transform="matrix(0.891, -0.454, 0.454, 0.891, 742.902, 1202.341)" fill="#5c5c5c" font-size="12" font-family="OpenSans, Open Sans"><tspan x="0" y="0">80-89g</tspan></text>
    <text id="_90-99g" data-name="90-99g" transform="matrix(0.891, -0.454, 0.454, 0.891, 827.902, 1202.341)" fill="#5c5c5c" font-size="12" font-family="OpenSans, Open Sans"><tspan x="0" y="0">90-99g</tspan></text>
    <text id="_100-109g" data-name="100-109g" transform="matrix(0.891, -0.454, 0.454, 0.891, 912.902, 1202.341)" fill="#5c5c5c" font-size="12" font-family="OpenSans, Open Sans"><tspan x="0" y="0">100-109g</tspan></text>
    <text id="_110-119g" data-name="110-119g" transform="matrix(0.891, -0.454, 0.454, 0.891, 1009.902, 1202.341)" fill="#5c5c5c" font-size="12" font-family="OpenSans, Open Sans"><tspan x="0" y="0">110-119g</tspan></text>
    <text id="_100-119g" data-name="&gt;100-119g" transform="matrix(0.891, -0.454, 0.454, 0.891, 1106.902, 1202.341)" fill="#5c5c5c" font-size="12" font-family="OpenSans, Open Sans"><tspan x="0" y="0">&gt;100-119g</tspan></text>
    <text id="_0.2" data-name="0.2" transform="translate(172 1169)" fill="#5c5c5c" font-size="16" font-family="OpenSans, Open Sans"><tspan x="0" y="0">0.2</tspan></text>
    <text id="_1.0" data-name="1.0" transform="translate(172 1045)" fill="#5c5c5c" font-size="16" font-family="OpenSans, Open Sans"><tspan x="0" y="0">1.0</tspan></text>
    <text id="_0.4" data-name="0.4" transform="translate(172 1138)" fill="#5c5c5c" font-size="16" font-family="OpenSans, Open Sans"><tspan x="0" y="0">0.4</tspan></text>
    <text id="_1.2" data-name="1.2" transform="translate(172 1014)" fill="#5c5c5c" font-size="16" font-family="OpenSans, Open Sans"><tspan x="0" y="0">1.2</tspan></text>
    <text id="_0.6" data-name="0.6" transform="translate(172 1107)" fill="#5c5c5c" font-size="16" font-family="OpenSans, Open Sans"><tspan x="0" y="0">0.6</tspan></text>
    <text id="_1.4" data-name="1.4" transform="translate(172 983)" fill="#5c5c5c" font-size="16" font-family="OpenSans, Open Sans"><tspan x="0" y="0">1.4</tspan></text>
    <text id="_0.8" data-name="0.8" transform="translate(172 1076)" fill="#5c5c5c" font-size="16" font-family="OpenSans, Open Sans"><tspan x="0" y="0">0.8</tspan></text>
    <text id="_1.6" data-name="1.6" transform="translate(172 952)" fill="#5c5c5c" font-size="16" font-family="OpenSans, Open Sans"><tspan x="0" y="0">1.6</tspan></text>
    <text id="_1.8" data-name="1.8" transform="translate(172 921)" fill="#5c5c5c" font-size="16" font-family="OpenSans, Open Sans"><tspan x="0" y="0">1.8</tspan></text>
    <text id="_2.0" data-name="2.0" transform="translate(172 890)" fill="#5c5c5c" font-size="16" font-family="OpenSans, Open Sans"><tspan x="0" y="0">2.0</tspan></text>
    <g id="Group_2952" data-name="Group 2952" transform="translate(-12.707 37)">
      <line id="Line_11" data-name="Line 11" y2="19" transform="translate(434.402 1107.5)" fill="none" stroke="#707070" stroke-width="1"/>
      <path id="Rectangle_3115" data-name="Rectangle 3115" d="M8,0H54a8,8,0,0,1,8,8V263a0,0,0,0,1,0,0H0a0,0,0,0,1,0,0V8A8,8,0,0,1,8,0Z" transform="translate(402.696 847)" fill="url(#linear-gradient)"/>
    </g>
    <g id="Group_2950" data-name="Group 2950" transform="translate(-94 72)">
      <line id="Line_116" data-name="Line 116" y2="29" transform="translate(849.049 1062.5)" fill="none" stroke="#707070" stroke-width="1"/>
      <path id="Rectangle_3116" data-name="Rectangle 3116" d="M8,0H54a8,8,0,0,1,8,8V205a0,0,0,0,1,0,0H0a0,0,0,0,1,0,0V8A8,8,0,0,1,8,0Z" transform="translate(817.689 870)" fill="url(#linear-gradient)"/>
    </g>
    <g id="Group_2951" data-name="Group 2951" transform="translate(182 109.348)">
      <line id="Line_116-2" data-name="Line 116" y2="29" transform="translate(849.049 1025.152)" fill="none" stroke="#707070" stroke-width="1"/>
      <path id="Rectangle_3116-2" data-name="Rectangle 3116" d="M8,0H54a8,8,0,0,1,8,8V167.652a0,0,0,0,1,0,0H0a0,0,0,0,1,0,0V8A8,8,0,0,1,8,0Z" transform="translate(817.689 870)" fill="url(#linear-gradient)"/>
    </g>
  </g>
</svg>
