<?xml version="1.0"?>
<svg xmlns="http://www.w3.org/2000/svg" height="512px" viewBox="-49 0 492 492" width="512px"><g><path d="m201.464844 52.023438c3.316406 0 6-2.6875 6-6v-40.023438c0-3.3125-2.683594-6-6-6-3.3125 0-6 2.6875-6 6v40.023438c0 3.3125 2.6875 6 6 6zm0 0" data-original="#000000" class="active-path" data-old_color="#000000" fill="#0F81DC"/><path d="m347.402344 202.714844h40.027344c3.3125 0 6-2.6875 6-6 0-3.316406-2.6875-6-6-6h-40.027344c-3.3125 0-6 2.683594-6 6 0 3.3125 2.6875 6 6 6zm0 0" data-original="#000000" class="active-path" data-old_color="#000000" fill="#0F81DC"/><path d="m46.023438 190.714844h-40.023438c-3.3125 0-6 2.683594-6 6 0 3.3125 2.6875 6 6 6h40.023438c3.3125 0 6-2.6875 6-6 0-3.316406-2.6875-6-6-6zm0 0" data-original="#000000" class="active-path" data-old_color="#000000" fill="#0F81DC"/><path d="m341.671875 51.753906c-2.34375-2.34375-6.140625-2.34375-8.484375 0l-31.230469 31.230469c-2.34375 2.34375-2.34375 6.144531 0 8.488281s6.140625 2.34375 8.484375 0l31.230469-31.234375c2.34375-2.339843 2.34375-6.140625 0-8.484375zm0 0" data-original="#000000" class="active-path" data-old_color="#000000" fill="#0F81DC"/><path d="m87.230469 93.230469c2.425781 0 4.613281-1.464844 5.542969-3.707031.929687-2.242188.414062-4.820313-1.300782-6.539063l-31.234375-31.230469c-2.347656-2.308594-6.121093-2.292968-8.449219.035156-2.328124 2.328126-2.34375 6.101563-.035156 8.449219l31.230469 31.234375c1.125 1.125 2.652344 1.757813 4.246094 1.757813zm0 0" data-original="#000000" class="active-path" data-old_color="#000000" fill="#0F81DC"/><path d="m196.714844 492c3.3125 0 6-2.6875 6-6v-12.074219h34.128906c14.820312-.019531 26.832031-12.027343 26.847656-26.851562v-67.746094c.183594-25.34375 10.851563-49.480469 29.46875-66.675781 42.300782-39.496094 56.304688-100.765625 35.363282-154.714844-20.945313-53.953125-72.617188-89.726562-130.492188-90.335938-.441406-.007812-.886719-.007812-1.328125-.007812-58.335937 0-110.691406 35.800781-131.859375 90.164062-21.167969 54.359376-6.804688 116.136719 36.171875 155.585938 18.378906 17.054688 28.789063 41.015625 28.71875 66.085938v67.644531c.015625 14.824219 12.027344 26.832031 26.847656 26.851562h34.132813v12.074219c0 3.3125 2.683594 6 6 6zm-87.582032-187.492188c-39.328124-36.105468-52.46875-92.644531-33.097656-142.390624 19.371094-49.75 67.285156-82.511719 120.671875-82.515626.398438 0 .8125 0 1.214844.003907 52.996094.496093 100.34375 33.230469 119.523437 82.636719 19.179688 49.40625 6.316407 105.511718-32.464843 141.632812-19.53125 18.09375-31.378907 42.988281-33.105469 69.558594h-110.320312c-1.46875-26.308594-13.089844-51.019532-32.421876-68.925782zm32.601563 142.566407v-2.960938h72.164063c3.3125 0 6-2.6875 6-6 0-3.316406-2.6875-6-6-6h-72.164063v-17.8125h17.960937c3.316407 0 6-2.6875 6-6 0-3.316406-2.683593-6-6-6h-17.960937v-16.871093h109.957031v16.871093h-70.417968c-3.3125 0-6 2.683594-6 6 0 3.3125 2.6875 6 6 6h70.417968v17.8125h-16.214844c-3.3125 0-6 2.683594-6 6 0 3.3125 2.6875 6 6 6h16.214844v2.960938c-.007812 8.199219-6.648437 14.839843-14.847656 14.851562h-80.261719c-8.195312-.011719-14.835937-6.652343-14.847656-14.851562zm0 0" data-original="#000000" class="active-path" data-old_color="#000000" fill="#0F81DC"/><path d="m223.613281 209.554688c2.75-1.976563 6.414063-2.132813 9.320313-.398438 2.910156 1.738281 4.511718 5.03125 4.082031 8.394531-.433594 3.285157 1.878906 6.296875 5.167969 6.730469 3.285156.429688 6.296875-1.882812 6.730468-5.167969 1.121094-8.539062-3.226562-16.867187-10.875-20.828125-.773437-2.652344-.207031-5.515625 1.519532-7.675781 2.070312-2.582031 1.65625-6.359375-.925782-8.433594-2.585937-2.074219-6.363281-1.660156-8.4375.925781-2.976562 3.699219-4.558593 8.324219-4.480468 13.070313-3.292969.445313-6.421875 1.699219-9.117188 3.648437-1.761718 1.242188-2.722656 3.335938-2.511718 5.484376.210937 2.148437 1.558593 4.015624 3.527343 4.898437 1.972657.878906 4.261719.628906 6-.648437zm0 0" data-original="#000000" class="active-path" data-old_color="#000000" fill="#0F81DC"/><path d="m226.328125 154.890625c.933594.335937 1.894531.589844 2.871094.761719.054687.648437.144531 1.289062.269531 1.925781.347656 1.726563.957031 3.386719 1.804688 4.929687 1.597656 2.902344 5.246093 3.960938 8.148437 2.363282 2.902344-1.601563 3.960937-5.25 2.363281-8.152344-.816406-1.476562-.875-3.25-.167968-4.777344.707031-1.53125 2.101562-2.628906 3.753906-2.964844.777344-.160156 1.582031-.140624 2.351562.058594 2.078125.542969 4.289063-.070312 5.792969-1.605468 1.503906-1.53125 2.074219-3.753907 1.496094-5.820313-.582031-2.070313-2.222657-3.671875-4.304688-4.199219-6.8125-1.746094-14.003906.816406-18.171875 6.480469-1.535156.113281-3.042968-.457031-4.113281-1.558594-2.320313-2.367187-6.117187-2.410156-8.488281-.09375-2.367188 2.316407-2.410156 6.117188-.09375 8.484375 1.820312 1.863282 4.035156 3.289063 6.488281 4.167969zm0 0" data-original="#000000" class="active-path" data-old_color="#000000" fill="#0F81DC"/><path d="m244.796875 242.101562c-1.71875-.277343-3.355469-.9375-4.78125-1.9375-2.71875-1.902343-6.460937-1.238281-8.359375 1.476563-1.902344 2.714844-1.242188 6.457031 1.476562 8.359375 3.964844 2.769531 8.6875 4.253906 13.523438 4.253906.984375-.003906 1.964844-.066406 2.9375-.191406.664062 4.15625 2.425781 8.058594 5.101562 11.304688 2.109376 2.558593 5.890626 2.921874 8.445313.8125 2.558594-2.109376 2.921875-5.890626.8125-8.445313-2.378906-2.890625-3.21875-6.75-2.253906-10.371094.027343-.089843.054687-.179687.078125-.269531.546875-1.867188 1.554687-3.566406 2.929687-4.941406 2.34375-2.339844 2.347657-6.140625.007813-8.484375-2.34375-2.34375-6.140625-2.347657-8.488282-.003907-2.199218 2.203126-3.945312 4.820313-5.128906 7.699219-1.992187.828125-4.171875 1.082031-6.300781.738281zm0 0" data-original="#000000" class="active-path" data-old_color="#000000" fill="#0F81DC"/><path d="m227.464844 299.875c6.296875-.007812 12.414062-2.097656 17.398437-5.945312 8.832031 4.363281 19.292969 3.851562 27.65625-1.347657 8.367188-5.203125 13.449219-14.355469 13.445313-24.207031v-6.699219c11.03125-4.746093 18.96875-14.6875 21.148437-26.5 2.183594-11.808593-1.671875-23.929687-10.277343-32.304687 5.328124-5.929688 7.8125-13.882813 6.804687-21.792969-1.003906-7.90625-5.402344-14.988281-12.046875-19.390625-.640625-.421875-1.292969-.8125-1.960938-1.179688 2.53125-11.679687-.898437-23.851562-9.148437-32.492187-8.253906-8.644531-20.253906-12.628906-32.035156-10.640625 0-.167969.015625-.335938.015625-.5 0-13.671875-11.082032-24.75-24.75-24.75-13.667969 0-24.75 11.078125-24.75 24.75v154.5c.015625 15.730469 12.765625 28.480469 28.5 28.5zm-16.5-183c-.023438-5.273438 3.203125-10.011719 8.113281-11.929688 4.910156-1.917968 10.496094-.613281 14.050781 3.277344 3.554688 3.894532 4.347656 9.570313 1.996094 14.289063-.691406.441406-1.367188.898437-2.03125 1.390625-2.667969 1.96875-3.230469 5.726562-1.261719 8.390625 1.96875 2.664062 5.722657 3.230469 8.390625 1.261719 9.148438-6.738282 21.765625-6.140626 30.234375 1.433593 8.472657 7.570313 10.472657 20.042969 4.796875 29.886719-.128906.226562-.242187.464844-.34375.707031-.878906-2.488281-3.285156-4.109375-5.921875-3.992187-2.636719.121094-4.886719 1.945312-5.542969 4.503906-1.054687 4.144531-.535156 8.53125 1.457032 12.316406-.265625.679688-.671875 1.292969-1.1875 1.804688-2.339844 2.324218-2.371094 6.097656-.066406 8.453125 2.304687 2.359375 6.078124 2.414062 8.453124.128906.746094-.726563 1.421876-1.519531 2.023438-2.367187.363281.070312.734375.109374 1.105469.109374 2.796875.003907 5.222656-1.925781 5.851562-4.648437.628907-2.722656-.707031-5.523437-3.21875-6.746094-1.875-.925781-3.027343-2.863281-2.945312-4.949219.804687 1.929688 2.554687 3.300782 4.621093 3.617188 2.0625.316406 4.144532-.46875 5.488282-2.070312 3.9375 2.640624 6.441406 6.945312 6.789062 11.671874.347656 4.726563-1.496094 9.351563-5.003906 12.542969-4.730469-2.199219-9.882812-3.335937-15.101562-3.332031-3.3125 0-6 2.6875-6 6s2.6875 6 6 6c13.257812 0 24 10.746094 24 24s-10.742188 24-24 24c-3.3125 0-6 2.6875-6 6s2.6875 6 6 6c.757812 0 1.5-.03125 2.25-.078125v3.828125c0 9.113281-7.386719 16.5-16.5 16.5-9.113282 0-16.5-7.386719-16.5-16.5 0-3.3125-2.683594-6-6-6-3.3125 0-6 2.6875-6 6-.003907 6.390625 2.152343 12.597656 6.117187 17.609375-5.109375 2.683594-11.25 2.5-16.1875-.492187-4.933594-2.988282-7.945313-8.347657-7.929687-14.117188zm0 0" data-original="#000000" class="active-path" data-old_color="#000000" fill="#0F81DC"/><path d="m148.5625 293.929688c8.597656 6.644531 20.226562 7.816406 29.976562 3.023437s15.929688-14.714844 15.921876-25.578125v-154.5c0-13.667969-11.078126-24.75-24.75-24.75-13.667969 0-24.75 11.082031-24.75 24.75 0 .167969.015624.335938.015624.5-1.988281-.332031-4-.5-6.015624-.5-10.890626-.015625-21.203126 4.90625-28.039063 13.386719-6.835937 8.484375-9.457031 19.605469-7.128906 30.246093-.664063.371094-1.320313.757813-1.957031 1.183594-6.648438 4.402344-11.046876 11.480469-12.054688 19.390625-1.003906 7.90625 1.480469 15.863281 6.8125 21.789063-8.609375 8.378906-12.464844 20.5-10.28125 32.308594 2.179688 11.8125 10.117188 21.75 21.148438 26.5v6.699218c-.003907 9.851563 5.078124 19.003906 13.445312 24.207032 8.363281 5.199218 18.824219 5.710937 27.65625 1.347656zm-29.101562-25.554688v-3.828125c.746093.046875 1.496093.078125 2.25.078125 3.316406 0 6-2.6875 6-6s-2.683594-6-6-6c-13.253907 0-24-10.746094-24-24s10.746093-24 24-24c3.316406 0 6-2.6875 6-6s-2.683594-6-6-6c-5.214844-.003906-10.367188 1.132812-15.097657 3.332031-3.507812-3.191406-5.355469-7.816406-5.007812-12.542969.351562-4.726562 2.855469-9.03125 6.792969-11.671874 1.339843 1.601562 3.421874 2.386718 5.488281 2.070312 2.066406-.316406 3.816406-1.6875 4.617187-3.617188.082032 2.085938-1.070312 4.023438-2.941406 4.949219-2.515625 1.222657-3.851562 4.023438-3.222656 6.746094.632812 2.722656 3.058594 4.652344 5.855468 4.648437.367188-.003906.734376-.039062 1.097657-.109374.601562.847656 1.28125 1.640624 2.023437 2.367187 2.371094 2.320313 6.171875 2.277344 8.488282-.09375 2.320312-2.367187 2.277343-6.167969-.089844-8.488281-.519532-.511719-.921875-1.125-1.191406-1.804688 1.992187-3.785156 2.515624-8.171875 1.460937-12.316406-.65625-2.558594-2.90625-4.382812-5.542969-4.503906-2.640625-.117188-5.042968 1.503906-5.925781 3.992187-.097656-.242187-.214844-.480469-.34375-.707031-5.6875-9.84375-3.691406-22.328125 4.78125-29.90625 8.476563-7.574219 21.105469-8.167969 30.253906-1.414062 2.664063 1.96875 6.421875 1.402343 8.390625-1.261719 1.96875-2.664063 1.402344-6.421875-1.261718-8.390625-.664063-.492188-1.34375-.949219-2.03125-1.390625-2.332032-4.710938-1.527344-10.371094 2.023437-14.25 3.550781-3.878907 9.117187-5.175781 14.015625-3.269531s8.125 6.625 8.121094 11.882812v154.5c.015625 5.769531-2.996094 11.128906-7.929688 14.117188-4.9375 2.992187-11.078125 3.175781-16.1875.492187 3.964844-5.011719 6.121094-11.21875 6.117188-17.609375 0-3.3125-2.6875-6-6-6-3.316406 0-6 2.6875-6 6 0 9.113281-7.386719 16.5-16.5 16.5-9.113282 0-16.5-7.386719-16.5-16.5zm0 0" data-original="#000000" class="active-path" data-old_color="#000000" fill="#0F81DC"/><path d="m167.707031 196.171875c.027344-1.628906-.140625-3.253906-.5-4.839844-.683593-3.011719-2.042969-5.824219-3.976562-8.230469-2.074219-2.585937-5.851563-3-8.4375-.925781-2.582031 2.074219-3 5.851563-.925781 8.433594 1.726562 2.160156 2.292968 5.023437 1.519531 7.675781-7.648438 3.960938-11.992188 12.289063-10.871094 20.828125.429687 3.285157 3.445313 5.597657 6.730469 5.167969 3.285156-.433594 5.601562-3.445312 5.167968-6.730469-.167968-1.269531-.042968-2.554687.363282-3.769531.851562-2.566406 2.875-4.578125 5.449218-5.410156 2.574219-.835938 5.394532-.394532 7.589844 1.183594 1.738282 1.277343 4.03125 1.527343 6 .648437 1.972656-.882813 3.320313-2.75 3.527344-4.898437.210938-2.148438-.75-4.242188-2.511719-5.484376-2.691406-1.949218-5.824219-3.203124-9.117187-3.648437zm0 0" data-original="#000000" class="active-path" data-old_color="#000000" fill="#0F81DC"/><path d="m145.707031 149.035156c1.761719-.449218 3.628907.039063 4.949219 1.292969 1.316406 1.253906 1.898438 3.09375 1.539062 4.875-.105468.53125-.289062 1.042969-.550781 1.515625-1.597656 2.902344-.542969 6.550781 2.359375 8.152344 2.902344 1.597656 6.550782.539062 8.152344-2.363282.847656-1.542968 1.457031-3.203124 1.804688-4.929687.125-.636719.214843-1.277344.269531-1.925781.976562-.171875 1.9375-.425782 2.871093-.761719 2.449219-.878906 4.667969-2.304687 6.484376-4.167969 2.316406-2.367187 2.277343-6.167968-.09375-8.484375-2.367188-2.316406-6.167969-2.273437-8.484376.09375-1.074218 1.101563-2.582031 1.671875-4.113281 1.558594-4.171875-5.664063-11.359375-8.226563-18.171875-6.480469-2.082031.527344-3.726562 2.128906-4.304687 4.199219-.582031 2.066406-.011719 4.289063 1.496093 5.820313 1.503907 1.535156 3.710938 2.148437 5.792969 1.605468zm0 0" data-original="#000000" class="active-path" data-old_color="#000000" fill="#0F81DC"/><path d="m138.738281 265.367188c2.675781-3.25 4.433594-7.152344 5.097657-11.308594 2.234374.292968 4.496093.253906 6.71875-.109375 3.503906-.5625 6.839843-1.910157 9.746093-3.953125 2.714844-1.898438 3.375-5.640625 1.472657-8.355469-1.898438-2.714844-5.640626-3.375-8.355469-1.472656-3.246094 2.265625-7.425781 2.714843-11.078125 1.191406-1.183594-2.878906-2.929688-5.496094-5.132813-7.699219-2.34375-2.339844-6.144531-2.339844-8.484375.007813-2.34375 2.34375-2.339844 6.140625.003906 8.484375 1.378907 1.375 2.386719 3.074218 2.933594 4.941406.023438.089844.046875.179688.074219.269531.964844 3.617188.125 7.476563-2.25 10.367188-2.109375 2.558593-1.746094 6.339843.808594 8.449219 2.558593 2.105468 6.339843 1.742187 8.449219-.8125zm0 0" data-original="#000000" class="active-path" data-old_color="#000000" fill="#0F81DC"/></g> </svg>
