<svg xmlns="http://www.w3.org/2000/svg" width="285.505" height="182.67" viewBox="0 0 285.505 182.67">
    <defs>
        <style>
            .cls-1,.cls-2,.cls-3,.cls-4,.cls-6,.cls-7{fill:none}.cls-2{stroke:#e6e6e6}.cls-3{stroke:#f2f2f2}.cls-4{stroke:#ccd6eb}.cls-10,.cls-5,.cls-8,.cls-9{fill:#666}.cls-5{font-size:11px;font-family:SegoeUI,Segoe UI}.cls-6,.cls-7{stroke:#7cb5ec;stroke-linecap:round;stroke-linejoin:round}.cls-7{stroke:#b1b1b1}.cls-8{font-size:1px}.cls-10,.cls-8,.cls-9{font-family:HelveticaNeue-Thin,Helvetica Neue;font-weight:200}.cls-9{font-size:10px}.cls-10{font-size:4px}
        </style>
    </defs>
    <g id="usd-to-eur-exchange-rate" transform="translate(13.186)">
        <path id="Rectangle_3044" d="M0 0h274.005v182.67H0z" class="cls-1" data-name="Rectangle 3044" transform="translate(-1.686)"/>
        <path id="Rectangle_3045" d="M0 0h240.211v137.916H0z" class="cls-1" data-name="Rectangle 3045" transform="translate(27.542 27.4)"/>
        <g id="Group_2856" data-name="Group 2856" transform="translate(51.06 27.4)">
            <path id="Path_16235" d="M115.5 60v137.916" class="cls-2" data-name="Path 16235" transform="translate(-115.5 -60)"/>
            <path id="Path_16236" d="M209.5 60v137.916" class="cls-2" data-name="Path 16236" transform="translate(-166.573 -60)"/>
            <path id="Path_16237" d="M303.5 60v137.916" class="cls-2" data-name="Path 16237" transform="translate(-217.645 -60)"/>
            <path id="Path_16238" d="M397.5 60v137.916" class="cls-2" data-name="Path 16238" transform="translate(-268.718 -60)"/>
            <path id="Path_16239" d="M490.5 60v137.916" class="cls-2" data-name="Path 16239" transform="translate(-319.247 -60)"/>
            <path id="Path_16240" d="M584.5 60v137.916" class="cls-2" data-name="Path 16240" transform="translate(-370.32 -60)"/>
        </g>
        <g id="Group_2857" data-name="Group 2857" transform="translate(27.542 27.172)">
            <path id="Path_16241" d="M64 362.5h240.211" class="cls-3" data-name="Path 16241" transform="translate(-64 -224.128)"/>
            <path id="Path_16242" d="M64 347.5h240.211" class="cls-3" data-name="Path 16242" transform="translate(-64 -215.978)"/>
            <path id="Path_16243" d="M64 332.5h240.211" class="cls-3" data-name="Path 16243" transform="translate(-64 -207.828)"/>
            <path id="Path_16244" d="M64 317.5h240.211" class="cls-3" data-name="Path 16244" transform="translate(-64 -199.678)"/>
            <path id="Path_16245" d="M64 302.5h240.211" class="cls-3" data-name="Path 16245" transform="translate(-64 -191.528)"/>
            <path id="Path_16246" d="M64 286.5h240.211" class="cls-3" data-name="Path 16246" transform="translate(-64 -182.835)"/>
            <path id="Path_16247" d="M64 271.5h240.211" class="cls-3" data-name="Path 16247" transform="translate(-64 -174.685)"/>
            <path id="Path_16248" d="M64 256.5h240.211" class="cls-3" data-name="Path 16248" transform="translate(-64 -166.535)"/>
            <path id="Path_16249" d="M64 241.5h240.211" class="cls-3" data-name="Path 16249" transform="translate(-64 -158.385)"/>
            <path id="Path_16250" d="M64 226.5h240.211" class="cls-3" data-name="Path 16250" transform="translate(-64 -150.235)"/>
            <path id="Path_16251" d="M64 211.5h240.211" class="cls-3" data-name="Path 16251" transform="translate(-64 -142.085)"/>
            <path id="Path_16252" d="M64 196.5h240.211" class="cls-3" data-name="Path 16252" transform="translate(-64 -133.936)"/>
            <path id="Path_16253" d="M64 181.5h240.211" class="cls-3" data-name="Path 16253" transform="translate(-64 -125.786)"/>
            <path id="Path_16254" d="M64 166.5h240.211" class="cls-3" data-name="Path 16254" transform="translate(-64 -117.636)"/>
            <path id="Path_16255" d="M64 151.5h240.211" class="cls-3" data-name="Path 16255" transform="translate(-64 -109.486)"/>
            <path id="Path_16256" d="M64 135.5h240.211" class="cls-3" data-name="Path 16256" transform="translate(-64 -100.793)"/>
            <path id="Path_16257" d="M64 120.5h240.211" class="cls-3" data-name="Path 16257" transform="translate(-64 -92.643)"/>
            <path id="Path_16258" d="M64 105.5h240.211" class="cls-3" data-name="Path 16258" transform="translate(-64 -84.493)"/>
            <path id="Path_16259" d="M64 90.5h240.211" class="cls-3" data-name="Path 16259" transform="translate(-64 -76.343)"/>
            <path id="Path_16260" d="M64 75.5h240.211" class="cls-3" data-name="Path 16260" transform="translate(-64 -68.193)"/>
            <path id="Path_16261" d="M64 362.5h240.211" class="cls-2" data-name="Path 16261" transform="translate(-64 -224.128)"/>
            <path id="Path_16262" d="M64 287.5h240.211" class="cls-2" data-name="Path 16262" transform="translate(-64 -183.378)"/>
            <path id="Path_16263" d="M64 211.5h240.211" class="cls-2" data-name="Path 16263" transform="translate(-64 -142.085)"/>
            <path id="Path_16264" d="M64 135.5h240.211" class="cls-2" data-name="Path 16264" transform="translate(-64 -100.793)"/>
            <path id="Path_16265" d="M64 59.5h240.211" class="cls-2" data-name="Path 16265" transform="translate(-64 -59.5)"/>
        </g>
        <path id="Rectangle_3046" d="M0 0h240.211v137.916H0z" class="cls-1" data-name="Rectangle 3046" transform="translate(27.542 27.4)"/>
        <g id="Group_2858" data-name="Group 2858" transform="translate(27.542 165.316)">
            <path id="Path_16266" d="M115.5 362v4.567" class="cls-4" data-name="Path 16266" transform="translate(-91.981 -362)"/>
            <path id="Path_16267" d="M209.5 362v4.567" class="cls-4" data-name="Path 16267" transform="translate(-143.054 -362)"/>
            <path id="Path_16268" d="M303.5 362v4.567" class="cls-4" data-name="Path 16268" transform="translate(-194.127 -362)"/>
            <path id="Path_16269" d="M397.5 362v4.567" class="cls-4" data-name="Path 16269" transform="translate(-245.199 -362)"/>
            <path id="Path_16270" d="M490.5 362v4.567" class="cls-4" data-name="Path 16270" transform="translate(-295.728 -362)"/>
            <path id="Path_16271" d="M584.5 362v4.567" class="cls-4" data-name="Path 16271" transform="translate(-346.801 -362)"/>
            <path id="Path_16272" d="M64 362.5h240.211" class="cls-4" data-name="Path 16272" transform="translate(-64 -362.272)"/>
        </g>
        <g id="Group_2859" data-name="Group 2859" transform="translate(-8.186 27.4)">
            <text id="Pressure_psi_" class="cls-5" data-name="Pressure (psi)" transform="rotate(-90 42.019 35.019)">
                <tspan x="-32.162" y="0">Pressure (psi)</tspan>
            </text>
            <path id="Path_16273" d="M64 60v137.916" class="cls-1" data-name="Path 16273" transform="translate(-28.273 -60)"/>
        </g>
        <g id="Group_2861" data-name="Group 2861" transform="translate(27.542 43.4)">
            <g id="Group_2966" data-name="Group 2966">
                <path id="Path_16275" d="M5.157 99.279h.059l.059-.758.059-2.483.059-.448.174-1.59.059.242.059-.586.059-.1.056-1.863.176 1 .059.241L6.1 92l.059.276.059.759.176-.448.059 2.1.053-.687.059-.552.059-1.586.176.414.059 1.034.059-.379.059 1.38h.059l.176-1.966.059.621.059.655.059.069.059.345L7.62 93l.059 1.345.059 1.207.059 1.1.059-.38.176.276.059.276h.059l.059-.793.059.552.176.517.056 1.386.059-.345.059.276.059-1.241.176-1.62.059.344.059.724.059.345.057.031.176.035.059 1.241.059-.724.059.862.059 1.931.176-.414.059-.138.059-.069.059 1.138.059-.483.176-1.207.059 1.621h.054l.059.069.059-.655.176.931.059-.137.059-.138.059.413h.235l.059 1.034.059-.172.059.931.059 1.241.176.344.059-.034.059.552.059.448.059.069.176-.9.059.448.059 1.241.059-.965.059.862.176-.69h.058l.059-.31.059.448.059-.965.176 1 .059-1.069.059-.414.059-.172.059-.759.176 1.172.059-.207.059.69.059-1.1.059-.724.176-.621.059.173.059.69.059-.793.059-.138.176.242.059 1.069.059-1.724.059.655.059-.345.176.9.059.931.059-.345.059-.828.059-2.31.176.1.059-.173.059-1.138.059.31.059.207.176 1.759.059-.035.059.448.059-.551.059.827.176.38h.059l.059-.448.059.552.059.724.176 1.586.059.241.059.311.059.414.059-.827.176.448.059.862.059 1.586.059.621.059-.1h.176l.059-.207.059.173.059.724.059-.311.176.345.059.207.059-1.62.059-.414.059-1.275.176.138.059.862.059-.793h.059l.059.586.176 2.241.059-.448H18l.059-1.172.059-1.448.176.035.059-1.138.059-2.172.059-1.344.059.931.176.414.059.621.059-.276.059 1.517.059.759.176.793.059.1.059-.586.059-.414.059 1.759.176-1.344.059-.965.059.172.059 1.482.059.517.176 1.793.059.517.059 1.1.059.207.059-.655.176.311.059-.173.059 1.9.059.965.059.345.176 1.1.059-.1.059.345.059.931.059-.035.176.931.059-1.172.059.517.059-1.482.059.482.176-.827.059-.9.059 1.9.059.9.059-.448.176.931.059-1.31.059.862.059 1.69.059-.207.176-2.069.059 1.483.059-.38.059 1.31.059 1.276.176.1.059.276.059.655.059-.38.059.9.176.173.059.965.059 2.793.059-.862.059.242.176-1.655.059.448.059 1.483.059-.965.059.207.176.034.038 2.064.059.483.059.207.059-.311.176.586.059.448.059-2 .059-.138.059.345.176-1.483.059 1.172.059-.31.059-2.689.059 1.551.176 1.1.059-.759.059.069.059.1.059-2.793.176-1.931.059.379.059-.517.059-.586.059.517.176.31h.117l.059 1.931.059 2.862.176.448h.059l.059-.517.059 1.034.059-.414.176-.069.059-.275.059-.414.059-.276.059 2.069.176 1.586.059-.138.059-1.448.059-1.62.059-.276.176-3.1.059.207.059 1.276.059 1.448.059.69.176.793.059.276.059.586.059.931.059.311.176-.965.059-2.207.059-1.069.059-.862.059-.9.176.448.059-.069.059.793.059.655.059.759.176-.586.059 1.689.059-1.379.059 1.275.059 1.759.176-.483.059.9.059 2.62.059 1.172.059.69.176.517.059.069.059-.172.059 1.827.059 1.449.176-1.138.059.586.059 1.414.059 1.414.059-.207.176 2.93h.059l.059-1.1.059-3.827h.235l.059 2.1.059 2 .059 1.034.059.138.176.241.059-2.138.059-.379.059-1.517.059 2.758.176-.379h.059l.059.448.059 2.069.059-.586.176.483.059-.552.059 1.379.059-.758.059-1.276.176 1.621.059.448.059.1.059-2.345.059-2.413.176.448.059-.793.059-.448h.059l.059-1.172.176.035.059.965.059-1.413.059-1.207.059 1.621.176-.414.059.621.059-.483.059.517.059.345.176 1.1.059.9.059 1.586.059.034.059-.172.176.241h.059l.059-1.448.059-1.482.059-.621.176.173L35.6 138l.059-1.828.059-.931.059 2.827.176 2.586.059-3.62.059-.138.059-1.413.059-1.207.176 1.793.059.276.059.207.059-.173.059 1.862.176-1.276.059.69.059.414.059 1.862.059.242.176.207.059.172.059.414.059 1.1.059-2.965.176-.276.059.483.059.414.059-.1.059 1.758.176.173.059 1.93.059-1.379.059-.552.059-.448.176.586.059.827.059-2.448.059-.9.059.793.176.172.059-.552.059-1.655.059.311.059-.517.176-.1.059-1.138.059-.138.059-.1.059-5.861.176-.931.059-1.62.059-.069.059.069.059-2.793.176-.414.059-.414.059.9.059 1.275.059-.1.176-.655.059-2.69.059 2.69.059.069.059-.586.176-1.793.059-1.724.044-1.252.059.793.059-4.034.176-.552.059-1.207.059-.862.059-2.827.052 2.343.176 1.448.059 2 .059-.724.059 4.62.059-4.413.176 5.551.059 2.586.059-.655.059.138.059-.965.176-4.758.059-.793.059-3.793.059-3.137.059-1.241.176-3.655.059-.034.054 1.825.059-.9.059-1.9.176 1.1.059 2.069.059-2.31.059-2.241.059-1.931.176.379.059-4.689.059-6.93.059-.689.059-4.586.176-3 .059 1.482.059 5.241.059 5.482.059-5.758.176 1.379.059-.034.059 1.034.059-2.1.059-.276.176 2.827.059-3.034.059-4.689.059-.1.059 3.241.176-.311.059-.138.059-.414.059-2 .059 1.31.176 3.655.059.793.059 2.586.059-.724.059-3.62.176-2.551.059 1.9.059-1.586.059-.069.059.965.176 4 .059-.311.059 1.793.044 5.865.059 2.448.176 3.241.059 3.344.059 6.62.059 9.344.059-11.447.176.551.059.138.059.483h.117l.176 4.551.059-2.93.059-3.172h.059l.059-.931.176-5.207.059-4.758.059 5 .059.414.059 1.242.176-5.448.059-2.552.058-1.758.059-1.758.058 3.654.176-1.723.059-5.1.058-.414.059 1.517.058-3.931.176 4.069.059 3.689.058 1.724.059-2.965.058-6.068.176-1.172.058 1.862.058-.655.059.241.058-.69.176 4.379.058-.827.058-.586.059-2.172.058-.206.178-1.251.058-2.793.059-.827.058 2.345.058-2.448.176 4.413.058-.724.059.655.058-.276.059-2.93.176-1.034.058.414.059-1.31h.058l.059 2.241.176-2.034.058 4.689.059.069.058-.1.059 2.586.176 2.793.058-2.034.059 3.827.062 10.378.059-2.276.176.172.059-.965.058-.242.058 2.138.059-5.965.176-2 .059 2.275.058-1.207.058 2.827.059.621.176 1.344.06-4.622.058-.482.059.827h.234l.059.069.058-2.034.059.448.058-2.759.176-1.861.059-.724.058.31.059 2.1.058 3.655.176-2.138.059-2.689.058 5.482.059.173h.058l.176-1.034.058 3.517.058-1.552.059.793.058 1.172.176 2.827.058 2.034.064-1.134.058-1.1.058-.862.176-.448.058 2.241.059 1.414.058 1.482.058 3.621.176.655.058-1.793.059-.138.058-.793.059 4.275.176 2.1.058.311.059-.552.058-1.931.059 1.414.176-5.448.058 1.655.059 2.517.058-2.345.059.621.176-2.724.058.724.059-.9.058 1.414.059.207.176-1.31.059 2.138.058.9.058-1.586.059 2.758.176-.655.059 1.31.058-.655.059-.827.058-.69.176-2 .062 2.174.058-2.1.059 1.587.058-1.587.176 1.31.059.311.058 1.689.059.724.058-.69.176 2.172.059.1.058-.552.059.655.063-.033.176.724.058-.689.058-2.138.059-.9.058 1.482.176 2.793.058 1.379.058.414.059-.655.058-.207.176-2.62.058-.621.059.069.058 2.1h.058l.176-3.793.058.483.059.207.058 2.241.058 1.482.176-.138.058.035.059-.931.058-.034.059 1.621.176-1.552.058.724.059-1.586.058 1.931.059-1.241.176 1.172.068 2.388.059.793.058.379.059.793.176-.551.058.827.059.965.058.655.059-.1.176-.759.059 1.931.058.034.058-.207.059-1.586.176-.311.059-1.62.058 1.517.059-1.69.058-.034.176 1.276.059 1.689.058-.414.059 1.069.058-.207.176.241.059 1.551.058.276.059-.276.058.1.174.759.059.793.058-.759.059 1.207.058.31h.176l.058-2.241.058-1.414.059.069.058.173.176-.448.058-1.793.058 1.621.059 1.689.058-.1.176 1.9.058-.276.059 1.1.058-1.793.058-.828.176 1.518.058-1.414.059 1.276.058-1.449.059-.759.176 2.379.058.035.059 1.723.058-.172.068-2.347.176 1.62.058.759.059.242.058.448.059-.793.176-4.344.058-.207.059-.069.058-.621.059.448.176-1.759.06-1.724.058.311.058-3.586.059-.1.176.517.059-1.483.058-.069.058 2.069h.059l.176.1.059.448.058-1.552.059 1.1h.058l.176-.276.059.9.058-1.552.059-.759.058-.517.176 4.241.059-.793.058 1.345.059-1.241.058-1.862.176-.069.059-1.517.058-2.517.059-1.172.058 1.207.176.276.058-1.138.058-.207.059-1.275.058-.586.176-.965.058.448.059.827.058-2.448.058-2.827.176-.311.058 1.586.059-.379.058-.414.058-2.689.176.655.058.759.059 1.448.058-2.965.059-.9.176 2 .058-.9.059-.586.058-1.069.059 1.517.176-.862.058.448.059 1.724.058.517.059-1.62.176 1.482.058-1.931.059.965.058.9.059 1.966.176-1.1.059.345.058.586.058-1.759.059-2.069.176-1.448.059.9.058-3.448.059.345.058-.069.176 2.276.059.207.058-.069.059-.207h.234l.059-1.379.058-1.069.059-.862.058 1.689.176 3.827.059-.034.058.586.059-1.31.058-.173.176-1.965.058 1.034.058-2.172.059-.655.058-.552.176.207.058-.586.058-.9.059.206.058 1.172.176-1.517.058-2.965.059-3.379.058-4.1.058.379.176 4.655.058-5.655.059-.276.058-2.138.059-2.069.195-3.208.058 1.793.059-3.586.058 1.448.059 3.655.176-3.068.058-3.1.059 1.966.058-1.242.059 2.931.176-1.724.058-3.517.059 1.448.058 1.172.059-4.862.176-2.414.059-.413.058 1.655.058.827.059 1.931.176 2.827.059.207.058.448.058 1.931.059.207.176.448.059-3.034.058.311.059-.207.058.724.176 1.034.059-3.241.061 1.688.059 1.276.058 4.93.176-.379.06 1.03.058-.241.059 2 .058-.483.176-1.413.059-.069.058 2.9.059 2.655.058 3.551.176-.9.058-2.345.058-.551.059.689.058.965.176.724.058 2.069.059-.828.06 1.557.058-.828.176.931.066 2.93.059-.276.058-.448.058-.172.176 1.551.058-2.379.059-2.379.058-4.689.059.207.176.448.058.828.059.413.058-.931.059-2.62.176-.172.058-2 .059.069.058 1.723.059.414.176-.276.058-.414.059 2.517.058.379.059.344.176.828.059-2.724.058-1 .058.379.059.207.176 1.62.059 1.034.058 2.862.059 1.828.058-.38.176.276.059.931.058 4.792.059-.793.058 1.724.176 1.241.059-.31.058 2.827.059.69.058 1.448.176-.414.059 1.379.058 1.379.059 2.034.058-1.724.176 1.1.058-1.828.058 2.241.059 2.483.058-.207.179-3.373.058-.689.058.069.059 2.724.058-1.448.176 1.724.058-2.1.059-1.965.058.965h.063l.176 1.241.058 1.62.059-.069.058 4 .059-2.759.176-2.93.058.483.059-3.138.058-1.275.059.207.176-1.586.058-.242.059-2.482.058 3.1.059.517.176-.517.058-2.828.059-3 .058-.345.059-1.862.176-1.586.059-2.965.058 2.345.058.793.059 1.828.176.655.059 1.62.058-3.207.058.276.059.586.176.483.059 3.241.058-1.448.059-2.379.058.448.176-2.241.059.138.058-.862.059-.965.058.724.176.724.059 1.172.058-1.172.059 2.862.058 1.586.176-.276.059 1.413.058-4.034.059-2.448.058-2.62.18-1.206.058.931.058.517.059 4.551.058 2.931.176-.759.058 1.172.059 2.586.058-.655.058.931.176.931.058.483.059 1.586.058.621.058-.1.176-.344.058 1.172.059.862.058-1.034.059-2.1.176-1.449.058 1.518.059.207.058-.793.059-1.482.176-1.586.058 1.311h.059l.058.931.059 1.276.176.758.058-.034.066 1.161.058.759.059-.172.176 1.276.059-.138.058-.31.058.758.059 1.9.176 1.241.059-2.276.058.517.059-1.966.058-.827.176 3.172.059-1.172.058 1.207.059.931.058 2.207.176 1.1.059.276.058-1.276.059-.137.058-.242.176-1.448.059.621.058.414.059 2 .058-1.138.179 1.723.058-1.276.059 2.276.059-.276.058 1.965.176.552.058.586.058.379.059-1.518.058.827.176-2.93.058.448.059 3.551.058 1.1h.235l.058.552.059.793.058 2.034.059 1.034.176-.379.058-.9.059 1.586.058-1.034.059-5.033.176-1.724.058-.655h.059l.058-3.483.059 2.172.176-2.345.058.483.059.965.058.655.059-.482.176-3.758.058 1.207.059-.345.058 1.724.059 1.655.176.1.059 1.9.058.379.058.862.059.483.18 1.77.059.9.058-.724.059.1.058-2.069.176-2.207.059 1.586.058-2.62.059-3.483.058 3.1.176-.586.059 2.345.058.379.059-3.1.058.138.176-.276.059.965.058 2.759.059.448.058.586.176.172.058-.621.058-2.379.059-1.207.058-.069.176-3.206.058-1.449.058 1.724.059 2.241.058-.965.176-1.758.058 2 .059.793.058.276.058 2.827.176-.172.058 1.517.059-.413.058-3.138h.059l.176 2.62.058-4.137.065 2.203.058-1.207.059-1.276.176 1.207.058.724.059 1.69.058-3.827.059 1.828.176 1 .058.862.059 1.93.058-1.758.059.241.176.483.059.793.058-.483.058-.138.059-.345.176 1.379.059-1.379.058.793.058-2.758.059-.517.176-2.207.059-.483.058-1.1.059.173.058-4.034.176-2.965.059-.207.058 1.551.059 1.207.058-.621.176-2.207.059 1.275.058-1.379.059-3.517.058-.345.176 1.345.059 1.483.058.965.059-.311.058-2.1.176-3.379.058-2.862.058 3.069.059-1.311.058 3.172.176 3 .058.276.059 2.93.058-.724.058 1.448.176-.552.058-1.828.059 2.758.058-.379.058-.138.176 1.034.058 1.1.059.173.058 1.931.059 2.137.176-2.758.058-6.758.059 3.31.058-.655h.059l.176-.552.058.827.059-2.827.058-.311.059.621.176.173.058-2.379.059-.9.058-.069.059 1.793.176-2.241.059 1.482.058-2.827.058-.276.059-2.793.176 2.31.059-.242.058 1.586.059 1.413.058.379.176-1.31.059-.931.058-.345.059.655.058-.517.176-2.586.059-1.379.058-3.758.059.517.058.9.176-.483.059.69.058-.38.059-.172.058.207h.176l.058.242.058.1.059-3.793.058 1.034.176-.069.058 1.621.058-1.345.059-2.414.058-1.172.176-1.034.058 1.69.059-1.9.058.379.058.759.176-2.172.058 2.551.059.862.058 1.69.059-.207.176 2.379.058-.311.059-1.241.058 4.137h.059l.176-.724.058 1.311h.059l.058-1.621.059 1.31.176-2.379.058 1.448.059 3.172.058.276.059-1.931.176 1.275.059-1.69.058-1.517.058-2.241.059 3.586.176 2.1.059-.862.058.138.058 1.379.059 2.172.176-.448.059 1.241.058-.207.059-2.517.058-1.862.176.069.059-1.344.058-.655.059 2.414.058-1 .176-1.448.059-1.241.058.1.059-.1.058 1.207.176.655.059.965.058.552.059-1.172.058 1.483.176.689.058 1.1.058.069.059-1.276.058 1.655.176-.724.058-.069.059-3.413.058-1.482h.235l.058.931.059.311.058.448.058-.1.176-2.482.058 2.172.059-.793.058-.137.059 2.138.176-1.241.058.62.059.9.058.173.059.276.176-.311h.058l.059-1.655.058-.138.059.172.176-2 .058-.172.059-1.518.058.242.059-.38.176-1.655.059-.414.058-2.241.058-1.172.059.827.176.621.059.379.058-2.345.059-2.207.058-.242.176.448.095-.918.058-1.9.059-.793.058-1.827.176 2.586.059-.172.058 1.241.059 2.414.058-2.793.176 1.689.059-1.138.058.931.059.379.058.965.176.483h.058l.058 1.828.059-.724.058-2.827.181-1.142.058-.275.058.068.059-1.344.058 3.793.176.069.058-.379.059-.344.058-2.965.058-1.1.176-1.9.058-.172.059-.586.058-1.9.058.172.176-.172.058 2.379.059-1.069.058 1.207.059-2 .176-2.207.058-.379.059 1.069.058 2.9.059 1.31.176-1.621.058.862.059.345.058 1.069.059-2.31.176 3.069.058 1.275.059-2.241.058-.793.059-.9.176 1.758.059.276.058-1.723.058.069.059 1.31.176-.828.059 2.9.058.448.059 2.276.058-1 .176.517.059.414.058-.069.059-.035.058 1.449.176-.931.059.241h.058l.059 1.276.058 1.483.176 1.482.059.241.058 2.276.059.276.058 3.758.176-.172.068-.622.058-1.069.059-1 .058.724.176-1.482.058.31.058-1.793.059.586.058 1.172.176-1.1.058 1.1.059-.552.058 1 .058 1.034.176-.9.058-.1.059-1.344.058.621.059 1.069h.176l.058 1.551.059 1.483.058-.035.059-1.689.176.586.064-1.172.059-1.31.058 1.069.06-1.759.176-.207.058 1.31.059.655.058-.379.059-2.586.176-1.551.059.483.058-1.138.058-.207.059-.9.176.9.059-.828.058.621.058.655.059-.242.176.345.059 1 .058-.069.059 1.827.058.311.176 1.138.059-.035.058-1.448.059 2.1.058-.172.176 1.448.059.724.058-.551.059.138.058-3.414.176.517.059 1.31.058.931.059.759.058.069.176 1.586.058.38.058 2.414.059-1.069.058-.759.176.207.176.931.058-1.655.176.241.117 1.344.058-3.172.058-1.827.176.552.058.931.059-.586.058 1.138.059 3.172.176 1.311.058-.276.059-.965.058 1.759.059-.827.176-.035.058-.1.059.241.058.379.059 2.31.176-.483.058-.207.059 2.034.058.172.059 1.759.176-1.724.059-.276.058-.379.058.551.059-3.275.176.31.059.9.058.827.059-2.965.058-.034.176.517.059-.035.058.414.059-3.62h.058l.176 2.31.059-4.482.058.414.059.621.058-2.586.176.138.059.552h.058l.059-.483.058 1.62.176-1.966.058 1.207.058-1.482.059-.9.058 3.035.176-3.207.058.31.058.035.059-.724.058.793.176-.276.058-1.517.059-1.965.058.793.293.724.059-.241.058-.241.059 2.62.176 1.621.058.345.059.931.058.655.059-1.345.176.586.058.965h.059l.058-1.69.059 1.414.176-1.552.058-.965.059.311.058 1.517.059-1.655.176 2.31.059-.827.117 2.379.059-1.517.176-.173h.059l.058.586.058.138.059-3.1.176-.31.059.069.058-2.345.059.551.058-.448.176-.31.059.276.078 1.17.059-.724.058 1.034h.235l.058.276.059-.173.058 1.273.176.034.059 1.724.058-.517.059 1.034.058 2.827.176-1.034.058 1.275.058.069.059.759.058-.241.176.655.058.724.059.621.061-4.03.058-.379.176-1.9.058.965.059-2.207.058.172.058.965.176-.862.058-.413.059-1.207.058.517.059-2.069.176-.69.058.138.059-.931.058 4.792.059-.206.176-.448.058 2.138.059.345.058-.862.059.621.176.862.058.276.059 1.31.058-.9.059 1.172.176.172.059.276.058-.173.058-.759.059-.655.176 1.069.059.448.058.483.059 1.069.058.241.176-1.792.059.207.058-.931.059 1.069.058.827.176.069.059.931.058-.173.059-1.172.058.621.176.138.059-.448.058.173.059-1.586.058-.62.176-.552.059-.689h.058l.059.586.058-1.689.176 1.551.058.9.058.552.059.448.058.069.176 1.207h.058l.059-.1.058 3.689.058-.586.176-.1.058-.655.059.586.058-.1.058.724.176-.621.058.931.072-.734.058 1.482.059-.034.176-.379.058.069.059-1.138.058.311.059.655.176-.034.058-1.345.059 1.276.058 1.861.059.414.176-.311.058.138.059 1.414.058.965.059-.483.176.1.059-.276.058-.241.058-2.1.059-2.551.176.035.059-.242.058.448.059-2.9.058 1.276.176-.724.059.724.058-.31.059.379.058.483.176 1.069.059-.276.058.448.059-1.034.058.862.176-.069.059.62.058.931.059-.069.058.345.176-1.414.058.793.058.276.059.034.058 1.241.176 1.1.058.517.058.31.059.138.058-.862.176.9.058-.483h.059l.058-1.517.058-.207.176.862.058-.345.176 2.379.176-.552.058.138.117-2.448.059-.448.176-.586.058.724.059-.862.058.345.059-.482.176 1.241.058.242.059-1.138.058-.172.059-.241.176-.311.059-.759.058.759.058 1.345.059.9.176-.552.059-.172.058-.759.058-.621.059-1.1.176-.345.059.414.058.448.059-.9.058 1.483.176 1.207.059.689.058-1.93.059 1.9.058.586.176-.138.059.586.058.276.059-.724h.058l.176.517.059.345.058-.483.059-1.31.058 2.862.176-.793h.058l.058-.655.059.242.058 2.689.176-.241.058-.552.059.655.058.965.058-1.034.176.414.058-.069.059.172.058-2.689.058.31.176-.1.058.276.059.035.058-.586h.059l.176.517.058.034.059.1.058-.448.059-1.275.176.414.058.931.059.345.058 1.345.059.069.176-.793.058-.448.059.69.058.241.294-.655.058.276.058-.241.059.206.176.552.059-.655.058.448.117.207.176.207.059 1.275.058-.31.059.448.058-3.069.176-.31.059-1.138.058.31.059-1.1.058.69.176.345.059-.241.058-.483.059-.138.058-.724.176.1.058.069.058-.586.059.1.058-.1.176.069.058.621.058-.31.059-1.138.058 1.414.176-.655.058-1.138h.059l.058-.344.058.1.176-.034.058.69.059-.1.058 1.069.059-.586.176.138.058.414.059-.069.058-.173.059.276.176.689.058.552.059-.586.058-.172.059-1.069.176.069.058-.069.059.276h.058l.059-.173.176.621.059-.276.058-1.517.058-.138h.059l.176-.138.059-.69.058-.31.058.138.059-.586.176-.138.059-.1.058-.517.059-.414.058.311.176.517.059-.793.058-.69.059.414.058.414.176-.035.059-.793.058.276.059.241.058.311.176-.1.059-.551.058-1.379.059-.414.058.1.176-1.345.058-.137.058-.311.059.035.058.172.176-1.069.058-.379.059.724.058-2.724.058-1.379.176-.035.058-.931.059.552h.058l.058.069.176-.414.058.759.059.172.058-1.758.059-.414.176-.138.058.965.059-1.379.058-2.414.059.448.176-.655.058-2.551.059.414.058.621.059-.31.176-1.138.058.931.059.827.058 2.517.059-2.689.176.9.059-.724.058.448.058 1.758.059 1.586.176-1.069.059-.241.058-1.449.058-.517.059-.241.176.448.059 1.482.058-.241.059-3 .058-1.62.176-.655.059.448.058-.759.059.827.058-2.758.176 2.069.059-1.379.058.965.059-.241.058-.448.176 1.31.059.414.058.448.059.1.058-2.586.176-.276.058.31.058 1.138.059.1.058.069.176-.31.058-1 .059-2.1.058-.448.058 1.172.176-2.379.058 2.517.059.517.058.828.058.482.176-.551.058 2.482.059-1.965.058-3.689.059-.138.176-.448.058-1.069.059.138.293-.517.058-.862.059-.448.117-2.31.176-3.069h.058l.114-2.039.058-1.586.059 1.138.176-.242.059-.552.058-.172.058-1.655.059-3.069.176.448.059-.655.058.344.059.655.058-11.137.176 1.241.059 1.689.058 1.034.059-.793.058-.276.176.138.059 1.793.058 1.827.059-.931.058.965.176-4.586.059.586.058.448.059.379.058 1.414.176.724.058.207.058-1.172.059.414.058-2.379h.176l.058.793.058.483.059-.759.058-2.1.176-.345.058-1.621.059-1.241.058-1.517.064-3.032.176-2.965.058-3.62.059-4.862.058 1.1.059-1.276.176-.448.058 2.379.059-1.31.058 2.586.059 2.965.176 4 .058 1.1.059 1 .058-.345.059-3.379.176-.345.058-2.551.059-.1.058 2.207.294.517.058.448.058-2.62.059-6.172.176-.552.059.379.058.448.058 4.034.059 3.069.176-2.724.059-.69.058 1.31.059.862.058 1.517.176-.034.059 3.034.058 2.172.059 5.93.234-1.724.059-.965.058 3.1.059 2.034.068-2.273.176-2.172.059 2.655.058-.483.059 5.344.058-2.448.176 1.655.058-5.689.058-1.689.059.414.058.862.176-5.241.058-1.483.059-1.862.058.965.058 2.138.176-.724.058 2.414.059 2.965.058 5 .058-2.689.176-1.552.058 2.379.059.827.058-1.276.059-.345.176-.034.058-.1.059 1.758.058 3.344.059-2.793.176 1.241.058-3.827.059.241.058-.207.059-.1.176-1.9.058 1.552.059-2.482.058-.965.059.862.176-2.482.059-2.207.058 2.655.058.862.059 3.62.176-3.793.059-.483.058-.621.059-4.1.058.621.176-1.069.059.448.058 1 .059 2.793.058-1.724.176 3.413.059-.931.058.138.059-2.138.058.345.176-.483.059.655.058-2.62.059.069.058 1.621.176.552.058 2.689.058 2.793.059-1.276.058 1.724.176-1.965.058-1.138.058-.517.072 3.958.058 2.689.176 5.724.058.241.059-2.724.059-3.172.058-.448.176-1.448.058.586.059.517.058-.724.059-2.482.176.207.058.448.059-.621.058 1.241.059 2.276.176 1 .058.414.059-2.482.058 2.276.059 2.862.176-4.551.058-2.62.059-.138.058 2.517.059-2.482.176.517.059.965.058-.034.058-1.379.059.172.176 2.1.059-.31.058 1.138.058-.345.059 2.931.176.276.059.034.058.965.059.759.058-2.1.176-.724.059 1.069.058-.483.059-1.1.058-6.31.176-2.069.059 1.414.058.69.059-4.413.058 2.482.176.414.059-1.586.058-1.172.059-1.517.058-.552.176-2.586.058-1.931.058.138.059.31.058 1.138.176-1.241.058-1.586.059-.138.058.655.058.034.176-1.724.058.586.059-1.965.058.793.058-1 .176-.034.058.655.059.379.058 1.793.059 6.827.176-2.724.058 1.965.059 1.9.058.069.059.207.176.931.058.207.059-1.655.058-2.655.059-.138.176.965.058 2.379.059-1.034.058.9.235.448.059-.31.058-.724.058-1.138.235.31.059-4.482.058-.1.059 3.724.058-.207.176.793.059-1.517.058-.621.059 2.276.058.586.176-.621.059-.69.058 1.138.059-.414.059-2.482.176.207.059.621.058 1.517.059.414.058.483.176-1.034.058 1.034.058.379.059 7.689.058-.1.176-2.793.058 3.724.058.586.059 2.414.058-1.931.176-2.62.058-.379.059-.827.058-1.448.059.345.176-1.965.058-.69.059-.621.058 1.31.059-.586.176-3.379.059-.483.059-.448.058 1.31.059 1.965.176-.483.058 2.138.059-1.552.072-3.397.059 6.689.176.793.058-.276.059-1.241.058 6.792.059-.862.176-.207.059-1.621.058-1.138.058-.448.294 1.1.058 3.517.059 1.655.059 1.241.176-1.379.059-.345.058-.827.059.724h.058l.176.69.059.172.058-2.62.059-1.241.059.862.176.586.059 1 .058.965.059-.655.058-2.482.176.034.059.621.058.448.059 1.483.058 1.172.176 2.379.058 1.965.058-1.655.059-1.724.058-.31.176-.862.058-.517.059.9.058-.517.058-1.1.176-.655.058-.138.059-1.069.058-2.241.058.621.176-.138.058-1.276.059-.621.058.621h.059l.176-.793.058.414.059.552.058.379.059-.931.176 5.31.058-.034.059.793.058-.931.059-1.034.176-1 .058-1.172.059.138.058-1.517.059 2.172.176 2.1.059-.483.058-.827.058 2.862.059-8.861.192-1.929.059 2.138.058.483.058.345.059.9.176.1.059.207.058-2.138.059.31.058-.276.176-.621.059 1.207.058-.552.059 2.379.058-.793.176-2.1.059-.517.058-.621.059.034h.058l.176-.931.059.448.058-.172.059 2.793.058.655.176 1.414.058.793.058.172.059-1.758.058.552.176-1.931.058-.241.059 2.965.058-.862.058.138.176.586.058 3.172.059-.517.058 1.207.058.138.176-.552.058.9.059-1.931.058.621h.059l.176-3.31.058-.034.059-1 .059.379.059 1.31.176-1.034.058.1.059 2.138.058 1.586.059-.759.176-1.138.058.586.059-.793.058.965.059-.759.176-1.689.059.552.058-.965.058 2.448.059-.655.176 1.31.059-1.172.058.138.059-.1.058-1.655.176 2.069.059-2.069.058 1.379.059-.724.058-1.241.176.552.059-2.241.058-1.655.059.483.058-1 .176-.241.059-.034.058-.379.059.034.058-2.724.176.138.058-.552.058 1.552.059.034.058-.138.176.69.058 2.276.058 1.965.059-.862.058.793.176-.862.058-.69.059-.448.058-3.655.058.276.176-3.724.058-.345.059-1.9.058.448.059-2.655.176.069.058-.448.059-.448.059-1.655.059 1.345.176-.138.058-.345.059 1.793.058-.241.059.448.176 1.827.058.965.059-.138.058.965.059-6.172.176 1.138.059.448.058 1.034.058-7 .059.655.176-.552.059-1.862.058 1.827.058.724.059.069.235-.034.058-1.379.059 1.621.058 2.758.176-2.379.059-2.517.058 1.655.059 2 .058 2.724.176-2.241.059 1.586.058-2 .059 5.413.059-.552.176-2.034.059 2.724.058-.586.059.1.058-1.1.176 2.517.058 1 .059-.138.059-1.31.058-.552.176-1.552.058 3.758.059 1.034.058.552.058-2 .176-.862.058-1.138.059-.276.058.793.058-1.9h.176l.058-.207.059-2.069.058 2.965.059-.069.176-1.034.058-2.414.059-.759.058 1.862.059 1.1.176-.69.058.31.059-1.965.058-.586.08 1.589.176.827.058-.483.059-.621.058-.172.059 1.689.176 1.758.059-.965.059-.276.058 3.138.059.31.176.448.059 1.483.058.172.059-.621.058.552.176 2.448.059-.862.058-3.275.059-.345.058-1.379.176-.9.059-.31.058.827.059-.379.058-1.069.176-1.621.059 1.172.058-.345.059.793.293 1.552.058 1.31.059.586.058-1.414.176 4.482.058 1.241.058.069.059-.345.058 1.414.235-.448.059.138.058.207.058 1 .176-.655.058-1.448.059-.172.058-.655.059.448.176 2.793.058 2.482.059 1.621.058.31.059 1.414.176 1.758.058-.793.059-.586.058.586.059-.517.176-.207.058-.414.059 1.31.058-.034.059-.069.176.862.059.241.058-1.1.058.31.059-1.448.176 1.241.059-.1.058-.379.058-1.034.059.034.176.9.059-1.207.058-.241.059.621.058.1.176.379.059 2.482.058 2.62.059 1 .058-.034.176-1.138.059-.414.058-.655.059 1.517.058.69.176-.655.059.483.058 1.172.059-.862.058-.034.176 1.241.058 2.414.058-.586.059-1.241.058 4.034.176.172.058 1.172.059-1.275.058 1.275.058.862.176-.035.058 2.1.059.413.058.759.058.206.176-1.758.058.414.059-2.034h.058l.059.827.176.793.058-1.31.059-.862.058-.311.059 1.069.176.517.058.276.059.69.058.172.059.035.176 2.862.058 2.965.059-3.173.058-2.241.059 2.345.176-.379.059-.345.058.966.058.965.059 2.137.176-1.482.059-1.552.058 1.1.059-2.275.058 1.9.176-.379.059.586.058.862.059-2.482.058 1.344.176-2.276.059-1.966.058-1.138.059.931.058.69.176-1.551.059.242.058.827.059-1.1.058-.9.176.965.058 1.275.058.828.059.621.058-1.1.176-.173.059-1.1.058-.241.059 2.1.058-.414.176-1.931.059.517.059.621.058-.793.058-3.758.176.172.058.655.059-.655.058.862.059.276.176-1.69.058-.724.059.724.058 1.034.059.586.176.069.058 2.241.059 2.345.058-1.69.059.586.176-.345.058-1.586.059.793.058 2.448.059.69.176 1.827.059-1.552.058-1.482.058.517.059.9.176-.483.059-.448.058-.724.058-.793.059-1.069.176 1.345.059-.759.059-.759.059 2.724.058-.965.176-.275.059.689.058.552.059.345.058-.173.293 1.034.059.965.058 1.414" class="cls-6" data-name="Path 16275" transform="translate(-2.802 -34.357)"/>
            </g>
        </g>
        <g id="Group_2967" data-name="Group 2967" transform="translate(27.542 13.4)">
            <g id="Group_2966-2" data-name="Group 2966" transform="translate(0 53)">
                <path id="Path_16275-2" d="M5.157 99.279h.059l.059-.758.059-2.483.059-.448.174-1.59.059.242.059-.586.059-.1.056-1.863.176 1 .059.241L6.1 92l.059.276.059.759.176-.448.059 2.1.053-.687.059-.552.059-1.586.176.414.059 1.034.059-.379.059 1.38h.059l.176-1.966.059.621.059.655.059.069.059.345L7.62 93l.059 1.345.059 1.207.059 1.1.059-.38.176.276.059.276h.059l.059-.793.059.552.176.517.056 1.386.059-.345.059.276.059-1.241.176-1.62.059.344.059.724.059.345.057.031.176.035.059 1.241.059-.724.059.862.059 1.931.176-.414.059-.138.059-.069.059 1.138.059-.483.176-1.207.059 1.621h.054l.059.069.059-.655.176.931.059-.137.059-.138.059.413h.235l.059 1.034.059-.172.059.931.059 1.241.176.344.059-.034.059.552.059.448.059.069.176-.9.059.448.059 1.241.059-.965.059.862.176-.69h.058l.059-.31.059.448.059-.965.176 1 .059-1.069.059-.414.059-.172.059-.759.176 1.172.059-.207.059.69.059-1.1.059-.724.176-.621.059.173.059.69.059-.793.059-.138.176.242.059 1.069.059-1.724.059.655.059-.345.176.9.059.931.059-.345.059-.828.059-2.31.176.1.059-.173.059-1.138.059.31.059.207.176 1.759.059-.035.059.448.059-.551.059.827.176.38h.059l.059-.448.059.552.059.724.176 1.586.059.241.059.311.059.414.059-.827.176.448.059.862.059 1.586.059.621.059-.1h.176l.059-.207.059.173.059.724.059-.311.176.345.059.207.059-1.62.059-.414.059-1.275.176.138.059.862.059-.793h.059l.059.586.176 2.241.059-.448H18l.059-1.172.059-1.448.176.035.059-1.138.059-2.172.059-1.344.059.931.176.414.059.621.059-.276.059 1.517.059.759.176.793.059.1.059-.586.059-.414.059 1.759.176-1.344.059-.965.059.172.059 1.482.059.517.176 1.793.059.517.059 1.1.059.207.059-.655.176.311.059-.173.059 1.9.059.965.059.345.176 1.1.059-.1.059.345.059.931.059-.035.176.931.059-1.172.059.517.059-1.482.059.482.176-.827.059-.9.059 1.9.059.9.059-.448.176.931.059-1.31.059.862.059 1.69.059-.207.176-2.069.059 1.483.059-.38.059 1.31.059 1.276.176.1.059.276.059.655.059-.38.059.9.176.173.059.965.059 2.793.059-.862.059.242.176-1.655.059.448.059 1.483.059-.965.059.207.176.034.038 2.064.059.483.059.207.059-.311.176.586.059.448.059-2 .059-.138.059.345.176-1.483.059 1.172.059-.31.059-2.689.059 1.551.176 1.1.059-.759.059.069.059.1.059-2.793.176-1.931.059.379.059-.517.059-.586.059.517.176.31h.117l.059 1.931.059 2.862.176.448h.059l.059-.517.059 1.034.059-.414.176-.069.059-.275.059-.414.059-.276.059 2.069.176 1.586.059-.138.059-1.448.059-1.62.059-.276.176-3.1.059.207.059 1.276.059 1.448.059.69.176.793.059.276.059.586.059.931.059.311.176-.965.059-2.207.059-1.069.059-.862.059-.9.176.448.059-.069.059.793.059.655.059.759.176-.586.059 1.689.059-1.379.059 1.275.059 1.759.176-.483.059.9.059 2.62.059 1.172.059.69.176.517.059.069.059-.172.059 1.827.059 1.449.176-1.138.059.586.059 1.414.059 1.414.059-.207.176 2.93h.059l.059-1.1.059-3.827h.235l.059 2.1.059 2 .059 1.034.059.138.176.241.059-2.138.059-.379.059-1.517.059 2.758.176-.379h.059l.059.448.059 2.069.059-.586.176.483.059-.552.059 1.379.059-.758.059-1.276.176 1.621.059.448.059.1.059-2.345.059-2.413.176.448.059-.793.059-.448h.059l.059-1.172.176.035.059.965.059-1.413.059-1.207.059 1.621.176-.414.059.621.059-.483.059.517.059.345.176 1.1.059.9.059 1.586.059.034.059-.172.176.241h.059l.059-1.448.059-1.482.059-.621.176.173L35.6 138l.059-1.828.059-.931.059 2.827.176 2.586.059-3.62.059-.138.059-1.413.059-1.207.176 1.793.059.276.059.207.059-.173.059 1.862.176-1.276.059.69.059.414.059 1.862.059.242.176.207.059.172.059.414.059 1.1.059-2.965.176-.276.059.483.059.414.059-.1.059 1.758.176.173.059 1.93.059-1.379.059-.552.059-.448.176.586.059.827.059-2.448.059-.9.059.793.176.172.059-.552.059-1.655.059.311.059-.517.176-.1.059-1.138.059-.138.059-.1.059-5.861.176-.931.059-1.62.059-.069.059.069.059-2.793.176-.414.059-.414.059.9.059 1.275.059-.1.176-.655.059-2.69.059 2.69.059.069.059-.586.176-1.793.059-1.724.044-1.252.059.793.059-4.034.176-.552.059-1.207.059-.862.059-2.827.052 2.343.176 1.448.059 2 .059-.724.059 4.62.059-4.413.176 5.551.059 2.586.059-.655.059.138.059-.965.176-4.758.059-.793.059-3.793.059-3.137.059-1.241.176-3.655.059-.034.054 1.825.059-.9.059-1.9.176 1.1.059 2.069.059-2.31.059-2.241.059-1.931.176.379.059-4.689.059-6.93.059-.689.059-4.586.176-3 .059 1.482.059 5.241.059 5.482.059-5.758.176 1.379.059-.034.059 1.034.059-2.1.059-.276.176 2.827.059-3.034.059-4.689.059-.1.059 3.241.176-.311.059-.138.059-.414.059-2 .059 1.31.176 3.655.059.793.059 2.586.059-.724.059-3.62.176-2.551.059 1.9.059-1.586.059-.069.059.965.176 4 .059-.311.059 1.793.044 5.865.059 2.448.176 3.241.059 3.344.059 6.62.059 9.344.059-11.447.176.551.059.138.059.483h.117l.176 4.551.059-2.93.059-3.172h.059l.059-.931.176-5.207.059-4.758.059 5 .059.414.059 1.242.176-5.448.059-2.552.058-1.758.059-1.758.058 3.654.176-1.723.059-5.1.058-.414.059 1.517.058-3.931.176 4.069.059 3.689.058 1.724.059-2.965.058-6.068.176-1.172.058 1.862.058-.655.059.241.058-.69.176 4.379.058-.827.058-.586.059-2.172.058-.206.178-1.251.058-2.793.059-.827.058 2.345.058-2.448.176 4.413.058-.724.059.655.058-.276.059-2.93.176-1.034.058.414.059-1.31h.058l.059 2.241.176-2.034.058 4.689.059.069.058-.1.059 2.586.176 2.793.058-2.034.059 3.827.062 10.378.059-2.276.176.172.059-.965.058-.242.058 2.138.059-5.965.176-2 .059 2.275.058-1.207.058 2.827.059.621.176 1.344.06-4.622.058-.482.059.827h.234l.059.069.058-2.034.059.448.058-2.759.176-1.861.059-.724.058.31.059 2.1.058 3.655.176-2.138.059-2.689.058 5.482.059.173h.058l.176-1.034.058 3.517.058-1.552.059.793.058 1.172.176 2.827.058 2.034.064-1.134.058-1.1.058-.862.176-.448.058 2.241.059 1.414.058 1.482.058 3.621.176.655.058-1.793.059-.138.058-.793.059 4.275.176 2.1.058.311.059-.552.058-1.931.059 1.414.176-5.448.058 1.655.059 2.517.058-2.345.059.621.176-2.724.058.724.059-.9.058 1.414.059.207.176-1.31.059 2.138.058.9.058-1.586.059 2.758.176-.655.059 1.31.058-.655.059-.827.058-.69.176-2 .062 2.174.058-2.1.059 1.587.058-1.587.176 1.31.059.311.058 1.689.059.724.058-.69.176 2.172.059.1.058-.552.059.655.063-.033.176.724.058-.689.058-2.138.059-.9.058 1.482.176 2.793.058 1.379.058.414.059-.655.058-.207.176-2.62.058-.621.059.069.058 2.1h.058l.176-3.793.058.483.059.207.058 2.241.058 1.482.176-.138.058.035.059-.931.058-.034.059 1.621.176-1.552.058.724.059-1.586.058 1.931.059-1.241.176 1.172.068 2.388.059.793.058.379.059.793.176-.551.058.827.059.965.058.655.059-.1.176-.759.059 1.931.058.034.058-.207.059-1.586.176-.311.059-1.62.058 1.517.059-1.69.058-.034.176 1.276.059 1.689.058-.414.059 1.069.058-.207.176.241.059 1.551.058.276.059-.276.058.1.174.759.059.793.058-.759.059 1.207.058.31h.176l.058-2.241.058-1.414.059.069.058.173.176-.448.058-1.793.058 1.621.059 1.689.058-.1.176 1.9.058-.276.059 1.1.058-1.793.058-.828.176 1.518.058-1.414.059 1.276.058-1.449.059-.759.176 2.379.058.035.059 1.723.058-.172.068-2.347.176 1.62.058.759.059.242.058.448.059-.793.176-4.344.058-.207.059-.069.058-.621.059.448.176-1.759.06-1.724.058.311.058-3.586.059-.1.176.517.059-1.483.058-.069.058 2.069h.059l.176.1.059.448.058-1.552.059 1.1h.058l.176-.276.059.9.058-1.552.059-.759.058-.517.176 4.241.059-.793.058 1.345.059-1.241.058-1.862.176-.069.059-1.517.058-2.517.059-1.172.058 1.207.176.276.058-1.138.058-.207.059-1.275.058-.586.176-.965.058.448.059.827.058-2.448.058-2.827.176-.311.058 1.586.059-.379.058-.414.058-2.689.176.655.058.759.059 1.448.058-2.965.059-.9.176 2 .058-.9.059-.586.058-1.069.059 1.517.176-.862.058.448.059 1.724.058.517.059-1.62.176 1.482.058-1.931.059.965.058.9.059 1.966.176-1.1.059.345.058.586.058-1.759.059-2.069.176-1.448.059.9.058-3.448.059.345.058-.069.176 2.276.059.207.058-.069.059-.207h.234l.059-1.379.058-1.069.059-.862.058 1.689.176 3.827.059-.034.058.586.059-1.31.058-.173.176-1.965.058 1.034.058-2.172.059-.655.058-.552.176.207.058-.586.058-.9.059.206.058 1.172.176-1.517.058-2.965.059-3.379.058-4.1.058.379.176 4.655.058-5.655.059-.276.058-2.138.059-2.069.195-3.208.058 1.793.059-3.586.058 1.448.059 3.655.176-3.068.058-3.1.059 1.966.058-1.242.059 2.931.176-1.724.058-3.517.059 1.448.058 1.172.059-4.862.176-2.414.059-.413.058 1.655.058.827.059 1.931.176 2.827.059.207.058.448.058 1.931.059.207.176.448.059-3.034.058.311.059-.207.058.724.176 1.034.059-3.241.061 1.688.059 1.276.058 4.93.176-.379.06 1.03.058-.241.059 2 .058-.483.176-1.413.059-.069.058 2.9.059 2.655.058 3.551.176-.9.058-2.345.058-.551.059.689.058.965.176.724.058 2.069.059-.828.06 1.557.058-.828.176.931.066 2.93.059-.276.058-.448.058-.172.176 1.551.058-2.379.059-2.379.058-4.689.059.207.176.448.058.828.059.413.058-.931.059-2.62.176-.172.058-2 .059.069.058 1.723.059.414.176-.276.058-.414.059 2.517.058.379.059.344.176.828.059-2.724.058-1 .058.379.059.207.176 1.62.059 1.034.058 2.862.059 1.828.058-.38.176.276.059.931.058 4.792.059-.793.058 1.724.176 1.241.059-.31.058 2.827.059.69.058 1.448.176-.414.059 1.379.058 1.379.059 2.034.058-1.724.176 1.1.058-1.828.058 2.241.059 2.483.058-.207.179-3.373.058-.689.058.069.059 2.724.058-1.448.176 1.724.058-2.1.059-1.965.058.965h.063l.176 1.241.058 1.62.059-.069.058 4 .059-2.759.176-2.93.058.483.059-3.138.058-1.275.059.207.176-1.586.058-.242.059-2.482.058 3.1.059.517.176-.517.058-2.828.059-3 .058-.345.059-1.862.176-1.586.059-2.965.058 2.345.058.793.059 1.828.176.655.059 1.62.058-3.207.058.276.059.586.176.483.059 3.241.058-1.448.059-2.379.058.448.176-2.241.059.138.058-.862.059-.965.058.724.176.724.059 1.172.058-1.172.059 2.862.058 1.586.176-.276.059 1.413.058-4.034.059-2.448.058-2.62.18-1.206.058.931.058.517.059 4.551.058 2.931.176-.759.058 1.172.059 2.586.058-.655.058.931.176.931.058.483.059 1.586.058.621.058-.1.176-.344.058 1.172.059.862.058-1.034.059-2.1.176-1.449.058 1.518.059.207.058-.793.059-1.482.176-1.586.058 1.311h.059l.058.931.059 1.276.176.758.058-.034.066 1.161.058.759.059-.172.176 1.276.059-.138.058-.31.058.758.059 1.9.176 1.241.059-2.276.058.517.059-1.966.058-.827.176 3.172.059-1.172.058 1.207.059.931.058 2.207.176 1.1.059.276.058-1.276.059-.137.058-.242.176-1.448.059.621.058.414.059 2 .058-1.138.179 1.723.058-1.276.059 2.276.059-.276.058 1.965.176.552.058.586.058.379.059-1.518.058.827.176-2.93.058.448.059 3.551.058 1.1h.235l.058.552.059.793.058 2.034.059 1.034.176-.379.058-.9.059 1.586.058-1.034.059-5.033.176-1.724.058-.655h.059l.058-3.483.059 2.172.176-2.345.058.483.059.965.058.655.059-.482.176-3.758.058 1.207.059-.345.058 1.724.059 1.655.176.1.059 1.9.058.379.058.862.059.483.18 1.77.059.9.058-.724.059.1.058-2.069.176-2.207.059 1.586.058-2.62.059-3.483.058 3.1.176-.586.059 2.345.058.379.059-3.1.058.138.176-.276.059.965.058 2.759.059.448.058.586.176.172.058-.621.058-2.379.059-1.207.058-.069.176-3.206.058-1.449.058 1.724.059 2.241.058-.965.176-1.758.058 2 .059.793.058.276.058 2.827.176-.172.058 1.517.059-.413.058-3.138h.059l.176 2.62.058-4.137.065 2.203.058-1.207.059-1.276.176 1.207.058.724.059 1.69.058-3.827.059 1.828.176 1 .058.862.059 1.93.058-1.758.059.241.176.483.059.793.058-.483.058-.138.059-.345.176 1.379.059-1.379.058.793.058-2.758.059-.517.176-2.207.059-.483.058-1.1.059.173.058-4.034.176-2.965.059-.207.058 1.551.059 1.207.058-.621.176-2.207.059 1.275.058-1.379.059-3.517.058-.345.176 1.345.059 1.483.058.965.059-.311.058-2.1.176-3.379.058-2.862.058 3.069.059-1.311.058 3.172.176 3 .058.276.059 2.93.058-.724.058 1.448.176-.552.058-1.828.059 2.758.058-.379.058-.138.176 1.034.058 1.1.059.173.058 1.931.059 2.137.176-2.758.058-6.758.059 3.31.058-.655h.059l.176-.552.058.827.059-2.827.058-.311.059.621.176.173.058-2.379.059-.9.058-.069.059 1.793.176-2.241.059 1.482.058-2.827.058-.276.059-2.793.176 2.31.059-.242.058 1.586.059 1.413.058.379.176-1.31.059-.931.058-.345.059.655.058-.517.176-2.586.059-1.379.058-3.758.059.517.058.9.176-.483.059.69.058-.38.059-.172.058.207h.176l.058.242.058.1.059-3.793.058 1.034.176-.069.058 1.621.058-1.345.059-2.414.058-1.172.176-1.034.058 1.69.059-1.9.058.379.058.759.176-2.172.058 2.551.059.862.058 1.69.059-.207.176 2.379.058-.311.059-1.241.058 4.137h.059l.176-.724.058 1.311h.059l.058-1.621.059 1.31.176-2.379.058 1.448.059 3.172.058.276.059-1.931.176 1.275.059-1.69.058-1.517.058-2.241.059 3.586.176 2.1.059-.862.058.138.058 1.379.059 2.172.176-.448.059 1.241.058-.207.059-2.517.058-1.862.176.069.059-1.344.058-.655.059 2.414.058-1 .176-1.448.059-1.241.058.1.059-.1.058 1.207.176.655.059.965.058.552.059-1.172.058 1.483.176.689.058 1.1.058.069.059-1.276.058 1.655.176-.724.058-.069.059-3.413.058-1.482h.235l.058.931.059.311.058.448.058-.1.176-2.482.058 2.172.059-.793.058-.137.059 2.138.176-1.241.058.62.059.9.058.173.059.276.176-.311h.058l.059-1.655.058-.138.059.172.176-2 .058-.172.059-1.518.058.242.059-.38.176-1.655.059-.414.058-2.241.058-1.172.059.827.176.621.059.379.058-2.345.059-2.207.058-.242.176.448.095-.918.058-1.9.059-.793.058-1.827.176 2.586.059-.172.058 1.241.059 2.414.058-2.793.176 1.689.059-1.138.058.931.059.379.058.965.176.483h.058l.058 1.828.059-.724.058-2.827.181-1.142.058-.275.058.068.059-1.344.058 3.793.176.069.058-.379.059-.344.058-2.965.058-1.1.176-1.9.058-.172.059-.586.058-1.9.058.172.176-.172.058 2.379.059-1.069.058 1.207.059-2 .176-2.207.058-.379.059 1.069.058 2.9.059 1.31.176-1.621.058.862.059.345.058 1.069.059-2.31.176 3.069.058 1.275.059-2.241.058-.793.059-.9.176 1.758.059.276.058-1.723.058.069.059 1.31.176-.828.059 2.9.058.448.059 2.276.058-1 .176.517.059.414.058-.069.059-.035.058 1.449.176-.931.059.241h.058l.059 1.276.058 1.483.176 1.482.059.241.058 2.276.059.276.058 3.758.176-.172.068-.622.058-1.069.059-1 .058.724.176-1.482.058.31.058-1.793.059.586.058 1.172.176-1.1.058 1.1.059-.552.058 1 .058 1.034.176-.9.058-.1.059-1.344.058.621.059 1.069h.176l.058 1.551.059 1.483.058-.035.059-1.689.176.586.064-1.172.059-1.31.058 1.069.06-1.759.176-.207.058 1.31.059.655.058-.379.059-2.586.176-1.551.059.483.058-1.138.058-.207.059-.9.176.9.059-.828.058.621.058.655.059-.242.176.345.059 1 .058-.069.059 1.827.058.311.176 1.138.059-.035.058-1.448.059 2.1.058-.172.176 1.448.059.724.058-.551.059.138.058-3.414.176.517.059 1.31.058.931.059.759.058.069.176 1.586.058.38.058 2.414.059-1.069.058-.759.176.207.176.931.058-1.655.176.241.117 1.344.058-3.172.058-1.827.176.552.058.931.059-.586.058 1.138.059 3.172.176 1.311.058-.276.059-.965.058 1.759.059-.827.176-.035.058-.1.059.241.058.379.059 2.31.176-.483.058-.207.059 2.034.058.172.059 1.759.176-1.724.059-.276.058-.379.058.551.059-3.275.176.31.059.9.058.827.059-2.965.058-.034.176.517.059-.035.058.414.059-3.62h.058l.176 2.31.059-4.482.058.414.059.621.058-2.586.176.138.059.552h.058l.059-.483.058 1.62.176-1.966.058 1.207.058-1.482.059-.9.058 3.035.176-3.207.058.31.058.035.059-.724.058.793.176-.276.058-1.517.059-1.965.058.793.293.724.059-.241.058-.241.059 2.62.176 1.621.058.345.059.931.058.655.059-1.345.176.586.058.965h.059l.058-1.69.059 1.414.176-1.552.058-.965.059.311.058 1.517.059-1.655.176 2.31.059-.827.117 2.379.059-1.517.176-.173h.059l.058.586.058.138.059-3.1.176-.31.059.069.058-2.345.059.551.058-.448.176-.31.059.276.078 1.17.059-.724.058 1.034h.235l.058.276.059-.173.058 1.273.176.034.059 1.724.058-.517.059 1.034.058 2.827.176-1.034.058 1.275.058.069.059.759.058-.241.176.655.058.724.059.621.061-4.03.058-.379.176-1.9.058.965.059-2.207.058.172.058.965.176-.862.058-.413.059-1.207.058.517.059-2.069.176-.69.058.138.059-.931.058 4.792.059-.206.176-.448.058 2.138.059.345.058-.862.059.621.176.862.058.276.059 1.31.058-.9.059 1.172.176.172.059.276.058-.173.058-.759.059-.655.176 1.069.059.448.058.483.059 1.069.058.241.176-1.792.059.207.058-.931.059 1.069.058.827.176.069.059.931.058-.173.059-1.172.058.621.176.138.059-.448.058.173.059-1.586.058-.62.176-.552.059-.689h.058l.059.586.058-1.689.176 1.551.058.9.058.552.059.448.058.069.176 1.207h.058l.059-.1.058 3.689.058-.586.176-.1.058-.655.059.586.058-.1.058.724.176-.621.058.931.072-.734.058 1.482.059-.034.176-.379.058.069.059-1.138.058.311.059.655.176-.034.058-1.345.059 1.276.058 1.861.059.414.176-.311.058.138.059 1.414.058.965.059-.483.176.1.059-.276.058-.241.058-2.1.059-2.551.176.035.059-.242.058.448.059-2.9.058 1.276.176-.724.059.724.058-.31.059.379.058.483.176 1.069.059-.276.058.448.059-1.034.058.862.176-.069.059.62.058.931.059-.069.058.345.176-1.414.058.793.058.276.059.034.058 1.241.176 1.1.058.517.058.31.059.138.058-.862.176.9.058-.483h.059l.058-1.517.058-.207.176.862.058-.345.176 2.379.176-.552.058.138.117-2.448.059-.448.176-.586.058.724.059-.862.058.345.059-.482.176 1.241.058.242.059-1.138.058-.172.059-.241.176-.311.059-.759.058.759.058 1.345.059.9.176-.552.059-.172.058-.759.058-.621.059-1.1.176-.345.059.414.058.448.059-.9.058 1.483.176 1.207.059.689.058-1.93.059 1.9.058.586.176-.138.059.586.058.276.059-.724h.058l.176.517.059.345.058-.483.059-1.31.058 2.862.176-.793h.058l.058-.655.059.242.058 2.689.176-.241.058-.552.059.655.058.965.058-1.034.176.414.058-.069.059.172.058-2.689.058.31.176-.1.058.276.059.035.058-.586h.059l.176.517.058.034.059.1.058-.448.059-1.275.176.414.058.931.059.345.058 1.345.059.069.176-.793.058-.448.059.69.058.241.294-.655.058.276.058-.241.059.206.176.552.059-.655.058.448.117.207.176.207.059 1.275.058-.31.059.448.058-3.069.176-.31.059-1.138.058.31.059-1.1.058.69.176.345.059-.241.058-.483.059-.138.058-.724.176.1.058.069.058-.586.059.1.058-.1.176.069.058.621.058-.31.059-1.138.058 1.414.176-.655.058-1.138h.059l.058-.344.058.1.176-.034.058.69.059-.1.058 1.069.059-.586.176.138.058.414.059-.069.058-.173.059.276.176.689.058.552.059-.586.058-.172.059-1.069.176.069.058-.069.059.276h.058l.059-.173.176.621.059-.276.058-1.517.058-.138h.059l.176-.138.059-.69.058-.31.058.138.059-.586.176-.138.059-.1.058-.517.059-.414.058.311.176.517.059-.793.058-.69.059.414.058.414.176-.035.059-.793.058.276.059.241.058.311.176-.1.059-.551.058-1.379.059-.414.058.1.176-1.345.058-.137.058-.311.059.035.058.172.176-1.069.058-.379.059.724.058-2.724.058-1.379.176-.035.058-.931.059.552h.058l.058.069.176-.414.058.759.059.172.058-1.758.059-.414.176-.138.058.965.059-1.379.058-2.414.059.448.176-.655.058-2.551.059.414.058.621.059-.31.176-1.138.058.931.059.827.058 2.517.059-2.689.176.9.059-.724.058.448.058 1.758.059 1.586.176-1.069.059-.241.058-1.449.058-.517.059-.241.176.448.059 1.482.058-.241.059-3 .058-1.62.176-.655.059.448.058-.759.059.827.058-2.758.176 2.069.059-1.379.058.965.059-.241.058-.448.176 1.31.059.414.058.448.059.1.058-2.586.176-.276.058.31.058 1.138.059.1.058.069.176-.31.058-1 .059-2.1.058-.448.058 1.172.176-2.379.058 2.517.059.517.058.828.058.482.176-.551.058 2.482.059-1.965.058-3.689.059-.138.176-.448.058-1.069.059.138.293-.517.058-.862.059-.448.117-2.31.176-3.069h.058l.114-2.039.058-1.586.059 1.138.176-.242.059-.552.058-.172.058-1.655.059-3.069.176.448.059-.655.058.344.059.655.058-11.137.176 1.241.059 1.689.058 1.034.059-.793.058-.276.176.138.059 1.793.058 1.827.059-.931.058.965.176-4.586.059.586.058.448.059.379.058 1.414.176.724.058.207.058-1.172.059.414.058-2.379h.176l.058.793.058.483.059-.759.058-2.1.176-.345.058-1.621.059-1.241.058-1.517.064-3.032.176-2.965.058-3.62.059-4.862.058 1.1.059-1.276.176-.448.058 2.379.059-1.31.058 2.586.059 2.965.176 4 .058 1.1.059 1 .058-.345.059-3.379.176-.345.058-2.551.059-.1.058 2.207.294.517.058.448.058-2.62.059-6.172.176-.552.059.379.058.448.058 4.034.059 3.069.176-2.724.059-.69.058 1.31.059.862.058 1.517.176-.034.059 3.034.058 2.172.059 5.93.234-1.724.059-.965.058 3.1.059 2.034.068-2.273.176-2.172.059 2.655.058-.483.059 5.344.058-2.448.176 1.655.058-5.689.058-1.689.059.414.058.862.176-5.241.058-1.483.059-1.862.058.965.058 2.138.176-.724.058 2.414.059 2.965.058 5 .058-2.689.176-1.552.058 2.379.059.827.058-1.276.059-.345.176-.034.058-.1.059 1.758.058 3.344.059-2.793.176 1.241.058-3.827.059.241.058-.207.059-.1.176-1.9.058 1.552.059-2.482.058-.965.059.862.176-2.482.059-2.207.058 2.655.058.862.059 3.62.176-3.793.059-.483.058-.621.059-4.1.058.621.176-1.069.059.448.058 1 .059 2.793.058-1.724.176 3.413.059-.931.058.138.059-2.138.058.345.176-.483.059.655.058-2.62.059.069.058 1.621.176.552.058 2.689.058 2.793.059-1.276.058 1.724.176-1.965.058-1.138.058-.517.072 3.958.058 2.689.176 5.724.058.241.059-2.724.059-3.172.058-.448.176-1.448.058.586.059.517.058-.724.059-2.482.176.207.058.448.059-.621.058 1.241.059 2.276.176 1 .058.414.059-2.482.058 2.276.059 2.862.176-4.551.058-2.62.059-.138.058 2.517.059-2.482.176.517.059.965.058-.034.058-1.379.059.172.176 2.1.059-.31.058 1.138.058-.345.059 2.931.176.276.059.034.058.965.059.759.058-2.1.176-.724.059 1.069.058-.483.059-1.1.058-6.31.176-2.069.059 1.414.058.69.059-4.413.058 2.482.176.414.059-1.586.058-1.172.059-1.517.058-.552.176-2.586.058-1.931.058.138.059.31.058 1.138.176-1.241.058-1.586.059-.138.058.655.058.034.176-1.724.058.586.059-1.965.058.793.058-1 .176-.034.058.655.059.379.058 1.793.059 6.827.176-2.724.058 1.965.059 1.9.058.069.059.207.176.931.058.207.059-1.655.058-2.655.059-.138.176.965.058 2.379.059-1.034.058.9.235.448.059-.31.058-.724.058-1.138.235.31.059-4.482.058-.1.059 3.724.058-.207.176.793.059-1.517.058-.621.059 2.276.058.586.176-.621.059-.69.058 1.138.059-.414.059-2.482.176.207.059.621.058 1.517.059.414.058.483.176-1.034.058 1.034.058.379.059 7.689.058-.1.176-2.793.058 3.724.058.586.059 2.414.058-1.931.176-2.62.058-.379.059-.827.058-1.448.059.345.176-1.965.058-.69.059-.621.058 1.31.059-.586.176-3.379.059-.483.059-.448.058 1.31.059 1.965.176-.483.058 2.138.059-1.552.072-3.397.059 6.689.176.793.058-.276.059-1.241.058 6.792.059-.862.176-.207.059-1.621.058-1.138.058-.448.294 1.1.058 3.517.059 1.655.059 1.241.176-1.379.059-.345.058-.827.059.724h.058l.176.69.059.172.058-2.62.059-1.241.059.862.176.586.059 1 .058.965.059-.655.058-2.482.176.034.059.621.058.448.059 1.483.058 1.172.176 2.379.058 1.965.058-1.655.059-1.724.058-.31.176-.862.058-.517.059.9.058-.517.058-1.1.176-.655.058-.138.059-1.069.058-2.241.058.621.176-.138.058-1.276.059-.621.058.621h.059l.176-.793.058.414.059.552.058.379.059-.931.176 5.31.058-.034.059.793.058-.931.059-1.034.176-1 .058-1.172.059.138.058-1.517.059 2.172.176 2.1.059-.483.058-.827.058 2.862.059-8.861.192-1.929.059 2.138.058.483.058.345.059.9.176.1.059.207.058-2.138.059.31.058-.276.176-.621.059 1.207.058-.552.059 2.379.058-.793.176-2.1.059-.517.058-.621.059.034h.058l.176-.931.059.448.058-.172.059 2.793.058.655.176 1.414.058.793.058.172.059-1.758.058.552.176-1.931.058-.241.059 2.965.058-.862.058.138.176.586.058 3.172.059-.517.058 1.207.058.138.176-.552.058.9.059-1.931.058.621h.059l.176-3.31.058-.034.059-1 .059.379.059 1.31.176-1.034.058.1.059 2.138.058 1.586.059-.759.176-1.138.058.586.059-.793.058.965.059-.759.176-1.689.059.552.058-.965.058 2.448.059-.655.176 1.31.059-1.172.058.138.059-.1.058-1.655.176 2.069.059-2.069.058 1.379.059-.724.058-1.241.176.552.059-2.241.058-1.655.059.483.058-1 .176-.241.059-.034.058-.379.059.034.058-2.724.176.138.058-.552.058 1.552.059.034.058-.138.176.69.058 2.276.058 1.965.059-.862.058.793.176-.862.058-.69.059-.448.058-3.655.058.276.176-3.724.058-.345.059-1.9.058.448.059-2.655.176.069.058-.448.059-.448.059-1.655.059 1.345.176-.138.058-.345.059 1.793.058-.241.059.448.176 1.827.058.965.059-.138.058.965.059-6.172.176 1.138.059.448.058 1.034.058-7 .059.655.176-.552.059-1.862.058 1.827.058.724.059.069.235-.034.058-1.379.059 1.621.058 2.758.176-2.379.059-2.517.058 1.655.059 2 .058 2.724.176-2.241.059 1.586.058-2 .059 5.413.059-.552.176-2.034.059 2.724.058-.586.059.1.058-1.1.176 2.517.058 1 .059-.138.059-1.31.058-.552.176-1.552.058 3.758.059 1.034.058.552.058-2 .176-.862.058-1.138.059-.276.058.793.058-1.9h.176l.058-.207.059-2.069.058 2.965.059-.069.176-1.034.058-2.414.059-.759.058 1.862.059 1.1.176-.69.058.31.059-1.965.058-.586.08 1.589.176.827.058-.483.059-.621.058-.172.059 1.689.176 1.758.059-.965.059-.276.058 3.138.059.31.176.448.059 1.483.058.172.059-.621.058.552.176 2.448.059-.862.058-3.275.059-.345.058-1.379.176-.9.059-.31.058.827.059-.379.058-1.069.176-1.621.059 1.172.058-.345.059.793.293 1.552.058 1.31.059.586.058-1.414.176 4.482.058 1.241.058.069.059-.345.058 1.414.235-.448.059.138.058.207.058 1 .176-.655.058-1.448.059-.172.058-.655.059.448.176 2.793.058 2.482.059 1.621.058.31.059 1.414.176 1.758.058-.793.059-.586.058.586.059-.517.176-.207.058-.414.059 1.31.058-.034.059-.069.176.862.059.241.058-1.1.058.31.059-1.448.176 1.241.059-.1.058-.379.058-1.034.059.034.176.9.059-1.207.058-.241.059.621.058.1.176.379.059 2.482.058 2.62.059 1 .058-.034.176-1.138.059-.414.058-.655.059 1.517.058.69.176-.655.059.483.058 1.172.059-.862.058-.034.176 1.241.058 2.414.058-.586.059-1.241.058 4.034.176.172.058 1.172.059-1.275.058 1.275.058.862.176-.035.058 2.1.059.413.058.759.058.206.176-1.758.058.414.059-2.034h.058l.059.827.176.793.058-1.31.059-.862.058-.311.059 1.069.176.517.058.276.059.69.058.172.059.035.176 2.862.058 2.965.059-3.173.058-2.241.059 2.345.176-.379.059-.345.058.966.058.965.059 2.137.176-1.482.059-1.552.058 1.1.059-2.275.058 1.9.176-.379.059.586.058.862.059-2.482.058 1.344.176-2.276.059-1.966.058-1.138.059.931.058.69.176-1.551.059.242.058.827.059-1.1.058-.9.176.965.058 1.275.058.828.059.621.058-1.1.176-.173.059-1.1.058-.241.059 2.1.058-.414.176-1.931.059.517.059.621.058-.793.058-3.758.176.172.058.655.059-.655.058.862.059.276.176-1.69.058-.724.059.724.058 1.034.059.586.176.069.058 2.241.059 2.345.058-1.69.059.586.176-.345.058-1.586.059.793.058 2.448.059.69.176 1.827.059-1.552.058-1.482.058.517.059.9.176-.483.059-.448.058-.724.058-.793.059-1.069.176 1.345.059-.759.059-.759.059 2.724.058-.965.176-.275.059.689.058.552.059.345.058-.173.293 1.034.059.965.058 1.414" class="cls-7" data-name="Path 16275" transform="translate(-2.802 -34.357)"/>
            </g>
        </g>
        <g id="Group_2862" data-name="Group 2862" transform="translate(50.34 170.181)">
            <text id="_0" class="cls-8" data-name="0" transform="translate(0 1)">
                <tspan x="-.278" y="0">0</tspan>
            </text>
            <text id="_10" class="cls-9" data-name="10" transform="translate(42.711 9)">
                <tspan x="-5.56" y="0">10</tspan>
            </text>
            <text id="_0-2" class="cls-9" data-name="0" transform="translate(.711 9)">
                <tspan x="-2.78" y="0">0</tspan>
            </text>
            <text id="_15" class="cls-9" data-name="15" transform="translate(85.529 9)">
                <tspan x="-5.56" y="0">15</tspan>
            </text>
            <text id="_20" class="cls-9" data-name="20" transform="translate(128.406 9)">
                <tspan x="-5.56" y="0">20</tspan>
            </text>
            <text id="_25" class="cls-10" data-name="25" transform="translate(170.224 4)">
                <tspan x="-2.224" y="0">25</tspan>
            </text>
            <text id="_30" class="cls-10" data-name="30" transform="translate(212.697 4)">
                <tspan x="-2.224" y="0">30</tspan>
            </text>
        </g>
        <g id="Group_2863" data-name="Group 2863" transform="translate(14.895 24.66)">
            <text id="_0-3" class="cls-9" data-name="0" transform="translate(6.513 107.665)">
                <tspan x="-5.56" y="0">0</tspan>
            </text>
            <text id="_-5" class="cls-9" data-name="-5" transform="translate(6.249 141.619)">
                <tspan x="-9.08" y="0">-5</tspan>
            </text>
            <text id="_5" class="cls-9" data-name="5" transform="translate(6.513 72.958)">
                <tspan x="-5.56" y="0">5</tspan>
            </text>
            <text id="_10-2" class="cls-9" data-name="10" transform="translate(4 38.707)">
                <tspan x="-11.12" y="0">10</tspan>
            </text>
            <text id="_15-2" class="cls-9" data-name="15" transform="translate(4 4)">
                <tspan x="-11.12" y="0">15</tspan>
            </text>
        </g>
    </g>
</svg>
