<svg xmlns="http://www.w3.org/2000/svg" width="20.347" height="18.392" viewBox="0 0 20.347 18.392">
    <defs>
        <style>
            .cls-1{fill:#0f81dc}
        </style>
    </defs>
    <g id="noun_edit_2730596" transform="translate(.09 -6.162)">
        <g id="Group_2825" data-name="Group 2825" transform="translate(-.09 6.162)">
            <path id="Path_16135" d="M19.26 6.61a2.4 2.4 0 0 0-3.338.548l-1.628 2.268a.154.154 0 0 0-.023.128h-.012a.156.156 0 0 0-.1.063L7.4 19.034v.006a.155.155 0 0 0-.02.045v.007l-1.01 5.147H.066a.156.156 0 1 0 0 .313h6.422a.156.156 0 0 0 .054-.011l.013-.005h.011l2.269-1.3h.007l2.386-1.363h.006a.154.154 0 0 0 .035-.033l6.762-9.417a.154.154 0 0 0 .023-.128.154.154 0 0 0 .114-.062l1.629-2.269a2.394 2.394 0 0 0-.537-3.354zm-4.94 3.316l1.562 1.122L9.3 20.211l-1.56-1.122zM6.707 24.093l.407-2.075a2.418 2.418 0 0 1 1.43 1.026zm2.108-1.2a2.725 2.725 0 0 0-1.641-1.178l.454-2.317 3.236 2.324zm2.3-1.374l-1.559-1.126 6.58-9.163 1.564 1.121zm6.807-9.48a.151.151 0 0 0-.026.077l-3.413-2.458a.152.152 0 0 0 .065-.049L15 8.973l3.382 2.427zm1.629-2.269l-.99 1.379-3.375-2.43.99-1.379a2.079 2.079 0 1 1 3.378 2.426z" class="cls-1" data-name="Path 16135" transform="translate(.09 -6.162)"/>
        </g>
    </g>
</svg>
