<svg xmlns="http://www.w3.org/2000/svg" width="18.394" height="21.613" viewBox="0 0 18.394 21.613">
    <defs>
        <style>
            .cls-1{fill:#0f81dc}
        </style>
    </defs>
    <g id="noun_username_icon_2191156" data-name="noun_username icon_2191156" transform="translate(0 .005)">
        <g id="Layer_2" data-name="Layer 2" transform="translate(0 -.005)">
            <g id="Layer_2-2" data-name="Layer 2">
                <path id="Path_16114" d="M11.709 11.941a6.237 6.237 0 1 0-5.025 0A9.55 9.55 0 0 0 0 21.16v.447h18.394v-.447a9.553 9.553 0 0 0-6.685-9.219zM3.853 6.233A5.345 5.345 0 1 1 9.2 11.578a5.345 5.345 0 0 1-5.347-5.345zM.906 20.713A8.485 8.485 0 0 1 9.2 12.47a8.485 8.485 0 0 1 8.292 8.245z" class="cls-1" data-name="Path 16114" transform="translate(0 .005)"/>
            </g>
        </g>
    </g>
</svg>
