<svg xmlns="http://www.w3.org/2000/svg" class="monitor" width="174" height="174" viewBox="0 0 174 174">
    <defs>
        <style>
            .cls-1{fill:#fff}.cls-2{fill:#0f81dc}.cls-3{filter:url(#Ellipse_5)}
        </style>
        <filter id="Ellipse_5" width="174" height="174" x="0" y="0" filterUnits="userSpaceOnUse">
            <feOffset dy="3"/>
            <feGaussianBlur result="blur" stdDeviation="5"/>
            <feFlood flood-opacity=".161"/>
            <feComposite in2="blur" operator="in"/>
            <feComposite in="SourceGraphic"/>
        </filter>
    </defs>
    <g id="Moniter_white" transform="translate(-124 -997)">
        <g class="cls-3" transform="translate(124 997)">
            <circle id="Ellipse_5-2" cx="72" cy="72" r="72" class="cls-1" data-name="Ellipse 5" transform="translate(15 12)"/>
        </g>
        <g id="_001-chip" data-name="001-chip" transform="translate(166.047 1035.913)">
            <g id="Group_546" data-name="Group 546" transform="translate(16.894 .001)">
                <g id="Group_545" data-name="Group 545">
                    <path id="Path_4657" d="M167.9 43.638h-21.2v-3h5.721a1.317 1.317 0 1 0 0-2.634H146.7v-3h3.972a5.5 5.5 0 0 0 3.917-1.623l8.662-8.662a4.13 4.13 0 1 0-1.863-1.863l-8.662 8.662a2.887 2.887 0 0 1-2.055.851H146.7v-2.898a6.955 6.955 0 0 0-6.947-6.947h-2.906v-11.66a4.132 4.132 0 1 0-2.634 0v11.659h-3V16.8a1.317 1.317 0 1 0-2.634 0v5.721h-3V1.318a1.317 1.317 0 0 0-2.634 0v21.205h-3V16.8a1.317 1.317 0 1 0-2.634 0v5.721h-3v-3.97a5.5 5.5 0 0 0-1.623-3.917l-8.665-8.665a4.134 4.134 0 1 0-1.862 1.862l8.665 8.665a2.886 2.886 0 0 1 .851 2.055v3.972h-2.906a6.977 6.977 0 0 0-1.736.219 1.317 1.317 0 0 0 .657 2.551 4.337 4.337 0 0 1 1.08-.136h30.978a4.318 4.318 0 0 1 4.313 4.313v30.969a4.339 4.339 0 0 1-.136 1.079 1.317 1.317 0 1 0 2.551.656 6.97 6.97 0 0 0 .219-1.735v-2.906h11.659a4.132 4.132 0 1 0 0-2.634H146.7v-3h5.721a1.317 1.317 0 1 0 0-2.634H146.7v-3h21.2a1.317 1.317 0 0 0 0-2.634zm-3.875-23.672a1.5 1.5 0 1 1-.439 1.059 1.488 1.488 0 0 1 .442-1.059zM101.4 5.193a1.5 1.5 0 1 1 0-2.119 1.5 1.5 0 0 1 0 2.119zm34.132 3.254a1.5 1.5 0 1 1 1.5-1.5 1.5 1.5 0 0 1-1.505 1.5zm26.745 46.271a1.5 1.5 0 1 1-1.5 1.5 1.5 1.5 0 0 1 1.495-1.5z" class="cls-2" data-name="Path 4657" transform="translate(-96.206 -.001)"/>
                </g>
            </g>
            <g id="Group_548" data-name="Group 548" transform="translate(0 26.746)">
                <g id="Group_547" data-name="Group 547">
                    <path id="Path_4658" d="M71.806 208.415a4.137 4.137 0 0 0-4.758-.777l-8.665-8.665a2.886 2.886 0 0 1-.851-2.055v-3.972h2.906a6.974 6.974 0 0 0 1.736-.219 1.317 1.317 0 1 0-.657-2.551 4.335 4.335 0 0 1-1.079.136H29.47A4.318 4.318 0 0 1 25.156 186v-30.969a4.332 4.332 0 0 1 .136-1.079 1.317 1.317 0 0 0-2.551-.657 6.963 6.963 0 0 0-.219 1.736v2.906H10.863a4.132 4.132 0 1 0 0 2.634h11.659v3H16.8a1.317 1.317 0 1 0 0 2.634h5.721v3H1.317a1.317 1.317 0 0 0 0 2.634h21.205v3H16.8a1.317 1.317 0 0 0 0 2.634h5.721v3H18.55a5.5 5.5 0 0 0-3.917 1.623l-8.662 8.662a4.129 4.129 0 1 0 1.863 1.862l8.662-8.662a2.887 2.887 0 0 1 2.055-.851h3.972V186a6.955 6.955 0 0 0 6.947 6.947h2.906v11.659a4.132 4.132 0 1 0 2.634 0v-11.66h3v5.721a1.317 1.317 0 1 0 2.634 0v-5.721h3v21.206a1.317 1.317 0 1 0 2.634 0v-21.205h3v5.721a1.317 1.317 0 1 0 2.634 0v-5.721h3v3.972a5.5 5.5 0 0 0 1.623 3.917l8.665 8.665a4.131 4.131 0 1 0 6.621-1.086zM6.947 160.752a1.5 1.5 0 1 1 1.5-1.5 1.5 1.5 0 0 1-1.5 1.5zM5.192 195.5a1.5 1.5 0 1 1 .439-1.059 1.488 1.488 0 0 1-.439 1.059zm30 13.017a1.5 1.5 0 1 1-1.5-1.5 1.5 1.5 0 0 1 1.499 1.505zm34.751 3.883a1.5 1.5 0 1 1 0-2.119 1.5 1.5 0 0 1 0 2.119z" class="cls-2" data-name="Path 4658" transform="translate(0 -152.306)"/>
                </g>
            </g>
            <g id="Group_550" data-name="Group 550" transform="translate(30.968 29.562)">
                <g id="Group_549" data-name="Group 549">
                    <path id="Path_4659" d="M204.328 180.215a6.361 6.361 0 0 0-4.88-5.978 4.5 4.5 0 0 0 .13-1.06 5.076 5.076 0 0 0-5.276-4.836 5.478 5.478 0 0 0-3.959 1.645 5.479 5.479 0 0 0-3.959-1.645 5.076 5.076 0 0 0-5.276 4.836 4.5 4.5 0 0 0 .13 1.06 6.361 6.361 0 0 0-4.88 5.978 5.784 5.784 0 0 0 1.387 3.748 6.512 6.512 0 0 0-1.387 3.994 6.783 6.783 0 0 0 3.167 5.627 5.829 5.829 0 0 0 6.068 5.54 6.284 6.284 0 0 0 4.751-2.1 6.284 6.284 0 0 0 4.751 2.1 5.869 5.869 0 0 0 6.055-5.2 6.156 6.156 0 0 0 3.18-5.269 5.936 5.936 0 0 0-1.832-4.223 5.937 5.937 0 0 0 1.83-4.217zm-4.661 5.387a3.514 3.514 0 0 1 2.027 3.058 3.369 3.369 0 0 1-1.16 2.476 5.912 5.912 0 0 0-3.462-2.788 1.317 1.317 0 0 0-.79 2.513 2.988 2.988 0 0 1 2.245 2.726 3.482 3.482 0 0 1-6.868 0v-8.446a3.207 3.207 0 0 1 3.434-2.906 1.317 1.317 0 0 0 0-2.634 6.438 6.438 0 0 0-3.434.976v-1.682a1.317 1.317 0 0 0-2.634 0v7.312a6.273 6.273 0 0 0-1.455-.674 1.317 1.317 0 0 0-.79 2.513 2.987 2.987 0 0 1 2.245 2.726v2.815a3.482 3.482 0 0 1-6.868 0 2.655 2.655 0 0 1 .82-1.88 1.317 1.317 0 0 0-1.857-1.868 5.6 5.6 0 0 0-.813 1.021 4.017 4.017 0 0 1-1.317-2.9 4.485 4.485 0 0 1 3.724-4.169 1.317 1.317 0 1 0-.589-2.567 8.024 8.024 0 0 0-2.416.984 3.178 3.178 0 0 1-.719-1.99c0-1.981 1.878-3.594 4.193-3.609h.035a1.316 1.316 0 0 0 1.118-2.01c-.01-.016-.019-.033-.03-.048l-.018-.023a1.034 1.034 0 0 0-.064-.084 1.955 1.955 0 0 1-.482-1.263 2.686 2.686 0 0 1 5.284 0 1.317 1.317 0 1 0 2.634 0 2.686 2.686 0 0 1 5.284 0 1.852 1.852 0 0 1-.2.829 7.314 7.314 0 0 0-2.161.542 1.317 1.317 0 1 0 1.023 2.427 4.754 4.754 0 0 1 1.821-.368H197.5c2.315.015 4.193 1.628 4.193 3.609a3.514 3.514 0 0 1-2.027 3.058 1.317 1.317 0 0 0 0 2.33z" class="cls-2" data-name="Path 4659" transform="translate(-176.357 -168.34)"/>
                </g>
            </g>
        </g>
    </g>
</svg>
