<svg xmlns="http://www.w3.org/2000/svg" width="11" height="20.346" viewBox="0 0 11 20.346">
    <defs>
        <style>
            .cls-1{fill:#fff}
        </style>
    </defs>
    <g id="facebook-logo" transform="translate(-22.077)">
        <path id="Path_14023" d="M32.663 0h-2.639a4.634 4.634 0 0 0-4.88 5.007v2.309h-2.652a.415.415 0 0 0-.415.415v3.345a.415.415 0 0 0 .415.415h2.653v8.44a.415.415 0 0 0 .415.415h3.461a.415.415 0 0 0 .415-.415v-8.44h3.1a.415.415 0 0 0 .415-.415V7.731a.415.415 0 0 0-.415-.415h-3.1V5.359c0-.941.224-1.418 1.449-1.418h1.777a.415.415 0 0 0 .415-.415V.419A.415.415 0 0 0 32.663 0z" class="cls-1" data-name="Path 14023"/>
    </g>
</svg>
