<svg xmlns="http://www.w3.org/2000/svg" id="icon" width="20" height="20" viewBox="0 0 20 20">
    <defs>
        <style>
            .cls-1{fill:#fff}
        </style>
    </defs>
    <path id="Path_14024" d="M19.769 6.077A.77.77 0 0 1 19 5.308V3.769A.77.77 0 0 1 19.769 3h1.538a.77.77 0 0 1 .769.769v1.539a.77.77 0 0 1-.769.769z" class="cls-1" data-name="Path 14024" transform="translate(-4.385 -.692)"/>
    <path id="Path_14025" d="M12.12 9.188a2.913 2.913 0 0 0-1.518.433 1.452 1.452 0 0 1 .434-.072 1.487 1.487 0 1 1-1.486 1.488 1.47 1.47 0 0 1 .072-.435 2.9 2.9 0 0 0-.434 1.518 2.933 2.933 0 1 0 2.932-2.932z" class="cls-1" data-name="Path 14025" transform="translate(-2.12 -2.12)"/>
    <g id="Group_2665" data-name="Group 2665" transform="translate(3.846 3.846)">
        <path id="Path_14026" d="M11.154 6.538a4.615 4.615 0 1 1-4.615 4.615 4.616 4.616 0 0 1 4.615-4.615m0-1.538a6.154 6.154 0 1 0 6.154 6.154A6.161 6.161 0 0 0 11.154 5z" class="cls-1" data-name="Path 14026" transform="translate(-5 -5)"/>
    </g>
    <path id="Path_14027" d="M16.25 0H3.75A3.749 3.749 0 0 0 0 3.75v12.5A3.749 3.749 0 0 0 3.75 20h12.5A3.749 3.749 0 0 0 20 16.25V3.75A3.749 3.749 0 0 0 16.25 0zm2.212 6.923h-5.029a4.615 4.615 0 1 1-6.866 0H1.538V3.75A2.214 2.214 0 0 1 3.75 1.538h12.5a2.214 2.214 0 0 1 2.212 2.212z" class="cls-1" data-name="Path 14027"/>
</svg>
