<svg xmlns="http://www.w3.org/2000/svg" width="62.485" height="48.151" viewBox="0 0 62.485 48.151">
    <defs>
        <style>
            .cls-1,.cls-2{fill:#cbcbcb;stroke:#cbcbcb;stroke-width:.5px}.cls-2{fill:#0f95f2;stroke:#0f95f2}
        </style>
    </defs>
    <g id="laptop" transform="translate(.25 .25)">
        <g id="Group_2658" data-name="Group 2658">
            <g id="Group_2657" data-name="Group 2657">
                <path id="Path_14017" d="M61.982 102.4v-.027a.888.888 0 0 0-.016-.106v-.01a.879.879 0 0 0-.026-.093l-.009-.024q-.015-.041-.034-.08l-.006-.014-4.861-9.574V60.959a1.76 1.76 0 0 0-1.757-1.759H6.712a1.76 1.76 0 0 0-1.758 1.758v31.513L.1 102.05l-.006.014a.8.8 0 0 0-.034.08l-.009.024a.922.922 0 0 0-.026.093v.01a.894.894 0 0 0-.016.106v2.384a2.09 2.09 0 0 0 2.088 2.088H59.9a2.09 2.09 0 0 0 2.088-2.088v-2.3a.548.548 0 0 1-.006-.061zM6.77 61.017h48.444v30.764H6.77zM6.42 93.6h49.145l4.034 7.956h-19.95c-1.205-4.37-16.109-4.37-17.314 0H2.386zm31.346 7.956zm22.4 3.211a.272.272 0 0 1-.272.272H2.088a.272.272 0 0 1-.272-.272v-1.4h58.353z" class="cls-1" data-name="Path 14017" transform="translate(0 -59.201)"/>
            </g>
        </g>
        <g id="Group_2660" data-name="Group 2660" transform="translate(8.707 18.711)">
            <g id="Group_2659" data-name="Group 2659">
                <path id="Path_14018" d="M115.585 213.756a.908.908 0 0 0-.908.908v9.208H73.739v-9.208a.908.908 0 0 0-1.816 0v9.6a1.425 1.425 0 0 0 1.424 1.424h41.723a1.425 1.425 0 0 0 1.424-1.424v-9.6a.908.908 0 0 0-.909-.908z" class="cls-2" data-name="Path 14018" transform="translate(-71.923 -213.756)"/>
            </g>
        </g>
        <g id="Group_2662" data-name="Group 2662" transform="translate(8.707 3.753)">
            <g id="Group_2661" data-name="Group 2661">
                <path id="Path_14019" d="M115.069 90.2H73.347a1.425 1.425 0 0 0-1.424 1.424v9.6a.908.908 0 1 0 1.816 0v-9.205h40.938v9.208a.908.908 0 1 0 1.816 0v-9.6a1.425 1.425 0 0 0-1.424-1.427z" class="cls-2" data-name="Path 14019" transform="translate(-71.923 -90.203)"/>
            </g>
        </g>
    </g>
</svg>
