<svg xmlns="http://www.w3.org/2000/svg" width="24.622" height="20" viewBox="0 0 24.622 20">
    <defs>
        <style>
            .cls-1{fill:#fff}
        </style>
    </defs>
    <g id="twitter-logo-silhouette" transform="translate(-.001 -57.441)">
        <g id="Group_2666" data-name="Group 2666" transform="translate(.001 57.441)">
            <path id="Path_14028" d="M24.623 59.807a10.087 10.087 0 0 1-2.9.8 5.072 5.072 0 0 0 2.22-2.793 10.183 10.183 0 0 1-3.209 1.226 5.055 5.055 0 0 0-8.607 4.6 14.34 14.34 0 0 1-10.41-5.277 5.057 5.057 0 0 0 1.563 6.743 5.051 5.051 0 0 1-2.288-.634v.063a5.056 5.056 0 0 0 4.051 4.953 5.116 5.116 0 0 1-1.331.177 4.848 4.848 0 0 1-.951-.094 5.054 5.054 0 0 0 4.717 3.508 10.134 10.134 0 0 1-6.273 2.159A10.733 10.733 0 0 1 0 75.168a14.277 14.277 0 0 0 7.742 2.272 14.271 14.271 0 0 0 14.37-14.37l-.017-.654a10.086 10.086 0 0 0 2.528-2.609z" class="cls-1" data-name="Path 14028" transform="translate(-.001 -57.441)"/>
        </g>
    </g>
</svg>
