<svg id="Layer_1" data-name="Layer 1" xmlns="http://www.w3.org/2000/svg" viewBox="0 0 329.5 218.52"><defs><style>.cls-1{font-size:16.17px;}.cls-1,.cls-10,.cls-2,.cls-3,.cls-4,.cls-5,.cls-6,.cls-7,.cls-8,.cls-9{fill:#29abe2;font-family:DJBGetDigital, DJB Get Digital;}.cls-2{font-size:19.85px;}.cls-3{font-size:11.71px;}.cls-4{font-size:21.59px;}.cls-5{font-size:13.31px;}.cls-6{font-size:16.84px;}.cls-7{font-size:11.91px;}.cls-8{font-size:11.88px;}.cls-9{font-size:13.79px;}.cls-10{font-size:15.74px;}.cls-11{fill:none;stroke:#999;stroke-miterlimit:10;stroke-width:1.5px;}.cls-12{fill:#999;}.cls-13{fill:#3171b4;}.cls-14{fill:#fff;}.cls-15{fill:#023f61;}</style></defs><title>NSF</title><g id="_Group_" data-name="&lt;Group&gt;"><text class="cls-1" transform="translate(224.75 44.12)">1</text><text class="cls-2" transform="translate(219.31 64.06)">0</text><text class="cls-3" transform="translate(225.99 76.55)">0</text><text class="cls-3" transform="translate(212.13 41.37)">0</text><text class="cls-4" transform="translate(241.33 73.27)">1</text><text class="cls-5" transform="translate(233.82 58.48)">1</text><text class="cls-6" transform="translate(249.59 102.36)">1</text><text class="cls-7" transform="translate(253.05 83.55)">1</text><text class="cls-8" transform="translate(240.67 87.86)">0</text><text class="cls-4" transform="translate(282.46 127.17)">1</text><text class="cls-9" transform="translate(268.18 126.06)">0</text><text class="cls-7" transform="translate(273.44 110.57)">1</text><text class="cls-8" transform="translate(259.63 113.46)">1</text><text class="cls-8" transform="translate(260.58 97.84)">0</text><text class="cls-10" transform="translate(278.75 140.57)">1</text><text class="cls-7" transform="translate(267.99 141.94)">0</text><text class="cls-7" transform="translate(287.73 141.28)">0</text></g><g id="_Group_2" data-name="&lt;Group&gt;"><text class="cls-1" transform="translate(92.17 62.84)">1</text><text class="cls-2" transform="translate(92.18 81.92)">0</text><text class="cls-3" transform="translate(106.53 40.39)">0</text><text class="cls-3" transform="translate(81.56 64.52)">0</text><text class="cls-4" transform="translate(71.88 76.71)">1</text><text class="cls-5" transform="translate(81.91 84.3)">1</text><text class="cls-5" transform="translate(99.81 54.81)">1</text><text class="cls-6" transform="translate(59.7 97.39)">1</text><text class="cls-7" transform="translate(69.65 91)">1</text><text class="cls-8" transform="translate(57.46 79.65)">0</text><text class="cls-4" transform="translate(33.34 127.17)">1</text><text class="cls-9" transform="translate(41.03 126.06)">0</text><text class="cls-7" transform="translate(49.15 113.43)">1</text><text class="cls-8" transform="translate(39.35 110.22)">1</text><text class="cls-8" transform="translate(46.42 96.69)">0</text><text class="cls-10" transform="translate(29.63 140.57)">1</text><text class="cls-7" transform="translate(57.46 110.42)">0</text><text class="cls-7" transform="translate(38.61 141.28)">0</text></g><g id="_Group_3" data-name="&lt;Group&gt;"><line class="cls-11" x1="83.69" y1="179.49" x2="245.69" y2="179.49"/><circle class="cls-12" cx="83.83" cy="179.49" r="2.82"/><circle class="cls-12" cx="245.55" cy="179.49" r="2.82"/></g><circle id="_Ellipse_" data-name="&lt;Ellipse&gt;" class="cls-13" cx="42.99" cy="174.9" r="29.99"/><g id="_Group_4" data-name="&lt;Group&gt;"><g id="_Group_5" data-name="&lt;Group&gt;"><path id="_Path_" data-name="&lt;Path&gt;" class="cls-14" d="M43.24,162.6a26.13,26.13,0,0,1,19.64,8.89L65,169.15A29.33,29.33,0,0,0,21,169.7l2.25,2.24A26.11,26.11,0,0,1,43.24,162.6Z"/></g><g id="_Group_6" data-name="&lt;Group&gt;"><path id="_Path_2" data-name="&lt;Path&gt;" class="cls-14" d="M43.24,170.55a18.22,18.22,0,0,1,14.22,6.82L59.62,175a21.38,21.38,0,0,0-33,.3l2.25,2.24A18.22,18.22,0,0,1,43.24,170.55Z"/></g><g id="_Group_7" data-name="&lt;Group&gt;"><path id="_Path_3" data-name="&lt;Path&gt;" class="cls-14" d="M43.24,178.11a10.7,10.7,0,0,1,9,4.94l2.51-2.74a14.29,14.29,0,0,0-23.08.06l2.62,2.6A10.67,10.67,0,0,1,43.24,178.11Z"/></g><circle id="_Path_4" data-name="&lt;Path&gt;" class="cls-14" cx="43.97" cy="189.17" r="5.22"/></g><g id="_Group_8" data-name="&lt;Group&gt;"><g id="_Group_9" data-name="&lt;Group&gt;"><path id="_Compound_Path_" data-name="&lt;Compound Path&gt;" class="cls-15" d="M195.28,37.2c7.17-.08,12.58,2.85,15.8,9.32,4.95,10-.22,22.07-10.54,24.73a16.49,16.49,0,0,1-4,.44q-33.39,0-66.77,0a22.11,22.11,0,0,1-11.32-2.58c-5.72-3.28-9.23-8.13-9.12-14.83.12-6.87,3.8-11.82,9.89-14.77a5.07,5.07,0,0,0,3.36-4.45c1.58-10.35,7.61-17.35,17.54-20.38,10.16-3.1,19.41-.91,27,6.75a3.45,3.45,0,0,0,3.67,1.14A20.41,20.41,0,0,1,194.69,35.7C194.86,36.19,195.07,36.66,195.28,37.2Z"/></g></g><g id="_Group_10" data-name="&lt;Group&gt;"><circle id="_Ellipse_2" data-name="&lt;Ellipse&gt;" class="cls-13" cx="287.34" cy="174.9" r="29.99"/><g id="_Group_11" data-name="&lt;Group&gt;"><path id="_Compound_Path_2" data-name="&lt;Compound Path&gt;" class="cls-14" d="M271,172l-.22.38a4.71,4.71,0,0,0-.6,2.87c0,.3.15.53.49.53s.4-.24.41-.62a7.42,7.42,0,0,1,.11-1.42,3.57,3.57,0,0,1,1.41-2.09.45.45,0,0,0,.17-.64c-.14-.23-.35-.2-.61-.16a6.1,6.1,0,0,1-1.7.1,5,5,0,0,1-4.18-5,6,6,0,0,1,5.72-6,.48.48,0,0,0,.35-.19,5.24,5.24,0,0,1,5.81-2.35.53.53,0,0,0,.4-.13,7.54,7.54,0,0,1,8.59-1.88.51.51,0,0,0,.42,0,5.28,5.28,0,0,1,3.72-.85,5.48,5.48,0,0,1,2.26.85l-.29.2a6.09,6.09,0,0,0-2.68,5.17c0,.34.2.57.47.53s.41-.23.42-.54a6.45,6.45,0,0,1,.14-1.24,4.67,4.67,0,0,1,3.43-3.72,5.15,5.15,0,0,1,5.82,2.7c.09.18.17.31.42.33a7.08,7.08,0,0,1,6.3,5.85.56.56,0,0,0,.35.45,9.21,9.21,0,0,1,1.29.84,5.71,5.71,0,0,1,1.55,6.54.89.89,0,0,0,0,.58,6.13,6.13,0,0,1-1.87,7.19,11.32,11.32,0,0,1-1.09.71c-.05-.09-.07-.11-.07-.13l0-.22a8.4,8.4,0,0,0-2.73-5.4,8.3,8.3,0,0,0-2.65-1.62.43.43,0,0,0-.63.25c-.11.28,0,.47.3.58l.3.13a7.32,7.32,0,0,1,3,2.32A8.39,8.39,0,0,1,303,188.85a8.26,8.26,0,0,1-5.58,1.33l-.46,0,.71,5.1H292.4c0-.11,0-.19,0-.28a8,8,0,0,0-2-5.23,9,9,0,0,0-7-3.51,7.48,7.48,0,0,1-1.24-.14,7.72,7.72,0,0,1-5.8-4,4.37,4.37,0,0,1-.19-3.8,5.6,5.6,0,0,1,3.32-3.06c.26-.11.34-.24.23-.5s-.31-.45-.6-.32a7.83,7.83,0,0,0-.92.45A5.76,5.76,0,0,0,275,180.7a.37.37,0,0,1,0,.11l-.44-.06a5.88,5.88,0,0,0-1.63-.22,8.42,8.42,0,0,1-9.09-10.69,8.09,8.09,0,0,1,1.57-3c.71,3,2.47,4.78,5.59,5.11C271,172,271,172,271,172Zm25.2,1.92a7.22,7.22,0,0,0,4.19-4.88.66.66,0,0,0,0-.46c-.09-.13-.31-.29-.42-.26a.69.69,0,0,0-.41.39,6.35,6.35,0,0,1-5.12,4.82,6.5,6.5,0,0,1-7.85-6,.78.78,0,0,0,0-.22c-.06-.28-.22-.45-.51-.4s-.38.23-.38.5a7,7,0,0,0,1.82,4.59,6.68,6.68,0,0,0,2.51,1.83,5,5,0,0,1,2,1.63,4.71,4.71,0,0,1,.95,2.63c0,.39.2.58.49.54s.43-.28.4-.59a5.86,5.86,0,0,0-1.15-3.17l-.29-.39A7.55,7.55,0,0,0,296.18,173.93Zm1.08-10c-.3,0-.54.07-.58.41s.19.47.56.49a5.33,5.33,0,0,1,4.67,2.91,5.26,5.26,0,0,1,.63,2.36c0,.39.17.59.46.58s.44-.22.43-.61a6.33,6.33,0,0,0-5.25-6.05c-.25,0-.51-.07-.7-.09ZM302,182.24c.23-.3.23-.56,0-.74s-.47-.11-.72.2a5.12,5.12,0,0,1-4.62,2.12,5.5,5.5,0,0,1-2.39-.79c-.34-.2-.59-.18-.74.06s-.08.5.28.71a6.67,6.67,0,0,0,3.42,1A6.06,6.06,0,0,0,302,182.24Zm-22.24-17.73c.25-.38.23-.63,0-.8s-.47-.06-.72.3a4.74,4.74,0,0,1-6.29,1.67c-.36-.18-.59-.14-.73.12s0,.5.33.69a5.89,5.89,0,0,0,3,.65A5.6,5.6,0,0,0,279.75,164.51Zm6.67-1.37c-.34,0-.56.15-.58.42s.17.46.55.49A3.86,3.86,0,0,1,290,167a6.59,6.59,0,0,1,.1.76c0,.38.2.6.48.56s.43-.27.42-.58c0,0,0-.07,0,0A4.8,4.8,0,0,0,286.42,163.14ZM281,172.58a.74.74,0,0,0,.13.52c.23.26.54.46.78.72a3.55,3.55,0,0,1,.48,4.23c-.19.34-.15.59.1.73s.48,0,.68-.29a4.6,4.6,0,0,0-1.48-6.07,2,2,0,0,0-.35-.15C281.18,172.37,281,172.46,281,172.58Z"/></g></g></svg>