<svg xmlns="http://www.w3.org/2000/svg" width="46.504" height="46.504" viewBox="0 0 46.504 46.504">
    <defs>
        <style>
            .cls-1,.cls-2{fill:#cbcbcb;stroke:#cbcbcb;stroke-width:.5px}.cls-2{fill:#0f95f2;stroke:#0f95f2}
        </style>
    </defs>
    <g id="noun_Wireless_1210449" transform="translate(.248 .25)">
        <path id="Path_14819" d="M40.817 46H5.19A5.194 5.194 0 0 1 0 40.815V5.189A5.2 5.2 0 0 1 5.19 0h35.627a5.2 5.2 0 0 1 5.189 5.188v35.627A5.2 5.2 0 0 1 40.817 46zM5.19 2.156a3.036 3.036 0 0 0-3.032 3.033v35.626a3.036 3.036 0 0 0 3.032 3.033h35.627a3.036 3.036 0 0 0 3.033-3.033V5.189a3.036 3.036 0 0 0-3.033-3.033z" class="cls-1" data-name="Path 14819"/>
        <path id="Path_14820" d="M29.645 35.665a6.02 6.02 0 1 1 6.02-6.02 6.027 6.027 0 0 1-6.02 6.02zm0-9.884a3.864 3.864 0 1 0 3.864 3.864 3.868 3.868 0 0 0-3.864-3.864z" class="cls-2" data-name="Path 14820" transform="translate(-6.642 -6.643)"/>
        <path id="Path_14821" d="M20.2 25.959a1.078 1.078 0 1 0-2.1-.5 19.233 19.233 0 0 0 0 8.945 1.078 1.078 0 0 0 1.047.826 1.135 1.135 0 0 0 .253-.029 1.078 1.078 0 0 0 .8-1.3 17.059 17.059 0 0 1 0-7.942z" class="cls-1" data-name="Path 14821" transform="translate(-4.942 -6.925)"/>
        <path id="Path_14822" d="M14.257 20.22a1.078 1.078 0 0 0-1.3.8 32.978 32.978 0 0 0 0 15.324 1.078 1.078 0 0 0 1.043.823 1.135 1.135 0 0 0 .253-.029 1.078 1.078 0 0 0 .8-1.3 30.83 30.83 0 0 1 0-14.317 1.077 1.077 0 0 0-.796-1.301z" class="cls-1" data-name="Path 14822" transform="translate(-3.389 -5.677)"/>
        <path id="Path_14823" d="M9.166 17.47a1.077 1.077 0 0 0-1.3.8 41.5 41.5 0 0 0 0 19.277 1.078 1.078 0 0 0 1.047.827 1.1 1.1 0 0 0 .253-.029 1.078 1.078 0 0 0 .8-1.3 39.338 39.338 0 0 1 0-18.272 1.077 1.077 0 0 0-.8-1.303z" class="cls-1" data-name="Path 14823" transform="translate(-1.892 -4.904)"/>
        <path id="Path_14824" d="M42.76 25.959a1.078 1.078 0 0 1 2.1-.5 19.233 19.233 0 0 1 0 8.945 1.077 1.077 0 0 1-1.047.826 1.135 1.135 0 0 1-.253-.029 1.078 1.078 0 0 1-.8-1.3 17.059 17.059 0 0 0 0-7.942z" class="cls-1" data-name="Path 14824" transform="translate(-12.015 -6.925)"/>
        <path id="Path_14825" d="M48.558 20.22a1.078 1.078 0 0 1 1.3.8 32.978 32.978 0 0 1 0 15.324 1.077 1.077 0 0 1-1.047.826 1.135 1.135 0 0 1-.253-.029 1.078 1.078 0 0 1-.8-1.3 30.83 30.83 0 0 0 0-14.317 1.077 1.077 0 0 1 .8-1.304z" class="cls-1" data-name="Path 14825" transform="translate(-13.421 -5.677)"/>
        <path id="Path_14826" d="M53.558 17.47a1.077 1.077 0 0 1 1.3.8 41.5 41.5 0 0 1 0 19.277 1.078 1.078 0 0 1-1.047.827 1.1 1.1 0 0 1-.253-.029 1.078 1.078 0 0 1-.8-1.3 39.338 39.338 0 0 0 0-18.272 1.077 1.077 0 0 1 .8-1.303z" class="cls-1" data-name="Path 14826" transform="translate(-14.827 -4.904)"/>
    </g>
</svg>
