<svg xmlns="http://www.w3.org/2000/svg" width="174" height="174" viewBox="0 0 174 174">
    <defs>
        <style>
            .cls-1{fill:#0f81dc}.cls-2{fill:#fff}.cls-3{filter:url(#Path_4102)}
        </style>
        <filter id="Path_4102" width="174" height="174" x="0" y="0" filterUnits="userSpaceOnUse">
            <feOffset dy="3"/>
            <feGaussianBlur result="blur" stdDeviation="5"/>
            <feFlood flood-opacity=".161"/>
            <feComposite in2="blur" operator="in"/>
            <feComposite in="SourceGraphic"/>
        </filter>
    </defs>
    <g id="Cloud_white" transform="translate(-124 -997)">
        <g class="cls-3" transform="translate(124 997)">
            <path id="Path_4102-2" d="M72 0A72 72 0 1 1 0 72 72 72 0 0 1 72 0z" class="cls-1" data-name="Path 4102" transform="translate(15 12)"/>
        </g>
        <g id="noun_Head_In_The_Clouds_495398" data-name="noun_Head In The Clouds_495398" transform="translate(154.548 1035.57)">
            <path id="Path_4099" d="M99.04 53.637a7.056 7.056 0 0 0-2.189.328c-.219-.219-.328-.438-.547-.657a14.414 14.414 0 0 0 .875-4.815 13.918 13.918 0 0 0-13.9-13.9 13.578 13.578 0 0 0-5.469 1.097 23.352 23.352 0 0 0-1.423-4.706H88.1a1.729 1.729 0 0 0 1.751-1.751 1.774 1.774 0 0 0-1.313-1.751c0-.219.109-.547.109-.766a4.308 4.308 0 0 0-4.049-4.268 5.415 5.415 0 0 0-5.034-3.283 5.094 5.094 0 0 0-4.049 1.86 2.41 2.41 0 0 0-.875-.109 4.981 4.981 0 0 0-4.158 2.189 20.769 20.769 0 0 0-22.871-2.3 2.41 2.41 0 0 0-.875-.109c-5.472-.766-10.615 2.845-12.256 4.049-3.174-.985-5.69-.766-7.66.657-2.845 2.079-3.392 6.019-3.5 7.551a10.064 10.064 0 0 0-4.268 8.1 8.918 8.918 0 0 0 .657 3.392 8.947 8.947 0 0 0-8.755 8.864 8.408 8.408 0 0 0 .985 3.94H7.117a2.517 2.517 0 1 0 0 5.034h10.724a7.056 7.056 0 0 0-.328 2.189 6.42 6.42 0 0 0 .438 2.517H17.4a2.407 2.407 0 1 0 0 4.815h20.03a.82.82 0 0 0 .547-.109h5.253c.328 0 .766.109 1.2.109a8.827 8.827 0 0 0 8.87-8.865v-.657h2.626c1.751 2.408 4.6 5.034 8.426 5.034a12.185 12.185 0 0 0 1.86-.219c.219 0 .438-.219.657-.438a11.218 11.218 0 0 0 2.079-4.377h3.392a8.447 8.447 0 0 0-.219 1.641 6.42 6.42 0 0 0 .438 2.517h-.549a2.407 2.407 0 1 0 0 4.815h20.026a.82.82 0 0 0 .547-.109h5.253c.328 0 .766.109 1.2.109a8.809 8.809 0 1 0 0-17.618zm-23.528-30.2A1.013 1.013 0 0 0 76.825 23a3.12 3.12 0 0 1 2.736-1.532 3.073 3.073 0 0 1 3.064 2.517 1.2 1.2 0 0 0 1.313.875 2.08 2.08 0 0 1 2.407 1.97 1.823 1.823 0 0 1-.438 1.2 1.179 1.179 0 0 0-.219.875H74.965a2.821 2.821 0 1 1 .547-5.472zM7.117 60.2a.219.219 0 0 1 0-.438h6.675a.957.957 0 0 0 .985-.657 1 1 0 0 0-.219-1.2 6.33 6.33 0 0 1-1.641-4.268 6.632 6.632 0 0 1 6.675-6.675 3.723 3.723 0 0 1 1.094.109 10.635 10.635 0 0 0 3.283 2.955l1.313.766a20.684 20.684 0 0 0 2.189 2.955 9.294 9.294 0 0 0-2.3 3.721 7.118 7.118 0 0 0-6.238 2.845zm37.316 9.521a3.03 3.03 0 0 1-.985-.109h-5.581a.658.658 0 0 0-.438.109H17.4a.219.219 0 1 1 0-.438h2.407a1.052 1.052 0 0 0 .985-.657 1.215 1.215 0 0 0-.109-1.2 5.038 5.038 0 0 1-.985-2.955 5.147 5.147 0 0 1 6.128-5.034 1.108 1.108 0 0 0 1.313-.875 7.844 7.844 0 0 1 2.079-3.721 8.744 8.744 0 0 0 4.924 1.97 9.577 9.577 0 0 0 5.8-1.751 7.667 7.667 0 0 1 .875 1.094 1.092 1.092 0 0 0 1.313.438 5.715 5.715 0 0 1 2.3-.438 9.578 9.578 0 0 1 1.751.219A8.988 8.988 0 0 0 49.9 59a6.551 6.551 0 0 1 1.2 3.721c-.1 4.048-3.056 7.002-6.667 7.002zM41.7 53.965a11.607 11.607 0 0 0 1.641-1.641c.328.657.657 1.313.985 1.86a7.583 7.583 0 0 0-2.189.328 2.387 2.387 0 0 1-.437-.547zM52.75 60.2c-.109-.219-.109-.438-.219-.657a6.4 6.4 0 0 0 1.423-.219 6.5 6.5 0 0 1 .438.875zm-2.3-2.955c-1.97-.657-3.83-2.845-5.581-6.785l1.531-2.076a7.06 7.06 0 0 0 4.815-1.97 1.086 1.086 0 1 0-1.415-1.641 5.089 5.089 0 0 1-6.238.657 1.108 1.108 0 1 0-1.2 1.86 6.468 6.468 0 0 0 1.532.657l-1.641 2.407c-1.2 1.423-4.377 4.6-7.989 4.487-2.517-.109-4.924-1.97-7.113-5.472-.328-1.313-.985-3.392-1.094-3.94a1.116 1.116 0 0 0-2.189.438c.109.328.219.985.438 1.751a7.672 7.672 0 0 1-3.174-6.238 7.568 7.568 0 0 1 2.626-5.69A4.877 4.877 0 0 0 26.6 38.1a5.087 5.087 0 0 0-.547 2.3 1.094 1.094 0 1 0 2.189 0 2.6 2.6 0 0 1 2.189-2.736 1.135 1.135 0 0 0 .875-1.313 1.059 1.059 0 0 0-1.313-.875 6.4 6.4 0 0 0-1.641.657c-.109 0-.219-.109-.328-.109a2.818 2.818 0 0 1-2.736-2.3c0-.657.219-4.6 2.517-6.238 1.423-.985 3.5-1.094 6.238-.109a5.059 5.059 0 0 1 2.407 2.3 1.149 1.149 0 0 0 .985.547.82.82 0 0 0 .547-.109 1.076 1.076 0 0 0 .328-1.532 7.251 7.251 0 0 0-2.079-2.3c1.97-1.313 5.8-3.5 9.739-2.955a9.149 9.149 0 0 1 5.576 3.172 5.777 5.777 0 0 0-2.517 1.532 12.583 12.583 0 0 0-2.955.109 1.075 1.075 0 0 0 .547 2.079 6.458 6.458 0 0 1 2.407-.109.382.382 0 0 1 .219.109h.219a2.519 2.519 0 0 1 1.423 1.2 1.052 1.052 0 0 0 .985.657.658.658 0 0 0 .438-.109 1.138 1.138 0 0 0 .657-1.423 4.221 4.221 0 0 0-1.423-1.86 16.381 16.381 0 0 1 2.189-.766h.109a4.739 4.739 0 0 1 .547-.109h.219c2.189-.438 6.238-.766 8.426 1.2 1.532 1.313 1.97 3.611 1.532 6.675 0 .109-.547 1.97-3.721 3.611a1.216 1.216 0 0 0-.547 1.532 1.052 1.052 0 0 0 .985.657.658.658 0 0 0 .438-.109 9.248 9.248 0 0 0 4.158-3.5c2.3 2.408 5.581 6.785 4.6 10.287-.657 2.189-3.064 3.94-7.113 5.034a7.615 7.615 0 0 0 .985-2.189 1.125 1.125 0 0 0-.766-1.313 1 1 0 0 0-1.313.766 7.836 7.836 0 0 1-2.736 3.721c-3.286 1.972-6.46 3.832-9.086 3.066zm14.883 7.879c-4.924.657-8.1-4.377-9.192-6.566a54.583 54.583 0 0 0 4.815-2.626 28.134 28.134 0 0 0 4.815-1.2 4.59 4.59 0 0 1 .109 2.736 4.014 4.014 0 0 1-2.407 2.189 1.138 1.138 0 0 0-.657 1.423 1.052 1.052 0 0 0 .985.657.658.658 0 0 0 .438-.109 6.519 6.519 0 0 0 2.407-1.532c.109.219.219.328.219.547a8.144 8.144 0 0 1-1.53 4.484zm3.613-4.924a5.555 5.555 0 0 0-.985-1.97 6.9 6.9 0 0 0-.109-4.268C70.7 52.652 72.448 50.9 73.1 48.6c1.532-5.472-4.268-11.6-5.909-13.241.438-3.611-.328-6.456-2.3-8.207-3.174-2.845-8.536-2.079-10.505-1.641a12.836 12.836 0 0 0-3.83-3.5 17.436 17.436 0 0 1 6.79-1.311 18.467 18.467 0 0 1 12.366 4.7v.547a4.961 4.961 0 0 0 4.268 4.924 18.487 18.487 0 0 1 1.97 6.456 1.116 1.116 0 0 0 .547.875 1.277 1.277 0 0 0 1.094 0A11.717 11.717 0 0 1 95.1 48.384a14.8 14.8 0 0 1-.438 3.174 9.244 9.244 0 0 0-5.472-1.641A9.764 9.764 0 0 0 80 56.592a7.656 7.656 0 0 0-6.675 3.5zm30.094 8.976a3.03 3.03 0 0 1-.985-.109h-5.581a.658.658 0 0 0-.438.109H72.01a.219.219 0 0 1 0-.438h2.407a1.052 1.052 0 0 0 .985-.657 1.215 1.215 0 0 0-.109-1.2 5.038 5.038 0 0 1-.985-2.955 5.147 5.147 0 0 1 6.128-5.034 1.108 1.108 0 0 0 1.313-.875 7.6 7.6 0 0 1 7.332-5.917 7.212 7.212 0 0 1 6.347 3.611 1.092 1.092 0 0 0 1.313.438 5.715 5.715 0 0 1 2.3-.438 6.73 6.73 0 0 1 0 13.46z" class="cls-2" data-name="Path 4099"/>
            <path id="Path_4100" d="M36.364 34.1a4.7 4.7 0 0 0-1.2-1.97 1.083 1.083 0 0 0-1.532 1.532 6.416 6.416 0 0 1 1.094 4.487 1.114 1.114 0 0 0 .985 1.2h.109a1.08 1.08 0 0 0 1.094-.985 13.169 13.169 0 0 0 0-2.079c2.517.109 3.611 3.064 3.721 3.174a1.087 1.087 0 0 0 1.094.766.4.4 0 0 0 .328-.109 1.138 1.138 0 0 0 .657-1.423c-.769-1.75-2.848-4.814-6.35-4.593z" class="cls-2" data-name="Path 4100" transform="translate(2.707 1.264)"/>
            <path id="Path_4101" d="M33.059 43.148a1.108 1.108 0 1 0-1.86-1.2c-.985 1.532-2.079 4.706.219 6.566a.8.8 0 0 0 .657.219 1 1 0 0 0 .875-.438 1.057 1.057 0 0 0-.109-1.532c-1.314-1.098.218-3.615.218-3.615z" class="cls-2" data-name="Path 4101" transform="translate(2.401 2.172)"/>
        </g>
    </g>
</svg>
