<svg xmlns="http://www.w3.org/2000/svg" viewBox="0 0 559.28 475.52"><defs><style>.cls-1{isolation:isolate;}.cls-2{fill:#fff;}.cls-3,.cls-4{fill:none;stroke:#fff;stroke-miterlimit:10;mix-blend-mode:color-dodge;}.cls-3{stroke-width:0.5px;}.cls-4{stroke-width:0.75px;}</style></defs><title>Brain White no BG</title><g class="cls-1"><g id="Dots"><path id="_Compound_Path_" data-name="&lt;Compound Path&gt;" class="cls-2" d="M167.85,103.09l-.51-.4-30.5-25.41.37-.28,35.73-25.82-.08.79ZM138,77.32l29.31,24.4,4.81-49Z"/><polygon id="_Path_" data-name="&lt;Path&gt;" class="cls-2" points="353.85 85.33 313.54 1.95 354.25 10.86 392.54 24.92 392.3 25.57 354.05 11.53 314.79 2.94 354.49 85.03 353.85 85.33"/><path id="_Compound_Path_2" data-name="&lt;Compound Path&gt;" class="cls-2" d="M237.33,102.74H166.8l.49-.57L257.62,1.26l-.26,1.25Zm-69-.68h68.42L256.44,3.61Z"/><path id="_Compound_Path_3" data-name="&lt;Compound Path&gt;" class="cls-2" d="M166.42,150,90.15,76.49l1.44.47,76.33,25.2v.25ZM92.81,78.1l73,70.33,1.43-45.77Z"/><path id="_Compound_Path_4" data-name="&lt;Compound Path&gt;" class="cls-2" d="M243.86,216.37l-1.17-.17-98.3-13,.16-.42L166,148.62l.35.35Zm-98.49-13.78,96.28,12.78-75.42-65.56Z"/><path id="_Compound_Path_5" data-name="&lt;Compound Path&gt;" class="cls-2" d="M309,238.58l-1-.32-65.82-22.21.22-.36,23.33-41.48.32.47Zm-65.75-22.92,64,21.61-41.45-61.73Z"/><path id="_Compound_Path_6" data-name="&lt;Compound Path&gt;" class="cls-2" d="M163.27,373.31l-8.91-98.77.68.66L207.79,327l-.23.23Zm-8-96.94,8.61,95.37,43-44.71Z"/><path id="_Compound_Path_7" data-name="&lt;Compound Path&gt;" class="cls-2" d="M436.37,184.34l-.46-.14-29.15-9.11.14-.35,29.47-70.17Zm-28.69-9.69,28,8.77V108Z"/><path id="_Compound_Path_8" data-name="&lt;Compound Path&gt;" class="cls-2" d="M492.24,281.64l-1-1.69-55.74-96.22.32-.18,36.08-18.14.05.44ZM436.51,184l54.38,93.86L471.38,166.44Z"/><path id="_Compound_Path_9" data-name="&lt;Compound Path&gt;" class="cls-2" d="M136.92,78.08,147.38,18.7l.46.62L173,52Zm10.87-57.73L137.9,76.51,172,51.86Z"/><path id="_Compound_Path_10" data-name="&lt;Compound Path&gt;" class="cls-2" d="M45.54,181.34V86.52l.28,0L92.07,76.8l-.27.64Zm.68-94.26v91L90.88,77.78Z"/><path id="_Compound_Path_11" data-name="&lt;Compound Path&gt;" class="cls-2" d="M89.53,297.72l-.92-.68L45.54,265.68V177.74l.67,1.83ZM46.22,265.34l41.89,30.48L46.22,181.65Z"/><path id="_Compound_Path_12" data-name="&lt;Compound Path&gt;" class="cls-2" d="M300.66,286.15l2.09-.74,133.89-48.09-.3.75-18.54,44-.23,0Zm134.73-47.62L305.06,285.31l112.28-3.88Z"/><path id="_Compound_Path_13" data-name="&lt;Compound Path&gt;" class="cls-2" d="M169.18,103.3l-1.73-.56L89.32,76.94h48.21l.1.08ZM93.65,77.64l72.28,23.85L137.27,77.64Z"/><path id="_Compound_Path_14" data-name="&lt;Compound Path&gt;" class="cls-2" d="M236.58,103l.14-.64L256.93,1.23l.43,1.07,32.08,79.08-.32.13ZM257.15,3.64l-19.64,98.2,51-20.84Z"/><polygon id="_Path_2" data-name="&lt;Path&gt;" class="cls-2" points="407.58 174.94 406.87 174.82 426.97 43.76 427.68 43.88 407.58 174.94"/><path id="_Compound_Path_15" data-name="&lt;Compound Path&gt;" class="cls-2" d="M165.71,149.87l0-.67,1.47-47.14h71.06Zm2.19-47.13-1.42,45.83L236,102.74Z"/><path id="_Compound_Path_16" data-name="&lt;Compound Path&gt;" class="cls-2" d="M242.84,216.42l-.31-.3-77.77-67.61,101.57,26.14-.22.4Zm-75.4-66.5,75.2,65.4,22.64-40.22Z"/><path id="_Compound_Path_17" data-name="&lt;Compound Path&gt;" class="cls-2" d="M350.46,130.37,350,130,287.89,80.77l66.66,4.1,0,.35ZM290.05,81.61,349.88,129l3.91-43.5Z"/><path id="_Compound_Path_18" data-name="&lt;Compound Path&gt;" class="cls-2" d="M265.63,175.38l-.14-.39L236.56,101.9l.65.16,114,27.49-.82.44ZM237.7,102.9,266,174.37l83.2-44.56Z"/><polygon id="_Path_3" data-name="&lt;Path&gt;" class="cls-2" points="88.92 297.09 88.71 296.43 154.69 275.12 154.9 275.77 88.92 297.09"/><path id="_Compound_Path_19" data-name="&lt;Compound Path&gt;" class="cls-2" d="M162.52,373.1l44.73-46.52.24.15,45.88,27.46-.9.18Zm44.84-45.64L164.59,372l86.88-18.09Z"/><path id="_Compound_Path_20" data-name="&lt;Compound Path&gt;" class="cls-2" d="M466.44,304.92l-.22-.45-31.09-67.65,57,42.92-.28.27ZM436.9,239.05l29.76,64.67L491,279.79Z"/><path id="_Compound_Path_21" data-name="&lt;Compound Path&gt;" class="cls-2" d="M491.38,280.66l-.16-.84-20-114.48.6.26,74.83,34.14-.23.35ZM472.1,166.52l19.65,112.35L545.58,200Z"/><path id="_Compound_Path_22" data-name="&lt;Compound Path&gt;" class="cls-2" d="M471.6,166.49l-.24-.38-36.08-60.34.82.2,73.43,18-.38.42Zm-34.85-59.65,35,58.5,36.53-41Z"/><polygon id="_Path_4" data-name="&lt;Path&gt;" class="cls-2" points="557.29 264.25 545.78 200 508.6 124.31 457.8 66.69 436.31 106.46 435.7 106.14 457.69 65.5 458 65.85 509.19 123.97 546.45 199.84 557.95 264.14 557.29 264.25"/><polygon id="_Path_5" data-name="&lt;Path&gt;" class="cls-2" points="46.22 293.13 45.57 291.66 3.7 199.96 4.34 199.66 45.54 289.94 45.54 265.5 46.22 265.5 46.22 293.13"/><path id="_Compound_Path_23" data-name="&lt;Compound Path&gt;" class="cls-2" d="M3.52,200.07l.17-.68L19,130.84l0-.07.09-.16L45.71,86.52,147.53,19.19,257,2.1h57.18v.69L257,2.77,147.7,19.85,46.14,87.05,19.78,130.8l26.58,49.06L46,180Zm16-68.3-15,67.07,40.9-19.3Z"/><path id="_Compound_Path_24" data-name="&lt;Compound Path&gt;" class="cls-2" d="M252.5,354.49l-.26-.16L206.54,327l.63-.27,96.75-41.8-.79,1Zm-44.44-27.41,44.26,26.49,49.5-67Z"/><path id="_Compound_Path_25" data-name="&lt;Compound Path&gt;" class="cls-2" d="M385.76,331.86l-.27-.16-83.9-46.26,1.24,0,115.39-4-.36.55ZM304.14,286l81.41,44.9,31.37-48.79Z"/><path id="_Compound_Path_26" data-name="&lt;Compound Path&gt;" class="cls-2" d="M167.1,103.43l.11-1.07,5-50.63.16-.08L258.78,1Zm5.76-51.28L168,101.38,255.3,3.85Z"/><path id="_Compound_Path_27" data-name="&lt;Compound Path&gt;" class="cls-2" d="M355.18,85.59l-1-.06-65.41-4-.08-.2-32.46-80Zm-66-4.74,63.93,3.92L257.89,3.61Z"/><path id="_Compound_Path_28" data-name="&lt;Compound Path&gt;" class="cls-2" d="M145.69,203.41l-.89-.21L45,179.86,102,140.59l.21.29ZM46.74,179.54l97.35,22.78L101.8,141.54Z"/><path id="_Compound_Path_29" data-name="&lt;Compound Path&gt;" class="cls-2" d="M167.09,149.69l-1-.13-64.49-8.18,0-.26L91,76.31l.76.73Zm-64.91-8.93,62.92,8L92,78.25Z"/><path id="_Compound_Path_30" data-name="&lt;Compound Path&gt;" class="cls-2" d="M351.63,130.39,236,102.48l53-21.69.16.14ZM238.27,102.31,348.73,129l-59.8-47.4Z"/><path id="_Compound_Path_31" data-name="&lt;Compound Path&gt;" class="cls-2" d="M266.39,175.38l-.67-.17L165.25,149.35l.65-.43,71.39-47,.16.41Zm-99.45-26.3,98.3,25.29L237,102.93Z"/><polygon id="_Path_6" data-name="&lt;Path&gt;" class="cls-2" points="353.82 86.38 353.82 11.2 354.51 11.2 354.51 84 392.3 24.78 392.58 24.95 427.49 43.5 457.95 65.83 457.54 66.38 427.12 44.09 392.54 25.71 353.82 86.38"/><polygon id="_Path_7" data-name="&lt;Path&gt;" class="cls-2" points="435.66 106.35 427.05 44.37 354.34 85.48 354.01 84.89 427.6 43.27 427.68 43.77 436.37 106.25 435.66 106.35"/><path id="_Compound_Path_32" data-name="&lt;Compound Path&gt;" class="cls-2" d="M164,373.72l-26.79-35.79,0-.16L155,273.52l.19,1.88ZM138,337.8l25.13,33.53-8.48-93.94Z"/><path id="_Compound_Path_33" data-name="&lt;Compound Path&gt;" class="cls-2" d="M443.19,351.33l-.82-2.18-25.18-67.38,19.07-45.35.11,1.49ZM418,281.79l24.26,64.94-6.44-107.3Z"/><polygon id="_Path_8" data-name="&lt;Path&gt;" class="cls-2" points="409.83 474.84 408.92 473.48 324.47 336.92 325.05 336.52 408.58 471.74 385.22 330.9 385.75 331.07 442.81 348.7 491.52 358.46 532.98 340.65 490.53 278.87 491.71 279.45 550.39 307.99 550.09 308.62 492.6 280.65 534.02 340.94 533.64 341.11 491.61 359.16 491.48 359.13 442.63 349.36 386.09 331.92 409.83 474.84"/><path id="_Compound_Path_34" data-name="&lt;Compound Path&gt;" class="cls-2" d="M492.73,281.07l-57.07-43V182.57l.65,1.13Zm-56.36-43.33,54,40.72-54-93.31Z"/><path id="_Compound_Path_35" data-name="&lt;Compound Path&gt;" class="cls-2" d="M435.66,184.43V105l36.48,61-.34.18Zm.71-76.85v75.73l34.8-17.54Z"/><polygon id="_Path_9" data-name="&lt;Path&gt;" class="cls-2" points="491.92 360.38 491.24 358.94 466.52 305.11 443 349.19 442.4 348.87 466.56 303.53 466.86 304.17 491.21 357.22 491.21 279.48 491.48 279.42 558.06 263.74 557.95 264.25 550.56 308.48 533.82 340.96 533.18 340.64 549.91 308.2 557.19 264.66 491.92 280.04 491.92 360.38"/><path id="_Compound_Path_36" data-name="&lt;Compound Path&gt;" class="cls-2" d="M137.71,77.64H90.66l.57-.6,56.91-58.56Zm-45.41-.7h44.81L147,20.59Z"/><path id="_Compound_Path_37" data-name="&lt;Compound Path&gt;" class="cls-2" d="M46.22,266.7l-.62-1L3.51,199.31l.35-.18,42.36-20ZM4.53,199.61l41,64.7V180.24Z"/><path id="_Compound_Path_38" data-name="&lt;Compound Path&gt;" class="cls-2" d="M408.47,176.31,407,175.14l-57.18-45.29v-.19l4.1-45.58Zm-57.94-46.79L406,173.45,354.43,86.29Z"/><polygon id="_Path_10" data-name="&lt;Path&gt;" class="cls-2" points="88.77 297.12 45.84 291.88 45.92 291.17 88.86 296.43 88.77 297.12"/><polygon id="_Path_11" data-name="&lt;Path&gt;" class="cls-2" points="89.03 297.04 88.6 296.5 152.24 245.25 144.53 202.92 145.22 202.81 153 245.54 152.85 245.66 89.03 297.04"/><path id="_Compound_Path_39" data-name="&lt;Compound Path&gt;" class="cls-2" d="M154.5,276.07l0-.6-2.16-29.88L45.88,180.45l.36-.59L152.68,245l92.11-30.38-2,1.38ZM153,245.62l2.09,29.2,85.21-58Z"/><polygon id="_Path_12" data-name="&lt;Path&gt;" class="cls-2" points="207.63 327.14 206.98 326.92 242.42 215.03 242.82 215.5 303.13 285.51 302.59 285.96 242.69 216.42 207.63 327.14"/><polygon id="_Path_13" data-name="&lt;Path&gt;" class="cls-2" points="308.33 238.23 307.97 237.63 406.57 174.21 406.95 174.79 308.33 238.23"/><polygon id="_Path_14" data-name="&lt;Path&gt;" class="cls-2" points="252.5 354.37 252.34 353.69 324.27 336.48 302.51 285.79 302.52 285.69 307.81 237.88 308.49 237.97 303.21 285.69 325.25 336.97 324.84 337.05 252.5 354.37"/><polygon id="_Path_15" data-name="&lt;Path&gt;" class="cls-2" points="436.56 238.28 307.62 238.28 307.83 237.77 333.18 183.73 349.85 129.58 350.51 129.79 333.83 183.99 308.69 237.58 435.47 237.58 406.9 175.02 407.55 174.74 436.56 238.28"/><path id="_Path_16" data-name="&lt;Path&gt;" class="cls-2" d="M333.75,184.26l-.3,0-67.69-9,.1-.68,67.7,9c1.25-.4,7.28-1.33,36.61-4.94,18.07-2.24,36.37-4.4,36.54-4.43l.09.7c-19.5,2.3-70,8.42-73,9.27Z"/><rect id="_Path_17" data-name="&lt;Path&gt;" class="cls-2" x="358.34" y="349.64" width="39.96" height="0.7" transform="translate(-86.49 572.64) rotate(-68.37)"/><polygon id="_Path_18" data-name="&lt;Path&gt;" class="cls-2" points="408.88 473.43 370.7 368.83 324.55 337 324.95 336.43 371.29 368.36 371.31 368.45 409.53 473.16 408.88 473.43"/><rect id="_Path_19" data-name="&lt;Path&gt;" class="cls-2" x="336.57" y="273.53" width="0.7" height="107.26" transform="translate(-131.11 288.45) rotate(-39.43)"/><polyline id="_Path_20" data-name="&lt;Path&gt;" class="cls-3" points="137.69 338.68 103.28 320.08 45.71 292.34"/><polyline id="_Path_21" data-name="&lt;Path&gt;" class="cls-3" points="88.17 297.32 103.58 320.47 156.01 275.68"/><polyline id="_Path_22" data-name="&lt;Path&gt;" class="cls-4" points="163.48 372.8 302.04 398.14 409.32 474.09"/><polyline id="_Path_23" data-name="&lt;Path&gt;" class="cls-4" points="252.52 354.81 302.75 398.76 324.55 337"/><polyline id="_Path_24" data-name="&lt;Path&gt;" class="cls-4" points="409.21 474.99 433.54 393.64 490.17 359.34"/><polyline id="_Path_25" data-name="&lt;Path&gt;" class="cls-4" points="442.4 348.87 433.54 393.64 385.77 332.18"/><g id="_Group_" data-name="&lt;Group&gt;"><path id="_Path_26" data-name="&lt;Path&gt;" class="cls-2" d="M438.48,238.14a2.83,2.83,0,0,1-5.66,0,2.83,2.83,0,1,1,5.66,0Z"/><path id="_Path_27" data-name="&lt;Path&gt;" class="cls-2" d="M420.77,282a3.55,3.55,0,1,1-3.54-3.59A3.55,3.55,0,0,1,420.77,282Z"/><path id="_Path_28" data-name="&lt;Path&gt;" class="cls-2" d="M387.32,331.61a2,2,0,1,1-2-2A2,2,0,0,1,387.32,331.61Z"/><path id="_Path_29" data-name="&lt;Path&gt;" class="cls-2" d="M450.05,349.77a7.7,7.7,0,1,1-7.69-7.75A7.75,7.75,0,0,1,450.05,349.77Z"/><path id="_Path_30" data-name="&lt;Path&gt;" class="cls-2" d="M493.58,359a2.38,2.38,0,0,1-4.75,0,2.38,2.38,0,1,1,4.75,0Z"/><path id="_Path_31" data-name="&lt;Path&gt;" class="cls-2" d="M468.34,304.53a2,2,0,1,1-2-2A2,2,0,0,1,468.34,304.53Z"/><path id="_Path_32" data-name="&lt;Path&gt;" class="cls-2" d="M537.09,340.79a3.85,3.85,0,1,1-3.85-3.89A3.87,3.87,0,0,1,537.09,340.79Z"/><ellipse id="_Path_33" data-name="&lt;Path&gt;" class="cls-2" cx="549.88" cy="308.41" rx="2.01" ry="2.02"/><path id="_Path_34" data-name="&lt;Path&gt;" class="cls-2" d="M559.28,264.4a2,2,0,0,1-4,0,2,2,0,1,1,4,0Z"/><path id="_Path_35" data-name="&lt;Path&gt;" class="cls-2" d="M494.67,280a3.47,3.47,0,1,1-3.46-3.47A3.49,3.49,0,0,1,494.67,280Z"/><path id="_Path_36" data-name="&lt;Path&gt;" class="cls-2" d="M548.67,200.42a2.92,2.92,0,1,1-2.92-2.93A2.95,2.95,0,0,1,548.67,200.42Z"/><path id="_Path_37" data-name="&lt;Path&gt;" class="cls-2" d="M473.74,166.13a2.44,2.44,0,1,1-2.44-2.43A2.43,2.43,0,0,1,473.74,166.13Z"/><path id="_Path_38" data-name="&lt;Path&gt;" class="cls-2" d="M512.73,124.41a4.21,4.21,0,1,1-4.23-4.18A4.17,4.17,0,0,1,512.73,124.41Z"/><path id="_Path_39" data-name="&lt;Path&gt;" class="cls-2" d="M439.64,184a3.46,3.46,0,1,1-3.45-3.5A3.46,3.46,0,0,1,439.64,184Z"/><path id="_Path_40" data-name="&lt;Path&gt;" class="cls-2" d="M439.54,106.5a3.89,3.89,0,1,1-3.88-3.87A3.85,3.85,0,0,1,439.54,106.5Z"/><path id="_Path_41" data-name="&lt;Path&gt;" class="cls-2" d="M462.3,66.4a4.91,4.91,0,0,1-9.82,0,4.91,4.91,0,1,1,9.82,0Z"/><path id="_Path_42" data-name="&lt;Path&gt;" class="cls-2" d="M429,44.44a2,2,0,1,1-2-2A2,2,0,0,1,429,44.44Z"/><path id="_Path_43" data-name="&lt;Path&gt;" class="cls-2" d="M409.53,175.1a2.67,2.67,0,0,1-5.34,0,2.67,2.67,0,1,1,5.34,0Z"/><path id="_Path_44" data-name="&lt;Path&gt;" class="cls-2" d="M357.68,84.88A3.87,3.87,0,1,1,353.82,81,3.84,3.84,0,0,1,357.68,84.88Z"/><circle id="_Path_45" data-name="&lt;Path&gt;" class="cls-2" cx="392.07" cy="25.5" r="3.75"/><path id="_Path_46" data-name="&lt;Path&gt;" class="cls-2" d="M357.71,12a3.91,3.91,0,0,1-7.81,0,3.91,3.91,0,1,1,7.81,0Z"/><path id="_Path_47" data-name="&lt;Path&gt;" class="cls-2" d="M316.41,2.83A2.51,2.51,0,1,1,313.9.33,2.51,2.51,0,0,1,316.41,2.83Z"/><path id="_Path_48" data-name="&lt;Path&gt;" class="cls-2" d="M259.33,2.63A2.65,2.65,0,1,1,256.68,0,2.64,2.64,0,0,1,259.33,2.63Z"/><path id="_Path_49" data-name="&lt;Path&gt;" class="cls-2" d="M293.17,81.42a4.55,4.55,0,1,1-4.55-4.61A4.56,4.56,0,0,1,293.17,81.42Z"/><path id="_Path_50" data-name="&lt;Path&gt;" class="cls-2" d="M243.47,102.65a6.72,6.72,0,1,1-13.43,0,6.72,6.72,0,1,1,13.43,0Z"/><path id="_Path_51" data-name="&lt;Path&gt;" class="cls-2" d="M170.89,102.63a3.69,3.69,0,1,1-3.68-3.73A3.68,3.68,0,0,1,170.89,102.63Z"/><path id="_Path_52" data-name="&lt;Path&gt;" class="cls-2" d="M176.54,51.79a4.69,4.69,0,1,1-4.71-4.67A4.67,4.67,0,0,1,176.54,51.79Z"/><path id="_Path_53" data-name="&lt;Path&gt;" class="cls-2" d="M150.41,20.07A3.42,3.42,0,1,1,147,16.62,3.4,3.4,0,0,1,150.41,20.07Z"/><path id="_Path_54" data-name="&lt;Path&gt;" class="cls-2" d="M141,77.4a4,4,0,1,1-4-4A4,4,0,0,1,141,77.4Z"/><path id="_Path_55" data-name="&lt;Path&gt;" class="cls-2" d="M94.22,77.46a2.93,2.93,0,1,1-2.93-3A2.93,2.93,0,0,1,94.22,77.46Z"/><path id="_Path_56" data-name="&lt;Path&gt;" class="cls-2" d="M48.5,87a3,3,0,1,1-3-3A3,3,0,0,1,48.5,87Z"/><path id="_Path_57" data-name="&lt;Path&gt;" class="cls-2" d="M49.36,179.6a3.75,3.75,0,1,1-7.49,0,3.75,3.75,0,0,1,7.49,0Z"/><path id="_Path_58" data-name="&lt;Path&gt;" class="cls-2" d="M21.81,132a2.87,2.87,0,0,1-5.74,0,2.87,2.87,0,1,1,5.74,0Z"/><path id="_Path_59" data-name="&lt;Path&gt;" class="cls-2" d="M7.31,200a3.66,3.66,0,1,1-3.66-3.68A3.65,3.65,0,0,1,7.31,200Z"/><path id="_Path_60" data-name="&lt;Path&gt;" class="cls-2" d="M47.89,291.22a2.36,2.36,0,1,1-2.35-2.38A2.38,2.38,0,0,1,47.89,291.22Z"/><path id="_Path_61" data-name="&lt;Path&gt;" class="cls-2" d="M52.63,265.69a6.92,6.92,0,1,1-7-6.89A6.94,6.94,0,0,1,52.63,265.69Z"/><path id="_Path_62" data-name="&lt;Path&gt;" class="cls-2" d="M91.39,296.9a2.8,2.8,0,1,1-2.79-2.81A2.8,2.8,0,0,1,91.39,296.9Z"/><path id="_Path_63" data-name="&lt;Path&gt;" class="cls-2" d="M158.47,275.65a4,4,0,1,1-4-4A4,4,0,0,1,158.47,275.65Z"/><path id="_Path_64" data-name="&lt;Path&gt;" class="cls-2" d="M142.73,338.13a5.5,5.5,0,0,1-11,0,5.5,5.5,0,1,1,11,0Z"/><path id="_Path_65" data-name="&lt;Path&gt;" class="cls-2" d="M307.07,397.58a5.5,5.5,0,0,1-11,0,5.5,5.5,0,1,1,11,0Z"/><path id="_Path_66" data-name="&lt;Path&gt;" class="cls-2" d="M436.87,393.08a3.55,3.55,0,0,1-7.1,0,3.55,3.55,0,1,1,7.1,0Z"/><path id="_Path_67" data-name="&lt;Path&gt;" class="cls-2" d="M165,372.21a2,2,0,1,1-4,0,2,2,0,1,1,4,0Z"/><path id="_Path_68" data-name="&lt;Path&gt;" class="cls-2" d="M210.42,327.27a3.48,3.48,0,1,1-3.48-3.51A3.48,3.48,0,0,1,210.42,327.27Z"/><path id="_Path_69" data-name="&lt;Path&gt;" class="cls-2" d="M106.66,319.92a3.48,3.48,0,1,1-3.48-3.52A3.49,3.49,0,0,1,106.66,319.92Z"/><path id="_Path_70" data-name="&lt;Path&gt;" class="cls-2" d="M255.31,354.23a3.26,3.26,0,1,1-3.25-3.27A3.25,3.25,0,0,1,255.31,354.23Z"/><path id="_Path_71" data-name="&lt;Path&gt;" class="cls-2" d="M308.24,285.94a5.73,5.73,0,1,1-5.74-5.73A5.76,5.76,0,0,1,308.24,285.94Z"/><path id="_Path_72" data-name="&lt;Path&gt;" class="cls-2" d="M328.57,336.94a4.17,4.17,0,1,1-4.17-4.18A4.16,4.16,0,0,1,328.57,336.94Z"/><path id="_Path_73" data-name="&lt;Path&gt;" class="cls-2" d="M375.22,368.39a4.57,4.57,0,1,1-4.58-4.59A4.55,4.55,0,0,1,375.22,368.39Z"/><path id="_Path_74" data-name="&lt;Path&gt;" class="cls-2" d="M311.88,238.17a4.09,4.09,0,1,1-4.08-4.11A4.06,4.06,0,0,1,311.88,238.17Z"/><path id="_Path_75" data-name="&lt;Path&gt;" class="cls-2" d="M268.81,175.11a3.36,3.36,0,1,1-3.36-3.4A3.35,3.35,0,0,1,268.81,175.11Z"/><path id="_Path_76" data-name="&lt;Path&gt;" class="cls-2" d="M335.11,184a2,2,0,0,1-2,2,2,2,0,1,1,2-2Z"/><path id="_Path_77" data-name="&lt;Path&gt;" class="cls-2" d="M353.53,130.25a3.71,3.71,0,1,1-3.71-3.73A3.7,3.7,0,0,1,353.53,130.25Z"/><path id="_Path_78" data-name="&lt;Path&gt;" class="cls-2" d="M169.25,149.44a3.52,3.52,0,1,1-7,0,3.52,3.52,0,1,1,7,0Z"/><path id="_Path_79" data-name="&lt;Path&gt;" class="cls-2" d="M104.81,141.29a3.12,3.12,0,1,1-3.11-3.12A3.11,3.11,0,0,1,104.81,141.29Z"/><path id="_Path_80" data-name="&lt;Path&gt;" class="cls-2" d="M153.2,203a8.69,8.69,0,1,1-8.69-8.69A8.74,8.74,0,0,1,153.2,203Z"/><path id="_Path_81" data-name="&lt;Path&gt;" class="cls-2" d="M244.46,216.08a2.26,2.26,0,1,1-2.26-2.25A2.25,2.25,0,0,1,244.46,216.08Z"/><path id="_Path_82" data-name="&lt;Path&gt;" class="cls-2" d="M154.25,245.69a2,2,0,1,1-2-2A2,2,0,0,1,154.25,245.69Z"/><path id="_Path_83" data-name="&lt;Path&gt;" class="cls-2" d="M410.87,473.51a2,2,0,1,1-2-2A2,2,0,0,1,410.87,473.51Z"/></g></g></g></svg>