<svg id="power-button-outline" xmlns="http://www.w3.org/2000/svg" width="430.104" height="430.105" viewBox="0 0 430.104 430.105">
  <g id="Group_3033" data-name="Group 3033">
    <path id="Path_16358" data-name="Path 16358" d="M430.1,215.052C430.1,96.473,333.632,0,215.052,0S0,96.473,0,215.052,96.473,430.1,215.052,430.1,430.1,333.64,430.1,215.052Zm-193.934-.329a20.4,20.4,0,0,1-40.808,0V108.583a20.4,20.4,0,1,1,40.808,0Zm117.748.684c0,76.567-62.291,138.849-138.867,138.849S76.186,291.974,76.186,215.408a137.886,137.886,0,0,1,40.722-98.231,20.409,20.409,0,1,1,28.846,28.88,98.028,98.028,0,1,0,138.633.026,20.415,20.415,0,0,1,28.88-28.863A138.046,138.046,0,0,1,353.919,215.408Z" fill="#fff"/>
  </g>
</svg>
